<?xml version="1.0" standalone="no"?> 
<!DOCTYPE svg PUBLIC "-//W3C//DTD SVG 1.1//EN" "http://www.w3.org/Graphics/SVG/1.1/DTD/svg11.dtd" >
<svg xmlns="http://www.w3.org/2000/svg">
<defs>
  <font id="NICE Icons" horiz-adv-x="4616">
    <font-face font-family="NICE Icons"
      units-per-em="512" ascent="448"
      descent="64" />
    <missing-glyph horiz-adv-x="0" />
    <glyph glyph-name="android"
      unicode="&#xF17B;"
      horiz-adv-x="512" d=" M199.704 320.423C202.575 320.423 205.042 321.455 207.106 323.519C209.17 325.583 210.202 328.051 210.202 330.923C210.202 333.795 209.17 336.2630000000001 207.106 338.327C205.042 340.391 202.575 341.423 199.704 341.423C196.833 341.423 194.41 340.391 192.436 338.327C190.462 336.2630000000001 189.475 333.795 189.475 330.923C189.475 328.051 190.462 325.583 192.436 323.519C194.41 321.455 196.833 320.423 199.704 320.423zM313.296 320.423C316.167 320.423 318.59 321.455 320.564 323.519C322.538 325.583 323.525 328.051 323.525 330.923C323.525 333.795 322.538 336.2630000000001 320.564 338.327C318.59 340.391 316.167 341.423 313.296 341.423C310.425 341.423 307.957 340.391 305.894 338.327C303.83 336.2630000000001 302.798 333.795 302.798 330.923C302.798 328.051 303.83 325.583 305.894 323.519C307.957 321.455 310.425 320.423 313.296 320.423zM94.7251 270.885C102.262 270.885 108.722 268.192 114.106 262.808C119.489 257.423 122.181 250.962 122.181 243.423V127.654C122.181 119.936 119.534 113.385 114.24 108C108.947 102.615 102.442 99.923 94.7251 99.923C87.0088 99.923 80.4588 102.615 75.0753 108C69.6918 113.385 67 119.936 67 127.654V243.423C67 250.962 69.6918 257.423 75.0753 262.808C80.4588 268.192 87.0088 270.885 94.7251 270.885zM380.052 265.769V86.462C380.052 78.205 377.181 71.205 371.438 65.462C365.6960000000001 59.718 358.787 56.846 350.712 56.846H330.523V-4.269C330.523 -11.987 327.832 -18.538 322.448 -23.923C317.065 -29.308 310.515 -32 302.798 -32C295.082 -32 288.532 -29.308 283.148 -23.923C277.765 -18.538 275.073 -11.987 275.073 -4.269V56.846H237.927V-4.269C237.927 -11.987 235.235 -18.538 229.852 -23.923C224.468 -29.308 217.918 -32 210.202 -32C202.665 -32 196.205 -29.308 190.821 -23.923C185.437 -18.538 182.746 -11.987 182.746 -4.269L182.477 56.846H162.558C154.303 56.846 147.304 59.718 141.562 65.462C135.819 71.205 132.948 78.205 132.948 86.462V265.769H380.052zM317.603 374.8077C336.804 364.9359 352.147 351.1603 363.632 333.481C375.117 315.801 380.859 296.462 380.859 275.462H131.871C131.871 296.462 137.614 315.801 149.099 333.481C160.584 351.1603 176.016 364.9359 195.397 374.8077L176.286 410.0769C175.029 412.4103 175.478 414.2051 177.631 415.4615C179.964 416.5385 181.759 416 183.015 413.8462L202.396 378.3077C219.443 385.8462 237.478 389.6154 256.5 389.6154C275.522 389.6154 293.557 385.8462 310.604 378.3077L329.985 413.8462C331.241 416 333.036 416.5385 335.3690000000001 415.4615C337.522 414.2051 337.971 412.4103 336.714 410.0769L317.603 374.8077zM446 243.423V127.654C446 119.936 443.308 113.385 437.925 108C432.541 102.615 425.991 99.923 418.275 99.923C410.738 99.923 404.278 102.615 398.894 108C393.511 113.385 390.819 119.936 390.819 127.654V243.423C390.819 251.141 393.511 257.647 398.894 262.942C404.278 268.237 410.738 270.885 418.275 270.885C425.991 270.885 432.541 268.237 437.925 262.942C443.308 257.647 446 251.141 446 243.423z" />
    <glyph glyph-name="apple"
      unicode="&#xF179;"
      horiz-adv-x="512" d=" M441 89.996C434.113 67.91 423.252 45.825 408.418 23.74C385.637 -10.89 362.944 -28.205 340.34 -28.205C331.686 -28.205 319.324 -25.378 303.254 -19.724C288.067 -14.07 274.734 -11.243 263.255 -11.243C252.482 -11.243 239.944 -14.159 225.64 -19.989C211.335 -25.996 199.68 -29 190.673 -29C163.831 -29 137.253 -6.12 110.94 39.641C84.9799 85.755 72 130.191 72 172.948C72 213.232 81.9777 246.272 101.933 272.067C121.889 297.51 146.966 310.231 177.164 310.231C189.879 310.231 205.508 307.581 224.05 302.28C242.416 296.98 254.602 294.329 260.606 294.329C268.553 294.329 281.179 297.333 298.486 303.3400000000001C316.499 309.347 331.775 312.351 344.313 312.351C365.328 312.351 384.136 306.6090000000001 400.736 295.124C409.919 288.764 419.102 279.93 428.2850000000001 268.622C414.334 256.784 404.268 246.36 398.087 237.349C386.608 220.741 380.8690000000001 202.454 380.8690000000001 182.489C380.8690000000001 160.581 386.961 140.88 399.146 123.389C411.332 105.897 425.283 94.766 441 89.996zM341.399 400.8690000000001C341.399 390.0913 338.838 378.0769 333.717 364.8257C328.419 351.5745 320.207 339.383 309.082 328.252C299.546 318.712 290.009 312.351 280.473 309.171C273.939 307.227 264.756 305.725 252.924 304.665C253.454 330.991 260.341 353.6947 273.586 372.7764C286.654 391.6815000000001 308.729 404.756 339.81 412C339.986 411.4700000000001 340.207 410.4982 340.472 409.0847C340.737 407.6713 340.9580000000001 406.6995 341.134 406.1695C341.134 405.4627 341.178 404.5793 341.267 403.5192C341.355 402.4591 341.399 401.5757 341.399 400.8690000000001z" />
    <glyph glyph-name="calendar"
      unicode="&#xE045;"
      horiz-adv-x="512" d=" M81.7094 1.79H153.017V73.31H81.7094V1.79zM168.851 1.79H248.076V73.31H168.851V1.79zM81.7094 89.204H153.017V168.665H81.7094V89.204zM168.851 89.204H248.076V168.665H168.851V89.204zM81.7094 184.56H153.017V256.079H81.7094V184.56zM263.938 1.79H343.163V73.31H263.938V1.79zM168.851 184.56H248.076V256.079H168.851V184.56zM359.01 1.79H430.318V73.31H359.01V1.79zM263.938 89.204H343.163V168.665H263.938V89.204zM176.782 303.75V375.2698000000001C176.782 377.4207 175.996 379.2841 174.425 380.8602C172.854 382.4362 170.996 383.2242 168.851 383.2242H153.003C150.859 383.2242 149.001 382.4362 147.43 380.8602C145.858 379.2841 145.073 377.4207 145.073 375.2698000000001V303.75C145.073 301.599 145.858 299.736 147.43 298.16C149.001 296.584 150.859 295.796 153.003 295.796H168.851C170.996 295.796 172.854 296.584 174.425 298.16C175.996 299.736 176.782 301.599 176.782 303.75zM359.01 89.204H430.318V168.665H359.01V89.204zM263.938 184.56H343.163V256.079H263.938V184.56zM359.01 184.56H430.318V256.079H359.01V184.56zM366.927 303.75V375.2698000000001C366.927 377.4207 366.142 379.2841 364.57 380.8602C362.999 382.4362 361.141 383.2242 358.997 383.2242H343.149C341.004 383.2242 339.146 382.4362 337.575 380.8602C336.004 379.2841 335.218 377.4207 335.218 375.2698000000001V303.75C335.218 301.599 336.004 299.736 337.575 298.16C339.146 296.584 341.004 295.796 343.149 295.796H358.997C361.141 295.796 362.999 296.584 364.57 298.16C366.142 299.736 366.927 301.599 366.927 303.75zM462 319.645V1.79C462 -6.823 458.862 -14.272 452.586 -20.558C446.3090000000001 -26.843 438.882 -29.991 430.304 -30H81.6955C73.1084 -30 65.6814 -26.853 59.4144 -20.558C53.1474 -14.263 50.0092 -6.814 50 1.79V319.645C50 328.257 53.1381 335.707 59.4144 341.992C65.6906 348.2778 73.1177 351.4253 81.6955 351.4345H113.391V375.2698000000001C113.391 386.2002 117.269 395.5544 125.024 403.3327C132.779 411.1109 142.106 415 153.003 415H168.851C179.749 415 189.076 411.1109 196.831 403.3327C204.586 395.5544 208.464 386.2002 208.464 375.2698000000001V351.4345H303.536V375.2698000000001C303.536 386.2002 307.414 395.5544 315.169 403.3327C322.924 411.1109 332.251 415 343.149 415H358.997C369.894 415 379.221 411.1109 386.976 403.3327C394.731 395.5544 398.609 386.2002 398.609 375.2698000000001V351.4345H430.304C438.892 351.4345 446.319 348.2871 452.586 341.992C458.853 335.697 461.991 328.248 462 319.645z" />
    <glyph glyph-name="check"
      unicode="&#xF00C;"
      horiz-adv-x="512" d=" M184.5 40.206L38.5752 177.927C29.8083 186.201 29.8083 199.616 38.5752 207.891L70.3235 237.855C79.0905 246.13 93.3059 246.13 102.073 237.855L200.375 145.081L410.927 343.794C419.694 352.0685 433.9100000000001 352.0685 442.676 343.794L474.425 313.8300000000001C483.192 305.5560000000001 483.192 292.141 474.425 283.866L216.25 40.205C207.482 31.931 193.267 31.931 184.5 40.206V40.206z" />
    <glyph glyph-name="chevron-down"
      unicode="&#xE03C;"
      horiz-adv-x="512" d=" M478.152 274C478.152 263.909 474.627 255.339 467.576 248.288L281.576 62.288C274.3330000000001 55.045 265.667 51.424 255.576 51.424C245.293 51.424 236.723 55.045 229.864 62.288L43.864 248.288C36.6213 255.147 33 263.717 33 274C33 284.091 36.6213 292.757 43.864 300L65 321.424C72.424 328.475 81.0907 332 91 332C101.091 332 109.661 328.475 116.712 321.424L255.576 182.56L394.44 321.424C401.491 328.475 410.061 332 420.152 332C430.061 332 438.728 328.475 446.152 321.424L467.576 300C474.627 292.576 478.152 283.909 478.152 274z" />
    <glyph glyph-name="chevron-left"
      unicode="&#xE03B;"
      horiz-adv-x="512" d=" M312.864 -20.288L126.576 165.712C119.525 172.763 116 181.381 116 191.568C116 201.755 119.525 210.373 126.576 217.424L312.864 403.424C319.915 410.4747 328.533 414 338.7200000000001 414C348.907 414 357.525 410.4747 364.576 403.424L386 382C393.051 374.9493 396.576 366.3307 396.576 356.144C396.576 345.957 393.051 337.339 386 330.288L247.136 191.424L386 52.848C393.051 45.605 396.576 36.939 396.576 26.848C396.576 16.757 393.051 8.187 386 1.136L364.576 -20.288C357.525 -27.339 348.907 -30.864 338.7200000000001 -30.864C328.533 -30.864 319.915 -27.339 312.864 -20.288z" />
    <glyph glyph-name="chevron-right"
      unicode="&#xE03A;"
      horiz-adv-x="512" d=" M396.576 192.424C396.576 182.515 393.051 173.848 386 166.424L199.712 -19.576C192.661 -26.627 184.091 -30.152 174 -30.152C163.909 -30.152 155.339 -26.627 148.288 -19.576L126.576 1.848C119.525 9.272 116 17.939 116 27.848C116 37.939 119.525 46.509 126.576 53.56L265.44 192.424L126.576 331C119.525 338.424 116 347.091 116 357C116 367.0907 119.525 375.6613 126.576 382.712L148.288 404.136C155.147 411.3787 163.717 415 174 415C184.283 415 192.853 411.3787 199.712 404.136L386 218.136C393.051 211.085 396.576 202.515 396.576 192.424z" />
    <glyph glyph-name="chevron-up"
      unicode="&#xE039;"
      horiz-adv-x="512" d=" M478.152 109.424C478.152 99.333 474.627 90.763 467.576 83.712L446.152 62.288C438.909 55.045 430.243 51.424 420.152 51.424C409.8690000000001 51.424 401.299 55.045 394.44 62.288L255.576 200.864L116.712 62.288C109.853 55.045 101.283 51.424 91 51.424C80.7173 51.424 72.1467 55.045 65.288 62.288L43.864 83.712C36.6213 90.571 33 99.141 33 109.424C33 119.515 36.6213 128.181 43.864 135.424L229.864 321.424C236.915 328.475 245.485 332 255.576 332C265.485 332 274.152 328.475 281.576 321.424L467.288 135.424C474.531 128.181 478.152 119.515 478.152 109.424z" />
    <glyph glyph-name="comment"
      unicode="&#xF101;"
      horiz-adv-x="512" d=" M469.453 362.3333C469.453 385.8 450.467 405 427 405H85.6667C62.2 405 43 385.8 43 362.3333V106.333C43 82.867 62.2 63.667 85.6667 63.667H384.3330000000001L469.667 -21.667L469.453 362.3333zM384.3330000000001 149H128.333V191.667H384.3330000000001V149zM384.3330000000001 213H128.333V255.667H384.3330000000001V213zM384.3330000000001 277H128.333V319.6670000000001H384.3330000000001V277z" />
    <glyph glyph-name="download"
      unicode="&#xE006;"
      horiz-adv-x="512" d=" M35 55.933H478V-29H35V55.933zM330.387 225.847V414H182.693V225.847H108.871L256.789 55.917L404.161 225.847H330.387z" />
    <glyph glyph-name="email-closed"
      unicode="&#xE014;"
      horiz-adv-x="512" d=" M35 355V28.376H476.472V355H35zM426.456 317.544L255.672 186.904L85 317.544H426.44H426.456zM72.456 279.976L163.96 209.928L72.456 118.424V279.992V279.976zM72.84 65.832L193.976 186.952L255.672 139.72L317.08 186.696L437.944 65.832H72.84zM439.016 117.752L347.096 209.672L439.016 279.992V117.752z" />
    <glyph glyph-name="evidence"
      unicode="&#xE017;"
      horiz-adv-x="512" d=" M255.912 409C136.12 409 39 311.688 39 191.672C39 71.656 136.12 -25.672 255.912 -25.672C375.6720000000001 -25.672 472.776 71.64 472.776 191.672C472.776 311.704 375.6720000000001 409 255.912 409zM255.896 94.536C202.36 94.536 158.968 138.024 158.968 191.672C158.968 245.32 202.36 288.7920000000001 255.896 288.7920000000001C309.432 288.7920000000001 352.824 245.304 352.824 191.672C352.824 138.04 309.432 94.536 255.896 94.536z" />
    <glyph glyph-name="facebook-square"
      unicode="&#xF082;"
      horiz-adv-x="512" d=" M393.5710000000001 411C416.238 411 435.6190000000001 402.9524 451.714 386.8571C467.809 370.7619 475.857 351.381 475.857 328.714V54.429C475.857 31.762 467.809 12.381 451.714 -3.714C435.6190000000001 -19.809 416.238 -27.857 393.5710000000001 -27.857H339.8570000000001V142.143H396.714L405.286 208.429H339.8570000000001V250.714C339.8570000000001 261.381 342.0950000000001 269.381 346.5710000000001 274.714C351.048 280.048 359.762 282.714 372.714 282.714L407.5710000000001 283V342.1430000000001C395.5710000000001 343.857 378.6190000000001 344.714 356.714 344.714C330.81 344.714 310.0950000000001 337.0950000000001 294.5710000000001 321.857C279.048 306.6190000000001 271.286 285.0950000000001 271.286 257.286V208.429H214.143V142.143H271.286V-27.857H119.286C96.619 -27.857 77.2381 -19.809 61.1429 -3.714C45.0476 12.381 37 31.762 37 54.429V328.714C37 351.381 45.0476 370.7619 61.1429 386.8571C77.2381 402.9524 96.619 411 119.286 411H393.5710000000001z" />
    <glyph glyph-name="facebook"
      unicode="&#xE012;"
      horiz-adv-x="512" d=" M291.069 269.189H361L352.832 191.992H291.054V-32H198.265V191.992H152V269.189H198.265V315.68C198.265 348.6633 206.067 373.6291 221.672 390.5775C237.276 407.5258 262.949 416 298.689 416H360.467V338.804H321.8210000000001C314.75 338.804 309.081 338.2150000000001 304.815 337.038C300.548 335.861 297.464 333.729 295.565 330.644C293.665 327.559 292.441 324.433 291.892 321.267C291.343 318.1 291.069 313.615 291.069 307.81V269.204V269.189z" />
    <glyph glyph-name="google-plus-square"
      unicode="&#xF0D4;"
      horiz-adv-x="512" d=" M432 416H80C53.5 416 32 394.5 32 368V16C32 -10.5 53.5 -32 80 -32H432C458.5 -32 480 -10.5 480 16V368C480 394.5 458.5 416 432 416zM196 92C140.7 92 96 136.7 96 192C96 247.3 140.7 292 196 292C223 292 245.5 282.2 263 265.8L235.9 239.7C228.5 246.8 215.6 255.1 196.1 255.1C162 255.1 134.2 226.9 134.2 191.9C134.2 157 162 128.7 196.1 128.7C235.7 128.7 250.5 157.2 252.9 171.8H196V206.2H290.4C291.4 201.2 292 196.1 292 189.6C292 132.5 253.7 92 196 92V92zM416 173.8H387V144.8H357.8V173.8H328.8V203H357.8V232H387V203H416V173.8z" />
    <glyph glyph-name="google-plus"
      unicode="&#xF0D5;"
      horiz-adv-x="512" d=" M311.417 188.195C311.417 161.237 305.778 137.228 294.5 116.167C283.222 95.107 267.148 78.647 246.278 66.788C225.407 54.929 201.491 49 174.528 49C155.213 49 136.741 52.759 119.111 60.276C101.481 67.793 86.3148 77.902 73.6111 90.603C60.9074 103.304 50.7963 118.468 43.2778 136.094C35.7593 153.72 32 172.189 32 191.5C32 210.811 35.7593 229.28 43.2778 246.906C50.7963 264.5320000000001 60.9074 279.6960000000001 73.6111 292.397C86.3148 305.098 101.481 315.207 119.111 322.724C136.741 330.241 155.213 334 174.528 334C211.602 334 243.426 321.558 270 296.674L231.306 259.5420000000001C216.139 274.188 197.213 281.51 174.528 281.51C158.583 281.51 143.838 277.492 130.292 269.457C116.745 261.4220000000001 106.019 250.502 98.1111 236.7C90.2037 222.897 86.25 207.83 86.25 191.5C86.25 175.17 90.2037 160.103 98.1111 146.3C106.019 132.498 116.745 121.578 130.292 113.543C143.838 105.507 158.583 101.49 174.528 101.49C185.287 101.49 195.171 102.98 204.181 105.961C213.19 108.942 220.611 112.668 226.444 117.139C232.278 121.611 237.366 126.698 241.708 132.4C246.051 138.103 249.227 143.482 251.236 148.536C253.245 153.591 254.639 158.386 255.417 162.922H174.528V211.913H309.0830000000001C310.639 203.748 311.417 195.842 311.417 188.195zM480 211.913V171.087H439.361V130.456H398.528V171.087H357.889V211.913H398.528V252.544H439.361V211.913H480z" />
    <glyph glyph-name="guidance"
      unicode="&#xE011;"
      horiz-adv-x="512" d=" M361.488 -28.472L255.744 68.472L150 -28.472V413H361.568V-28.472H361.52H361.488z" />
    <glyph glyph-name="hamburger"
      unicode="&#xE03D;"
      horiz-adv-x="512" d=" M475.864 64.136V27.56C475.864 22.611 474.056 18.323 470.44 14.696C466.824 11.069 462.536 9.261 457.576 9.272H55.288C50.3387 9.272 46.0507 11.08 42.424 14.696C38.7974 18.312 36.9894 22.6 37 27.56V64.136C37 69.085 38.808 73.373 42.424 77C46.04 80.627 50.328 82.435 55.288 82.424H457.576C462.525 82.424 466.813 80.616 470.44 77C474.067 73.384 475.875 69.096 475.864 64.136zM475.864 210.424V173.848C475.864 168.899 474.056 164.611 470.44 160.984C466.824 157.357 462.536 155.549 457.576 155.56H55.288C50.3387 155.56 46.0507 157.368 42.424 160.984C38.7974 164.6 36.9894 168.888 37 173.848V210.424C37 215.373 38.808 219.661 42.424 223.288C46.04 226.915 50.328 228.723 55.288 228.712H457.576C462.525 228.712 466.813 226.904 470.44 223.288C474.067 219.672 475.875 215.384 475.864 210.424V210.424zM475.864 356.712V320.136C475.864 315.187 474.056 310.899 470.44 307.272C466.824 303.645 462.536 301.837 457.576 301.848H55.288C50.3387 301.848 46.0507 303.656 42.424 307.272C38.7974 310.8880000000001 36.9894 315.176 37 320.136V356.712C37 361.6613 38.808 365.9493 42.424 369.5759C46.04 373.2026 50.328 375.0106 55.288 375H457.576C462.525 375 466.813 373.1919000000001 470.44 369.5759C474.067 365.9599 475.875 361.6720000000001 475.864 356.712z" />
    <glyph glyph-name="instagram"
      unicode="&#xF16D;"
      horiz-adv-x="512" d=" M329.1 192C329.1 212.2 322 229.4 307.7000000000001 243.7A70.5 70.5 0 0 0 256.0000000000001 265.1A70.5 70.5 0 0 0 204.3000000000001 243.7A70.5 70.5 0 0 0 182.9000000000001 192C182.9000000000001 171.8 190.0000000000001 154.6 204.3000000000001 140.3A70.5 70.5 0 0 0 256.0000000000001 118.9C276.2000000000001 118.9 293.4000000000001 126.0000000000001 307.7000000000001 140.3A70.5 70.5 0 0 0 329.1 192zM368.6 192C368.6 160.8 357.6 134.2 335.7000000000001 112.3A108.5 108.5 0 0 1 256.0000000000001 79.4C224.8000000000001 79.4 198.2000000000001 90.4 176.3000000000001 112.3A108.5 108.5 0 0 1 143.4000000000001 192C143.4000000000001 223.2 154.4000000000001 249.8 176.3000000000001 271.7C198.2000000000001 293.7 224.8000000000001 304.6 256.0000000000001 304.6C287.2000000000001 304.6 313.8000000000001 293.6 335.7000000000001 271.7C357.7000000000001 249.8 368.6 223.2 368.6 192zM399.4000000000001 309.1C399.4000000000001 301.9 396.9000000000001 295.7 391.7000000000001 290.6A25.3 25.3 0 0 1 373.1 282.9C365.9000000000001 282.9 359.7000000000001 285.4 354.6 290.6A25.3 25.3 0 0 1 346.9000000000001 309.1C346.9000000000001 316.4 349.4000000000001 322.6 354.6 327.7A25.3 25.3 0 0 1 373.1 335.4C380.4000000000001 335.4 386.6 332.9 391.7000000000001 327.7A25.3 25.3 0 0 1 399.4000000000001 309.1zM256 372L234.1 372.1H204C197.1 372.1 188 371.8 176.4 371.3C164.9 370.8 155.1 369.9 147 368.4C139 367 132 365.2 126.6 363.1A74.1 74.1 0 0 0 84.9 321.4C82.8 315.9 81 309.1 79.6 301C78.1 293 77.2 283 76.7 271.6A1058.7 1058.7 0 0 0 76 192L75.9 170.1V140C75.9 133.1 76.2 124 76.7 112.4C77.2 100.9 78.1 91.1 79.6 83C81 74.9 82.8 68.1 84.9 62.6A74.1 74.1 0 0 0 126.6 20.9C132.1 18.8 138.9 17.0000000000001 147 15.6C155 14.1 165 13.2 176.4 12.7A1058 1058 0 0 0 256 12.0000000000001L277.9 11.9H308C314.9 11.9 324 12.2 335.6 12.7C347.1 13.2 356.9000000000001 14.1 365 15.6C373.1 17 379.9 18.8 385.4 20.9A74.1 74.1 0 0 0 427.1 62.6C429.2 68.1 431 74.9 432.4 83C433.9 91.1 434.8 100.9 435.3 112.4A1058 1058 0 0 0 436 192L436.1 213.9V244C436.1 250.9 435.8 260 435.3 271.6C434.8 283.1 433.9 292.9 432.4 301C431 309 429.2 316 427.1 321.4A74.1 74.1 0 0 0 385.4 363.1C379.9 365.2 373.1 367 365 368.4C356.9 369.9 347.1 370.8 335.6 371.3A1058.7 1058.7 0 0 0 256 372zM475.4 192C475.4 148.4 475 118.2 474 101.4C472.1 61.8 460.3 31.1 438.6 9.4C416.9000000000001 -12.3 386.2000000000001 -24.1 346.6 -26C329.8 -27 299.6 -27.4 256 -27.4C212.4 -27.4 182.2 -27 165.4 -26C125.8 -24.1 95.1 -12.3 73.4 9.4C51.7 31.1 39.9 61.8 38 101.4C37 118.2 36.6 148.4 36.6 192C36.6 235.6 37 265.8 38 282.6C39.9 322.2 51.7 352.9 73.4 374.6C95.1 396.3 125.8 408.1 165.4 410C182.2 411 212.4 411.4 256 411.4C299.6 411.4 329.8 411 346.6 410C386.2000000000001 408.1 416.9000000000001 396.3 438.6 374.6C460.3 352.9 472.1 322.2 474 282.6C475 265.8 475.4 235.6 475.4 192z" />
    <glyph glyph-name="linkedin-sign"
      unicode="&#xF08C;"
      horiz-adv-x="512" d=" M104.714 43.571H170.714V241.857H104.714V43.571zM175 303C174.81 312.905 171.381 321.0950000000001 164.714 327.5710000000001C158.048 334.048 149.19 337.286 138.143 337.286C127.095 337.286 118.095 334.048 111.143 327.5710000000001C104.19 321.0950000000001 100.714 312.905 100.714 303C100.714 293.286 104.095 285.1430000000001 110.857 278.5710000000001C117.619 272 126.429 268.714 137.286 268.714H137.571C148.81 268.714 157.857 272 164.714 278.5710000000001C171.571 285.1430000000001 175 293.286 175 303zM342.143 43.571H408.143V157.286C408.143 186.619 401.19 208.81 387.286 223.857C373.381 238.905 355 246.429 332.143 246.429C306.238 246.429 286.3330000000001 235.286 272.429 213H273V241.857H207C207.571 229.286 207.571 163.19 207 43.571H273V154.429C273 161.667 273.667 167 275 170.429C277.8570000000001 177.095 282.143 182.762 287.8570000000001 187.429C293.5710000000001 192.095 300.6190000000001 194.429 309 194.429C331.0950000000001 194.429 342.143 179.476 342.143 149.571V43.571zM475.857 328.714V54.429C475.857 31.762 467.809 12.381 451.714 -3.714C435.6190000000001 -19.809 416.238 -27.857 393.5710000000001 -27.857H119.286C96.619 -27.857 77.2381 -19.809 61.1429 -3.714C45.0476 12.381 37 31.762 37 54.429V328.714C37 351.381 45.0476 370.7619 61.1429 386.8571C77.2381 402.9524 96.619 411 119.286 411H393.5710000000001C416.238 411 435.6190000000001 402.9524 451.714 386.8571C467.809 370.7619 475.857 351.381 475.857 328.714z" />
    <glyph glyph-name="linkedin"
      unicode="&#xF0E1;"
      horiz-adv-x="512" d=" M134.024 266.606V-22.984H37.5652V266.606H134.024V266.606zM140.162 356.0223C140.358 341.796 135.437 329.91 125.398 320.3640000000001C115.359 310.818 102.155 306.045 85.7864 306.045H85.1971C69.2216 306.045 56.3616 310.818 46.6169 320.3640000000001C36.8723 329.91 32 341.796 32 356.0223C32 370.4341 37.0196 382.3694 47.0589 391.8282C57.0981 401.287 70.2037 406.0109 86.3756 406C102.548 405.9891 115.506 401.2651 125.25 391.8282C134.995 382.3912000000001 139.966 370.4559 140.162 356.0223V356.0223zM480.984 142.987V-23H384.82V131.875C384.82 152.331 380.875 168.358 372.985 179.955C365.096 191.552 352.77 197.35 336.009 197.35C323.733 197.35 313.454 193.99 305.171 187.27C296.889 180.549 290.702 172.22 286.61 162.281C284.471 156.433 283.401 148.545 283.401 138.618V-22.984H187.237C187.63 54.749 187.827 117.774 187.827 166.094C187.827 214.413 187.728 243.248 187.532 252.597L187.237 266.622H283.401V224.548H282.812C286.7080000000001 230.778 290.702 236.233 294.794 240.913C298.886 245.593 304.391 250.661 311.3090000000001 256.116C318.228 261.5710000000001 326.707 265.809 336.746 268.831C346.7850000000001 271.853 357.943 273.3640000000001 370.219 273.3640000000001C403.545 273.3640000000001 430.34 262.307 450.604 240.193C470.868 218.079 481 185.688 481 143.02L480.984 142.987z" />
    <glyph glyph-name="location"
      unicode="&#xF102;"
      horiz-adv-x="512" d=" M256 416C172.051 416 104 347.641 104 263.3210000000001C104 192.838 214.91 36.712 256 -31C297.09 36.712 408 192.838 408 263.3210000000001C408 347.641 339.949 416 256 416zM256 181.348C210.931 181.348 174.396 218.048 174.396 263.3210000000001C174.396 308.5950000000001 210.931 345.285 256 345.285C301.069 345.285 337.604 308.5950000000001 337.604 263.3210000000001C337.604 218.048 301.069 181.348 256 181.348z" />
    <glyph glyph-name="logo-full"
      unicode="&#xE01C;"
      horiz-adv-x="4616" d=" M1626 404V229H1604L1497 377V229H1478V404H1500L1607 257V404H1626zM1756 250A52 52 0 0 1 1709 227C1691 227 1675 234 1664 247A70 70 0 0 1 1646 295C1646 314 1652 330 1664 343C1675 357 1691 363 1711 363C1730 363 1745 355 1756 340V361H1776V229H1756V250zM1712 245C1726 245 1737 250 1745 260C1753 269 1757 281 1757 295S1753 321 1745 330C1737 340 1726 345 1712 345S1687 340 1678 330C1670 321 1666 309 1666 295S1670 269 1678 260C1687 250 1698 245 1712 245zM1821 229V344H1794V361H1821V408H1840V361H1870V344H1840V229H1821zM1909 409V383H1888V409H1909zM1889 361H1909V229H1889V361zM1996 363C2016 363 2031 357 2044 343C2055 331 2061 315 2061 295C2061 276 2055 259 2044 247A61 61 0 0 1 1996 227C1977 227 1961 234 1949 247A69 69 0 0 1 1932 295C1932 315 1937 331 1949 343C1961 357 1977 363 1996 363zM1996 245C2010 245 2021 250 2030 260C2037 269 2041 281 2041 295S2037 321 2030 330C2021 340 2010 345 1996 345S1971 340 1963 330C1955 321 1951 309 1951 295S1955 269 1963 260C1971 250 1982 245 1996 245zM2103 361V340C2108 347 2114 352 2121 357C2127 361 2135 363 2144 363C2152 363 2160 362 2166 359C2172 357 2178 353 2183 348C2193 338 2199 324 2199 306V229H2179V305C2179 318 2176 327 2169 334C2162 342 2153 345 2143 345A38 38 0 0 0 2103 305V229H2084V361H2103zM2325 250A52 52 0 0 1 2279 227C2260 227 2245 234 2233 247A71 71 0 0 1 2216 295C2216 314 2221 330 2233 343C2245 357 2260 363 2280 363C2299 363 2315 355 2325 340V361H2345V229H2325V250zM2281 245C2295 245 2306 250 2314 260C2322 269 2326 281 2326 295S2322 321 2314 330C2306 340 2295 345 2281 345S2256 340 2247 330C2239 321 2235 309 2235 295S2239 269 2247 260C2256 250 2267 245 2281 245zM2395 229H2376V414H2395V229zM2503 229H2484V404H2503V229zM2558 361V340C2563 347 2568 352 2575 357C2582 361 2590 363 2598 363C2607 363 2615 362 2621 359C2627 357 2633 353 2637 348C2648 338 2653 324 2653 306V229H2634V305C2634 318 2630 327 2624 334C2617 342 2608 345 2597 345A38 38 0 0 0 2558 305V229H2539V361H2558zM2760 326C2758 339 2747 346 2727 346S2697 340 2697 327C2697 322 2699 318 2703 315C2708 313 2713 310 2719 309L2740 304L2761 297C2768 295 2773 291 2777 286C2782 281 2784 275 2784 267C2784 254 2779 244 2769 237C2760 230 2747 227 2731 227C2713 227 2699 231 2689 240C2680 248 2675 258 2674 271H2694C2696 258 2702 250 2715 246L2728 244L2741 245L2752 248C2760 251 2764 257 2764 265C2764 270 2762 274 2758 277S2748 283 2742 284L2721 289L2700 296C2693 298 2688 302 2684 306C2680 311 2678 317 2678 325C2678 337 2682 347 2690 353C2699 360 2712 363 2729 363C2744 363 2757 359 2766 352C2774 345 2778 336 2780 326H2760zM2820 229V344H2794V361H2820V408H2840V361H2870V344H2840V229H2820zM2909 409V383H2888V409H2909zM2888 361H2908V229H2888V361zM2953 229V344H2927V361H2953V408H2973V361H3003V344H2973V229H2953zM3115 229V250C3111 243 3105 238 3098 234C3091 229 3084 227 3075 227S3059 228 3053 231C3046 233 3041 237 3036 242A57 57 0 0 1 3020 284V361H3040V285C3040 273 3043 263 3050 256C3056 249 3065 245 3076 245A39 39 0 0 0 3115 285V361H3135V229H3115zM3180 229V344H3154V361H3180V408H3200V361H3230V344H3200V229H3180zM3304 245C3321 245 3334 252 3341 267H3363C3358 255 3351 245 3341 238C3332 231 3319 227 3303 227C3284 227 3268 234 3256 247A68 68 0 0 1 3238 295C3238 315 3243 331 3255 343C3267 357 3283 363 3302 363C3322 363 3337 357 3350 343C3361 331 3367 315 3367 295V287H3258C3259 275 3264 265 3272 257S3291 245 3304 245zM3302 345C3290 345 3280 341 3272 334S3260 317 3258 306H3346C3345 317 3340 327 3332 334S3314 345 3302 345zM3497 397C3488 397 3481 395 3476 391C3472 387 3469 380 3469 371V361H3499V344H3469V229H3450V344H3427V361H3450V373C3450 387 3454 398 3462 405C3471 412 3483 416 3498 416H3499V397H3497zM3572 363C3591 363 3607 357 3619 343C3631 331 3637 315 3637 295C3637 276 3631 259 3619 247A61 61 0 0 1 3572 227C3553 227 3537 234 3525 247A69 69 0 0 1 3507 295C3507 315 3513 331 3525 343C3537 357 3553 363 3572 363zM3572 245C3586 245 3597 250 3605 260C3613 269 3617 281 3617 295S3613 321 3605 330C3597 340 3586 345 3572 345S3547 340 3539 330C3531 321 3527 309 3527 295S3531 269 3539 260C3547 250 3558 245 3572 245zM3728 363V343H3726C3712 343 3701 338 3692 326C3683 315 3679 302 3679 287V229H3660V361H3679V329C3683 342 3692 352 3706 359C3712 362 3719 363 3727 363H3728zM1617 155V-20H1598V58H1497V-20H1478V155H1497V77H1598V155H1617zM1708 -4C1726 -4 1738 4 1746 18H1767C1763 6 1756 -3 1746 -11C1736 -18 1723 -22 1708 -22C1688 -22 1672 -15 1660 -2A68 68 0 0 1 1642 46C1642 66 1648 82 1659 95C1671 108 1687 114 1707 114C1726 114 1742 108 1754 95C1765 82 1771 66 1771 46V38H1662C1663 26 1668 16 1676 8C1685 0 1695 -4 1708 -4zM1707 96C1695 96 1685 93 1676 85C1669 78 1664 68 1662 57H1751C1749 68 1744 78 1737 85C1729 93 1719 96 1707 96zM1894 1A52 52 0 0 1 1847 -22C1829 -22 1813 -15 1802 -2A70 70 0 0 1 1784 46C1784 65 1790 82 1802 95C1813 108 1829 114 1849 114C1868 114 1883 107 1894 91V112H1914V-20H1894V1zM1850 -4C1864 -4 1875 1 1883 11C1891 20 1895 32 1895 46C1895 61 1891 72 1883 82S1864 96 1850 96S1825 92 1816 82C1808 72 1804 61 1804 46C1804 32 1808 20 1816 11C1825 1 1836 -4 1850 -4zM1964 -20H1945V165H1964V-20zM2010 -20V95H1983V112H2010V160H2029V112H2059V95H2029V-20H2010zM2097 165V92L2114 108C2121 112 2129 114 2138 114C2146 114 2154 113 2160 111A58 58 0 0 1 2193 57V-20H2173V57C2173 69 2170 78 2163 86C2156 93 2147 96 2137 96A39 39 0 0 0 2097 56V-20H2078V165H2097zM2377 1A52 52 0 0 1 2330 -22C2311 -22 2296 -15 2284 -2A70 70 0 0 1 2267 46C2267 65 2273 82 2284 95C2296 108 2312 114 2331 114C2351 114 2366 107 2377 91V112H2396V-20H2377V1zM2333 -4C2347 -4 2358 1 2366 11C2374 20 2378 32 2378 46C2378 61 2374 72 2366 82S2347 96 2333 96S2308 92 2299 82C2291 72 2287 61 2287 46C2287 32 2291 20 2299 11C2308 1 2319 -4 2333 -4zM2442 112V92C2447 98 2452 103 2459 108C2466 112 2474 114 2482 114C2491 114 2499 113 2505 111C2511 108 2516 105 2521 100C2532 89 2537 75 2537 57V-20H2518V57C2518 69 2514 78 2508 86C2501 93 2492 96 2481 96A39 39 0 0 0 2442 56V-20H2423V112H2442zM2664 1A52 52 0 0 1 2617 -22C2598 -22 2583 -15 2571 -2A71 71 0 0 1 2554 46C2554 65 2560 82 2571 95C2583 108 2599 114 2618 114C2638 114 2653 107 2664 91V165H2683V-20H2664V1zM2620 -4C2634 -4 2645 1 2653 11C2661 20 2665 32 2665 46C2665 61 2661 72 2653 82S2634 96 2620 96S2595 92 2586 82C2578 72 2574 61 2574 46C2574 32 2578 20 2586 11C2595 1 2606 -4 2620 -4zM2853 -3A56 56 0 0 0 2906 33H2927C2921 16 2912 3 2899 -6A82 82 0 0 1 2849 -22C2824 -22 2803 -13 2788 4A92 92 0 0 1 2766 68C2766 93 2773 114 2788 131C2803 149 2824 157 2849 157A78 78 0 0 1 2927 103H2906C2902 114 2895 122 2886 128C2876 135 2866 138 2853 138C2841 138 2831 136 2823 133C2814 129 2808 124 2802 118A73 73 0 0 0 2785 68C2785 47 2791 31 2802 18C2814 4 2831 -3 2853 -3zM3051 1A52 52 0 0 1 3004 -22C2985 -22 2970 -15 2958 -2A70 70 0 0 1 2941 46C2941 65 2947 82 2958 95C2970 108 2986 114 3006 114C3025 114 3040 107 3051 91V112H3070V-20H3051V1zM3007 -4C3021 -4 3032 1 3040 11C3048 20 3052 32 3052 46C3052 61 3048 72 3040 82S3021 96 3007 96S2982 92 2973 82C2965 72 2961 61 2961 46C2961 32 2965 20 2973 11C2982 1 2993 -4 3007 -4zM3170 114V95H3168C3154 95 3142 89 3134 77C3125 67 3121 54 3121 38V-20H3102V112H3121V80C3125 94 3134 104 3148 110C3154 113 3161 114 3169 114H3170zM3243 -4C3261 -4 3274 4 3281 18H3302C3298 6 3291 -3 3281 -11C3271 -18 3259 -22 3243 -22C3224 -22 3208 -15 3195 -2A68 68 0 0 1 3177 46C3177 66 3183 82 3195 95S3222 114 3242 114C3261 114 3277 108 3289 95S3306 66 3306 46V38H3197C3199 26 3204 16 3212 8S3231 -4 3243 -4zM3242 96C3230 96 3220 93 3212 85C3204 78 3199 68 3198 57H3286C3284 68 3280 78 3272 85C3264 93 3254 96 3242 96zM3404 136V77H3500V58H3404V-1H3512V-20H3385V155H3512V136H3404zM3593 48L3644 -20H3619L3582 34L3545 -20H3520L3571 48L3523 112H3548L3582 62L3615 112H3640L3593 48zM3713 -4C3722 -4 3729 -1 3736 3C3742 8 3747 14 3750 22H3771C3767 9 3759 -2 3749 -10C3738 -18 3725 -22 3709 -22C3690 -22 3675 -15 3663 -2A69 69 0 0 1 3645 46C3645 66 3651 82 3663 95S3690 114 3709 114A60 60 0 0 1 3770 70H3750C3747 78 3742 85 3736 89C3729 94 3722 96 3713 96C3705 96 3698 95 3692 92C3686 90 3682 86 3678 82C3669 72 3665 60 3665 46S3669 20 3678 11C3686 1 3698 -4 3713 -4zM3850 -4C3868 -4 3880 4 3888 18H3909C3905 6 3898 -3 3888 -11C3878 -18 3866 -22 3850 -22C3830 -22 3815 -15 3802 -2A68 68 0 0 1 3784 46C3784 66 3790 82 3801 95C3814 108 3829 114 3849 114C3868 114 3884 108 3896 95S3913 66 3913 46V38H3804C3806 26 3810 16 3819 8C3827 0 3838 -4 3850 -4zM3849 96C3837 96 3827 93 3819 85C3811 78 3806 68 3805 57H3893C3891 68 3887 78 3879 85C3871 93 3861 96 3849 96zM3954 -20H3935V165H3954V-20zM4005 -20H3985V165H4005V-20zM4094 -4C4112 -4 4124 4 4132 18H4153C4149 6 4142 -3 4132 -11C4122 -18 4109 -22 4094 -22C4074 -22 4058 -15 4046 -2A68 68 0 0 1 4028 46C4028 66 4034 82 4045 95C4057 108 4073 114 4093 114C4112 114 4128 108 4140 95C4151 82 4157 66 4157 46V38H4048C4050 26 4054 16 4062 8C4071 0 4081 -4 4094 -4zM4093 96C4081 96 4071 93 4062 85C4055 78 4050 68 4048 57H4137C4135 68 4130 78 4123 85C4115 93 4105 96 4093 96zM4198 112V92C4203 98 4208 103 4215 108C4222 112 4230 114 4238 114C4247 114 4255 113 4261 111C4267 108 4273 105 4277 100C4288 89 4293 75 4293 57V-20H4274V57C4274 69 4270 78 4264 86C4257 93 4248 96 4237 96S4217 93 4209 85C4202 78 4198 68 4198 56V-20H4179V112H4198zM4383 -4A40 40 0 0 0 4420 22H4441C4437 9 4429 -2 4419 -10C4408 -18 4394 -22 4379 -22C4360 -22 4345 -15 4333 -2A69 69 0 0 1 4315 46C4315 66 4321 82 4333 95S4360 114 4379 114C4394 114 4408 110 4419 102C4429 94 4437 84 4441 71H4420C4417 78 4412 85 4405 89C4399 94 4392 96 4383 96C4375 96 4368 95 4362 92C4356 90 4351 86 4347 82C4339 72 4335 60 4335 46S4339 20 4347 11C4356 1 4368 -4 4383 -4zM4520 -4C4538 -4 4550 4 4558 18H4579C4575 6 4568 -3 4558 -11C4548 -18 4535 -22 4520 -22C4500 -22 4484 -15 4472 -2A68 68 0 0 1 4454 46C4454 66 4460 82 4471 95C4483 108 4499 114 4519 114C4538 114 4554 108 4566 95S4583 66 4583 46V38H4474C4476 26 4480 16 4489 8C4497 0 4507 -4 4520 -4zM4519 96C4507 96 4497 93 4489 85C4481 78 4476 68 4474 57H4563C4561 68 4557 78 4549 85C4541 93 4531 96 4519 96zM412 -6C412 -22 405 -25 394 -25H341C330 -25 321 -21 314 -12L130 235H128V-7C128 -20 122 -25 110 -25H52C38 -25 32 -22 32 -7V386C32 402 39 405 52 405H104C117 405 123 402 130 392L314 144H315V387C315 401 322 405 334 405H394C410 405 411 397 411 386V-6H412zM609 -10C609 -17 604 -24 595 -24H524C515 -24 510 -17 510 -10V392C510 400 515 407 524 407H595C604 407 609 400 609 393V-10zM1024 370L1006 318C1004 312 1001 309 997 309L989 311C956 327 931 332 902 332C837 332 796 283 796 192C796 94 843 52 903 52C932 52 958 57 987 69L996 72C1002 72 1005 69 1007 62L1023 16L1025 6C1025 0 1022 -5 1013 -8C971 -24 936 -32 888 -32C757 -32 691 55 691 189S772 416 896 416C941 416 978 407 1014 391C1023 387 1026 383 1026 379L1024 370zM1360 407C1373 407 1377 401 1376 392L1370 342C1369 329 1361 327 1346 327H1197V234H1337C1351 234 1356 227 1356 217V172C1356 160 1349 154 1338 154H1197V56H1358C1369 56 1376 51 1376 39V-7C1376 -18 1370 -24 1359 -24H1119C1105 -24 1098 -20 1098 -5V389C1098 400 1104 407 1114 407H1360z" />
    <glyph glyph-name="logo-name"
      unicode="&#xE01B;"
      horiz-adv-x="3288" d=" M186.249 403.578V224.747H162.752L52.2666 375.7727V224.747H32V403.578H55.4969L165.963 253.11V403.578H186.23H186.249zM320.712 246.342C309.906 230.477 293.793 222.555 272.353 222.555C252.913 222.555 237.069 229.305 224.802 242.823C212.899 256.129 206.958 272.628 206.958 292.261C206.958 311.894 212.899 328.373 224.802 341.679C237.05 355.1975 253.336 361.947 273.699 361.947C294.062 361.947 309.714 353.9476 320.712 337.911V359.8125H340.979V224.747H320.712V246.361V246.342zM275.064 240.938C289.659 240.938 301.1960000000001 245.976 309.637 256.0710000000001C317.751 265.6090000000001 321.789 277.685 321.789 292.28C321.789 306.875 317.7320000000001 318.9310000000001 309.637 328.488C301.176 338.564 289.659 343.622 275.064 343.622C260.662 343.622 248.933 338.564 239.954 328.488C231.474 318.951 227.263 306.875 227.263 292.28C227.263 277.685 231.493 265.628 239.954 256.0710000000001C248.933 245.976 260.662 240.938 275.064 240.938zM387.973 224.728V341.968H360.419V359.7933H387.973V408.1545H408.239V359.7933H439.293V341.968H408.239V224.728H387.973zM479.826 408.9814V382.5029H457.944V408.9814H479.826zM458.752 359.7933H479.019V224.728H458.752V359.7933zM570.045 361.9662C590.216 361.9662 606.598 355.2168000000001 619.212 341.699C631.095 328.738 637.036 312.259 637.036 292.28C637.036 272.301 631.095 255.821 619.212 242.842C606.598 229.324 590.235 222.574 570.045 222.574C549.855 222.574 533.473 229.324 520.878 242.842C508.995 255.802 503.054 272.2820000000001 503.054 292.28C503.054 312.278 508.995 328.738 520.878 341.699C533.473 355.2168000000001 549.855 361.9662 570.045 361.9662zM570.045 240.938C584.639 240.938 596.176 245.976 604.637 256.0710000000001C612.732 265.6090000000001 616.789 277.685 616.789 292.28C616.789 306.875 612.732 318.9310000000001 604.637 328.488C596.176 338.564 584.639 343.622 570.045 343.622C555.451 343.622 543.933 338.564 535.453 328.488C527.358 318.951 523.301 306.875 523.301 292.28C523.301 277.685 527.358 265.628 535.453 256.0710000000001C543.933 245.976 555.47 240.938 570.045 240.938zM681.338 359.7933V338.718C686.184 345.198 692.164 350.6979 699.163 355.1975C706.162 359.6971 714.219 361.947 723.217 361.947C732.216 361.947 739.965 360.6971 746.445 358.178C752.925 355.659 758.597 351.8709 763.462 346.833C774.615 335.853 780.21 321.354 780.21 303.317V224.709H759.943V302.779C759.943 315.2200000000001 756.425 325.123 749.406 332.507C742.388 339.891 733.293 343.583 722.141 343.583C710.796 343.583 701.143 339.814 693.221 332.219C685.299 324.469 681.338 314.5660000000001 681.338 302.51V224.709H661.072V359.7741H681.338V359.7933zM911.443 246.342C900.637 230.477 884.523 222.555 863.065 222.555C843.644 222.555 827.781 229.305 815.532 242.823C803.649 256.129 797.708 272.628 797.708 292.261C797.708 311.894 803.649 328.373 815.532 341.679C827.761 355.1975 844.067 361.947 864.43 361.947C884.792 361.947 900.444 353.9476 911.424 337.911V359.8125H931.671V224.747H911.424V246.361L911.443 246.342zM865.776 240.938C880.37 240.938 891.907 245.976 900.367 256.0710000000001C908.462 265.6090000000001 912.52 277.685 912.52 292.28C912.52 306.875 908.443 318.9310000000001 900.367 328.488C891.907 338.564 880.351 343.622 865.776 343.622C851.374 343.622 839.644 338.564 830.665 328.488C822.185 318.951 817.974 306.875 817.974 292.28C817.974 277.685 822.204 265.628 830.665 256.0710000000001C839.664 245.976 851.374 240.938 865.776 240.938zM984.356 224.728H964.09V413.8271H984.356V224.728zM1096.21 224.728H1075.94V403.5588H1096.21V224.728zM1153.2 359.7933V338.718C1158.08 345.198 1164.03 350.6979 1171.04 355.1975C1178.06 359.6971 1186.08 361.947 1195.1 361.947C1204.1 361.947 1211.83 360.6971 1218.31 358.178C1224.79 355.659 1230.46 351.8709 1235.34 346.833C1246.51 335.853 1252.07 321.354 1252.07 303.317V224.709H1231.82V302.779C1231.82 315.2200000000001 1228.29 325.123 1221.29 332.507C1214.29 339.891 1205.15 343.583 1193.98 343.583C1182.64 343.583 1173 339.814 1165.08 332.219C1157.14 324.469 1153.18 314.5660000000001 1153.18 302.51V224.709H1132.91V359.7741H1153.18L1153.2 359.7933zM1362.54 323.604C1360.75 337.641 1349.44 344.66 1328.66 344.66C1307.87 344.66 1297.45 338.18 1297.45 325.219C1297.45 319.8160000000001 1299.66 315.701 1304.05 312.932C1308.47 310.144 1313.99 307.836 1320.68 306.048C1327.33 304.26 1334.6 302.587 1342.42 301.048C1350.25 299.51 1357.5 297.356 1364.17 294.568C1370.84 291.78 1376.36 287.953 1380.79 283.088C1385.21 278.223 1387.4 271.551 1387.4 263.1090000000001C1387.4 249.957 1382.46 239.919 1372.56 232.977C1362.65 226.036 1349.25 222.574 1332.29 222.574C1314.26 222.574 1299.95 227.074 1289.34 236.092C1279.61 244.015 1274.4 254.36 1273.66 267.147H1294.74C1295.99 254.706 1303.03 246.342 1315.77 242.015C1320.47 240.573 1325.12 239.861 1329.72 239.861C1334.31 239.861 1338.58 240.131 1342.56 240.669C1346.52 241.207 1350.39 242.188 1354.17 243.649C1362.81 247.072 1367.13 252.937 1367.13 261.206C1367.13 266.7820000000001 1364.9 271.051 1360.54 274.051C1356.12 277.031 1350.6 279.454 1343.91 281.339C1337.21 283.223 1329.98 284.954 1322.16 286.473C1314.33 287.992 1307.08 290.107 1300.41 292.838C1293.74 295.568 1288.22 299.222 1283.8 303.913C1279.38 308.605 1277.18 315.086 1277.18 323.354C1277.18 335.603 1281.64 345.102 1290.55 351.8709C1299.45 358.6396 1312.66 362.0046 1330.12 362.0046C1346.69 362.0046 1359.73 358.0242 1369.31 350.1018000000001C1377.21 343.429 1381.82 334.603 1383.07 323.6430000000001H1362.54V323.604zM1425.22 224.728V341.968H1397.67V359.7933H1425.22V408.1545H1445.49V359.7933H1476.54V341.968H1445.49V224.728H1425.22zM1517.06 408.9814V382.5029H1495.16V408.9814H1517.06zM1496 359.7933H1516.27V224.728H1496V359.7933zM1563.26 224.728V341.968H1535.69V359.7933H1563.26V408.1545H1583.51V359.7933H1614.56V341.968H1583.51V224.728H1563.26zM1731.55 224.728V245.803C1726.68 239.342 1720.74 233.823 1713.7 229.324C1706.67 224.824 1698.67 222.574 1689.65 222.574C1680.63 222.574 1672.9 223.824 1666.42 226.343C1659.94 228.862 1654.27 232.631 1649.4 237.688C1638.25 248.668 1632.68 263.1670000000001 1632.68 281.204V359.8125H1652.92V281.742C1652.92 269.301 1656.46 259.398 1663.48 252.014C1670.5 244.63 1679.59 240.938 1690.74 240.938C1702.11 240.938 1711.74 244.707 1719.68 252.283C1727.59 260.033 1731.59 269.9550000000001 1731.59 282.012V359.8125H1751.85V224.747H1731.59L1731.55 224.728zM1798.83 224.728V341.968H1771.25V359.7933H1798.83V408.1545H1819.07V359.7933H1850.13V341.968H1819.07V224.728H1798.83zM1927.12 240.938C1945.33 240.938 1958.36 248.495 1966.29 263.628H1988.44C1983.75 251.38 1976.32 241.477 1966.15 233.9C1955.98 226.324 1942.87 222.555 1926.85 222.555C1906.51 222.555 1889.93 229.305 1877.16 242.823C1864.72 255.975 1858.49 272.435 1858.49 292.261C1858.49 312.259 1864.45 328.719 1876.36 341.679C1888.95 355.1975 1905.33 361.947 1925.52 361.947C1945.71 361.947 1962.09 355.1975 1974.71 341.679C1986.61 328.719 1992.53 312.24 1992.53 292.261V284.165H1879.34C1880.76 271.724 1885.74 261.475 1894.18 253.36C1902.83 245.053 1913.81 240.919 1927.14 240.919L1927.12 240.938zM1925.5 343.583C1913.08 343.583 1902.62 339.718 1894.16 331.969C1886.26 324.5660000000001 1881.37 314.951 1879.57 303.067H1971.4C1969.61 314.9700000000001 1964.73 324.5660000000001 1956.81 331.969C1948.38 339.718 1937.9 343.583 1925.48 343.583H1925.5zM2127.55 396.8286C2118.02 396.8286 2110.86 394.7134 2106.08 390.4637C2101.29 386.2141000000001 2098.92 379.4262 2098.92 370.0809V359.8125H2130.26V341.968H2098.92V224.728H2078.66V341.968H2055.43V359.7933H2078.66V371.6769C2078.66 386.4448 2083.06 397.54 2091.9 404.924C2100.71 412.308 2112.96 416 2128.63 416H2130.26V396.8093H2127.53L2127.55 396.8286zM2205.64 361.9662C2225.81 361.9662 2242.19 355.2168000000001 2254.81 341.699C2266.71 328.738 2272.63 312.259 2272.63 292.28C2272.63 272.301 2266.71 255.821 2254.81 242.842C2242.21 229.324 2225.83 222.574 2205.64 222.574C2185.45 222.574 2169.07 229.324 2156.45 242.842C2144.57 255.802 2138.61 272.2820000000001 2138.61 292.28C2138.61 312.278 2144.57 328.738 2156.45 341.699C2169.07 355.2168000000001 2185.45 361.9662 2205.64 361.9662zM2205.64 240.938C2220.23 240.938 2231.75 245.976 2240.21 256.0710000000001C2248.31 265.6090000000001 2252.36 277.685 2252.36 292.28C2252.36 306.875 2248.29 318.9310000000001 2240.21 328.488C2231.73 338.564 2220.21 343.622 2205.64 343.622C2191.06 343.622 2179.53 338.564 2171.05 328.488C2162.95 318.951 2158.9 306.875 2158.9 292.28C2158.9 277.685 2162.95 265.628 2171.05 256.0710000000001C2179.53 245.976 2191.04 240.938 2205.64 240.938zM2367.98 361.9662V341.699H2365.54C2350.95 341.699 2339.06 335.853 2329.87 324.1430000000001C2321.24 312.9700000000001 2316.91 299.645 2316.91 284.165V224.728H2296.65V359.8125H2316.91V326.585C2321.22 340.66 2330.58 350.9864 2345.01 357.6589C2350.93 360.5432 2358.14 361.9854000000001 2366.6 361.9854000000001H2367.94V361.9662H2367.98zM176.539 149.004V-29.827H156.272V49.858H52.2474V-29.827H32V149.004H52.2474V69.587H156.272V149.004H176.539zM271.084 -13.617C289.274 -13.617 302.33 -6.06 310.252 9.073H332.403C327.711 -3.175 320.289 -13.059 310.118 -20.636C299.9460000000001 -28.212 286.832 -32 270.815 -32C250.471 -32 233.897 -25.231 221.11 -11.732C208.688 1.42 202.478 17.88 202.478 37.686C202.478 57.704 208.4 74.145 220.302 87.144C232.897 100.642 249.279 107.411 269.45 107.411C289.62 107.411 306.022 100.642 318.636 87.144C330.538 74.164 336.46 57.685 336.46 37.686V29.591H223.263C224.686 17.169 229.647 6.901 238.127 -1.214C246.76 -9.521 257.74 -13.636 271.084 -13.636V-13.617zM269.45 89.047C257.028 89.047 246.587 85.182 238.127 77.433C230.205 70.03 225.34 60.396 223.513 48.512H315.367C313.579 60.396 308.695 70.011 300.773 77.433C292.312 85.202 281.871 89.047 269.431 89.047H269.45zM463.944 -8.233C453.137 -24.097 437.024 -32 415.584 -32C396.145 -32 380.281 -25.231 368.033 -11.732C356.131 1.593 350.2080000000001 18.073 350.2080000000001 37.686C350.2080000000001 57.3 356.131 73.818 368.033 87.144C380.281 100.642 396.568 107.411 416.93 107.411C437.293 107.411 452.945 99.373 463.944 83.336V105.238H484.21V-29.846H463.944V-8.214V-8.233zM418.296 -13.617C432.89 -13.617 444.408 -8.56 452.887 1.516C460.982 11.054 465.04 23.111 465.04 37.706C465.04 52.32 460.982 64.357 452.887 73.933C444.408 84.009 432.89 89.067 418.296 89.067C403.894 89.067 392.1840000000001 84.009 383.185 73.933C374.705 64.357 370.4940000000001 52.339 370.4940000000001 37.706C370.4940000000001 23.111 374.724 11.054 383.185 1.516C392.1840000000001 -8.56 403.874 -13.617 418.296 -13.617zM536.876 -29.827H516.61V159.272H536.876V-29.827zM583.909 -29.827V87.413H556.355V105.257H583.909V153.58H604.175V105.238H635.248V87.394H604.175V-29.846L583.909 -29.827zM674.916 159.272V84.144C679.762 90.624 685.722 96.143 692.741 100.642C699.759 105.142 707.777 107.411 716.795 107.411C725.794 107.411 733.543 106.142 740.023 103.623C746.503 101.104 752.175 97.297 757.04 92.259C768.212 81.279 773.788 66.761 773.788 48.762V-29.846H753.521V48.205C753.521 60.646 750.022 70.549 742.984 77.933C735.966 85.298 726.871 89.009 715.699 89.009C704.355 89.009 694.721 85.221 686.799 77.664C678.877 69.895 674.916 60.011 674.916 47.955V-29.846H654.649V159.253H674.916V159.272zM965.051 -8.233C954.226 -24.097 938.132 -32 916.692 -32C897.252 -32 881.389 -25.231 869.16 -11.732C857.258 1.593 851.316 18.073 851.316 37.686C851.316 57.3 857.238 73.818 869.16 87.144C881.389 100.642 897.675 107.411 918.038 107.411C938.401 107.411 954.053 99.373 965.032 83.336V105.238H985.299V-29.846H965.032V-8.214L965.051 -8.233zM919.384 -13.617C933.978 -13.617 945.496 -8.56 953.957 1.516C962.071 11.054 966.128 23.111 966.128 37.706C966.128 52.32 962.071 64.357 953.957 73.933C945.477 84.009 933.959 89.067 919.384 89.067C904.982 89.067 893.272 84.009 884.293 73.933C875.794 64.357 871.602 52.339 871.602 37.706C871.602 23.111 875.813 11.054 884.293 1.516C893.291 -8.56 905.001 -13.617 919.384 -13.617zM1032.79 105.238V84.144C1037.64 90.624 1043.58 96.143 1050.62 100.642C1057.62 105.142 1065.67 107.411 1074.67 107.411C1083.67 107.411 1091.4 106.142 1097.9 103.623C1104.38 101.104 1110.05 97.297 1114.92 92.259C1126.09 81.279 1131.66 66.761 1131.66 48.762V-29.846H1111.4V48.205C1111.4 60.646 1107.88 70.549 1100.86 77.933C1093.84 85.298 1084.75 89.009 1073.58 89.009C1062.23 89.009 1052.58 85.221 1044.66 77.664C1036.73 69.895 1032.77 60.011 1032.77 47.955V-29.846H1012.51V105.238L1032.79 105.219V105.238zM1262.88 -8.233C1252.07 -24.097 1235.96 -32 1214.52 -32C1195.08 -32 1179.23 -25.231 1166.97 -11.732C1155.08 1.593 1149.12 18.073 1149.12 37.686C1149.12 57.3 1155.08 73.818 1166.97 87.144C1179.22 100.642 1195.5 107.411 1215.86 107.411C1236.23 107.411 1251.88 99.373 1262.88 83.336V159.253H1283.13V-29.846H1262.88V-8.214V-8.233zM1217.23 -13.617C1231.84 -13.617 1243.36 -8.56 1251.8 1.516C1259.9 11.054 1263.95 23.111 1263.95 37.706C1263.95 52.32 1259.9 64.357 1251.8 73.933C1243.34 84.009 1231.82 89.067 1217.23 89.067C1202.83 89.067 1191.1 84.009 1182.12 73.933C1173.66 64.357 1169.43 52.339 1169.43 37.706C1169.43 23.111 1173.68 11.054 1182.12 1.516C1191.1 -8.56 1202.83 -13.617 1217.23 -13.617zM1459.58 -12.271C1472.37 -12.271 1483.58 -9.021 1493.23 -2.541C1502.85 3.939 1510 12.689 1514.69 23.668H1536.05C1530.13 6.727 1520.29 -6.598 1506.6 -16.309C1492 -26.75 1474.81 -31.981 1455.01 -31.981C1428.89 -31.981 1407.74 -23.039 1391.53 -5.233C1376.21 11.9 1368.58 33.514 1368.58 59.608C1368.58 85.701 1376.23 107.353 1391.53 124.448C1407.74 142.293 1428.89 151.196 1455.01 151.196C1474.83 151.196 1492.02 145.966 1506.6 135.524C1520.29 125.794 1530.11 112.488 1536.05 95.547H1514.69C1510 106.527 1502.85 115.276 1493.23 121.756C1483.58 128.236 1472.39 131.486 1459.58 131.486C1446.78 131.486 1436.16 129.64 1427.72 125.929C1419.24 122.256 1412.13 117.16 1406.36 110.661C1394.65 97.508 1388.8 80.49 1388.8 59.608C1388.8 38.725 1394.63 21.707 1406.36 8.554C1418.61 -5.368 1436.36 -12.29 1459.58 -12.29V-12.271zM1664.63 -8.233C1653.83 -24.097 1637.73 -32 1616.27 -32C1596.83 -32 1580.99 -25.231 1568.72 -11.732C1556.82 1.593 1550.9 18.073 1550.9 37.686C1550.9 57.3 1556.82 73.818 1568.72 87.144C1580.97 100.642 1597.28 107.411 1617.6 107.411C1637.96 107.411 1653.62 99.373 1664.61 83.336V105.238H1684.86V-29.846H1664.61V-8.214L1664.63 -8.233zM1618.99 -13.617C1633.58 -13.617 1645.1 -8.56 1653.56 1.516C1661.65 11.054 1665.69 23.111 1665.69 37.706C1665.69 52.32 1661.63 64.357 1653.56 73.933C1645.08 84.009 1633.56 89.067 1618.99 89.067C1604.56 89.067 1592.85 84.009 1583.85 73.933C1575.39 64.357 1571.16 52.339 1571.16 37.706C1571.16 23.111 1575.41 11.054 1583.85 1.516C1592.83 -8.56 1604.56 -13.617 1618.99 -13.617zM1788.62 107.411V87.144H1786.19C1771.6 87.144 1759.72 81.279 1750.54 69.568C1741.91 58.396 1737.57 45.09 1737.57 29.591V-29.827H1717.3V105.257H1737.57V72.01C1741.91 86.086 1751.26 96.412 1765.68 103.085C1771.62 105.969 1778.85 107.43 1787.29 107.43H1788.64V107.411H1788.62zM1864.53 -13.617C1882.72 -13.617 1895.78 -6.06 1903.7 9.073H1925.85C1921.16 -3.175 1913.73 -13.059 1903.56 -20.636C1893.39 -28.212 1880.28 -32 1864.26 -32C1843.92 -32 1827.36 -25.231 1814.56 -11.732C1802.12 1.42 1795.9 17.88 1795.9 37.686C1795.9 57.704 1801.85 74.145 1813.77 87.144C1826.36 100.642 1842.74 107.411 1862.91 107.411C1883.09 107.411 1899.49 100.642 1912.1 87.144C1924 74.164 1929.94 57.685 1929.94 37.686V29.591H1816.75C1818.19 17.169 1823.13 6.901 1831.59 -1.214C1840.24 -9.521 1851.22 -13.636 1864.57 -13.636L1864.53 -13.617zM1862.9 89.047C1850.47 89.047 1840.03 85.182 1831.55 77.433C1823.65 70.03 1818.79 60.396 1816.96 48.512H1908.81C1907.02 60.396 1902.14 70.011 1894.2 77.433C1885.78 85.202 1875.34 89.047 1862.88 89.047H1862.9zM2031.47 129.582V69.587H2130.88V49.858H2031.47V-10.406H2142.78V-29.827H2011.22V149.004H2142.78V129.582H2031.47zM2227.6 39.859L2280 -29.846H2254.06L2215.98 25.264L2177.62 -29.846H2151.97L2204.08 39.859L2155.2 105.238H2181.14L2215.98 54.185L2250.56 105.238H2276.48L2227.6 39.859zM2352.39 -13.617C2361.02 -13.617 2368.7 -11.194 2375.35 -6.348C2382 -1.464 2386.87 4.824 2389.96 12.573H2411.84C2407.69 -0.753 2400.11 -11.463 2389.13 -19.559C2377.62 -27.866 2363.93 -32 2348.06 -32C2328.24 -32 2312.14 -25.231 2299.72 -11.732C2287.67 1.42 2281.63 17.88 2281.63 37.686C2281.63 57.492 2287.67 73.972 2299.72 87.144C2312.16 100.642 2328.26 107.411 2348.06 107.411C2363.93 107.411 2377.62 103.258 2389.13 94.97C2400.11 86.874 2407.69 76.145 2411.84 62.838H2389.96C2386.88 70.568 2382.02 76.875 2375.35 81.721C2368.68 86.567 2361.04 89.028 2352.39 89.028C2343.76 89.028 2336.39 87.682 2330.37 84.971C2324.35 82.259 2319.24 78.548 2315.11 73.895C2306.26 64.165 2301.86 52.108 2301.86 37.667C2301.86 23.265 2306.26 11.189 2315.11 1.478C2324.12 -8.54 2336.55 -13.578 2352.39 -13.578V-13.617zM2494.47 -13.617C2512.68 -13.617 2525.71 -6.06 2533.63 9.073H2555.77C2551.09 -3.175 2543.67 -13.059 2533.5 -20.636C2523.33 -28.212 2510.23 -32 2494.2 -32C2473.85 -32 2457.3 -25.231 2444.51 -11.732C2432.07 1.42 2425.86 17.88 2425.86 37.686C2425.86 57.704 2431.8 74.145 2443.69 87.144C2456.28 100.642 2472.68 107.411 2492.85 107.411C2513.02 107.411 2529.4 100.642 2542.04 87.144C2553.92 74.164 2559.86 57.685 2559.86 37.686V29.591H2446.67C2448.09 17.169 2453.05 6.901 2461.51 -1.214C2470.14 -9.521 2481.14 -13.636 2494.47 -13.636V-13.617zM2492.85 89.047C2480.43 89.047 2469.97 85.182 2461.51 77.433C2453.59 70.03 2448.72 60.396 2446.92 48.512H2538.75C2536.96 60.396 2532.08 70.011 2524.16 77.433C2515.71 85.202 2505.25 89.047 2492.83 89.047H2492.85zM2602.24 -29.827H2581.99V159.272H2602.24V-29.827zM2654.95 -29.827H2634.68V159.272H2654.95V-29.827zM2747.61 -13.617C2765.78 -13.617 2778.85 -6.06 2786.76 9.073H2808.89C2804.21 -3.175 2796.79 -13.059 2786.62 -20.636C2776.45 -28.212 2763.32 -32 2747.32 -32C2726.96 -32 2710.4 -25.231 2697.61 -11.732C2685.17 1.42 2678.96 17.88 2678.96 37.686C2678.96 57.704 2684.9 74.145 2696.81 87.144C2709.4 100.642 2725.8 107.411 2745.99 107.411C2766.18 107.411 2782.54 100.642 2795.14 87.144C2807.04 74.164 2812.98 57.685 2812.98 37.686V29.591H2699.81C2701.25 17.169 2706.19 6.901 2714.65 -1.214C2723.3 -9.521 2734.28 -13.636 2747.63 -13.636L2747.61 -13.617zM2745.97 89.047C2733.51 89.047 2723.09 85.182 2714.61 77.433C2706.71 70.03 2701.84 60.396 2700.04 48.512H2791.87C2790.08 60.396 2785.2 70.011 2777.28 77.433C2768.82 85.202 2758.37 89.047 2745.95 89.047H2745.97zM2855.38 105.238V84.144C2860.23 90.624 2866.17 96.143 2873.19 100.642C2880.21 105.142 2888.24 107.411 2897.26 107.411C2906.26 107.411 2914.01 106.142 2920.49 103.623C2926.97 101.104 2932.64 97.297 2937.51 92.259C2948.68 81.279 2954.25 66.761 2954.25 48.762V-29.846H2933.99V48.205C2933.99 60.646 2930.47 70.549 2923.45 77.933C2916.43 85.298 2907.34 89.009 2896.16 89.009C2884.82 89.009 2875.19 85.221 2867.25 77.664C2859.32 69.895 2855.36 60.011 2855.36 47.955V-29.846H2835.1V105.238L2855.38 105.219V105.238zM3047.7 -13.617C3056.34 -13.617 3064.01 -11.194 3070.66 -6.348C3077.31 -1.464 3082.18 4.824 3085.27 12.573H3107.16C3102.98 -0.753 3095.45 -11.463 3084.45 -19.559C3072.93 -27.866 3059.24 -32 3043.4 -32C3023.59 -32 3007.46 -25.231 2995.04 -11.732C2982.98 1.42 2976.94 17.88 2976.94 37.686C2976.94 57.492 2982.98 73.972 2995.04 87.144C3007.48 100.642 3023.59 107.411 3043.4 107.411C3059.24 107.411 3072.93 103.258 3084.45 94.97C3095.45 86.874 3102.98 76.145 3107.16 62.838H3085.27C3082.2 70.568 3077.33 76.875 3070.66 81.721C3063.99 86.567 3056.36 89.028 3047.7 89.028C3039.07 89.028 3031.7 87.682 3025.69 84.971C3019.67 82.259 3014.55 78.548 3010.42 73.895C3001.57 64.165 2997.17 52.108 2997.17 37.667C2997.17 23.265 3001.57 11.189 3010.42 1.478C3019.42 -8.54 3031.84 -13.578 3047.7 -13.578V-13.617zM3189.8 -13.617C3207.99 -13.617 3221.05 -6.06 3228.95 9.073H3251.12C3246.43 -3.175 3238.99 -13.059 3228.81 -20.636C3218.64 -28.212 3205.55 -32 3189.51 -32C3169.19 -32 3152.59 -25.231 3139.83 -11.732C3127.37 1.42 3121.17 17.88 3121.17 37.686C3121.17 57.704 3127.12 74.145 3139.02 87.144C3151.61 100.642 3167.99 107.411 3188.18 107.411C3208.37 107.411 3224.74 100.642 3237.37 87.144C3249.25 74.164 3255.19 57.685 3255.19 37.686V29.591H3142C3143.44 17.169 3148.4 6.901 3156.84 -1.214C3165.49 -9.521 3176.47 -13.636 3189.82 -13.636L3189.8 -13.617zM3188.18 89.047C3175.74 89.047 3165.3 85.182 3156.84 77.433C3148.94 70.03 3144.05 60.396 3142.25 48.512H3234.08C3232.29 60.396 3227.43 70.011 3219.49 77.433C3211.05 85.202 3200.57 89.047 3188.16 89.047H3188.18z" />
    <glyph glyph-name="logo"
      unicode="&#xE01A;"
      horiz-adv-x="1410" d=" M412.096 -6.07C412.096 -22.216 405.306 -25.31 394.156 -25.31H341.532C330.383 -25.31 321.123 -20.959 314.275 -11.658L129.821 234.685H128.567V-6.689C128.567 -20.34 122.375 -25.29 110.01 -25.29H52.4284C38.1922 -25.29 32 -22.197 32 -7.288V386.0869C32 402.2133 39.4268 405.3264 52.4284 405.3264H104.416C116.781 405.3264 122.973 401.5945 129.783 392.2938L314.237 144.095H315.471V387.3438C315.471 400.9758 322.281 405.3264 334.665 405.3264H394.716C410.804 405.3264 412.039 396.6445 412.039 386.0869V-6.051H412.077L412.096 -6.07zM609.398 -9.647C609.398 -17.092 604.459 -23.937 595.798 -23.937H524.597C515.338 -23.937 510.998 -17.092 510.998 -10.286V392.4485C510.998 399.8930000000001 515.955 406.6993 524.597 406.6993H595.798C605.077 406.6993 609.398 399.8930000000001 609.398 393.0479000000001V-9.647V-9.647zM1025.41 370.0959000000001L1007.45 317.966C1005 311.759 1002.52 308.665 998.194 308.665C995.725 308.665 993.256 309.902 990.15 311.159C957.337 326.647 931.951 332.255 902.881 332.255C838.49 332.255 797.035 282.6190000000001 797.035 192.029C797.035 93.975 844.045 51.822 904.752 51.822C933.842 51.822 959.228 57.352 988.298 69.148C992.002 70.424 995.127 71.642 997.577 71.642C1003.15 71.642 1006.24 69.148 1008.71 61.722L1024.2 15.78C1025.43 12.067 1026.05 8.973 1026.05 5.86C1026.05 -0.347 1023.58 -4.697 1014.9 -7.791C972.191 -23.937 936.889 -32 889.242 -32C758.01 -32 691.787 55.496 691.787 188.897C691.787 322.935 772.864 416 897.286 416C941.866 416 979.637 407.2987 1015.52 391.1723C1024.2 387.4598 1027.3 383.1091 1027.3 378.7778C1027.32 376.2835 1026.69 373.1897 1025.43 370.0766L1025.41 370.0959000000001zM1362.47 406.7186C1374.86 406.7186 1378.54 400.5117 1377.94 392.4679L1372.37 342.194C1371.13 329.161 1363.09 326.6670000000001 1348.24 326.6670000000001H1198.41V234.24H1338.94C1352.58 234.24 1357.51 227.414 1357.51 217.495V172.209C1357.51 159.776 1351.32 154.207 1339.57 154.207H1198.43V56.134H1360C1371.13 56.134 1377.96 51.204 1377.96 39.408V-6.534C1377.96 -18.31 1372.39 -23.898 1360.64 -23.898H1120.42C1106.18 -23.898 1100.01 -20.166 1100.01 -4.659V389.3547C1100.01 399.9123 1105.58 406.7186 1116.1 406.7186L1362.47 406.738V406.7186z" />
    <glyph glyph-name="minus"
      unicode="&#xE02A;"
      horiz-adv-x="512" d=" M479 222.504V161.496C479 153.027 476.043 145.827 470.13 139.896C464.217 133.965 457.039 131 448.5950000000001 131H63.4051C54.9612 131 47.7827 133.965 41.8696 139.896C35.9565 145.827 33 153.027 33 161.496V222.504C33 230.973 35.9565 238.173 41.8696 244.104C47.7827 250.035 54.9612 253 63.4051 253H448.5950000000001C457.039 253 464.217 250.035 470.13 244.104C476.043 238.173 479 230.973 479 222.504z" />
    <glyph glyph-name="pathways"
      unicode="&#xE005;"
      horiz-adv-x="512" d=" M479 104.453V24.872C479 18.242 476.677 12.606 472.031 7.964C467.385 3.321 461.745 1 455.111 1H375.472C368.838 1 363.198 3.321 358.552 7.964C353.906 12.606 351.5830000000001 18.242 351.5830000000001 24.872V104.453C351.5830000000001 111.082 353.906 116.718 358.552 121.36C363.198 126.003 368.838 128.324 375.472 128.324H399.361V176.081H271.931V128.324H295.819C302.454 128.324 308.094 126.003 312.74 121.36C317.385 116.718 319.7080000000001 111.082 319.7080000000001 104.453V24.872C319.7080000000001 18.242 317.385 12.606 312.74 7.964C308.094 3.321 302.454 1 295.819 1H216.181C209.546 1 203.906 3.321 199.26 7.964C194.615 12.606 192.292 18.242 192.292 24.872V104.453C192.292 111.082 194.615 116.718 199.26 121.36C203.906 126.003 209.546 128.324 216.181 128.324H240.069V176.081H112.639V128.324H136.528C143.162 128.324 148.802 126.003 153.448 121.36C158.094 116.718 160.417 111.082 160.417 104.453V24.872C160.417 18.242 158.094 12.606 153.448 7.964C148.802 3.321 143.162 1 136.528 1H56.8889C50.2546 1 44.6146 3.321 39.9688 7.964C35.3229 12.606 33 18.242 33 24.872V104.453C33 111.082 35.3229 116.718 39.9688 121.36C44.6146 126.003 50.2546 128.324 56.8889 128.324H80.7777V176.081C80.7777 184.707 83.9323 192.167 90.2413 198.462C96.5504 204.757 104.016 207.91 112.639 207.919H240.069V255.676H216.181C209.546 255.676 203.906 257.997 199.26 262.64C194.615 267.2820000000001 192.292 272.918 192.292 279.5470000000001V359.1285000000001C192.292 365.7579 194.615 371.3939000000001 199.26 376.0363C203.906 380.6788 209.546 383 216.181 383H295.819C302.454 383 308.094 380.6788 312.74 376.0363C317.385 371.3939000000001 319.7080000000001 365.7579 319.7080000000001 359.1285000000001V279.5470000000001C319.7080000000001 272.918 317.385 267.2820000000001 312.74 262.64C308.094 257.997 302.454 255.676 295.819 255.676H271.931V207.919H399.361C407.993 207.919 415.459 204.767 421.759 198.462C428.058 192.158 431.213 184.697 431.222 176.081V128.324H455.111C461.745 128.324 467.385 126.003 472.031 121.36C476.677 116.718 479 111.082 479 104.453V104.453z" />
    <glyph glyph-name="play"
      unicode="&#xE028;"
      horiz-adv-x="512" d=" M450.424 183.332L71 -27.532C66.616 -30.007 62.856 -30.295 59.72 -28.396C56.584 -26.498 55.0107 -23.068 55 -18.108V402.4677C55 407.4170000000001 56.5733 410.8464 59.72 412.7557C62.8667 414.665 66.6267 414.377 71 411.8917L450.424 201.028C454.808 198.553 457 195.598 457 192.164C457 188.729 454.808 185.774 450.424 183.3V183.332z" />
    <glyph glyph-name="plus"
      unicode="&#xE027;"
      horiz-adv-x="512" d=" M480 221.981V161.019C480 152.557 477.037 145.362 471.111 139.436C465.185 133.51 457.99 130.547 449.528 130.547H317.453V-1.528C317.453 -9.99 314.49 -17.185 308.564 -23.111C302.638 -29.037 295.443 -32 286.981 -32H226.019C217.557 -32 210.362 -29.037 204.436 -23.111C198.51 -17.185 195.547 -9.99 195.547 -1.528V130.547H63.472C55.0095 130.547 47.8153 133.51 41.8892 139.436C35.9631 145.362 33 152.557 33 161.019V221.981C33 230.443 35.9631 237.638 41.8892 243.564C47.8153 249.49 55.0095 252.453 63.472 252.453H195.547V384.528C195.547 392.9905 198.51 400.1847 204.436 406.1108C210.362 412.0369 217.557 415 226.019 415H286.981C295.443 415 302.638 412.0369 308.564 406.1108C314.49 400.1847 317.453 392.9905 317.453 384.528V252.453H449.528C457.99 252.453 465.185 249.49 471.111 243.564C477.037 237.638 480 230.443 480 221.981V221.981z" />
    <glyph glyph-name="podcast"
      unicode="&#xE00B;"
      horiz-adv-x="512" d=" M126.824 109.152H64.984C48.408 109.152 35 122.576 35 139.184V245.088C35 261.632 48.408 275.04 64.984 275.04H126.824V109.152zM305.464 18.304L160.536 101.76V282.576L305.464 366V18.304zM345.592 128.944C361.768 145.168 371.88 167.536 371.88 192.192C371.928 216.88 361.96 239.28 345.768 255.536L372.472 282.128C395.384 259.072 409.656 227.296 409.56 192.16C409.56 157.024 395.224 125.232 372.1840000000001 102.256L345.592 128.944V128.944zM419.416 54.832L392.136 82.24C420.344 110.336 437.752 149.216 437.848 192.144C437.944 235.072 420.584 273.92 392.504 302.128L419.88 329.392C454.968 294.192 476.6 245.728 476.488 192.112C476.424 138.512 454.616 89.92 419.432 54.832H419.416z" />
    <glyph glyph-name="print"
      unicode="&#xE001;"
      horiz-adv-x="512" d=" M419.128 294.712V389H92.328V294.712H35V77.192H92.152V136.632H419.112V77.192H476.456V294.712H419.112H419.128zM376.264 294.712H135.176V346.136H376.2320000000001V294.712H376.264zM433.96 240.328C426.792 240.328 420.984 246.12 420.984 253.288C420.984 260.456 426.792 266.248 433.96 266.248C441.128 266.248 446.936 260.456 446.936 253.288C446.952 246.12 441.128 240.328 433.96 240.328zM375.576 -4.232H135.192V99.688H375.56V-4.232H375.576z" />
    <glyph glyph-name="question-circle"
      unicode="&#xF059;"
      horiz-adv-x="512" d=" M293.3330000000001 52V108C293.3330000000001 110.722 292.4580000000001 112.958 290.7080000000001 114.708C288.9580000000001 116.458 286.722 117.333 284 117.333H228C225.278 117.333 223.042 116.458 221.292 114.708C219.542 112.958 218.667 110.722 218.667 108V52C218.667 49.278 219.542 47.042 221.292 45.292C223.042 43.542 225.278 42.667 228 42.667H284C286.722 42.667 288.9580000000001 43.542 290.7080000000001 45.292C292.4580000000001 47.042 293.3330000000001 49.278 293.3330000000001 52zM368 248C368 265.111 362.604 280.958 351.812 295.5420000000001C341.021 310.125 327.556 321.403 311.417 329.375C295.278 337.347 278.75 341.333 261.8330000000001 341.333C214.583 341.333 178.514 320.625 153.625 279.208C150.708 274.5420000000001 151.486 270.458 155.958 266.958L194.458 237.792C195.819 236.625 197.667 236.042 200 236.042C203.111 236.042 205.542 237.208 207.292 239.542C217.597 252.764 225.958 261.708 232.375 266.375C238.986 271.0420000000001 247.347 273.375 257.4580000000001 273.375C266.792 273.375 275.104 270.847 282.396 265.7920000000001C289.687 260.736 293.3330000000001 255 293.3330000000001 248.583C293.3330000000001 241.194 291.389 235.264 287.5 230.792C283.611 226.319 277 221.944 267.667 217.667C255.417 212.222 244.187 203.813 233.979 192.438C223.771 181.063 218.667 168.861 218.667 155.833V145.333C218.667 142.611 219.542 140.375 221.292 138.625C223.042 136.875 225.278 136 228 136H284C286.722 136 288.9580000000001 136.875 290.7080000000001 138.625C292.4580000000001 140.375 293.3330000000001 142.611 293.3330000000001 145.333C293.3330000000001 149.028 295.424 153.84 299.604 159.771C303.7850000000001 165.701 309.0830000000001 170.514 315.5 174.208C321.722 177.708 326.486 180.479 329.792 182.521C333.097 184.563 337.569 187.965 343.2080000000001 192.729C348.847 197.493 353.174 202.16 356.187 206.729C359.201 211.299 361.924 217.181 364.354 224.375C366.7850000000001 231.569 368 239.444 368 248zM480 192C480 151.361 469.986 113.882 449.9580000000001 79.563C429.931 45.243 402.757 18.069 368.437 -1.958C334.118 -21.986 296.639 -32 256 -32C215.361 -32 177.882 -21.986 143.562 -1.958C109.243 18.069 82.0694 45.243 62.0417 79.563C42.0139 113.882 32 151.361 32 192C32 232.639 42.0139 270.118 62.0417 304.438C82.0694 338.757 109.243 365.9306000000001 143.562 385.9583C177.882 405.9861 215.361 416 256 416C296.639 416 334.118 405.9861 368.437 385.9583C402.757 365.9306000000001 429.931 338.757 449.9580000000001 304.438C469.986 270.118 480 232.639 480 192z" />
    <glyph glyph-name="readnews"
      unicode="&#xE009;"
      horiz-adv-x="512" d=" M459.196 212.424C449.74 212.424 440.268 212.424 430.78 212.424V314.824L255.74 199.064L80.716 314.824V212.424C71.244 212.424 61.772 212.424 52.316 212.424C29.228 212.424 29.228 176.664 52.316 176.664C61.788 176.664 71.244 176.664 80.716 176.664V83.304L255.74 -11.992L430.78 83.304V176.664C440.268 176.664 449.756 176.664 459.196 176.664C482.22 176.664 482.22 212.424 459.196 212.424V212.424zM321.676 329.176C321.676 292.824 292.1720000000001 263.352 255.74 263.352C219.308 263.352 189.804 292.824 189.804 329.176C189.804 365.528 219.308 395 255.74 395C292.1720000000001 395 321.676 365.528 321.676 329.176z" />
    <glyph glyph-name="remove"
      unicode="&#xE024;"
      horiz-adv-x="512" d=" M480 55.492C480 45.44 476.48 36.894 469.441 29.855L418.145 -21.441C411.106 -28.48 402.56 -32 392.508 -32C382.455 -32 373.9100000000001 -28.48 366.87 -21.441L256 89.429L145.13 -21.441C138.09 -28.48 129.545 -32 119.492 -32C109.44 -32 100.894 -28.48 93.855 -21.441L42.5591 29.855C35.5197 36.894 32 45.44 32 55.492C32 65.545 35.5197 74.09 42.5591 81.13L153.429 192L42.5591 302.87C35.5197 309.91 32 318.4550000000001 32 328.508C32 338.56 35.5197 347.106 42.5591 354.145L93.855 405.4409C100.894 412.4803 109.44 416 119.492 416C129.545 416 138.09 412.4803 145.13 405.4409L256 294.5710000000001L366.87 405.4409C373.9100000000001 412.4803 382.455 416 392.508 416C402.56 416 411.106 412.4803 418.145 405.4409L469.441 354.145C476.48 347.106 480 338.56 480 328.508C480 318.4550000000001 476.48 309.91 469.441 302.87L358.5710000000001 192L469.441 81.13C476.48 74.09 480 65.545 480 55.492z" />
    <glyph glyph-name="search"
      unicode="&#xE004;"
      horiz-adv-x="512" d=" M83.784 -28.472L197.112 84.84C227.256 64.52 262.168 54.312 297.144 54.312C343.048 54.312 388.92 71.8 423.944 106.84C494.008 176.904 494.008 290.424 423.944 360.456C388.936 395.496 343.048 413 297.144 413C251.24 413 205.336 395.496 170.296 360.472C108.6 298.776 101.32 203.352 148.328 133.608L35 20.248L83.784 -28.472V-28.472zM297.144 109.48C263.976 109.48 232.792 122.376 209.352 145.848C160.936 194.296 160.936 273.048 209.352 321.464C232.792 344.904 263.992 357.8160000000001 297.144 357.8160000000001C330.296 357.8160000000001 361.48 344.904 384.92 321.448C408.36 297.992 421.304 266.808 421.304 233.656C421.304 200.504 408.376 169.304 384.92 145.864C361.464 122.392 330.296 109.496 297.144 109.496V109.48z" />
    <glyph glyph-name="share"
      unicode="&#xE008;"
      horiz-adv-x="512" d=" M195.176 191.416C195.176 186.504 194.696 181.656 193.816 177.016L337.112 105.992C351.752 122.168 372.92 132.408 396.424 132.408C440.648 132.408 476.488 96.376 476.488 51.992C476.488 7.576 440.68 -28.408 396.424 -28.408C352.216 -28.408 316.36 7.592 316.36 51.992C316.36 52.248 316.376 52.552 316.376 52.872L164.408 128.184C150.824 117.464 133.688 111.032 115.08 111.032C70.824 111.016 35 147.016 35 191.416C35 235.8 70.808 271.8 115.08 271.8C137.816 271.8 158.344 262.232 172.952 246.904L316.92 322.8400000000001C316.536 326.056 316.328 329.304 316.328 332.616C316.328 377.032 352.152 413 396.392 413C440.632 413 476.472 377.032 476.472 332.632C476.472 288.232 440.616 252.248 396.392 252.248C376.008 252.248 357.432 259.9120000000001 343.272 272.52L195 194.376C195.096 193.368 195.16 192.376 195.16 191.4L195.176 191.416z" />
    <glyph glyph-name="sorting-asc"
      unicode="&#xE022;"
      horiz-adv-x="512" d=" M402.576 246.712C402.576 241.763 400.768 237.475 397.152 233.848C393.536 230.221 389.248 228.413 384.288 228.424H128.288C123.339 228.424 119.051 230.232 115.424 233.848C111.797 237.464 109.989 241.752 110 246.712C110.011 251.672 111.819 255.96 115.424 259.576L243.424 387.576C247.04 391.192 251.328 393 256.288 393C261.248 393 265.536 391.192 269.152 387.576L397.152 259.576C400.768 255.96 402.576 251.672 402.576 246.712z" />
    <glyph glyph-name="sorting-desc"
      unicode="&#xE023;"
      horiz-adv-x="512" d=" M402.576 137C402.576 132.051 400.768 127.763 397.152 124.136L269.152 -3.864C265.536 -7.48 261.248 -9.288 256.288 -9.288C251.328 -9.288 247.04 -7.48 243.424 -3.864L115.424 124.136C111.808 127.752 110 132.04 110 137C110 141.96 111.808 146.248 115.424 149.864C119.04 153.48 123.328 155.288 128.288 155.288H384.288C389.237 155.288 393.525 153.48 397.152 149.864C400.779 146.248 402.587 141.96 402.576 137z" />
    <glyph glyph-name="sorting"
      unicode="&#xE021;"
      horiz-adv-x="512" d=" M402.576 137C402.576 132.051 400.768 127.763 397.152 124.136L269.152 -3.864C265.536 -7.48 261.248 -9.288 256.288 -9.288C251.328 -9.288 247.04 -7.48 243.424 -3.864L115.424 124.136C111.808 127.752 110 132.04 110 137C110 141.96 111.808 146.248 115.424 149.864C119.04 153.48 123.328 155.288 128.288 155.288H384.288C389.237 155.288 393.525 153.48 397.152 149.864C400.779 146.248 402.587 141.96 402.576 137V137zM402.576 246.712C402.576 241.763 400.768 237.475 397.152 233.848C393.536 230.221 389.248 228.413 384.288 228.424H128.288C123.339 228.424 119.051 230.232 115.424 233.848C111.797 237.464 109.989 241.752 110 246.712C110.011 251.672 111.819 255.96 115.424 259.576L243.424 387.576C247.04 391.192 251.328 393 256.288 393C261.248 393 265.536 391.192 269.152 387.576L397.152 259.576C400.768 255.96 402.576 251.672 402.576 246.712z" />
    <glyph glyph-name="standards"
      unicode="&#xE002;"
      horiz-adv-x="512" d=" M443.5830000000001 220.085C462.259 103.84 365.508 0 239.904 0C126.171 0 34 85.756 34 191.5C34 297.2440000000001 126.171 383 239.872 383C289.917 383 335.752 366.4004 371.427 338.831L338.284 308.052C311.157 327.813 276.999 339.6380000000001 239.872 339.6380000000001C151.911 339.6380000000001 80.6095 273.32 80.6095 191.484C80.6095 109.68 151.927 43.33 239.904 43.33C323.124 43.33 391.442 102.695 398.603 178.353L443.5830000000001 220.069V220.085zM423.665 346.526L251.5 186.386L176.909 255.801L121.574 204.357L251.5 83.498L479 295.098L423.665 346.526z" />
    <glyph glyph-name="stop"
      unicode="&#xE043;"
      horiz-adv-x="512" d=" M475.864 392.712V-9.576C475.864 -14.525 474.056 -18.813 470.44 -22.44C466.824 -26.067 462.536 -27.875 457.576 -27.864H55.288C50.3387 -27.864 46.0507 -26.056 42.424 -22.44C38.7974 -18.824 36.9894 -14.536 37 -9.576V392.712C37 397.6613 38.808 401.9493 42.424 405.576C46.04 409.2026 50.328 411.0106 55.288 411H457.576C462.525 411 466.813 409.192 470.44 405.576C474.067 401.96 475.875 397.6720000000001 475.864 392.712V392.712z" />
    <glyph glyph-name="syndication"
      unicode="&#xE013;"
      horiz-adv-x="512" d=" M154.648 30.792C154.648 -2.248 127.848 -29.016 94.824 -29.016C61.784 -29.016 35 -2.248 35 30.792C35 63.832 61.784 90.616 94.824 90.616C127.832 90.616 154.648 63.832 154.648 30.792zM35.016 262.344V173.736C146.328 172.584 236.616 82.28 237.768 -29.016H326.376C325.224 131.4 195.432 261.192 35.016 262.344V262.344zM35.016 324.376C129.112 323.976 217.496 287.176 284.056 220.584C350.776 153.88 387.592 65.256 387.864 -29.016H476.472C475.912 214.68 278.632 412.136 35 413V324.376H35.016z" />
    <glyph glyph-name="trash"
      unicode="&#xE020;"
      horiz-adv-x="512" d=" M200.632 237.641V71.52C200.632 68.828 199.765 66.616 198.032 64.882C196.299 63.149 194.087 62.282 191.396 62.282H172.94C170.249 62.282 168.037 63.149 166.303 64.882C164.57 66.616 163.704 68.828 163.704 71.52V237.641C163.704 240.333 164.57 242.545 166.303 244.279C168.037 246.012 170.249 246.879 172.94 246.879H191.396C194.087 246.879 196.299 246.012 198.032 244.279C199.765 242.545 200.632 240.333 200.632 237.641zM274.44 237.641V71.52C274.44 68.828 273.573 66.616 271.84 64.882C270.1070000000001 63.149 267.895 62.282 265.204 62.282H246.748C244.057 62.282 241.844 63.149 240.111 64.882C238.378 66.616 237.512 68.828 237.512 71.52V237.641C237.512 240.333 238.378 242.545 240.111 244.279C241.844 246.012 244.057 246.879 246.748 246.879H265.204C267.895 246.879 270.1070000000001 246.012 271.84 244.279C273.573 242.545 274.44 240.333 274.44 237.641zM348.264 237.641V71.52C348.264 68.828 347.397 66.616 345.664 64.882C343.931 63.149 341.719 62.282 339.028 62.282H320.572C317.881 62.282 315.669 63.149 313.935 64.882C312.202 66.616 311.336 68.828 311.336 71.52V237.641C311.336 240.333 312.202 242.545 313.935 244.279C315.669 246.012 317.881 246.879 320.572 246.879H339.028C341.719 246.879 343.931 246.012 345.664 244.279C347.397 242.545 348.264 240.333 348.264 237.641zM385.1600000000001 28.851V302.2580000000001H126.808V28.851C126.808 24.62 127.481 20.728 128.826 17.175C130.172 13.622 131.566 11.027 133.008 9.39C134.451 7.754 135.463 6.935 136.044 6.935H375.94C376.521 6.935 377.533 7.754 378.976 9.39C380.418 11.027 381.812 13.622 383.158 17.175C384.503 20.728 385.176 24.62 385.176 28.851H385.1600000000001zM191.396 339.161H320.572L306.734 372.8991C305.388 374.6325 303.752 375.6877 301.825 376.0645H210.417C208.49 375.6769 206.854 374.6217000000001 205.508 372.8991L191.396 339.161zM458.984 329.94V311.48C458.984 308.788 458.117 306.576 456.384 304.842C454.651 303.1090000000001 452.439 302.242 449.748 302.242H422.072V28.835C422.072 12.879 417.556 -0.919 408.525 -12.558C399.493 -24.197 388.631 -30.011 375.94 -30H136.044C123.352 -30 112.491 -24.374 103.459 -13.123C94.4278 -1.872 89.912 11.732 89.912 27.689V302.242H62.2361C59.5449 302.242 57.3328 303.1090000000001 55.5997 304.842C53.8666 306.576 53 308.788 53 311.48V329.94C53 332.631 53.8666 334.844 55.5997 336.577C57.3328 338.3110000000001 59.5449 339.177 62.2361 339.177H151.335L171.519 387.3373000000001C174.404 394.4542 179.592 400.5105 187.085 405.5063C194.577 410.5021 202.171 413 209.868 413H302.132C309.818 413 317.412 410.5021 324.915 405.5063C332.418 400.5105 337.6070000000001 394.4542 340.481 387.3373000000001L360.665 339.177H449.764C452.455 339.177 454.667 338.3110000000001 456.4 336.577C458.133 334.844 459 332.631 459 329.94H458.984z" />
    <glyph glyph-name="twitter-square"
      unicode="&#xF081;"
      horiz-adv-x="512" d=" M405.3330000000001 275.4170000000001C394.444 270.5560000000001 382.681 267.25 370.042 265.5C383.264 273.278 392.306 284.653 397.167 299.625C384.528 292.236 371.5 287.278 358.0830000000001 284.75C346.222 297.583 331.347 304 313.4580000000001 304C296.542 304 282.104 298.021 270.146 286.063C258.187 274.1040000000001 252.208 259.6670000000001 252.208 242.75C252.208 237.111 252.694 232.444 253.667 228.75C228.583 230.111 205.056 236.431 183.083 247.708C161.111 258.986 142.444 274.0560000000001 127.083 292.9170000000001C121.444 283.194 118.625 272.889 118.625 262C118.625 239.833 127.472 222.819 145.167 210.958C136.028 211.153 126.306 213.681 116 218.542V217.958C116 203.375 120.861 190.396 130.583 179.021C140.306 167.646 152.264 160.597 166.458 157.875C160.819 156.319 155.861 155.542 151.583 155.542C149.056 155.542 145.264 155.931 140.208 156.708C144.292 144.458 151.535 134.347 161.937 126.375C172.34 118.403 184.153 114.319 197.375 114.125C174.819 96.625 149.444 87.875 121.25 87.875C116.194 87.875 111.333 88.167 106.667 88.75C135.444 70.472 166.75 61.333 200.583 61.333C222.361 61.333 242.778 64.785 261.8330000000001 71.688C280.889 78.59 297.222 87.826 310.8330000000001 99.396C324.444 110.965 336.1600000000001 124.285 345.979 139.354C355.799 154.424 363.09 170.174 367.854 186.604C372.618 203.035 375 219.417 375 235.75C375 239.25 374.903 241.875 374.7080000000001 243.625C386.9580000000001 252.375 397.167 262.972 405.3330000000001 275.4170000000001zM480 332V52C480 28.861 471.785 9.076 455.354 -7.354C438.924 -23.785 419.139 -32 396 -32H116C92.8611 -32 73.0764 -23.785 56.6458 -7.354C40.2153 9.076 32 28.861 32 52V332C32 355.1389000000001 40.2153 374.9236 56.6458 391.3542C73.0764 407.7847 92.8611 416 116 416H396C419.139 416 438.924 407.7847 455.354 391.3542C471.785 374.9236 480 355.1389000000001 480 332z" />
    <glyph glyph-name="twitter"
      unicode="&#xE000;"
      horiz-adv-x="512" d=" M481.304 331.576C468.547 312.909 453.117 297.005 435.016 283.8640000000001C435.2080000000001 281.197 435.304 277.197 435.304 271.8640000000001C435.304 247.107 431.683 222.392 424.44 197.72C417.197 173.048 406.195 149.379 391.432 126.712C376.669 104.045 359.096 83.997 338.712 66.568C318.328 49.139 293.757 35.235 265 24.856C236.243 14.477 205.48 9.288 172.712 9.288C121.096 9.288 73.8587 23.096 31 50.712C37.6667 49.955 45.096 49.576 53.288 49.576C96.1467 49.576 134.339 62.717 167.864 89C147.864 89.384 129.96 95.528 114.152 107.432C98.344 119.336 87.4853 134.525 81.576 153C87.8587 152.051 93.6667 151.576 99 151.576C107.192 151.576 115.288 152.621 123.288 154.712C101.955 159.096 84.2853 169.715 70.28 186.568C56.2747 203.421 49.272 222.995 49.272 245.288V246.424C62.2213 239.181 76.1253 235.277 90.984 234.712C78.408 243.096 68.408 254.051 60.984 267.576C53.56 281.101 49.848 295.7680000000001 49.848 311.576C49.848 328.333 54.04 343.859 62.424 358.152C85.4747 329.7680000000001 113.523 307.053 146.568 290.0080000000001C179.613 272.963 214.995 263.485 252.712 261.576C251.187 268.819 250.424 275.8640000000001 250.424 282.712C250.424 308.237 259.427 329.997 277.432 347.992C295.437 365.9867 317.197 374.9893 342.712 375C369.379 375 391.853 365.288 410.136 345.8640000000001C430.893 349.8640000000001 450.419 357.2933 468.712 368.152C461.661 346.243 448.136 329.288 428.136 317.288C445.853 319.197 463.565 323.96 481.272 331.576H481.304z" />
    <glyph glyph-name="user"
      unicode="&#xE01F;"
      horiz-adv-x="512" d=" M460.984 43.375C460.984 20.091 453.896 1.708 439.721 -11.775C425.545 -25.258 406.717 -32 383.236 -32H128.747C105.256 -32 86.4277 -25.258 72.2631 -11.775C58.0986 1.708 51.0109 20.091 51 43.375C51 53.653 51.3424 63.692 52.0273 73.492C52.7121 83.292 54.071 93.863 56.1038 105.206C58.1366 116.549 60.7076 127.077 63.8166 136.79C66.9256 146.503 71.1 155.961 76.3396 165.164C81.5793 174.366 87.5963 182.221 94.3905 188.729C101.185 195.238 109.484 200.425 119.29 204.293C129.095 208.161 139.917 210.101 151.755 210.111C153.505 210.111 157.582 208.025 163.985 203.853C170.388 199.681 177.617 195.026 185.672 189.887C193.727 184.748 204.212 180.092 217.126 175.92C230.041 171.748 242.999 169.662 256 169.662C269.001 169.662 281.959 171.748 294.874 175.92C307.788 180.092 318.273 184.748 326.328 189.887C334.383 195.026 341.612 199.681 348.015 203.853C354.418 208.025 358.495 210.111 360.245 210.111C372.0830000000001 210.111 382.905 208.172 392.71 204.293C402.516 200.415 410.815 195.227 417.61 188.729C424.404 182.232 430.421 174.377 435.6600000000001 165.164C440.9 155.95 445.074 146.493 448.183 136.79C451.292 127.088 453.863 116.56 455.896 105.206C457.929 93.853 459.288 83.281 459.973 73.492C460.658 63.703 461 53.664 461 43.375H460.984zM367.811 303.25C367.811 272.405 356.891 246.069 335.052 224.241C313.213 202.414 286.862 191.5 256 191.5C225.138 191.5 198.787 202.414 176.948 224.241C155.109 246.069 144.189 272.405 144.189 303.25C144.189 334.0950000000001 155.109 360.4315000000001 176.948 382.2589C198.787 404.0863 225.138 415 256 415C286.862 415 313.213 404.0863 335.052 382.2589C356.891 360.4315000000001 367.811 334.0950000000001 367.811 303.25V303.25z" />
    <glyph glyph-name="warning"
      unicode="&#xE04B;"
      horiz-adv-x="512" d=" M429.067 -8.4H82.342C62.0136 -8.4 45.6395 -0.249 37.4313 13.969C29.2372 28.174 30.3506 46.418 40.5289 64.019L213.891 364.3055C224.07 381.9074 239.302 392 255.718 392C272.135 392 287.367 381.8928 297.532 364.2913L470.88 64.005C481.058 46.403 482.186 28.16 473.977 13.955C465.769 -0.249 449.409 -8.4 429.067 -8.4zM255.718 355.5547000000001C253.334 355.5547000000001 249.251 352.628 245.469 346.062L72.1063 45.79C68.3233 39.237 67.8236 34.227 69.0086 32.171C70.1936 30.115 74.7758 28.045 82.3562 28.045H429.0950000000001C436.661 28.045 441.243 30.129 442.443 32.185C443.642 34.241 443.128 39.237 439.3450000000001 45.804L265.983 346.0900000000001C262.2 352.6422 258.103 355.5688 255.733 355.5688L255.718 355.5547000000001zM234.077 152.657C235.033 142.707 236.647 135.383 239.016 130.272C241.986 123.834 247.496 120.437 254.962 120.437C262.271 120.437 267.81 123.877 271.008 130.401C273.606 135.711 275.248 142.935 275.99 152.414L282.414 226.047C283.128 232.943 283.485 239.866 283.485 246.618C283.485 258.6960000000001 281.9 267.818 278.631 274.541C276.004 279.937 270.065 286.362 256.761 286.362C248.21 286.362 241.172 283.464 235.833 277.7680000000001C230.579 272.1570000000001 227.924 264.448 227.924 254.841C227.924 248.646 228.381 238.424 229.28 224.434L234.077 152.657L234.077 152.657zM235.961 96.653C241.286 101.978 247.867 104.691 255.562 104.691C263.213 104.691 269.837 102.007 275.262 96.711C280.729 91.372 283.485 84.805 283.485 77.21C283.485 68.688 280.629 61.85 275.019 56.853C269.566 51.999 263.128 49.558 255.862 49.558C248.51 49.558 242 51.971 236.518 56.739C230.822 61.679 227.924 68.574 227.924 77.196C227.924 84.776 230.636 91.329 235.961 96.653z" />
    <glyph glyph-name="youtube-play"
      unicode="&#xF16A;"
      horiz-adv-x="512" d=" M209.753 133.5L330.746 196L209.753 259.25V133.5zM256 349C283.998 349 311.039 348.625 337.12 347.875C363.202 347.125 382.326 346.333 394.492 345.5L412.741 344.5C412.908 344.5 414.325 344.375 416.991 344.125C419.658 343.875 421.574 343.625 422.741 343.375C423.907 343.125 425.866 342.75 428.615 342.25C431.365 341.75 433.74 341.083 435.74 340.25C437.74 339.4170000000001 440.073 338.333 442.74 337C445.406 335.6670000000001 447.989 334.0420000000001 450.489 332.125C452.989 330.208 455.406 328 457.739 325.5C458.739 324.5 460.03 322.958 461.614 320.875C463.197 318.7920000000001 465.613 313.9170000000001 468.863 306.25C472.113 298.583 474.321 290.1670000000001 475.488 281C476.821 270.333 477.863 258.958 478.613 246.875C479.363 234.792 479.821 225.333 479.988 218.5V174.5C480.154 150.333 478.654 126.167 475.488 102C474.321 92.833 472.238 84.542 469.238 77.125C466.238 69.708 463.572 64.583 461.239 61.75L457.739 57.5C455.406 55 452.989 52.792 450.489 50.875C447.989 48.958 445.406 47.375 442.74 46.125C440.073 44.875 437.74 43.833 435.74 43C433.74 42.167 431.365 41.5 428.615 41C425.866 40.5 423.866 40.125 422.616 39.875C421.366 39.625 419.449 39.375 416.866 39.125C414.283 38.875 412.908 38.75 412.741 38.75C370.9100000000001 35.583 318.663 34 256 34C221.502 34.333 191.545 34.875 166.13 35.625C140.715 36.375 124.007 37 116.008 37.5L103.758 38.5L94.759 39.5C88.7593 40.333 84.2179 41.167 81.1348 42C78.0516 42.833 73.8018 44.583 68.3855 47.25C62.9691 49.917 58.261 53.333 54.2613 57.5C53.2613 58.5 51.9697 60.042 50.3865 62.125C48.8032 64.208 46.3867 69.083 43.1369 76.75C39.8871 84.417 37.6788 92.833 36.5122 102C35.179 112.667 34.1374 124.042 33.3874 136.125C32.6375 148.208 32.1792 157.667 32.0125 164.5V208.5C31.8458 232.667 33.3458 256.833 36.5122 281C37.6788 290.1670000000001 39.7621 298.458 42.7619 305.875C45.7617 313.2920000000001 48.4283 318.4170000000001 50.7615 321.25L54.2613 325.5C56.5945 328 59.011 330.208 61.5109 332.125C64.0107 334.0420000000001 66.5939 335.6670000000001 69.2604 337C71.9269 338.333 74.2601 339.4170000000001 76.26 340.25C78.2599 341.083 80.6348 341.75 83.3846 342.25C86.1345 342.75 88.0927 343.125 89.2593 343.375C90.4259 343.625 92.3425 343.875 95.009 344.125C97.6755 344.375 99.0921 344.5 99.2587 344.5C141.09 347.5 193.337 349 256 349z" />
    <glyph glyph-name="youtube-square"
      unicode="&#xF166;"
      horiz-adv-x="512" d=" M300.042 73.292V119.083C300.042 128.806 297.222 133.667 291.5830000000001 133.667C288.278 133.667 285.069 132.111 281.9580000000001 129V63.667C285.069 60.556 288.278 59 291.5830000000001 59C297.222 59 300.042 63.764 300.042 73.292zM353.7080000000001 108.875H372.9580000000001V118.792C372.9580000000001 128.708 369.75 133.667 363.3330000000001 133.667C356.917 133.667 353.7080000000001 128.708 353.7080000000001 118.792V108.875zM187.167 186.458V166.042H163.833V42.667H142.25V166.042H119.5V186.458H187.167zM245.792 149.708V42.667H226.25V54.333C218.667 45.583 211.278 41.208 204.083 41.208C197.667 41.208 193.583 43.931 191.833 49.375C190.667 52.486 190.083 57.736 190.083 65.125V149.708H209.333V70.958C209.333 66.292 209.431 63.764 209.625 63.375C209.819 60.458 211.278 59 214 59C217.889 59 221.972 62.014 226.25 68.042V149.708H245.792zM319.292 117.333V74.75C319.292 64.639 318.611 57.542 317.25 53.458C314.917 45.292 309.764 41.208 301.792 41.208C294.986 41.208 288.375 45.194 281.9580000000001 53.167V42.667H262.417V186.458H281.9580000000001V139.5C288.181 147.278 294.792 151.167 301.792 151.167C309.764 151.167 314.917 147.083 317.25 138.917C318.611 134.833 319.292 127.639 319.292 117.333zM392.5 79.708V77.083C392.5 71.444 392.306 67.264 391.917 64.542C391.3330000000001 60.264 389.875 56.375 387.542 52.875C382.292 45.097 374.514 41.208 364.2080000000001 41.208C354.097 41.208 346.222 44.903 340.5830000000001 52.292C336.5 57.542 334.4580000000001 65.903 334.4580000000001 77.375V115C334.4580000000001 126.472 336.403 134.833 340.292 140.083C345.931 147.472 353.7080000000001 151.167 363.625 151.167C373.542 151.167 381.125 147.472 386.375 140.083C390.4580000000001 134.639 392.5 126.278 392.5 115V92.833H353.7080000000001V73.875C353.7080000000001 63.958 357.014 59 363.625 59C368.292 59 371.2080000000001 61.528 372.375 66.583C372.375 66.778 372.424 67.458 372.521 68.625C372.618 69.792 372.667 71.396 372.667 73.438V79.708H392.5zM260.9580000000001 320.0420000000001V274.5420000000001C260.9580000000001 264.625 257.847 259.6670000000001 251.625 259.6670000000001C245.403 259.6670000000001 242.292 264.625 242.292 274.5420000000001V320.0420000000001C242.292 330.153 245.403 335.208 251.625 335.208C257.847 335.208 260.9580000000001 330.153 260.9580000000001 320.0420000000001zM416.417 112.083C416.417 146.5 414.569 171.778 410.875 187.917C408.931 196.472 404.75 203.618 398.3330000000001 209.354C391.917 215.09 384.528 218.444 376.167 219.417C349.722 222.333 309.667 223.792 256 223.792C202.528 223.792 162.569 222.333 136.125 219.417C127.569 218.444 120.132 215.09 113.812 209.354C107.493 203.618 103.361 196.472 101.417 187.917C97.5278 171 95.5833 145.722 95.5833 112.083C95.5833 77.861 97.5278 52.583 101.417 36.25C103.361 27.889 107.493 20.792 113.812 14.958C120.132 9.125 127.472 5.722 135.833 4.75C162.472 1.833 202.528 0.375 256 0.375C309.472 0.375 349.528 1.833 376.167 4.75C384.528 5.722 391.868 9.125 398.187 14.958C404.507 20.792 408.639 27.889 410.5830000000001 36.25C414.472 52.583 416.417 77.861 416.417 112.083zM196.208 301.958L222.458 388.2917H200.583L185.708 331.4170000000001L170.25 388.2917H147.5L154.5 368.1667L161.208 348.0417C168.014 328.014 172.486 312.653 174.625 301.958V243.333H196.208V301.958zM280.5 278.333V316.25C280.5 327.528 278.4580000000001 335.986 274.375 341.625C268.736 349.0139000000001 261.153 352.7083 251.625 352.7083C241.708 352.7083 234.125 349.0139000000001 228.875 341.625C224.792 335.986 222.75 327.528 222.75 316.25V278.333C222.75 267.0560000000001 224.792 258.597 228.875 252.958C234.125 245.569 241.708 241.875 251.625 241.875C261.153 241.875 268.736 245.569 274.375 252.958C278.4580000000001 258.208 280.5 266.6670000000001 280.5 278.333zM333.292 243.333H352.8330000000001V351.25H333.292V268.708C329.014 262.6810000000001 324.931 259.6670000000001 321.042 259.6670000000001C318.125 259.6670000000001 316.569 261.222 316.375 264.333C316.181 264.722 316.0830000000001 267.25 316.0830000000001 271.9170000000001V351.25H296.542V265.7920000000001C296.542 258.597 297.125 253.25 298.292 249.75C300.431 244.5 304.611 241.875 310.8330000000001 241.875C317.8330000000001 241.875 325.319 246.25 333.292 255V243.333zM480 332V52C480 28.861 471.785 9.076 455.354 -7.354C438.924 -23.785 419.139 -32 396 -32H116C92.8611 -32 73.0764 -23.785 56.6458 -7.354C40.2153 9.076 32 28.861 32 52V332C32 355.1389000000001 40.2153 374.9236 56.6458 391.3542C73.0764 407.7847 92.8611 416 116 416H396C419.139 416 438.924 407.7847 455.354 391.3542C471.785 374.9236 480 355.1389000000001 480 332z" />
  </font>
</defs>
</svg>
