<?xml version="1.0" encoding="utf-8"?>
<!-- Generated by IcoMoon.io -->
<!DOCTYPE svg PUBLIC "-//W3C//DTD SVG 1.1//EN" "http://www.w3.org/Graphics/SVG/1.1/DTD/svg11.dtd">
<svg version="1.1" xmlns="http://www.w3.org/2000/svg" xmlns:xlink="http://www.w3.org/1999/xlink" width="336" height="512" viewBox="0 0 336 512">
<path fill="#000" d="M307.136 379.424q0 3.712-2.864 6.576l-14.288 14.288q-2.864 2.864-6.576 2.864t-6.576-2.864l-112.288-112.288-112.288 112.288q-2.864 2.864-6.576 2.864t-6.576-2.864l-14.288-14.288q-2.864-2.864-2.864-6.576t2.864-6.576l133.136-133.136q2.864-2.864 6.576-2.864t6.576 2.864l133.136 133.136q2.864 2.864 2.864 6.576zM307.136 269.712q0 3.712-2.864 6.576l-14.288 14.288q-2.864 2.864-6.576 2.864t-6.576-2.864l-112.288-112.288-112.288 112.288q-2.864 2.864-6.576 2.864t-6.576-2.864l-14.288-14.288q-2.864-2.864-2.864-6.576t2.864-6.576l133.136-133.136q2.864-2.864 6.576-2.864t6.576 2.864l133.136 133.136q2.864 2.864 2.864 6.576z"></path>
</svg>
