<?xml version="1.0" encoding="utf-8"?>
<!-- Generated by IcoMoon.io -->
<!DOCTYPE svg PUBLIC "-//W3C//DTD SVG 1.1//EN" "http://www.w3.org/Graphics/SVG/1.1/DTD/svg11.dtd">
<svg version="1.1" xmlns="http://www.w3.org/2000/svg" xmlns:xlink="http://www.w3.org/1999/xlink" width="512" height="512" viewBox="0 0 512 512">
<path fill="#000" d="M403.136 159.136l-101.424 101.424 101.424 101.424 41.136-41.136q8.288-8.864 20-4 11.136 4.864 11.136 16.864v128q0 7.424-5.424 12.864t-12.864 5.424h-128q-12 0-16.864-11.424-4.864-11.136 4-19.712l41.136-41.136-101.424-101.424-101.424 101.424 41.136 41.136q8.864 8.576 4 19.712-4.864 11.424-16.864 11.424h-128q-7.424 0-12.864-5.424t-5.424-12.864v-128q0-12 11.424-16.864 11.136-4.864 19.712 4l41.136 41.136 101.424-101.424-101.424-101.424-41.136 41.136q-5.424 5.424-12.864 5.424-3.424 0-6.864-1.424-11.424-4.864-11.424-16.864v-128q0-7.424 5.424-12.864t12.864-5.424h128q12 0 16.864 11.424 4.864 11.136-4 19.712l-41.136 41.136 101.424 101.424 101.424-101.424-41.136-41.136q-8.864-8.576-4-19.712 4.864-11.424 16.864-11.424h128q7.424 0 12.864 5.424t5.424 12.864v128q0 12-11.136 16.864-3.712 1.424-7.136 1.424-7.424 0-12.864-5.424z"></path>
</svg>
