<?xml version="1.0" encoding="utf-8"?>
<!-- Generated by IcoMoon.io -->
<!DOCTYPE svg PUBLIC "-//W3C//DTD SVG 1.1//EN" "http://www.w3.org/Graphics/SVG/1.1/DTD/svg11.dtd">
<svg version="1.1" xmlns="http://www.w3.org/2000/svg" xmlns:xlink="http://www.w3.org/1999/xlink" width="480" height="512" viewBox="0 0 480 512">
<path fill="#000" d="M250.288 423.136q0-6-1.28-11.568t-2.72-10.288-5.008-9.856-6-8.72-7.568-8.432-7.856-7.28-9.136-7.28-8.864-6.576-9.424-6.576-8.72-6q-4.864-0.576-14.288-0.576-15.424 0-30.288 2t-30.864 7.136-28 13.136-19.712 21.424-7.712 30.576q0 19.424 10.144 34.72t26.576 24 34.432 13.008 36.288 4.288q16.864 0 32.144-3.568t28.72-11.136 21.28-21.008 7.856-31.424zM216 176.864q0-17.136-4.72-36.432t-13.424-37.28-24-29.712-34.144-11.712q-26.576 0-41.136 19.712t-14.576 47.136q0 13.424 3.28 28.288t10.144 29.712 16 26.72 22.288 19.28 27.712 7.424q27.712 0 40.144-17.28t12.432-45.856zM178.576 41.136h124.864l-38.576 22.576h-38.576q20.288 12.864 31.424 36t11.136 48.288q0 21.136-6.576 37.568t-16 26.432-18.864 18.432-16 17.424-6.576 19.28q0 7.424 4.72 14.576t12.288 13.712 16.72 13.712 18.288 15.856 16.72 18.864 12.288 24.288 4.72 30.432q0 45.712-40 80.576-43.424 37.424-120 37.424-16.864 0-34.144-2.864t-34.864-9.568-31.008-16.576-22-25.424-8.576-34.72q0-17.424 10.576-38.576 9.136-18.288 27.424-31.568t41.424-20.288 44.288-10.288 42.864-3.856q-18.288-23.712-18.288-42.576 0-3.424 0.576-6.72t1.424-5.568 2.288-6.144 2-6.144q-11.424 1.424-20 1.424-42.576 0-73.008-28t-30.432-70.288q0-40 27.136-71.568t66.864-40.432q26.864-5.712 53.424-5.712zM475.424 114.288v36.576h-73.136v73.136h-36.576v-73.136h-73.136v-36.576h73.136v-73.136h36.576v73.136h73.136z"></path>
</svg>
