<?xml version="1.0" encoding="utf-8"?>
<!-- Generated by IcoMoon.io -->
<!DOCTYPE svg PUBLIC "-//W3C//DTD SVG 1.1//EN" "http://www.w3.org/Graphics/SVG/1.1/DTD/svg11.dtd">
<svg version="1.1" xmlns="http://www.w3.org/2000/svg" xmlns:xlink="http://www.w3.org/1999/xlink" width="544" height="512" viewBox="0 0 544 512">
<path fill="#000" d="M169.424 260.576q-46.288 1.424-75.712 36.576h-38.288q-23.424 0-39.424-11.568t-16-33.856q0-100.864 35.424-100.864 1.712 0 12.432 6t27.856 12.144 34 6.144q19.136 0 38-6.576-1.424 10.576-1.424 18.864 0 39.712 23.136 73.136zM475.424 442.576q0 34.288-20.864 54.144t-55.424 19.856h-249.712q-34.576 0-55.424-19.856t-20.864-54.144q0-15.136 1.008-29.568t4-31.136 7.568-31.008 12.288-27.856 17.712-23.136 24.432-15.28 31.856-5.712q2.864 0 12.288 6.144t20.864 13.712 30.576 13.712 38.576 6.144 38.576-6.144 30.576-13.712 20.864-13.712 12.288-6.144q17.424 0 31.856 5.712t24.432 15.28 17.712 23.136 12.288 27.856 7.568 31.008 4 31.136 1.008 29.568zM182.864 77.712q0 30.288-21.424 51.712t-51.712 21.424-51.712-21.424-21.424-51.712 21.424-51.712 51.712-21.424 51.712 21.424 21.424 51.712zM384 187.424q0 45.424-32.144 77.568t-77.568 32.144-77.568-32.144-32.144-77.568 32.144-77.568 77.568-32.144 77.568 32.144 32.144 77.568zM548.576 251.712q0 22.288-16 33.856t-39.424 11.568h-38.288q-29.424-35.136-75.712-36.576 23.136-33.424 23.136-73.136 0-8.288-1.424-18.864 18.864 6.576 38 6.576 16.864 0 34-6.144t27.856-12.144 12.432-6q35.424 0 35.424 100.864zM512 77.712q0 30.288-21.424 51.712t-51.712 21.424-51.712-21.424-21.424-51.712 21.424-51.712 51.712-21.424 51.712 21.424 21.424 51.712z"></path>
</svg>
