<?xml version="1.0" encoding="utf-8"?>
<!-- Generated by IcoMoon.io -->
<!DOCTYPE svg PUBLIC "-//W3C//DTD SVG 1.1//EN" "http://www.w3.org/Graphics/SVG/1.1/DTD/svg11.dtd">
<svg version="1.1" xmlns="http://www.w3.org/2000/svg" xmlns:xlink="http://www.w3.org/1999/xlink" width="512" height="512" viewBox="0 0 512 512">
<path fill="#000" d="M475.424 388.576v36.576q0 7.424-5.424 12.864t-12.864 5.424h-402.288q-7.424 0-12.864-5.424t-5.424-12.864v-36.576q0-7.424 5.424-12.864t12.864-5.424h402.288q7.424 0 12.864 5.424t5.424 12.864zM475.424 242.288v36.576q0 7.424-5.424 12.864t-12.864 5.424h-402.288q-7.424 0-12.864-5.424t-5.424-12.864v-36.576q0-7.424 5.424-12.864t12.864-5.424h402.288q7.424 0 12.864 5.424t5.424 12.864zM475.424 96v36.576q0 7.424-5.424 12.864t-12.864 5.424h-402.288q-7.424 0-12.864-5.424t-5.424-12.864v-36.576q0-7.424 5.424-12.864t12.864-5.424h402.288q7.424 0 12.864 5.424t5.424 12.864z"></path>
</svg>
