<?xml version="1.0" encoding="utf-8"?>
<!-- Generated by IcoMoon.io -->
<!DOCTYPE svg PUBLIC "-//W3C//DTD SVG 1.1//EN" "http://www.w3.org/Graphics/SVG/1.1/DTD/svg11.dtd">
<svg version="1.1" xmlns="http://www.w3.org/2000/svg" xmlns:xlink="http://www.w3.org/1999/xlink" width="1504" height="512" viewBox="0 0 1504 512">
<path fill="#000" d="M319.488 419.504c0 13.36-5.632 15.92-14.88 15.92h-43.648c-9.248 0-16.928-3.6-22.608-11.296l-152.992-203.84h-1.040v199.728c0 11.296-5.136 15.392-15.392 15.392h-47.76c-11.808 0-16.944-2.56-16.944-14.896v-325.504c0-13.344 6.16-15.92 16.944-15.92h43.12c10.256 0 15.392 3.088 21.040 10.784l152.992 205.376h1.024v-201.28c0-11.28 5.648-14.88 15.92-14.88h49.808c13.344 0 14.368 7.184 14.368 15.92v324.48h0.032zM483.136 422.464c0 6.16-4.096 11.824-11.28 11.824h-59.056c-7.68 0-11.28-5.664-11.28-11.296v-333.248c0-6.16 4.112-11.792 11.28-11.792h59.056c7.696 0 11.28 5.632 11.28 11.296v333.216zM828.192 108.24l-14.896 43.136c-2.032 5.136-4.096 7.696-7.68 7.696-2.048 0-4.096-1.024-6.672-2.064-27.216-12.816-48.272-17.456-72.384-17.456-53.408 0-87.792 41.072-87.792 116.032 0 81.136 38.992 116.016 89.344 116.016 24.128 0 45.184-4.576 69.296-14.336 3.072-1.056 5.664-2.064 7.696-2.064 4.624 0 7.184 2.064 9.232 8.208l12.848 38.016c1.024 3.072 1.536 5.632 1.536 8.208 0 5.136-2.048 8.736-9.248 11.296-35.424 13.36-64.704 20.032-104.224 20.032-108.848 0-163.776-72.4-163.776-182.784 0-110.912 67.248-187.92 170.448-187.92 36.976 0 68.304 7.2 98.064 20.544 7.2 3.072 9.776 6.672 9.776 10.256 0.016 2.064-0.512 4.624-1.552 7.2zM1107.76 77.936c10.272 0 13.328 5.136 12.832 11.792l-4.624 41.6c-1.024 10.784-7.696 12.848-20.016 12.848h-124.272v76.48h116.56c11.312 0 15.408 5.648 15.408 13.856v37.472c0 10.288-5.136 14.896-14.88 14.896h-117.072v81.152h134.016c9.232 0 14.896 4.080 14.896 13.84v38.016c0 9.744-4.624 14.368-14.368 14.368h-199.248c-11.808 0-16.928-3.088-16.928-15.92v-326.032c0-8.736 4.624-14.368 13.344-14.368l204.352-0.016z"></path>
</svg>
