<?xml version="1.0" encoding="utf-8"?>
<!-- Generated by IcoMoon.io -->
<!DOCTYPE svg PUBLIC "-//W3C//DTD SVG 1.1//EN" "http://www.w3.org/Graphics/SVG/1.1/DTD/svg11.dtd">
<svg version="1.1" xmlns="http://www.w3.org/2000/svg" xmlns:xlink="http://www.w3.org/1999/xlink" width="512" height="512" viewBox="0 0 512 512">
<path fill="#000" d="M347.424 278.864v-36.576q0-7.424-5.424-12.864t-12.864-5.424h-73.136v-73.136q0-7.424-5.424-12.864t-12.864-5.424h-36.576q-7.424 0-12.864 5.424t-5.424 12.864v73.136h-73.136q-7.424 0-12.864 5.424t-5.424 12.864v36.576q0 7.424 5.424 12.864t12.864 5.424h73.136v73.136q0 7.424 5.424 12.864t12.864 5.424h36.576q7.424 0 12.864-5.424t5.424-12.864v-73.136h73.136q7.424 0 12.864-5.424t5.424-12.864zM438.864 260.576q0 59.712-29.424 110.144t-79.856 79.856-110.144 29.424-110.144-29.424-79.856-79.856-29.424-110.144 29.424-110.144 79.856-79.856 110.144-29.424 110.144 29.424 79.856 79.856 29.424 110.144z"></path>
</svg>
