<?xml version="1.0" encoding="utf-8"?>
<!-- Generated by IcoMoon.io -->
<!DOCTYPE svg PUBLIC "-//W3C//DTD SVG 1.1//EN" "http://www.w3.org/Graphics/SVG/1.1/DTD/svg11.dtd">
<svg version="1.1" xmlns="http://www.w3.org/2000/svg" xmlns:xlink="http://www.w3.org/1999/xlink" width="512" height="512" viewBox="0 0 512 512">
<path fill="#000" d="M127.088 342.576h-61.84c-16.576 0-29.984-13.424-29.984-30.032v-105.904c0-16.544 13.408-29.952 29.984-29.952h61.84v165.888zM305.728 433.424l-144.928-83.456v-180.816l144.928-83.424v347.696zM345.856 322.784c16.176-16.224 26.288-38.592 26.288-63.248 0.048-24.688-9.92-47.088-26.112-63.344l26.704-26.592c22.912 23.056 37.184 54.832 37.088 89.968 0 35.136-14.336 66.928-37.376 89.904l-26.592-26.688zM419.68 396.896l-27.28-27.408c28.208-28.096 45.616-66.976 45.712-109.904s-17.264-81.776-45.344-109.984l27.376-27.264c35.088 35.2 56.72 83.664 56.608 137.28-0.064 53.6-21.872 102.192-57.056 137.28z"></path>
</svg>
