<?xml version="1.0" encoding="utf-8"?>
<!-- Generated by IcoMoon.io -->
<!DOCTYPE svg PUBLIC "-//W3C//DTD SVG 1.1//EN" "http://www.w3.org/Graphics/SVG/1.1/DTD/svg11.dtd">
<svg version="1.1" xmlns="http://www.w3.org/2000/svg" xmlns:xlink="http://www.w3.org/1999/xlink" width="512" height="512" viewBox="0 0 512 512">
<path fill="#000" d="M195.424 260.464c0 4.912-0.48 9.76-1.36 14.4l143.296 71.024c14.64-16.176 35.808-26.416 59.312-26.416 44.224 0 80.064 36.032 80.064 80.416 0 44.416-35.808 80.4-80.064 80.4-44.208 0-80.064-36-80.064-80.4 0-0.256 0.016-0.56 0.016-0.88l-151.968-75.312c-13.584 10.72-30.72 17.152-49.328 17.152-44.256 0.016-80.080-35.984-80.080-80.384 0-44.384 35.808-80.384 80.080-80.384 22.736 0 43.264 9.568 57.872 24.896l143.968-75.936c-0.384-3.216-0.592-6.464-0.592-9.776 0-44.416 35.824-80.384 80.064-80.384s80.080 35.968 80.080 80.368-35.856 80.384-80.080 80.384c-20.384 0-38.96-7.664-53.12-20.272l-148.272 78.144c0.096 1.008 0.16 2 0.16 2.976z"></path>
</svg>
