<?xml version="1.0" encoding="utf-8"?>
<!-- Generated by IcoMoon.io -->
<!DOCTYPE svg PUBLIC "-//W3C//DTD SVG 1.1//EN" "http://www.w3.org/Graphics/SVG/1.1/DTD/svg11.dtd">
<svg version="1.1" xmlns="http://www.w3.org/2000/svg" xmlns:xlink="http://www.w3.org/1999/xlink" width="565" height="512" viewBox="0 0 565 512">
<path fill="#000" d="M497.17 505.786h-428.827c-25.141 0-45.392-10.081-55.543-27.666-10.134-17.567-8.757-40.13 3.831-61.899l214.405-371.377c12.588-21.769 31.426-34.251 51.73-34.251s39.142 12.5 51.712 34.269l214.387 371.377c12.588 21.769 13.983 44.332 3.831 61.899s-30.385 27.648-55.543 27.648h0.017zM282.765 55.667c-2.949 0-7.998 3.62-12.676 11.74l-214.405 371.359c-4.678 8.103-5.297 14.3-3.831 16.843s7.133 5.103 16.508 5.103h428.827c9.357 0 15.024-2.577 16.508-5.12s0.847-8.721-3.831-16.843l-214.404-371.377c-4.678-8.103-9.745-11.723-12.676-11.723l-0.017 0.017z"></path>
<path fill="#000" d="M256 306.599c1.183 12.305 3.178 21.363 6.108 27.683 3.673 7.962 10.487 12.164 19.721 12.164 9.039 0 15.889-4.255 19.844-12.324 3.213-6.567 5.243-15.501 6.161-27.224l7.945-91.065c0.883-8.528 1.324-17.090 1.324-25.441 0-14.936-1.959-26.218-6.003-34.534-3.248-6.673-10.593-14.619-27.048-14.619-10.575 0-19.279 3.584-25.882 10.629-6.497 6.939-9.781 16.472-9.781 28.354 0 7.662 0.565 20.303 1.677 37.606l5.932 88.77z"></path>
<path fill="#000" d="M282.571 365.921c-9.516 0-17.655 3.354-24.24 9.94s-9.94 14.689-9.94 24.064c0 10.663 3.584 19.191 10.628 25.3 6.779 5.897 14.831 8.88 23.923 8.88 8.986 0 16.949-3.019 23.693-9.022 6.938-6.18 10.469-14.636 10.469-25.176 0-9.392-3.408-17.514-10.17-24.117-6.709-6.55-14.901-9.869-24.364-9.869v0z"></path>
</svg>
