<svg width="32" height="32" viewBox="0 0 32 32" fill="none" xmlns="http://www.w3.org/2000/svg">
<path d="M27.4 5.5H18.2L16.1 9.7H4.3V26.5H29.5V5.5H27.4ZM27.4 24.2H6.6V11.8H27.4V24.2ZM27.4 9.7H19.2L20.2 7.6H27.3V9.7H27.4Z" fill="#B57EE5"/>
<path d="M25.7 13.7H0.5L4.3 26.5H29.5L25.7 13.7Z" fill="#B57EE5"/>
<path d="M30.324 27.556L18.3912 26.9535L17.6082 10.3844L30.324 9.44705V27.556Z" fill="#F1618C" stroke="white" stroke-width="0.25"/>
<path d="M27.1396 11.8397L27.2708 9.48313L28.8589 9.38075V11.8397L28.078 11.1093L27.1396 11.8397Z" fill="white"/>
<path d="M25.1295 16.3534L27.7203 16.2878C27.786 13.7776 26.4813 12.5386 24.212 12.5386C21.9427 12.5386 20.6716 13.8262 20.6716 15.7543C20.6716 19.1175 25.0166 19.1818 25.0166 21.0161C25.0166 21.5312 24.7751 21.837 24.2442 21.837C23.5525 21.837 23.2788 21.3862 23.311 20.1308H20.5915C20.3822 23.2368 22.2006 23.9449 24.2763 23.9449C26.2878 23.9449 27.8647 23.0117 27.8647 20.9839C27.8647 17.3791 23.4554 17.4756 23.4554 15.6899C23.4422 15.579 23.4543 15.4664 23.4909 15.3608C23.5275 15.2552 23.5876 15.1593 23.6666 15.0802C23.7457 15.0012 23.8416 14.9411 23.9472 14.9045C24.0528 14.8679 24.1654 14.8558 24.2763 14.869C24.5986 14.8729 25.178 15.0015 25.1295 16.3534Z" fill="white"/>
</svg>
