<?xml version="1.0" encoding="utf-8"?>
<svg width="512" height="512" viewBox="0 0 512 512" fill="none" xmlns="http://www.w3.org/2000/svg">
<path d="M441 358.004C434.113 380.09 423.252 402.175 408.418 424.26C385.637 458.89 362.944 476.205 340.34 476.205C331.686 476.205 319.324 473.378 303.254 467.724C288.067 462.07 274.734 459.243 263.255 459.243C252.482 459.243 239.944 462.159 225.64 467.989C211.335 473.996 199.68 477 190.673 477C163.831 477 137.253 454.12 110.94 408.359C84.9799 362.245 72 317.809 72 275.052C72 234.768 81.9777 201.728 101.933 175.933C121.889 150.49 146.966 137.769 177.164 137.769C189.879 137.769 205.508 140.419 224.05 145.72C242.416 151.02 254.602 153.671 260.606 153.671C268.553 153.671 281.179 150.667 298.486 144.66C316.499 138.653 331.775 135.649 344.313 135.649C365.328 135.649 384.136 141.391 400.736 152.876C409.919 159.236 419.102 168.07 428.285 179.378C414.334 191.216 404.268 201.64 398.087 210.651C386.608 227.259 380.869 245.546 380.869 265.511C380.869 287.419 386.961 307.12 399.146 324.611C411.332 342.103 425.283 353.234 441 358.004ZM341.399 47.131C341.399 57.9087 338.838 69.9231 333.717 83.1743C328.419 96.4255 320.207 108.617 309.082 119.748C299.546 129.288 290.009 135.649 280.473 138.829C273.939 140.773 264.756 142.275 252.924 143.335C253.454 117.009 260.341 94.3053 273.586 75.2236C286.654 56.3185 308.729 43.244 339.81 36C339.986 36.53 340.207 37.5018 340.472 38.9153C340.737 40.3287 340.958 41.3005 341.134 41.8305C341.134 42.5373 341.178 43.4207 341.267 44.4808C341.355 45.5409 341.399 46.4243 341.399 47.131Z" fill="black"/>
</svg>
