<?xml version="1.0" encoding="utf-8"?>
<svg width="512" height="512" viewBox="0 0 512 512" fill="none" xmlns="http://www.w3.org/2000/svg">
<path d="M396.576 255.576C396.576 265.485 393.051 274.152 386 281.576L199.712 467.576C192.661 474.627 184.091 478.152 174 478.152C163.909 478.152 155.339 474.627 148.288 467.576L126.576 446.152C119.525 438.728 116 430.061 116 420.152C116 410.061 119.525 401.491 126.576 394.44L265.44 255.576L126.576 117C119.525 109.576 116 100.909 116 91C116 80.9093 119.525 72.3387 126.576 65.288L148.288 43.864C155.147 36.6213 163.717 33 174 33C184.283 33 192.853 36.6213 199.712 43.864L386 229.864C393.051 236.915 396.576 245.485 396.576 255.576Z" fill="black"/>
</svg>
