<?xml version="1.0" encoding="utf-8"?>
<svg width="512" height="512" viewBox="0 0 512 512" fill="none" xmlns="http://www.w3.org/2000/svg">
<path d="M478.152 174C478.152 184.091 474.627 192.661 467.576 199.712L281.576 385.712C274.333 392.955 265.667 396.576 255.576 396.576C245.293 396.576 236.723 392.955 229.864 385.712L43.864 199.712C36.6213 192.853 33 184.283 33 174C33 163.909 36.6213 155.243 43.864 148L65 126.576C72.424 119.525 81.0907 116 91 116C101.091 116 109.661 119.525 116.712 126.576L255.576 265.44L394.44 126.576C401.491 119.525 410.061 116 420.152 116C430.061 116 438.728 119.525 446.152 126.576L467.576 148C474.627 155.424 478.152 164.091 478.152 174Z" fill="black"/>
</svg>
