<?xml version="1.0" encoding="utf-8"?>
<svg width="512" height="512" viewBox="0 0 512 512" fill="none" xmlns="http://www.w3.org/2000/svg">
<path d="M311.417 259.805C311.417 286.763 305.778 310.772 294.5 331.833C283.222 352.893 267.148 369.353 246.278 381.212C225.407 393.071 201.491 399 174.528 399C155.213 399 136.741 395.241 119.111 387.724C101.481 380.207 86.3148 370.098 73.6111 357.397C60.9074 344.696 50.7963 329.532 43.2778 311.906C35.7593 294.28 32 275.811 32 256.5C32 237.189 35.7593 218.72 43.2778 201.094C50.7963 183.468 60.9074 168.304 73.6111 155.603C86.3148 142.902 101.481 132.793 119.111 125.276C136.741 117.759 155.213 114 174.528 114C211.602 114 243.426 126.442 270 151.326L231.306 188.458C216.139 173.812 197.213 166.49 174.528 166.49C158.583 166.49 143.838 170.508 130.292 178.543C116.745 186.578 106.019 197.498 98.1111 211.3C90.2037 225.103 86.25 240.17 86.25 256.5C86.25 272.83 90.2037 287.897 98.1111 301.7C106.019 315.502 116.745 326.422 130.292 334.457C143.838 342.493 158.583 346.51 174.528 346.51C185.287 346.51 195.171 345.02 204.181 342.039C213.19 339.058 220.611 335.332 226.444 330.861C232.278 326.389 237.366 321.302 241.708 315.6C246.051 309.897 249.227 304.518 251.236 299.464C253.245 294.409 254.639 289.614 255.417 285.078H174.528V236.087H309.083C310.639 244.252 311.417 252.158 311.417 259.805ZM480 236.087V276.913H439.361V317.544H398.528V276.913H357.889V236.087H398.528V195.456H439.361V236.087H480Z" fill="black"/>
</svg>
