<?xml version="1.0" encoding="utf-8"?>
<svg width="512" height="512" viewBox="0 0 512 512" fill="none" xmlns="http://www.w3.org/2000/svg">
<path d="M134.024 181.394V470.984H37.5652V181.394H134.024V181.394ZM140.162 91.9777C140.358 106.204 135.437 118.09 125.398 127.636C115.359 137.182 102.155 141.955 85.7864 141.955H85.1971C69.2216 141.955 56.3616 137.182 46.6169 127.636C36.8723 118.09 32 106.204 32 91.9777C32 77.5659 37.0196 65.6306 47.0589 56.1718C57.0981 46.713 70.2037 41.9891 86.3756 42C102.548 42.0109 115.506 46.7349 125.25 56.1718C134.995 65.6088 139.966 77.5441 140.162 91.9777V91.9777ZM480.984 305.013V471H384.82V316.125C384.82 295.669 380.875 279.642 372.985 268.045C365.096 256.448 352.77 250.65 336.009 250.65C323.733 250.65 313.454 254.01 305.171 260.73C296.889 267.451 290.702 275.78 286.61 285.719C284.471 291.567 283.401 299.455 283.401 309.382V470.984H187.237C187.63 393.251 187.827 330.226 187.827 281.906C187.827 233.587 187.728 204.752 187.532 195.403L187.237 181.378H283.401V223.452H282.812C286.708 217.222 290.702 211.767 294.794 207.087C298.886 202.407 304.391 197.339 311.309 191.884C318.228 186.429 326.707 182.191 336.746 179.169C346.785 176.147 357.943 174.636 370.219 174.636C403.545 174.636 430.34 185.693 450.604 207.807C470.868 229.921 481 262.312 481 304.98L480.984 305.013Z" fill="black"/>
</svg>
