<?xml version="1.0" encoding="utf-8"?>
<svg width="1410" height="512" viewBox="0 0 1410 512" fill="none" xmlns="http://www.w3.org/2000/svg">
<path d="M412.096 454.07C412.096 470.216 405.306 473.31 394.156 473.31H341.532C330.383 473.31 321.123 468.959 314.275 459.658L129.821 213.315H128.567V454.689C128.567 468.34 122.375 473.29 110.01 473.29H52.4284C38.1922 473.29 32 470.197 32 455.288V61.9131C32 45.7867 39.4268 42.6736 52.4284 42.6736H104.416C116.781 42.6736 122.973 46.4055 129.783 55.7062L314.237 303.905H315.471V60.6562C315.471 47.0242 322.281 42.6736 334.665 42.6736H394.716C410.804 42.6736 412.039 51.3555 412.039 61.9131V454.051H412.077L412.096 454.07ZM609.398 457.647C609.398 465.092 604.459 471.937 595.798 471.937H524.597C515.338 471.937 510.998 465.092 510.998 458.286V55.5515C510.998 48.107 515.955 41.3007 524.597 41.3007H595.798C605.077 41.3007 609.398 48.107 609.398 54.9521V457.647V457.647ZM1025.41 77.9041L1007.45 130.034C1005 136.241 1002.52 139.335 998.194 139.335C995.725 139.335 993.256 138.098 990.15 136.841C957.337 121.353 931.951 115.745 902.881 115.745C838.49 115.745 797.035 165.381 797.035 255.971C797.035 354.025 844.045 396.178 904.752 396.178C933.842 396.178 959.228 390.648 988.298 378.852C992.002 377.576 995.127 376.358 997.577 376.358C1003.15 376.358 1006.24 378.852 1008.71 386.278L1024.2 432.22C1025.43 435.933 1026.05 439.027 1026.05 442.14C1026.05 448.347 1023.58 452.697 1014.9 455.791C972.191 471.937 936.889 480 889.242 480C758.01 480 691.787 392.504 691.787 259.103C691.787 125.065 772.864 32 897.286 32C941.866 32 979.637 40.7013 1015.52 56.8277C1024.2 60.5402 1027.3 64.8909 1027.3 69.2222C1027.32 71.7165 1026.69 74.8103 1025.43 77.9234L1025.41 77.9041ZM1362.47 41.2814C1374.86 41.2814 1378.54 47.4883 1377.94 55.5321L1372.37 105.806C1371.13 118.839 1363.09 121.333 1348.24 121.333H1198.41V213.76H1338.94C1352.58 213.76 1357.51 220.586 1357.51 230.505V275.791C1357.51 288.224 1351.32 293.793 1339.57 293.793H1198.43V391.866H1360C1371.13 391.866 1377.96 396.796 1377.96 408.592V454.534C1377.96 466.31 1372.39 471.898 1360.64 471.898H1120.42C1106.18 471.898 1100.01 468.166 1100.01 452.659V58.6453C1100.01 48.0877 1105.58 41.2814 1116.1 41.2814L1362.47 41.262V41.2814Z" fill="black"/>
</svg>
