<?xml version="1.0" encoding="utf-8"?>
<svg width="2977" height="512" viewBox="0 0 2977 512" fill="none" xmlns="http://www.w3.org/2000/svg">
<path d="M143.221 169.766H141.59L51.2784 39.8596H32V204.912H52.0198V75.3022H53.5029L143.518 204.912H162.796V39.8596H143.221V169.766Z" fill="black"/>
<path d="M271.2 128.54C268.976 129.727 265.565 130.616 260.82 131.21C256.074 131.654 249.994 132.396 242.431 133.434C236.647 134.175 231.012 135.214 225.229 136.4C219.593 137.735 214.403 139.514 209.658 142.035C204.912 144.556 201.205 147.967 198.387 152.416C195.57 156.865 194.235 162.648 194.235 169.766C194.235 177.774 196.163 184.744 199.87 190.379C203.578 196.015 208.768 200.315 215.145 203.281C221.521 206.247 228.64 207.73 236.499 207.73C243.766 207.73 249.846 206.692 254.74 204.467C259.782 202.391 263.786 199.722 266.751 196.608C269.717 193.494 271.942 190.676 273.128 188.007H274.166V204.764H293.148V123.35C293.148 113.562 291.517 105.703 288.254 99.7709C284.992 93.8391 280.988 89.5386 276.094 86.5727C271.2 83.6068 266.158 81.6789 260.968 80.7891C255.778 79.8994 251.18 79.3062 247.176 79.3062C240.948 79.3062 234.571 80.196 228.195 81.8272C221.818 83.4585 215.886 86.4244 210.548 90.7249C205.209 94.8772 200.76 100.809 197.646 108.372L215.738 114.749C217.814 110.3 221.521 105.999 226.563 101.995C231.754 97.9914 238.872 96.0635 247.918 96.0635C256.964 96.0635 263.192 98.288 267.493 102.737C271.794 107.186 274.018 113.266 274.018 121.274V121.867C274.018 124.981 272.98 127.057 270.755 128.244L271.2 128.54ZM274.463 160.127C274.463 165.317 273.128 170.211 270.459 174.808C267.789 179.554 263.934 183.261 258.743 186.227C253.553 189.193 247.176 190.676 239.613 190.676C232.05 190.676 225.822 189.045 220.928 185.634C216.034 182.223 213.513 177.329 213.513 170.656C213.513 165.762 214.848 162.055 217.369 159.237C220.038 156.42 223.449 154.344 227.75 152.861C232.05 151.378 236.648 150.34 241.541 149.746C243.617 149.45 246.287 149.153 249.549 148.708C252.812 148.263 256.222 147.819 259.782 147.225C263.341 146.632 266.455 146.039 269.124 145.149C271.793 144.408 273.573 143.518 274.463 142.48V160.127Z" fill="black"/>
<path d="M336.598 174.66C336.598 181.926 338.23 187.858 341.641 192.604C345.051 197.349 349.204 200.908 354.394 203.133C359.584 205.357 364.775 206.544 370.113 206.544C373.672 206.544 376.638 206.247 378.863 205.802C381.087 205.357 383.015 204.764 384.201 204.319L380.346 187.265C379.604 187.413 378.418 187.562 377.083 187.858C375.748 188.155 373.969 188.155 371.893 188.155C369.075 188.155 366.406 187.71 364.033 186.82C361.512 185.93 359.436 184.151 357.953 181.482C356.322 178.812 355.58 174.808 355.58 169.47V97.2499H381.977V81.0857H355.58V51.4267H336.598V81.0857H317.913V97.2499H336.598V174.66Z" fill="black"/>
<path d="M429.728 81.0857H410.746V204.912H429.728V81.0857Z" fill="black"/>
<path d="M420.385 34.6693C416.678 34.6693 413.564 36.004 410.894 38.525C408.225 41.046 406.89 44.1602 406.89 47.571C406.89 50.9818 408.225 54.096 410.894 56.617C413.564 59.138 416.678 60.4727 420.385 60.4727C424.093 60.4727 427.207 59.2863 429.876 56.617C432.546 53.9477 433.88 50.9818 433.88 47.571C433.88 44.1602 432.546 41.046 429.876 38.525C427.207 36.004 424.093 34.6693 420.385 34.6693Z" fill="black"/>
<path d="M544.212 87.4624C535.759 82.1238 525.971 79.4545 514.849 79.4545C503.727 79.4545 493.94 82.1238 485.487 87.4624C477.034 92.8011 470.509 100.216 465.764 109.855C461.018 119.494 458.646 130.765 458.646 143.666C458.646 156.568 461.018 167.69 465.764 177.181C470.509 186.82 477.034 194.235 485.487 199.574C493.94 204.912 503.727 207.582 514.849 207.582C525.971 207.582 535.759 204.912 544.212 199.574C552.665 194.235 559.19 186.82 563.935 177.181C568.68 167.542 571.053 156.42 571.053 143.666C571.053 130.913 568.68 119.494 563.935 109.855C559.19 100.216 552.665 92.8011 544.212 87.4624ZM547.919 166.652C545.25 173.77 541.246 179.405 535.759 183.854C530.272 188.155 523.302 190.379 514.849 190.379C506.396 190.379 499.427 188.155 493.94 183.854C488.453 179.554 484.449 173.77 481.78 166.652C479.11 159.534 477.776 151.823 477.776 143.666C477.776 135.51 479.11 127.65 481.78 120.532C484.449 113.414 488.453 107.631 493.94 103.182C499.427 98.7329 506.396 96.5084 514.849 96.5084C523.302 96.5084 530.272 98.7329 535.759 103.182C541.246 107.631 545.25 113.414 547.919 120.532C550.589 127.65 551.923 135.362 551.923 143.666C551.923 151.971 550.589 159.682 547.919 166.652Z" fill="black"/>
<path d="M678.123 84.6448C671.894 81.234 664.479 79.6028 656.175 79.6028C646.832 79.6028 639.269 81.5306 633.337 85.3863C627.406 89.242 622.957 94.284 620.139 100.661H618.508V81.234H600.119V204.912H619.101V130.468C619.101 123.202 620.436 117.121 623.253 112.079C625.922 107.037 629.778 103.182 634.524 100.512C639.269 97.8431 644.608 96.5084 650.688 96.5084C659.437 96.5084 666.407 99.1777 671.449 104.665C676.491 110.152 679.012 117.715 679.012 127.502V204.912H697.994V126.316C697.994 115.787 696.214 107.037 692.804 100.216C689.245 93.2459 684.499 88.2039 678.123 84.7931V84.6448Z" fill="black"/>
<path d="M806.101 188.155H807.139V204.912H826.121V123.35C826.121 113.562 824.49 105.703 821.227 99.7709C817.965 93.8391 813.961 89.5386 809.067 86.5727C804.173 83.6068 799.131 81.6789 793.941 80.7891C788.751 79.8994 784.154 79.3062 780.15 79.3062C773.921 79.3062 767.544 80.196 761.168 81.8272C754.791 83.4585 748.859 86.4244 743.521 90.7249C738.182 94.8772 733.733 100.809 730.619 108.372L748.711 114.749C750.787 110.3 754.494 105.999 759.537 101.995C764.727 97.9914 771.845 96.0635 780.891 96.0635C789.937 96.0635 796.166 98.288 800.466 102.737C804.767 107.186 806.991 113.266 806.991 121.274V121.867C806.991 124.981 805.953 127.057 803.729 128.244C801.504 129.43 798.093 130.32 793.348 130.913C788.602 131.358 782.522 132.099 774.959 133.137C769.176 133.879 763.541 134.917 757.757 136.103C752.122 137.438 746.931 139.217 742.186 141.738C737.441 144.26 733.733 147.67 730.916 152.119C728.098 156.568 726.763 162.352 726.763 169.47C726.763 177.478 728.691 184.448 732.398 190.083C736.106 195.718 741.296 200.019 747.673 202.984C754.05 205.95 761.168 207.433 769.027 207.433C776.294 207.433 782.374 206.395 787.268 204.171C792.31 202.095 796.314 199.425 799.28 196.311C802.246 193.197 804.47 190.379 805.656 187.71L806.101 188.155ZM791.272 186.227C786.081 189.193 779.705 190.676 772.142 190.676C764.579 190.676 758.35 189.045 753.456 185.634C748.563 182.223 746.042 177.329 746.042 170.656C746.042 165.762 747.376 162.055 749.897 159.237C752.567 156.42 755.977 154.344 760.278 152.861C764.579 151.378 769.176 150.34 774.07 149.746C776.146 149.45 778.815 149.153 782.077 148.708C785.34 148.263 788.751 147.819 792.31 147.225C795.869 146.632 798.983 146.039 801.652 145.149C804.322 144.408 806.101 143.518 806.991 142.48V159.83C806.991 165.021 805.656 169.915 802.987 174.512C800.318 179.257 796.462 182.965 791.272 185.93V186.227Z" fill="black"/>
<path d="M879.804 39.8596H860.822V204.912H879.804V39.8596Z" fill="black"/>
<path d="M1001.11 39.8596H981.09V204.912H1001.11V39.8596Z" fill="black"/>
<path d="M1057.46 130.468C1057.46 123.202 1058.8 117.121 1061.61 112.079C1064.28 107.037 1068.14 103.182 1072.88 100.512C1077.63 97.8431 1082.97 96.5084 1089.05 96.5084C1097.8 96.5084 1104.77 99.1777 1109.81 104.665C1114.85 110.152 1117.37 117.715 1117.37 127.502V204.912H1136.35V126.316C1136.35 115.787 1134.58 107.037 1131.16 100.216C1127.61 93.2459 1122.86 88.2039 1116.48 84.7931C1110.25 81.3823 1102.84 79.7511 1094.54 79.7511C1085.19 79.7511 1077.63 81.6789 1071.7 85.5346C1065.77 89.3903 1061.32 94.4323 1058.5 100.809H1056.87V81.3823H1038.48V204.912H1057.46V130.468Z" fill="black"/>
<path d="M1253.06 149.153C1247.58 143.666 1239.42 139.514 1228.3 136.845L1209.91 132.396C1202.64 130.616 1197.16 128.244 1193.75 125.574C1190.33 122.905 1188.55 119.049 1188.55 114.304C1188.55 108.965 1191.08 104.516 1196.12 101.106C1201.16 97.6948 1207.39 95.9153 1214.95 95.9153C1220.44 95.9153 1225.04 96.805 1228.59 98.5846C1232.15 100.364 1234.97 102.589 1237.05 105.258C1239.12 107.927 1240.75 110.745 1241.79 113.562L1258.85 108.669C1255.88 99.9192 1250.99 92.8011 1243.87 87.3141C1236.9 81.9755 1227.26 79.3062 1214.95 79.3062C1206.2 79.3062 1198.49 80.7891 1191.67 83.9033C1184.85 87.0175 1179.36 91.1698 1175.5 96.5084C1171.65 101.847 1169.57 108.075 1169.57 115.045C1169.57 123.646 1172.24 130.765 1177.58 136.4C1182.92 142.035 1191.22 146.187 1202.49 148.857L1223.11 153.75C1229.34 155.233 1233.93 157.458 1236.9 160.275C1239.86 163.241 1241.35 166.8 1241.35 171.101C1241.35 176.44 1238.68 181.037 1233.49 184.744C1228.3 188.451 1221.18 190.379 1212.28 190.379C1204.42 190.379 1198.19 188.748 1193.45 185.337C1188.7 181.927 1185.44 177.033 1183.66 170.359L1165.57 174.808C1167.79 185.337 1172.98 193.345 1181.29 198.832C1189.59 204.319 1199.97 206.988 1212.58 206.988C1222.22 206.988 1230.67 205.357 1237.94 202.095C1245.2 198.832 1250.84 194.383 1254.84 188.896C1258.85 183.261 1260.92 177.033 1260.92 169.915C1260.92 161.313 1258.25 154.195 1252.77 148.708L1253.06 149.153Z" fill="black"/>
<path d="M1298.29 174.66C1298.29 181.926 1299.92 187.858 1303.34 192.604C1306.75 197.349 1310.9 200.908 1316.09 203.133C1321.28 205.357 1326.47 206.544 1331.81 206.544C1335.37 206.544 1338.33 206.247 1340.56 205.802C1342.78 205.357 1344.71 204.764 1345.9 204.319L1342.04 187.265C1341.3 187.413 1340.11 187.562 1338.78 187.858C1337.44 188.155 1335.66 188.155 1333.59 188.155C1330.77 188.155 1328.1 187.71 1325.73 186.82C1323.21 185.93 1321.13 184.151 1319.65 181.482C1318.02 178.812 1317.27 174.808 1317.27 169.47V97.2499H1343.67V81.0857H1317.27V51.4267H1298.29V81.0857H1279.61V97.2499H1298.29V174.66Z" fill="black"/>
<path d="M1382.08 34.6693C1378.37 34.6693 1375.26 36.004 1372.59 38.525C1369.92 41.046 1368.59 44.1602 1368.59 47.571C1368.59 50.9818 1369.92 54.096 1372.59 56.617C1375.26 59.138 1378.37 60.4727 1382.08 60.4727C1385.79 60.4727 1388.9 59.2863 1391.57 56.617C1394.24 53.9477 1395.57 50.9818 1395.57 47.571C1395.57 44.1602 1394.24 41.046 1391.57 38.525C1388.9 36.004 1385.79 34.6693 1382.08 34.6693Z" fill="black"/>
<path d="M1391.42 81.0857H1372.44V204.912H1391.42V81.0857Z" fill="black"/>
<path d="M1434.72 174.66C1434.72 181.926 1436.36 187.858 1439.77 192.604C1443.18 197.349 1447.33 200.908 1452.52 203.133C1457.71 205.357 1462.9 206.544 1468.24 206.544C1471.8 206.544 1474.76 206.247 1476.99 205.802C1479.21 205.357 1481.14 204.764 1482.33 204.319L1478.47 187.265C1477.73 187.413 1476.54 187.562 1475.21 187.858C1473.87 188.155 1472.1 188.155 1470.02 188.155C1467.2 188.155 1464.53 187.71 1462.16 186.82C1459.64 185.93 1457.56 184.151 1456.08 181.482C1454.45 178.812 1453.71 174.808 1453.71 169.47V97.2499H1480.1V81.0857H1453.71V51.4267H1434.72V81.0857H1416.04V97.2499H1434.72V174.66Z" fill="black"/>
<path d="M1585.54 184.003H1586.88V204.912H1605.86V81.0857H1586.88V154.344C1586.88 162.055 1585.24 168.432 1581.83 173.474C1578.42 178.516 1574.27 182.223 1569.38 184.596C1564.48 186.969 1559.59 188.303 1554.84 188.303C1546.98 188.303 1540.46 185.634 1535.42 180.295C1530.38 174.957 1527.85 167.69 1527.85 158.644V81.0857H1508.87V159.682C1508.87 170.211 1510.65 178.961 1514.06 185.782C1517.47 192.752 1522.22 197.794 1528.3 201.205C1534.38 204.616 1541.2 206.395 1548.91 206.395C1558.25 206.395 1565.97 204.171 1572.19 199.87C1578.27 195.57 1582.87 190.083 1585.69 183.854L1585.54 184.003Z" fill="black"/>
<path d="M1649.01 174.66C1649.01 181.926 1650.64 187.858 1654.05 192.604C1657.46 197.349 1661.62 200.908 1666.81 203.133C1672 205.357 1677.19 206.544 1682.53 206.544C1686.09 206.544 1689.05 206.247 1691.28 205.802C1693.5 205.357 1695.43 204.764 1696.61 204.319L1692.76 187.265C1692.02 187.413 1690.83 187.562 1689.5 187.858C1688.16 188.155 1686.38 188.155 1684.31 188.155C1681.49 188.155 1678.82 187.71 1676.45 186.82C1673.93 185.93 1671.85 184.151 1670.37 181.482C1668.73 178.812 1667.99 174.808 1667.99 169.47V97.2499H1694.39V81.0857H1667.99V51.4267H1649.01V81.0857H1630.33V97.2499H1649.01V174.66Z" fill="black"/>
<path d="M1808.13 93.2459C1802.94 88.5005 1797.31 84.9414 1790.93 82.8653C1784.55 80.7891 1778.33 79.6028 1771.8 79.6028C1760.68 79.6028 1750.89 82.2721 1742.59 87.759C1734.28 93.2459 1727.76 100.809 1723.01 110.448C1718.27 120.087 1716.04 131.358 1716.04 143.963C1716.04 156.568 1718.41 167.69 1723.01 177.329C1727.61 186.969 1734.28 194.235 1742.88 199.574C1751.48 204.912 1761.72 207.433 1773.73 207.433C1782.03 207.433 1789.6 206.099 1796.42 203.578C1803.09 200.908 1808.73 197.349 1813.32 192.604C1817.92 187.858 1821.18 182.371 1823.11 176.143L1804.72 170.953C1803.09 175.253 1800.87 178.812 1797.9 181.778C1794.93 184.744 1791.37 186.82 1787.37 188.155C1783.37 189.638 1778.77 190.231 1773.73 190.231C1766.02 190.231 1759.34 188.6 1753.56 185.189C1747.78 181.778 1743.18 176.884 1739.92 170.508C1736.95 164.724 1735.62 157.458 1735.32 149.302H1825.04V141.294C1825.04 129.727 1823.56 119.939 1820.44 112.079C1817.33 104.22 1813.32 97.8431 1808.13 92.9493V93.2459ZM1735.47 133.137C1735.76 127.354 1737.1 122.015 1739.62 116.825C1742.59 110.893 1746.74 105.999 1752.37 102.292C1757.86 98.5846 1764.39 96.6567 1771.95 96.6567C1778.77 96.6567 1784.85 98.288 1789.89 101.402C1794.93 104.516 1798.94 108.965 1801.61 114.452C1804.42 119.939 1805.76 126.167 1805.76 133.137H1735.47Z" fill="black"/>
<path d="M1973.04 97.2499V81.0857H1945.31V68.4806C1945.31 62.4005 1946.64 57.6551 1949.46 54.5409C1952.28 51.4267 1956.72 49.7954 1963.1 49.7954C1965.77 49.7954 1967.99 50.092 1969.77 50.5369C1971.55 50.9818 1972.74 51.4267 1973.78 51.7233L1979.27 35.2625C1977.78 34.6693 1975.56 33.9278 1972.59 33.1864C1969.63 32.4449 1965.77 32 1961.17 32C1955.24 32 1949.61 33.1864 1944.27 35.5591C1938.93 37.9318 1934.63 41.4909 1931.22 46.2363C1927.96 50.9818 1926.18 56.9136 1926.18 64.0318V81.0857H1906.16V97.2499H1926.18V204.912H1945.16V97.2499H1973.04Z" fill="black"/>
<path d="M2094.05 177.181C2098.79 167.542 2101.16 156.42 2101.16 143.666C2101.16 130.913 2098.79 119.494 2094.05 109.855C2089.3 100.216 2082.78 92.8011 2074.32 87.4624C2065.87 82.1238 2056.08 79.4545 2044.96 79.4545C2033.84 79.4545 2024.05 82.1238 2015.6 87.4624C2007.14 92.8011 2000.62 100.216 1995.87 109.855C1991.13 119.494 1988.76 130.765 1988.76 143.666C1988.76 156.568 1991.13 167.69 1995.87 177.181C2000.62 186.82 2007.14 194.235 2015.6 199.574C2024.05 204.912 2033.84 207.582 2044.96 207.582C2056.08 207.582 2065.87 204.912 2074.32 199.574C2082.78 194.235 2089.3 186.82 2094.05 177.181ZM2078.18 166.652C2075.51 173.77 2071.5 179.405 2066.02 183.854C2060.53 188.155 2053.56 190.379 2045.11 190.379C2036.66 190.379 2029.69 188.155 2024.2 183.854C2018.71 179.554 2014.71 173.77 2012.04 166.652C2009.37 159.534 2008.03 151.823 2008.03 143.666C2008.03 135.51 2009.37 127.65 2012.04 120.532C2014.71 113.414 2018.71 107.631 2024.2 103.182C2029.69 98.7329 2036.66 96.5084 2045.11 96.5084C2053.56 96.5084 2060.53 98.7329 2066.02 103.182C2071.5 107.631 2075.51 113.414 2078.18 120.532C2080.85 127.65 2082.18 135.362 2082.18 143.666C2082.18 151.971 2080.85 159.682 2078.18 166.652Z" fill="black"/>
<path d="M2181.98 79.1579C2174.57 79.1579 2167.9 81.0857 2161.96 84.9414C2156.03 88.7971 2152.03 93.6908 2149.66 99.9192H2148.32V81.234H2129.93V204.912H2148.91V126.612C2148.91 120.977 2150.25 116.083 2152.92 111.635C2155.59 107.334 2159.3 103.775 2164.04 101.254C2168.79 98.7329 2174.13 97.5465 2180.06 97.5465C2182.58 97.5465 2184.95 97.6948 2187.32 98.1397C2189.7 98.5846 2191.03 98.7329 2191.77 98.8812V79.6028C2190.73 79.6028 2189.1 79.4545 2187.03 79.3062C2184.95 79.3062 2183.17 79.3062 2181.84 79.3062L2181.98 79.1579Z" fill="black"/>
<path d="M139.959 385.684H52.0198V312.278H32V477.331H52.0198V403.48H139.959V477.331H159.979V312.278H139.959V385.684Z" fill="black"/>
<path d="M283.657 365.516C278.467 360.771 272.831 357.212 266.455 355.135C260.078 353.059 253.85 351.873 247.325 351.873C236.203 351.873 226.415 354.542 218.111 360.029C209.806 365.516 203.281 373.079 198.536 382.718C193.79 392.357 191.566 403.628 191.566 416.233C191.566 428.838 193.938 439.96 198.536 449.599C203.133 459.239 209.806 466.505 218.407 471.844C227.008 477.182 237.241 479.703 249.253 479.703C257.557 479.703 265.12 478.369 271.942 475.848C278.615 473.178 284.25 469.619 288.847 464.874C293.445 460.128 296.707 454.641 298.635 448.413L280.246 443.223C278.615 447.523 276.391 451.082 273.425 454.048C270.459 457.014 266.9 459.09 262.896 460.425C258.892 461.908 254.295 462.501 249.253 462.501C241.541 462.501 234.868 460.87 229.084 457.459C223.301 454.048 218.704 449.155 215.441 442.778C212.475 436.994 211.141 429.728 210.844 421.572H300.563V413.564C300.563 401.997 299.08 392.209 295.966 384.35C292.851 376.49 288.847 370.113 283.657 365.219V365.516ZM210.992 405.407C211.289 399.624 212.624 394.285 215.145 389.095C218.111 383.163 222.263 378.269 227.898 374.562C233.385 370.855 239.91 368.927 247.473 368.927C254.295 368.927 260.375 370.558 265.417 373.672C270.459 376.786 274.463 381.235 277.132 386.722C279.95 392.209 281.284 398.438 281.284 405.407H210.992Z" fill="black"/>
<path d="M405.704 359.139C400.81 356.173 395.768 354.246 390.578 353.356C385.388 352.466 380.79 351.873 376.786 351.873C370.558 351.873 364.181 352.763 357.805 354.394C351.428 356.025 345.496 358.991 340.158 363.292C334.819 367.444 330.37 373.376 327.256 380.939L345.348 387.315C347.424 382.867 351.131 378.566 356.173 374.562C361.364 370.558 368.482 368.63 377.528 368.63C386.574 368.63 392.802 370.855 397.103 375.304C401.404 379.752 403.628 385.832 403.628 393.84V394.434C403.628 397.548 402.59 399.624 400.365 400.81C398.141 401.997 394.73 402.886 389.985 403.48C385.239 403.925 379.159 404.666 371.596 405.704C365.813 406.446 360.177 407.484 354.394 408.67C348.759 410.005 343.568 411.784 338.823 414.305C334.077 416.826 330.37 420.237 327.552 424.686C324.735 429.135 323.4 434.918 323.4 442.036C323.4 450.044 325.328 457.014 329.035 462.649C332.743 468.285 337.933 472.585 344.31 475.551C350.686 478.517 357.805 480 365.664 480C372.931 480 379.011 478.962 383.905 476.737C388.947 474.661 392.951 471.992 395.917 468.878C398.882 465.764 401.107 462.946 402.293 460.277H403.331V477.034H422.313V395.472C422.313 385.684 420.682 377.825 417.419 371.893C414.157 365.961 410.153 361.66 405.259 358.694L405.704 359.139ZM403.628 432.545C403.628 437.736 402.293 442.63 399.624 447.227C396.955 451.972 393.099 455.68 387.909 458.645C382.718 461.611 376.342 463.094 368.779 463.094C361.215 463.094 354.987 461.463 350.093 458.052C345.2 454.641 342.679 449.748 342.679 443.074C342.679 438.181 344.013 434.473 346.534 431.656C349.204 428.838 352.614 426.762 356.915 425.279C361.216 423.796 365.813 422.758 370.706 422.165C372.783 421.868 375.452 421.572 378.714 421.127C381.977 420.682 385.388 420.237 388.947 419.644C392.506 419.051 395.62 418.457 398.289 417.568C400.959 416.826 402.738 415.936 403.628 414.898V432.545Z" fill="black"/>
<path d="M476.441 312.278H457.459V477.331H476.441V312.278Z" fill="black"/>
<path d="M560.376 460.128C559.041 460.425 557.262 460.425 555.186 460.425C552.368 460.425 549.699 459.98 547.326 459.09C544.805 458.201 542.729 456.421 541.246 453.752C539.615 451.082 538.873 447.078 538.873 441.74V369.52H565.27V353.356H538.873V323.697H519.891V353.356H501.206V369.52H519.891V446.93C519.891 454.197 521.523 460.128 524.934 464.874C528.344 469.619 532.497 473.178 537.687 475.403C542.877 477.627 548.068 478.814 553.406 478.814C556.965 478.814 559.931 478.517 562.156 478.072C564.38 477.627 566.308 477.034 567.494 476.589L563.639 459.535C562.897 459.684 561.711 459.832 560.376 460.128Z" fill="black"/>
<path d="M675.75 356.915C669.373 353.504 661.958 351.873 653.654 351.873C643.866 351.873 636.155 353.801 630.371 357.508C624.588 361.364 620.139 366.406 617.321 372.782H615.69V312.13H596.708V477.182H615.69V402.738C615.69 395.472 617.173 389.392 619.991 384.35C622.808 379.308 626.664 375.452 631.558 372.782C636.452 370.113 642.087 368.779 648.315 368.779C657.213 368.779 664.331 371.448 669.373 376.935C674.415 382.422 676.936 389.985 676.936 399.772V477.182H695.918V398.586C695.918 387.909 694.138 379.159 690.579 372.338C687.02 365.516 682.126 360.326 675.75 356.915Z" fill="black"/>
<path d="M870.61 359.139C865.716 356.173 860.674 354.246 855.484 353.356C850.293 352.466 845.696 351.873 841.692 351.873C835.464 351.873 829.087 352.763 822.71 354.394C816.334 356.025 810.402 358.991 805.063 363.292C799.725 367.444 795.276 373.376 792.161 380.939L810.253 387.315C812.33 382.867 816.037 378.566 821.079 374.562C826.27 370.558 833.387 368.63 842.434 368.63C851.48 368.63 857.708 370.855 862.009 375.304C866.309 379.752 868.534 385.832 868.534 393.84V394.434C868.534 397.548 867.496 399.624 865.271 400.81C863.047 401.997 859.636 402.886 854.89 403.48C850.145 403.925 844.065 404.666 836.502 405.704C830.718 406.446 825.083 407.484 819.299 408.67C813.664 410.005 808.474 411.784 803.729 414.305C798.983 416.826 795.276 420.237 792.458 424.686C789.64 429.135 788.306 434.918 788.306 442.036C788.306 450.044 790.234 457.014 793.941 462.649C797.648 468.285 802.839 472.585 809.216 475.551C815.592 478.517 822.71 480 830.57 480C837.837 480 843.917 478.962 848.81 476.737C853.852 474.661 857.856 471.992 860.822 468.878C863.788 465.764 866.013 462.946 867.199 460.277H868.237V477.034H887.219V395.472C887.219 385.684 885.587 377.825 882.325 371.893C879.062 365.961 875.059 361.66 870.165 358.694L870.61 359.139ZM868.534 432.545C868.534 437.736 867.199 442.63 864.53 447.227C861.86 451.972 858.005 455.68 852.814 458.645C847.624 461.611 841.247 463.094 833.684 463.094C826.121 463.094 819.893 461.463 814.999 458.052C810.105 454.641 807.584 449.748 807.584 443.074C807.584 438.181 808.919 434.473 811.44 431.656C814.109 428.838 817.52 426.762 821.82 425.279C826.121 423.796 830.718 422.758 835.612 422.165C837.688 421.868 840.357 421.572 843.62 421.127C846.882 420.682 850.293 420.237 853.852 419.644C857.411 419.051 860.526 418.457 863.195 417.568C865.864 416.826 867.644 415.936 868.534 414.898V432.545Z" fill="black"/>
<path d="M1000.52 357.063C994.288 353.652 986.873 352.021 978.569 352.021C969.226 352.021 961.663 353.949 955.731 357.805C949.799 361.66 945.35 366.702 942.533 373.079H940.902V353.652H922.513V477.479H941.495V403.035C941.495 395.768 942.829 389.688 945.647 384.646C948.316 379.604 952.172 375.748 956.917 373.079C961.663 370.41 967.002 369.075 973.082 369.075C981.831 369.075 988.801 371.744 993.843 377.231C998.885 382.718 1001.41 390.281 1001.41 400.069V477.479H1020.39V398.882C1020.39 388.354 1018.61 379.604 1015.2 372.782C1011.64 365.813 1006.89 360.771 1000.52 357.36V357.063Z" fill="black"/>
<path d="M1139.77 373.227H1138.13C1136.8 371.151 1134.72 368.334 1132.35 364.923C1129.83 361.512 1126.27 358.546 1121.53 355.877C1116.78 353.208 1110.4 351.873 1102.4 351.873C1092.01 351.873 1082.82 354.542 1074.81 359.733C1066.8 364.923 1060.72 372.338 1056.13 381.829C1051.53 391.319 1049.45 402.738 1049.45 415.64C1049.45 428.542 1051.68 440.109 1056.13 449.748C1060.58 459.387 1066.8 466.802 1074.66 471.992C1082.52 477.182 1091.72 479.852 1101.95 479.852C1109.96 479.852 1116.33 478.517 1121.08 475.848C1125.83 473.178 1129.53 470.212 1132.05 466.802C1134.58 463.391 1136.65 460.573 1137.99 458.349H1140.21V477.331H1158.6V312.278H1139.62V373.227H1139.77ZM1135.91 440.109C1133.24 447.227 1129.24 452.714 1123.9 456.718C1118.56 460.722 1112.18 462.649 1104.47 462.649C1096.76 462.649 1089.94 460.573 1084.6 456.273C1079.26 452.12 1075.26 446.337 1072.59 439.219C1069.92 432.101 1068.58 424.093 1068.58 415.195C1068.58 406.297 1069.92 398.586 1072.59 391.616C1075.26 384.646 1079.26 379.011 1084.6 375.007C1089.94 370.855 1096.61 368.779 1104.77 368.779C1112.92 368.779 1119 370.706 1124.34 374.562C1129.68 378.418 1133.54 383.905 1136.21 390.875C1138.88 397.844 1140.21 406.001 1140.21 415.195C1140.21 424.389 1138.88 432.842 1136.06 439.96L1135.91 440.109Z" fill="black"/>
<path d="M1301.85 336.302C1309.86 331.26 1319.05 328.739 1328.99 328.739C1334.48 328.739 1339.67 329.48 1344.71 330.963C1349.75 332.446 1354.35 334.671 1358.5 337.637C1362.65 340.602 1366.21 344.31 1369.18 348.61C1372.14 352.911 1374.22 357.953 1375.41 363.737H1395.43C1393.94 355.284 1391.13 347.721 1387.27 341.047C1383.27 334.374 1378.37 328.739 1372.44 324.142C1366.51 319.545 1359.84 315.985 1352.57 313.464C1345.3 311.092 1337.44 309.905 1329.14 309.905C1315.05 309.905 1302.59 313.316 1291.62 320.286C1280.65 327.108 1272.04 336.895 1265.82 349.648C1259.59 362.402 1256.33 377.38 1256.33 394.73C1256.33 412.081 1259.44 427.207 1265.82 439.812C1272.19 452.417 1280.79 462.205 1291.62 469.174C1302.59 475.996 1315.05 479.555 1329.14 479.555C1337.44 479.555 1345.3 478.369 1352.57 475.996C1359.84 473.623 1366.51 470.064 1372.44 465.467C1378.37 460.87 1383.27 455.235 1387.27 448.561C1391.27 441.888 1393.94 434.325 1395.43 425.872H1375.41C1374.22 431.507 1372.14 436.549 1369.18 440.998C1366.21 445.447 1362.65 449.006 1358.5 451.972C1354.35 454.938 1349.75 457.163 1344.71 458.645C1339.67 460.128 1334.33 460.87 1328.99 460.87C1319.05 460.87 1310.01 458.349 1301.85 453.307C1293.7 448.265 1287.32 440.85 1282.57 430.914C1277.83 420.978 1275.46 408.967 1275.46 394.73C1275.46 380.494 1277.83 368.334 1282.57 358.546C1287.32 348.759 1293.7 341.344 1301.85 336.154V336.302Z" fill="black"/>
<path d="M1501.16 359.139C1496.27 356.173 1491.23 354.246 1486.04 353.356C1480.84 352.466 1476.25 351.873 1472.24 351.873C1466.02 351.873 1459.64 352.763 1453.26 354.394C1446.89 356.025 1440.95 358.991 1435.61 363.292C1430.28 367.444 1425.83 373.376 1422.71 380.939L1440.8 387.315C1442.88 382.867 1446.59 378.566 1451.63 374.562C1456.82 370.558 1463.94 368.63 1472.99 368.63C1482.03 368.63 1488.26 370.855 1492.56 375.304C1496.86 379.752 1499.09 385.832 1499.09 393.84V394.434C1499.09 397.548 1498.05 399.624 1495.82 400.81C1493.6 401.997 1490.19 402.886 1485.44 403.48C1480.7 403.925 1474.62 404.666 1467.05 405.704C1461.27 406.446 1455.63 407.484 1449.85 408.67C1444.22 410.005 1439.03 411.784 1434.28 414.305C1429.53 416.826 1425.83 420.237 1423.01 424.686C1420.19 429.135 1418.86 434.918 1418.86 442.036C1418.86 450.044 1420.79 457.014 1424.49 462.649C1428.2 468.285 1433.39 472.585 1439.77 475.551C1446.14 478.517 1453.26 480 1461.12 480C1468.39 480 1474.47 478.962 1479.36 476.737C1484.4 474.661 1488.41 471.992 1491.37 468.878C1494.34 465.764 1496.56 462.946 1497.75 460.277H1498.79V477.034H1517.77V395.472C1517.77 385.684 1516.14 377.825 1512.88 371.893C1509.61 365.961 1505.61 361.66 1500.72 358.694L1501.16 359.139ZM1499.09 432.545C1499.09 437.736 1497.75 442.63 1495.08 447.227C1492.41 451.972 1488.56 455.68 1483.37 458.645C1478.18 461.611 1471.8 463.094 1464.24 463.094C1456.67 463.094 1450.44 461.463 1445.55 458.052C1440.66 454.641 1438.14 449.748 1438.14 443.074C1438.14 438.181 1439.47 434.473 1441.99 431.656C1444.66 428.838 1448.07 426.762 1452.37 425.279C1456.67 423.796 1461.27 422.758 1466.16 422.165C1468.24 421.868 1470.91 421.572 1474.17 421.127C1477.43 420.682 1480.84 420.237 1484.4 419.644C1487.96 419.051 1491.08 418.457 1493.75 417.568C1496.42 416.826 1498.2 415.936 1499.09 414.898V432.545Z" fill="black"/>
<path d="M1604.97 351.576C1597.55 351.576 1590.88 353.504 1584.95 357.36C1579.02 361.215 1575.01 366.109 1572.64 372.338H1571.3V353.652H1552.92V477.479H1571.9V399.179C1571.9 393.544 1573.23 388.65 1575.9 384.201C1578.57 379.901 1582.28 376.342 1587.02 373.821C1591.77 371.3 1597.11 370.113 1603.04 370.113C1605.56 370.113 1607.93 370.261 1610.31 370.706C1612.68 371.151 1614.01 371.3 1614.76 371.448V352.169C1613.72 352.169 1612.09 352.021 1610.01 351.873C1607.93 351.873 1606.15 351.873 1604.82 351.873L1604.97 351.576Z" fill="black"/>
<path d="M1719.9 365.516C1714.71 360.771 1709.07 357.212 1702.69 355.135C1696.32 353.059 1690.09 351.873 1683.56 351.873C1672.44 351.873 1662.65 354.542 1654.35 360.029C1646.05 365.516 1639.52 373.079 1634.78 382.718C1630.03 392.357 1627.81 403.628 1627.81 416.233C1627.81 428.838 1630.18 439.96 1634.78 449.599C1639.37 459.239 1646.05 466.505 1654.65 471.844C1663.25 477.182 1673.48 479.703 1685.49 479.703C1693.8 479.703 1701.36 478.369 1708.18 475.848C1714.85 473.178 1720.49 469.619 1725.09 464.874C1729.68 460.128 1732.95 454.641 1734.87 448.413L1716.49 443.223C1714.85 447.523 1712.63 451.082 1709.66 454.048C1706.7 457.014 1703.14 459.09 1699.14 460.425C1695.13 461.908 1690.53 462.501 1685.49 462.501C1677.78 462.501 1671.11 460.87 1665.32 457.459C1659.54 454.048 1654.94 449.155 1651.68 442.778C1648.71 436.994 1647.38 429.728 1647.08 421.572H1736.8V413.564C1736.8 401.997 1735.32 392.209 1732.21 384.35C1729.09 376.49 1725.09 370.113 1719.9 365.219V365.516ZM1647.23 405.407C1647.53 399.624 1648.86 394.285 1651.38 389.095C1654.35 383.163 1658.5 378.269 1664.14 374.562C1669.62 370.855 1676.15 368.927 1683.71 368.927C1690.53 368.927 1696.61 370.558 1701.66 373.672C1706.7 376.786 1710.7 381.235 1713.37 386.722C1716.19 392.209 1717.52 398.438 1717.52 405.407H1647.23Z" fill="black"/>
<path d="M1852.18 403.48H1926.62V385.684H1852.18V329.925H1931.81V312.278H1832.16V477.331H1933.15V459.535H1852.18V403.48Z" fill="black"/>
<path d="M2038.88 353.504L2009.22 404.073L1979.56 353.504H1957.61L1996.91 415.343L1957.61 477.331H1979.56L2009.22 429.283L2038.88 477.331H2060.83L2020.79 415.343L2060.83 353.504H2038.88Z" fill="black"/>
<path d="M2113.47 374.71C2118.96 370.855 2125.48 368.927 2132.9 368.927C2141.35 368.927 2148.03 371.151 2152.92 375.452C2157.96 379.901 2161.08 384.794 2162.56 390.43H2181.54C2180.5 382.718 2177.68 375.897 2173.24 370.113C2168.79 364.33 2163 359.733 2156.03 356.618C2149.06 353.356 2141.2 351.725 2132.45 351.725C2121.33 351.725 2111.54 354.394 2103.24 359.881C2094.94 365.368 2088.41 372.931 2083.67 382.57C2079.07 392.209 2076.7 403.331 2076.7 415.936C2076.7 428.542 2078.92 439.219 2083.52 448.858C2087.97 458.497 2094.49 466.06 2102.79 471.547C2111.1 477.034 2121.18 479.703 2132.75 479.703C2141.95 479.703 2149.95 477.924 2156.77 474.513C2163.74 471.102 2169.23 466.505 2173.38 460.722C2177.54 454.938 2180.21 448.265 2181.39 440.998H2162.41C2161.22 445.447 2159.3 449.303 2156.48 452.565C2153.66 455.828 2150.25 458.201 2146.25 459.98C2142.24 461.76 2137.79 462.501 2132.75 462.501C2125.19 462.501 2118.66 460.573 2113.18 456.569C2107.54 452.714 2103.39 447.078 2100.27 440.109C2097.31 432.99 2095.68 424.686 2095.68 415.047C2095.68 405.407 2097.16 397.548 2100.27 390.578C2103.39 383.608 2107.69 378.269 2113.32 374.414L2113.47 374.71Z" fill="black"/>
<path d="M2295.73 365.516C2290.54 360.771 2284.9 357.212 2278.52 355.135C2272.15 353.059 2265.92 351.873 2259.39 351.873C2248.27 351.873 2238.49 354.542 2230.18 360.029C2221.88 365.516 2215.35 373.079 2210.61 382.718C2205.86 392.357 2203.64 403.628 2203.64 416.233C2203.64 428.838 2206.01 439.96 2210.61 449.599C2215.2 459.239 2221.88 466.505 2230.48 471.844C2239.08 477.182 2249.31 479.703 2261.32 479.703C2269.63 479.703 2277.19 478.369 2284.01 475.848C2290.69 473.178 2296.32 469.619 2300.92 464.874C2305.51 460.128 2308.78 454.641 2310.71 448.413L2292.32 443.223C2290.69 447.523 2288.46 451.082 2285.49 454.048C2282.53 457.014 2278.97 459.09 2274.97 460.425C2270.96 461.908 2266.36 462.501 2261.32 462.501C2253.61 462.501 2246.94 460.87 2241.15 457.459C2235.37 454.048 2230.77 449.155 2227.51 442.778C2224.55 436.994 2223.21 429.728 2222.91 421.572H2312.63V413.564C2312.63 401.997 2311.15 392.209 2308.04 384.35C2304.92 376.49 2300.92 370.113 2295.73 365.219V365.516ZM2223.06 405.407C2223.36 399.624 2224.69 394.285 2227.21 389.095C2230.18 383.163 2234.33 378.269 2239.97 374.562C2245.46 370.855 2251.98 368.927 2259.54 368.927C2266.36 368.927 2272.44 370.558 2277.49 373.672C2282.53 376.786 2286.53 381.235 2289.2 386.722C2292.02 392.209 2293.35 398.438 2293.35 405.407H2223.06Z" fill="black"/>
<path d="M2360.53 312.278H2341.55V477.331H2360.53V312.278Z" fill="black"/>
<path d="M2414.36 312.278H2395.38V477.331H2414.36V312.278Z" fill="black"/>
<path d="M2535.52 365.516C2530.33 360.771 2524.7 357.212 2518.32 355.135C2511.94 353.059 2505.71 351.873 2499.19 351.873C2488.07 351.873 2478.28 354.542 2469.97 360.029C2461.67 365.516 2455.14 373.079 2450.4 382.718C2445.65 392.357 2443.43 403.628 2443.43 416.233C2443.43 428.838 2445.8 439.96 2450.4 449.599C2455 459.239 2461.67 466.505 2470.27 471.844C2478.87 477.182 2489.1 479.703 2501.12 479.703C2509.42 479.703 2516.98 478.369 2523.81 475.848C2530.48 473.178 2536.11 469.619 2540.71 464.874C2545.31 460.128 2548.57 454.641 2550.5 448.413L2532.11 443.223C2530.48 447.523 2528.25 451.082 2525.29 454.048C2522.32 457.014 2518.76 459.09 2514.76 460.425C2510.76 461.908 2506.16 462.501 2501.12 462.501C2493.4 462.501 2486.73 460.87 2480.95 457.459C2475.16 454.048 2470.57 449.155 2467.3 442.778C2464.34 436.994 2463 429.728 2462.71 421.572H2552.43V413.564C2552.43 401.997 2550.94 392.209 2547.83 384.35C2544.71 376.49 2540.71 370.113 2535.52 365.219V365.516ZM2462.86 405.407C2463.15 399.624 2464.49 394.285 2467.01 389.095C2469.97 383.163 2474.13 378.269 2479.76 374.562C2485.25 370.855 2491.77 368.927 2499.34 368.927C2506.16 368.927 2512.24 370.558 2517.28 373.672C2522.32 376.786 2526.33 381.235 2529 386.722C2531.81 392.209 2533.15 398.438 2533.15 405.407H2462.86Z" fill="black"/>
<path d="M2659.5 357.063C2653.27 353.652 2645.85 352.021 2637.55 352.021C2628.21 352.021 2620.64 353.949 2614.71 357.805C2608.78 361.66 2604.33 366.702 2601.51 373.079H2599.88V353.652H2581.49V477.479H2600.47V403.035C2600.47 395.768 2601.81 389.688 2604.63 384.646C2607.3 379.604 2611.15 375.748 2615.9 373.079C2620.64 370.41 2625.98 369.075 2632.06 369.075C2640.81 369.075 2647.78 371.744 2652.82 377.231C2657.86 382.718 2660.39 390.281 2660.39 400.069V477.479H2679.37V398.882C2679.37 388.354 2677.59 379.604 2674.18 372.782C2670.62 365.813 2665.87 360.771 2659.5 357.36V357.063Z" fill="black"/>
<path d="M2745.06 374.71C2750.55 370.855 2757.07 368.927 2764.49 368.927C2772.94 368.927 2779.61 371.151 2784.51 375.452C2789.55 379.901 2792.66 384.794 2794.15 390.43H2813.13C2812.09 382.718 2809.27 375.897 2804.82 370.113C2800.38 364.33 2794.59 359.733 2787.62 356.618C2780.65 353.356 2772.79 351.725 2764.04 351.725C2752.92 351.725 2743.13 354.394 2734.83 359.881C2726.53 365.368 2720 372.931 2715.25 382.57C2710.66 392.209 2708.28 403.331 2708.28 415.936C2708.28 428.542 2710.51 439.219 2715.11 448.858C2719.55 458.497 2726.08 466.06 2734.38 471.547C2742.69 477.034 2752.77 479.703 2764.34 479.703C2773.53 479.703 2781.54 477.924 2788.36 474.513C2795.33 471.102 2800.82 466.505 2804.97 460.722C2809.13 454.938 2811.79 448.265 2812.98 440.998H2794C2792.81 445.447 2790.89 449.303 2788.07 452.565C2785.25 455.828 2781.84 458.201 2777.84 459.98C2773.83 461.76 2769.38 462.501 2764.34 462.501C2756.78 462.501 2750.25 460.573 2744.77 456.569C2739.13 452.714 2734.98 447.078 2731.86 440.109C2728.9 432.99 2727.27 424.686 2727.27 415.047C2727.27 405.407 2728.75 397.548 2731.86 390.578C2734.98 383.608 2739.28 378.269 2744.91 374.414L2745.06 374.71Z" fill="black"/>
<path d="M2944.07 413.86C2944.07 402.293 2942.59 392.506 2939.48 384.646C2936.36 376.786 2932.36 370.41 2927.17 365.516C2921.98 360.771 2916.34 357.212 2909.97 355.135C2903.59 353.059 2897.36 351.873 2890.84 351.873C2879.71 351.873 2869.93 354.542 2861.62 360.029C2853.32 365.516 2846.79 373.079 2842.05 382.718C2837.3 392.357 2835.08 403.628 2835.08 416.233C2835.08 428.838 2837.45 439.96 2842.05 449.599C2846.64 459.239 2853.32 466.505 2861.92 471.844C2870.52 477.182 2880.75 479.703 2892.76 479.703C2901.07 479.703 2908.63 478.369 2915.45 475.848C2922.13 473.178 2927.76 469.619 2932.36 464.874C2936.96 460.128 2940.22 454.641 2942.15 448.413L2923.76 443.223C2922.13 447.523 2919.9 451.082 2916.94 454.048C2913.97 457.014 2910.41 459.09 2906.41 460.425C2902.4 461.908 2897.81 462.501 2892.76 462.501C2885.05 462.501 2878.38 460.87 2872.6 457.459C2866.81 454.048 2862.22 449.155 2858.95 442.778C2855.99 436.994 2854.65 429.728 2854.36 421.572H2944.07V413.564V413.86ZM2854.5 405.407C2854.8 399.624 2856.14 394.285 2858.66 389.095C2861.62 383.163 2865.77 378.269 2871.41 374.562C2876.9 370.855 2883.42 368.927 2890.98 368.927C2897.81 368.927 2903.89 370.558 2908.93 373.672C2913.97 376.786 2917.97 381.235 2920.64 386.722C2923.46 392.209 2924.8 398.438 2924.8 405.407H2854.5Z" fill="black"/>
</svg>
