<?xml version="1.0" encoding="utf-8"?>
<svg width="620" height="512" viewBox="0 0 620 512" fill="none" xmlns="http://www.w3.org/2000/svg">
<path d="M188.276 34.4649V216.376H155.061L75.9373 101.881H74.5816V216.376H36.1287V34.4649H69.8982L148.406 148.899H150.008V34.4649H188.276Z" fill="black"/>
<path d="M253.104 34.4649H214.651V216.376H253.104V34.4649Z" fill="black"/>
<path d="M440.007 98.1832H401.122C400.383 93.1301 398.966 88.6933 396.747 84.7494C394.529 80.8055 391.756 77.4779 388.305 74.6432C384.854 71.8702 380.91 69.7133 376.473 68.2344C371.975 66.7554 367.168 66.016 361.93 66.016C352.502 66.016 344.306 68.3576 337.343 72.9794C330.379 77.6011 324.956 84.3796 321.074 93.2534C317.253 102.127 315.281 112.85 315.281 125.482C315.281 138.115 317.192 149.33 321.074 158.143C324.956 166.955 330.379 173.61 337.343 178.108C344.306 182.607 352.44 184.825 361.622 184.825C366.798 184.825 371.543 184.147 375.98 182.792C380.417 181.436 384.299 179.464 387.75 176.814C391.201 174.165 394.036 170.96 396.316 167.201C398.596 163.442 400.198 159.067 401.061 154.26L439.945 154.445C438.959 162.764 436.433 170.837 432.427 178.54C428.421 186.243 423.06 193.144 416.343 199.245C409.626 205.284 401.615 210.091 392.372 213.603C383.129 217.116 372.653 218.903 360.944 218.903C344.737 218.903 330.256 215.206 317.5 207.872C304.744 200.539 294.699 189.878 287.305 176.013C279.91 162.086 276.212 145.263 276.212 125.482C276.212 105.701 279.971 88.7549 287.428 74.8281C294.884 60.9012 304.99 50.3021 317.808 42.9689C330.626 35.6358 344.984 32 360.944 32C371.482 32 381.28 33.479 390.277 36.4369C399.335 39.3948 407.346 43.7084 414.31 49.3777C421.273 55.047 427.004 61.9488 431.379 70.1447C435.816 78.3406 438.589 87.6457 439.883 98.1832" fill="black"/>
<path d="M462.314 216.376V34.4649H584.883V66.2008H500.767V109.522H578.597V141.258H500.767V184.702H585.252V216.376H462.314Z" fill="black"/>
<path d="M42.5376 264.073H43.0305L70.6993 303.943H76.6151V253.165H70.5761V293.159H70.0831L42.2911 253.165H36.3752V303.943H42.5376V264.073Z" fill="black"/>
<path d="M109.953 280.464C109.275 280.834 108.228 281.142 106.81 281.265C105.393 281.45 103.483 281.635 101.141 281.943C99.3541 282.19 97.6286 282.498 95.9032 282.868C94.1777 283.237 92.5755 283.854 91.1582 284.593C89.7409 285.394 88.57 286.442 87.7073 287.798C86.8446 289.153 86.4132 290.94 86.4132 293.097C86.4132 295.562 86.9678 297.657 88.1387 299.444C89.3095 301.17 90.8501 302.525 92.822 303.45C94.7939 304.374 96.9508 304.806 99.4157 304.806C101.634 304.806 103.483 304.497 105.023 303.82C106.564 303.142 107.796 302.341 108.721 301.416C109.645 300.492 110.323 299.568 110.693 298.766H111.001V303.943H116.855V278.862C116.855 275.843 116.362 273.439 115.376 271.652C114.39 269.865 113.158 268.509 111.617 267.585C110.138 266.722 108.598 266.106 106.995 265.798C105.393 265.49 103.976 265.367 102.743 265.367C100.833 265.367 98.8611 265.613 96.8891 266.168C94.9172 266.661 93.0685 267.585 91.4047 268.879C89.7409 270.173 88.4468 271.96 87.3992 274.302L92.9453 276.274C93.5615 274.857 94.7323 273.563 96.2729 272.33C97.8751 271.098 100.032 270.481 102.867 270.481C105.701 270.481 107.55 271.159 108.906 272.515C110.261 273.871 110.878 275.781 110.878 278.184V278.369C110.878 279.294 110.569 279.971 109.892 280.341L109.953 280.464ZM110.939 290.201C110.939 291.803 110.508 293.282 109.707 294.761C108.906 296.178 107.673 297.349 106.071 298.273C104.469 299.198 102.497 299.629 100.217 299.629C97.9367 299.629 95.9648 299.136 94.4242 298.089C92.8836 297.041 92.1442 295.5 92.1442 293.467C92.1442 291.988 92.5139 290.817 93.315 289.954C94.1161 289.092 95.1637 288.414 96.5194 287.982C97.8135 287.551 99.2308 287.243 100.771 287.058C101.388 286.996 102.25 286.873 103.236 286.75C104.284 286.627 105.332 286.503 106.379 286.319C107.488 286.134 108.413 285.949 109.275 285.702C110.138 285.456 110.631 285.209 110.878 284.901V290.262L110.939 290.201Z" fill="black"/>
<path d="M142.552 298.705C142.121 298.766 141.628 298.828 140.95 298.828C140.087 298.828 139.286 298.705 138.485 298.397C137.745 298.15 137.067 297.596 136.574 296.733C136.081 295.932 135.835 294.699 135.835 293.035V270.851H143.969V265.86H135.835V256.739H129.981V265.86H124.25V270.851H129.981V294.638C129.981 296.856 130.474 298.705 131.521 300.122C132.569 301.601 133.863 302.649 135.465 303.388C137.067 304.066 138.67 304.436 140.333 304.436C141.443 304.436 142.305 304.374 143.045 304.189C143.723 304.004 144.277 303.881 144.709 303.758L143.538 298.52C143.538 298.52 142.983 298.643 142.552 298.705Z" fill="black"/>
<path d="M155.862 259.513C156.972 259.513 157.958 259.143 158.82 258.342C159.621 257.541 160.053 256.616 160.053 255.507C160.053 254.398 159.621 253.473 158.82 252.734C158.019 251.933 157.033 251.563 155.862 251.563C154.692 251.563 153.767 251.933 152.905 252.734C152.103 253.535 151.672 254.459 151.672 255.507C151.672 256.555 152.103 257.541 152.905 258.342C153.706 259.143 154.692 259.513 155.862 259.513Z" fill="black"/>
<path d="M158.759 265.86H152.905V303.943H158.759V265.86Z" fill="black"/>
<path d="M199.985 295.439C201.464 292.481 202.141 289.03 202.141 285.148C202.141 281.265 201.402 277.691 199.985 274.733C198.567 271.776 196.534 269.495 193.946 267.832C191.357 266.168 188.338 265.367 184.887 265.367C181.436 265.367 178.417 266.168 175.828 267.832C173.24 269.495 171.207 271.776 169.789 274.733C168.372 277.691 167.632 281.142 167.632 285.148C167.632 289.153 168.372 292.543 169.789 295.439C171.207 298.397 173.24 300.677 175.828 302.279C178.417 303.943 181.436 304.744 184.887 304.744C188.338 304.744 191.357 303.943 193.946 302.279C196.534 300.615 198.567 298.335 199.985 295.439ZM195.116 292.234C194.315 294.391 193.083 296.178 191.357 297.534C189.694 298.89 187.537 299.568 184.887 299.568C182.237 299.568 180.142 298.89 178.417 297.534C176.753 296.178 175.459 294.453 174.658 292.234C173.856 290.078 173.425 287.674 173.425 285.148C173.425 282.621 173.856 280.218 174.658 278.061C175.459 275.843 176.691 274.056 178.417 272.7C180.142 271.344 182.237 270.666 184.887 270.666C187.537 270.666 189.632 271.344 191.357 272.7C193.083 274.056 194.315 275.843 195.116 278.061C195.917 280.28 196.349 282.621 196.349 285.148C196.349 287.674 195.917 290.078 195.116 292.234Z" fill="black"/>
<path d="M216.931 281.019C216.931 278.801 217.362 276.89 218.225 275.35C219.088 273.809 220.197 272.638 221.676 271.776C223.155 270.974 224.819 270.543 226.667 270.543C229.379 270.543 231.536 271.406 233.076 273.07C234.617 274.733 235.418 277.075 235.418 280.095V303.881H241.272V279.663C241.272 276.397 240.717 273.747 239.67 271.591C238.622 269.434 237.082 267.893 235.171 266.846C233.261 265.798 230.981 265.243 228.393 265.243C225.497 265.243 223.155 265.86 221.368 267.031C219.581 268.201 218.225 269.804 217.301 271.714H216.808V265.736H211.138V303.82H216.993V280.896L216.931 281.019Z" fill="black"/>
<path d="M273.747 280.464C273.07 280.834 272.022 281.142 270.605 281.265C269.187 281.45 267.277 281.635 264.935 281.943C263.148 282.19 261.423 282.498 259.697 282.868C257.972 283.237 256.37 283.854 254.952 284.593C253.535 285.394 252.364 286.442 251.502 287.798C250.639 289.153 250.207 290.94 250.207 293.097C250.207 295.562 250.762 297.657 251.933 299.444C253.104 301.17 254.644 302.525 256.616 303.45C258.588 304.374 260.745 304.806 263.21 304.806C265.428 304.806 267.277 304.497 268.818 303.82C270.358 303.142 271.591 302.341 272.515 301.416C273.439 300.492 274.117 299.568 274.487 298.766H274.795V303.943H280.649V278.862C280.649 275.843 280.156 273.439 279.17 271.652C278.184 269.865 276.952 268.509 275.411 267.585C273.932 266.722 272.392 266.106 270.79 265.798C269.187 265.49 267.77 265.367 266.538 265.367C264.627 265.367 262.655 265.613 260.683 266.168C258.711 266.661 256.863 267.585 255.199 268.879C253.535 270.173 252.241 271.96 251.193 274.302L256.74 276.274C257.356 274.857 258.527 273.563 260.067 272.33C261.669 271.098 263.826 270.481 266.661 270.481C269.495 270.481 271.344 271.159 272.7 272.515C274.056 273.871 274.672 275.781 274.672 278.184V278.369C274.672 279.294 274.364 279.971 273.686 280.341L273.747 280.464ZM274.733 290.201C274.733 291.803 274.302 293.282 273.501 294.761C272.7 296.178 271.467 297.349 269.865 298.273C268.263 299.198 266.291 299.629 264.011 299.629C261.731 299.629 259.759 299.136 258.218 298.089C256.678 297.041 255.938 295.5 255.938 293.467C255.938 291.988 256.308 290.817 257.109 289.954C257.91 289.092 258.958 288.414 260.314 287.982C261.608 287.551 263.025 287.243 264.566 287.058C265.182 286.996 266.045 286.873 267.031 286.75C268.078 286.627 269.126 286.503 270.173 286.319C271.283 286.134 272.207 285.949 273.07 285.702C273.932 285.456 274.425 285.209 274.672 284.901V290.262L274.733 290.201Z" fill="black"/>
<path d="M297.164 253.165H291.31V303.943H297.164V253.165Z" fill="black"/>
<path d="M334.446 253.165H328.284V303.943H334.446V253.165Z" fill="black"/>
<path d="M370.003 266.969C368.092 265.921 365.812 265.367 363.224 265.367C360.328 265.367 357.986 265.983 356.199 267.154C354.412 268.325 353.056 269.927 352.132 271.837H351.639V265.86H345.97V303.943H351.824V281.019C351.824 278.801 352.255 276.89 353.118 275.35C353.981 273.809 355.09 272.638 356.569 271.776C358.048 270.974 359.712 270.543 361.56 270.543C364.272 270.543 366.429 271.406 367.969 273.07C369.51 274.733 370.311 277.075 370.311 280.095V303.881H376.165V279.663C376.165 276.397 375.61 273.747 374.563 271.591C373.515 269.434 371.975 267.893 370.064 266.846L370.003 266.969Z" fill="black"/>
<path d="M399.52 299.568C397.117 299.568 395.207 299.075 393.728 298.027C392.249 296.979 391.263 295.439 390.708 293.405L385.162 294.823C385.84 298.089 387.442 300.492 389.969 302.217C392.495 303.881 395.7 304.744 399.582 304.744C402.54 304.744 405.128 304.251 407.346 303.265C409.565 302.279 411.29 300.923 412.584 299.198C413.817 297.472 414.433 295.5 414.433 293.344C414.433 290.694 413.57 288.475 411.907 286.812C410.243 285.148 407.716 283.854 404.327 283.053L398.658 281.635C396.439 281.081 394.775 280.341 393.728 279.54C392.68 278.739 392.125 277.568 392.125 276.089C392.125 274.425 392.927 273.131 394.467 272.022C396.008 270.974 397.98 270.42 400.26 270.42C401.985 270.42 403.341 270.666 404.45 271.221C405.559 271.776 406.422 272.453 407.038 273.316C407.655 274.117 408.147 274.98 408.517 275.904L413.755 274.425C412.831 271.714 411.29 269.557 409.133 267.893C406.977 266.229 404.019 265.428 400.26 265.428C397.61 265.428 395.207 265.921 393.111 266.846C391.016 267.77 389.352 269.064 388.12 270.728C386.888 272.392 386.271 274.302 386.271 276.397C386.271 279.047 387.072 281.204 388.736 282.929C390.338 284.655 392.927 285.949 396.439 286.812L402.786 288.291C404.697 288.722 406.114 289.4 407.038 290.324C407.963 291.248 408.456 292.358 408.456 293.652C408.456 295.316 407.655 296.671 406.052 297.842C404.45 299.013 402.293 299.568 399.52 299.568Z" fill="black"/>
<path d="M425.895 294.638C425.895 296.856 426.388 298.705 427.436 300.122C428.483 301.601 429.777 302.649 431.379 303.388C432.982 304.066 434.584 304.436 436.248 304.436C437.357 304.436 438.22 304.374 438.959 304.189C439.637 304.004 440.192 303.881 440.623 303.758L439.452 298.52C439.452 298.52 438.897 298.643 438.466 298.705C438.035 298.766 437.542 298.828 436.864 298.828C436.001 298.828 435.2 298.705 434.399 298.397C433.659 298.15 432.982 297.596 432.489 296.733C431.996 295.932 431.749 294.699 431.749 293.035V270.851H439.883V265.86H431.749V256.739H425.895V265.86H420.164V270.851H425.895V294.638Z" fill="black"/>
<path d="M451.653 259.513C452.763 259.513 453.749 259.143 454.611 258.342C455.412 257.541 455.844 256.616 455.844 255.507C455.844 254.398 455.412 253.473 454.611 252.734C453.81 251.933 452.824 251.563 451.653 251.563C450.483 251.563 449.558 251.933 448.695 252.734C447.894 253.535 447.463 254.459 447.463 255.507C447.463 256.555 447.894 257.541 448.695 258.342C449.497 259.143 450.483 259.513 451.653 259.513Z" fill="black"/>
<path d="M454.55 265.86H448.695V303.943H454.55V265.86Z" fill="black"/>
<path d="M467.799 294.638C467.799 296.856 468.292 298.705 469.339 300.122C470.387 301.601 471.681 302.649 473.283 303.388C474.885 304.066 476.488 304.436 478.151 304.436C479.261 304.436 480.123 304.374 480.863 304.189C481.541 304.004 482.095 303.881 482.527 303.758L481.356 298.52C481.356 298.52 480.801 298.643 480.37 298.705C479.938 298.766 479.445 298.828 478.768 298.828C477.905 298.828 477.104 298.705 476.303 298.397C475.563 298.15 474.885 297.596 474.392 296.733C473.899 295.932 473.653 294.699 473.653 293.035V270.851H481.787V265.86H473.653V256.739H467.799V265.86H462.068V270.851H467.799V294.638Z" fill="black"/>
<path d="M520.486 303.943V265.86H514.632V288.352C514.632 290.755 514.139 292.666 513.092 294.206C512.044 295.747 510.812 296.918 509.271 297.657C507.73 298.397 506.251 298.766 504.834 298.766C502.431 298.766 500.397 297.965 498.857 296.302C497.316 294.638 496.515 292.419 496.515 289.646V265.86H490.661V290.078C490.661 293.344 491.215 295.993 492.263 298.089C493.311 300.245 494.79 301.786 496.638 302.834C498.487 303.881 500.582 304.436 502.985 304.436C505.882 304.436 508.223 303.758 510.134 302.402C512.044 301.047 513.4 299.444 514.324 297.472H514.694V303.943H520.548H520.486Z" fill="black"/>
<path d="M533.735 294.638C533.735 296.856 534.228 298.705 535.276 300.122C536.324 301.601 537.618 302.649 539.22 303.388C540.822 304.066 542.424 304.436 544.088 304.436C545.197 304.436 546.06 304.374 546.799 304.189C547.539 304.004 548.032 303.881 548.463 303.758L547.292 298.52C547.292 298.52 546.738 298.643 546.307 298.705C545.875 298.766 545.382 298.828 544.704 298.828C543.842 298.828 543.041 298.705 542.239 298.397C541.5 298.15 540.822 297.596 540.329 296.733C539.836 295.932 539.59 294.699 539.59 293.035V270.851H547.724V265.86H539.59V256.739H533.735V265.86H528.004V270.851H533.735V294.638Z" fill="black"/>
<path d="M587.902 284.408C587.902 280.834 587.409 277.876 586.485 275.411C585.56 273.008 584.266 271.036 582.664 269.557C581.062 268.078 579.336 267.031 577.365 266.353C575.454 265.675 573.482 265.367 571.51 265.367C568.059 265.367 565.04 266.229 562.513 267.893C559.925 269.557 557.953 271.899 556.536 274.857C555.119 277.815 554.379 281.265 554.379 285.209C554.379 289.153 555.119 292.543 556.536 295.439C557.953 298.335 559.987 300.677 562.637 302.279C565.286 303.881 568.429 304.744 572.127 304.744C574.715 304.744 577.056 304.313 579.09 303.511C581.185 302.71 582.911 301.601 584.266 300.122C585.684 298.705 586.67 296.979 587.286 295.069L581.617 293.467C581.124 294.761 580.446 295.87 579.521 296.795C578.597 297.657 577.549 298.335 576.317 298.766C575.084 299.198 573.667 299.444 572.127 299.444C569.785 299.444 567.69 298.951 565.903 297.904C564.116 296.856 562.698 295.377 561.712 293.344C560.788 291.557 560.357 289.338 560.295 286.812H587.902V284.347V284.408ZM560.357 281.82C560.48 280.033 560.85 278.369 561.589 276.829C562.513 274.98 563.807 273.501 565.471 272.33C567.197 271.159 569.169 270.605 571.51 270.605C573.606 270.605 575.454 271.098 577.056 272.084C578.597 273.07 579.829 274.364 580.692 276.089C581.555 277.815 581.986 279.663 581.986 281.82H560.357Z" fill="black"/>
<path d="M38.1623 391.509H44.0165V358.418H52.5205V353.426H44.0165V349.544C44.0165 347.634 44.4479 346.216 45.3106 345.23C46.1733 344.244 47.529 343.751 49.501 343.751C50.3637 343.751 51.0415 343.813 51.5345 343.998C52.0275 344.121 52.4589 344.244 52.767 344.368L54.4308 339.314C53.9995 339.13 53.3216 338.883 52.3973 338.637C51.4729 338.39 50.3021 338.267 48.8847 338.267C47.0977 338.267 45.3106 338.637 43.7084 339.376C42.0446 340.116 40.7505 341.163 39.7029 342.642C38.6553 344.121 38.1623 345.908 38.1623 348.127V353.365H32V358.356H38.1623V391.509Z" fill="black"/>
<path d="M89.7409 383.005C91.2198 380.047 91.8977 376.596 91.8977 372.714C91.8977 368.832 91.1582 365.258 89.7409 362.3C88.3235 359.342 86.29 357.062 83.7018 355.398C81.1136 353.734 78.0941 352.933 74.6432 352.933C71.1923 352.933 68.1728 353.734 65.5846 355.398C62.9964 357.062 60.9629 359.342 59.5455 362.3C58.1282 365.258 57.3887 368.709 57.3887 372.714C57.3887 376.72 58.1282 380.109 59.5455 383.005C60.9629 385.963 62.9964 388.243 65.5846 389.845C68.1728 391.509 71.1923 392.31 74.6432 392.31C78.0941 392.31 81.1136 391.509 83.7018 389.845C86.29 388.182 88.3235 385.902 89.7409 383.005ZM84.8726 379.801C84.0715 381.958 82.8391 383.745 81.1136 385.1C79.4498 386.456 77.293 387.134 74.6432 387.134C71.9934 387.134 69.8982 386.456 68.1728 385.1C66.5089 383.745 65.2149 382.019 64.4138 379.801C63.6127 377.644 63.1813 375.241 63.1813 372.714C63.1813 370.188 63.6127 367.784 64.4138 365.628C65.2149 363.409 66.4473 361.622 68.1728 360.266C69.8366 358.911 71.9934 358.233 74.6432 358.233C77.293 358.233 79.3882 358.911 81.1136 360.266C82.8391 361.622 84.0715 363.409 84.8726 365.628C85.6737 367.846 86.1051 370.188 86.1051 372.714C86.1051 375.241 85.6737 377.644 84.8726 379.801Z" fill="black"/>
<path d="M116.793 352.872C114.513 352.872 112.48 353.488 110.631 354.659C108.782 355.829 107.55 357.37 106.872 359.219H106.502V353.488H100.833V391.571H106.687V367.476C106.687 365.751 107.119 364.21 107.92 362.854C108.782 361.499 109.892 360.451 111.371 359.712C112.788 358.972 114.452 358.541 116.3 358.541C117.102 358.541 117.841 358.541 118.519 358.726C119.197 358.849 119.69 358.911 119.875 358.972V352.995C119.566 352.995 119.073 352.995 118.396 352.933C117.779 352.933 117.225 352.933 116.793 352.933V352.872Z" fill="black"/>
<path d="M180.45 363.347H153.398V340.793H147.235V391.509H153.398V368.832H180.45V391.509H186.612V340.793H180.45V363.347Z" fill="black"/>
<path d="M221.06 391.139C223.155 390.338 224.88 389.229 226.236 387.75C227.653 386.333 228.639 384.607 229.256 382.697L223.586 381.095C223.093 382.389 222.415 383.498 221.491 384.423C220.567 385.285 219.519 385.963 218.225 386.395C216.993 386.826 215.575 387.072 214.035 387.072C211.693 387.072 209.598 386.579 207.811 385.532C206.024 384.484 204.606 383.005 203.62 380.972C202.696 379.185 202.265 376.966 202.203 374.44H229.81V371.975C229.81 368.401 229.317 365.443 228.393 362.978C227.469 360.574 226.174 358.602 224.572 357.124C222.97 355.645 221.245 354.597 219.273 353.919C217.362 353.241 215.39 352.933 213.418 352.933C209.968 352.933 207.01 353.796 204.421 355.46C201.833 357.124 199.861 359.465 198.444 362.423C197.027 365.381 196.287 368.832 196.287 372.776C196.287 376.72 197.027 380.109 198.444 383.005C199.861 385.963 201.895 388.243 204.545 389.845C207.195 391.448 210.337 392.31 214.035 392.31C216.623 392.31 218.965 391.879 220.998 391.078L221.06 391.139ZM207.441 359.958C209.166 358.787 211.138 358.233 213.48 358.233C215.575 358.233 217.424 358.726 219.026 359.712C220.567 360.698 221.799 361.992 222.662 363.717C223.525 365.381 223.956 367.291 223.956 369.448H202.326C202.45 367.661 202.819 365.997 203.559 364.457C204.483 362.608 205.777 361.129 207.441 359.958Z" fill="black"/>
<path d="M259.266 389.044C260.19 388.12 260.868 387.196 261.238 386.395H261.546V391.571H267.4V366.49C267.4 363.471 266.907 361.067 265.921 359.28C264.935 357.493 263.703 356.138 262.162 355.213C260.683 354.351 259.143 353.734 257.541 353.426C255.938 353.118 254.521 352.995 253.289 352.995C251.378 352.995 249.406 353.241 247.434 353.796C245.462 354.289 243.614 355.213 241.95 356.507C240.286 357.801 238.992 359.588 237.944 361.93L243.491 363.902C244.107 362.485 245.278 361.191 246.818 359.958C248.42 358.726 250.577 358.109 253.412 358.109C256.247 358.109 258.095 358.787 259.451 360.143C260.807 361.499 261.423 363.409 261.423 365.874V366.059C261.423 366.983 261.115 367.661 260.437 368.031C259.759 368.401 258.711 368.709 257.294 368.832C255.815 369.017 253.966 369.202 251.625 369.51C249.838 369.756 248.112 370.064 246.387 370.434C244.661 370.804 243.059 371.42 241.642 372.16C240.224 372.961 239.054 374.008 238.191 375.364C237.328 376.72 236.897 378.507 236.897 380.664C236.897 383.128 237.451 385.224 238.622 387.011C239.793 388.736 241.334 390.092 243.306 391.016C245.278 391.941 247.434 392.372 249.899 392.372C252.118 392.372 253.966 392.064 255.507 391.386C257.048 390.708 258.28 389.907 259.204 388.983L259.266 389.044ZM245.093 385.655C243.552 384.607 242.813 383.067 242.813 381.033C242.813 379.554 243.182 378.384 243.984 377.521C244.785 376.658 245.832 375.98 247.188 375.549C248.482 375.117 249.899 374.809 251.44 374.624C252.056 374.563 252.919 374.44 253.905 374.316C254.952 374.193 256 374.07 257.048 373.885C258.157 373.7 259.081 373.515 259.944 373.269C260.807 373.022 261.3 372.776 261.546 372.468V377.829C261.546 379.431 261.115 380.91 260.314 382.389C259.513 383.806 258.28 384.977 256.678 385.902C255.076 386.826 253.104 387.257 250.824 387.257C248.544 387.257 246.572 386.764 245.031 385.717L245.093 385.655Z" fill="black"/>
<path d="M283.977 340.793H278.123V391.571H283.977V340.793Z" fill="black"/>
<path d="M291.495 353.488V358.479H297.226V382.266C297.226 384.484 297.719 386.333 298.766 387.75C299.814 389.229 301.108 390.277 302.71 391.016C304.313 391.694 305.915 392.064 307.579 392.064C308.688 392.064 309.551 392.002 310.29 391.817C310.968 391.632 311.522 391.509 311.954 391.386L310.783 386.148C310.783 386.148 310.228 386.271 309.797 386.333C309.366 386.395 308.873 386.456 308.195 386.456C307.332 386.456 306.531 386.333 305.73 386.025C304.99 385.778 304.313 385.224 303.82 384.361C303.327 383.56 303.08 382.327 303.08 380.664V358.479H311.214V353.488H303.08V344.368H297.226V353.488H291.495Z" fill="black"/>
<path d="M326.682 368.647C326.682 366.429 327.113 364.518 327.976 362.978C328.839 361.437 330.009 360.266 331.55 359.404C333.091 358.602 334.754 358.171 336.665 358.171C339.438 358.171 341.595 358.972 343.135 360.636C344.676 362.3 345.477 364.642 345.477 367.661V391.448H351.331V367.23C351.331 363.964 350.776 361.252 349.729 359.157C348.62 357 347.141 355.46 345.169 354.412C343.197 353.365 340.917 352.872 338.328 352.872C335.309 352.872 332.967 353.488 331.18 354.597C329.393 355.768 328.037 357.308 327.175 359.28H326.682V340.67H320.828V391.448H326.682V368.524V368.647Z" fill="black"/>
<path d="M404.265 386.395H404.573V391.571H410.428V366.49C410.428 363.471 409.935 361.067 408.949 359.28C407.963 357.493 406.73 356.138 405.19 355.213C403.711 354.351 402.17 353.734 400.568 353.426C398.966 353.118 397.548 352.995 396.316 352.995C394.406 352.995 392.434 353.241 390.462 353.796C388.49 354.289 386.641 355.213 384.977 356.507C383.313 357.801 382.019 359.588 380.972 361.93L386.518 363.902C387.134 362.485 388.305 361.191 389.845 359.958C391.448 358.726 393.604 358.109 396.439 358.109C399.274 358.109 401.122 358.787 402.478 360.143C403.834 361.499 404.45 363.409 404.45 365.874V366.059C404.45 366.983 404.142 367.661 403.464 368.031C402.786 368.401 401.739 368.709 400.321 368.832C398.842 369.017 396.994 369.202 394.652 369.51C392.865 369.756 391.14 370.064 389.414 370.434C387.689 370.804 386.086 371.42 384.669 372.16C383.252 372.961 382.081 374.008 381.218 375.364C380.355 376.72 379.924 378.507 379.924 380.664C379.924 383.128 380.479 385.224 381.65 387.011C382.82 388.736 384.361 390.092 386.333 391.016C388.305 391.941 390.462 392.372 392.927 392.372C395.145 392.372 396.994 392.064 398.534 391.386C400.075 390.708 401.307 389.907 402.232 388.983C403.156 388.058 403.834 387.134 404.204 386.333L404.265 386.395ZM399.705 385.84C398.103 386.764 396.131 387.196 393.851 387.196C391.571 387.196 389.599 386.703 388.058 385.655C386.518 384.607 385.778 383.067 385.778 381.033C385.778 379.554 386.148 378.384 386.949 377.521C387.75 376.658 388.798 375.98 390.154 375.549C391.448 375.117 392.865 374.809 394.406 374.624C395.022 374.563 395.884 374.44 396.87 374.316C397.918 374.193 398.966 374.07 400.013 373.885C401.122 373.7 402.047 373.515 402.91 373.269C403.772 373.022 404.265 372.776 404.512 372.468V377.829C404.512 379.431 404.08 380.91 403.279 382.389C402.478 383.806 401.246 384.977 399.643 385.902L399.705 385.84Z" fill="black"/>
<path d="M445.429 367.723V391.509H451.284V367.291C451.284 364.025 450.729 361.376 449.681 359.219C448.634 357.062 447.093 355.521 445.183 354.474C443.273 353.426 440.993 352.872 438.404 352.872C435.508 352.872 433.166 353.488 431.379 354.659C429.592 355.829 428.237 357.432 427.312 359.342H426.819V353.365H421.15V391.448H427.004V368.524C427.004 366.305 427.435 364.395 428.298 362.854C429.161 361.314 430.27 360.143 431.749 359.28C433.228 358.479 434.892 358.048 436.741 358.048C439.452 358.048 441.609 358.911 443.149 360.574C444.69 362.238 445.491 364.58 445.491 367.599L445.429 367.723Z" fill="black"/>
<path d="M485.608 388.305C486.409 387.257 487.025 386.395 487.456 385.717H488.134V391.571H493.804V340.793H487.949V359.527H487.456C487.025 358.849 486.409 358.048 485.669 357C484.93 355.953 483.821 355.028 482.342 354.227C480.924 353.426 478.952 352.995 476.426 352.995C473.222 352.995 470.387 353.796 467.922 355.398C465.457 357 463.547 359.28 462.191 362.238C460.835 365.196 460.157 368.647 460.157 372.653C460.157 376.658 460.835 380.171 462.191 383.128C463.547 386.086 465.457 388.366 467.922 389.969C470.325 391.571 473.16 392.372 476.303 392.372C478.768 392.372 480.678 391.941 482.157 391.139C483.636 390.338 484.745 389.414 485.546 388.305H485.608ZM471.003 385.162C469.339 383.868 468.107 382.143 467.306 379.924C466.443 377.706 466.073 375.241 466.073 372.529C466.073 369.818 466.505 367.415 467.306 365.258C468.107 363.101 469.339 361.376 471.003 360.143C472.667 358.849 474.7 358.233 477.165 358.233C479.63 358.233 481.541 358.849 483.143 360.02C484.745 361.191 485.977 362.854 486.84 365.011C487.641 367.168 488.073 369.633 488.073 372.468C488.073 375.302 487.641 377.891 486.779 380.047C485.916 382.266 484.683 383.93 483.081 385.162C481.479 386.395 479.507 387.011 477.104 387.011C474.7 387.011 472.605 386.333 470.941 385.039L471.003 385.162Z" fill="black"/>
<path d="M48.4534 435.755C50.9183 434.214 53.6913 433.413 56.7725 433.413C58.4363 433.413 60.1001 433.659 61.6407 434.091C63.1813 434.584 64.5986 435.262 65.8927 436.186C67.1868 437.11 68.2344 438.22 69.1587 439.575C70.0831 440.931 70.6993 442.472 71.0691 444.259H77.2314C76.7384 441.67 75.9373 439.329 74.7048 437.295C73.4724 435.262 71.9318 433.536 70.1447 432.057C68.3576 430.64 66.2624 429.531 64.044 428.791C61.764 428.052 59.3607 427.682 56.8341 427.682C52.5205 427.682 48.6382 428.73 45.3106 430.886C41.9213 432.982 39.2715 436.001 37.3612 439.883C35.4509 443.766 34.4649 448.387 34.4649 453.749C34.4649 459.11 35.4509 463.732 37.3612 467.614C39.2715 471.496 41.9213 474.516 45.3106 476.611C48.6999 478.706 52.5205 479.815 56.8341 479.815C59.4223 479.815 61.8256 479.445 64.044 478.706C66.3241 477.966 68.3576 476.857 70.1447 475.44C71.9318 474.023 73.4724 472.297 74.7048 470.202C75.9373 468.168 76.8 465.827 77.2314 463.239H71.0691C70.6993 464.964 70.0831 466.566 69.1587 467.86C68.2344 469.216 67.1868 470.325 65.8927 471.25C64.5986 472.174 63.1813 472.852 61.6407 473.345C60.1001 473.776 58.4979 474.023 56.7725 474.023C53.6913 474.023 50.9183 473.221 48.4534 471.681C45.9884 470.14 44.0165 467.86 42.5376 464.841C41.0586 461.821 40.3191 458.124 40.3191 453.687C40.3191 449.25 41.0586 445.553 42.5376 442.533C44.0165 439.514 45.9884 437.234 48.4534 435.693V435.755Z" fill="black"/>
<path d="M109.768 442.78C108.289 441.917 106.749 441.301 105.147 440.993C103.544 440.684 102.127 440.561 100.895 440.561C98.9843 440.561 97.0124 440.808 95.0404 441.362C93.0685 441.855 91.2198 442.78 89.556 444.074C87.8922 445.368 86.5981 447.155 85.5505 449.497L91.0966 451.469C91.7128 450.051 92.8836 448.757 94.4242 447.525C96.0264 446.292 98.1832 445.676 101.018 445.676C103.853 445.676 105.701 446.354 107.057 447.71C108.413 449.065 109.029 450.976 109.029 453.379V453.564C109.029 454.488 108.721 455.166 108.043 455.536C107.365 455.905 106.317 456.214 104.9 456.337C103.421 456.522 101.572 456.707 99.2308 457.015C97.4437 457.261 95.7183 457.569 93.9929 457.939C92.2674 458.309 90.6652 458.925 89.2479 459.664C87.8305 460.465 86.6597 461.513 85.797 462.869C84.9343 464.224 84.5029 466.012 84.5029 468.168C84.5029 470.633 85.0575 472.728 86.2283 474.516C87.3992 476.241 88.9398 477.597 90.9117 478.521C92.8836 479.445 95.0404 479.877 97.5054 479.877C99.7238 479.877 101.572 479.569 103.113 478.891C104.654 478.213 105.886 477.412 106.81 476.487C107.735 475.563 108.413 474.639 108.782 473.838H109.091V479.014H114.945V453.933C114.945 450.914 114.452 448.511 113.466 446.724C112.48 444.937 111.247 443.581 109.707 442.656L109.768 442.78ZM109.152 465.395C109.152 466.998 108.721 468.476 107.92 469.955C107.119 471.373 105.886 472.544 104.284 473.468C102.682 474.392 100.71 474.824 98.4297 474.824C96.1497 474.824 94.1777 474.331 92.6371 473.283C91.0966 472.236 90.3571 470.695 90.3571 468.661C90.3571 467.182 90.7268 466.012 91.5279 465.149C92.329 464.286 93.3766 463.608 94.7323 463.177C96.0264 462.746 97.4437 462.437 98.9843 462.253C99.6006 462.191 100.463 462.068 101.449 461.944C102.497 461.821 103.544 461.698 104.592 461.513C105.701 461.328 106.626 461.143 107.488 460.897C108.351 460.65 108.844 460.404 109.091 460.096V465.457L109.152 465.395Z" fill="black"/>
<path d="M141.689 440.438C139.409 440.438 137.376 441.054 135.527 442.225C133.678 443.396 132.446 444.936 131.768 446.785H131.398V441.054H125.729V479.137H131.583V455.043C131.583 453.317 132.014 451.777 132.815 450.421C133.678 449.065 134.787 448.018 136.266 447.278C137.684 446.539 139.347 446.107 141.196 446.107C141.997 446.107 142.737 446.107 143.415 446.292C144.092 446.415 144.585 446.477 144.77 446.539V440.561C144.462 440.561 143.969 440.561 143.291 440.5C142.675 440.5 142.12 440.5 141.689 440.5V440.438Z" fill="black"/>
<path d="M176.999 444.752C175.397 443.273 173.672 442.225 171.7 441.547C169.789 440.869 167.817 440.561 165.845 440.561C162.395 440.561 159.375 441.424 156.848 443.088C154.26 444.752 152.288 447.093 150.871 450.051C149.454 453.009 148.714 456.46 148.714 460.404C148.714 464.348 149.454 467.737 150.871 470.633C152.288 473.53 154.322 475.871 156.972 477.473C159.621 479.076 162.764 479.938 166.462 479.938C169.05 479.938 171.391 479.507 173.425 478.706C175.52 477.905 177.246 476.796 178.601 475.317C180.019 473.899 181.005 472.174 181.621 470.264L175.952 468.661C175.459 469.955 174.781 471.065 173.856 471.989C172.932 472.852 171.884 473.53 170.652 473.961C169.42 474.392 168.002 474.639 166.462 474.639C164.12 474.639 162.025 474.146 160.238 473.098C158.451 472.051 157.033 470.572 156.047 468.538C155.123 466.751 154.692 464.533 154.63 462.006H182.237V459.541C182.237 455.967 181.744 453.009 180.82 450.544C179.895 448.141 178.601 446.169 176.999 444.69V444.752ZM154.63 457.015C154.753 455.228 155.123 453.564 155.862 452.023C156.787 450.174 158.081 448.695 159.745 447.525C161.47 446.354 163.442 445.799 165.784 445.799C167.879 445.799 169.728 446.292 171.33 447.278C172.87 448.264 174.103 449.558 174.966 451.284C175.828 452.947 176.26 454.858 176.26 457.015H154.63Z" fill="black"/>
<path d="M217.732 456.398H240.656V450.976H217.732V433.783H242.196V428.36H211.57V479.137H242.628V473.653H217.732V456.398Z" fill="black"/>
<path d="M275.165 441.054L266.045 456.645L256.924 441.054H250.146L262.286 460.096L250.146 479.137H256.924L266.045 464.348L275.165 479.137H281.882L269.619 460.096L281.882 441.054H275.165Z" fill="black"/>
<path d="M298.089 447.586C299.814 446.415 301.786 445.799 304.066 445.799C306.654 445.799 308.688 446.477 310.228 447.833C311.769 449.188 312.755 450.729 313.186 452.454H319.04C318.732 450.051 317.87 448.018 316.514 446.231C315.158 444.443 313.371 443.088 311.214 442.04C309.058 441.054 306.654 440.561 304.004 440.561C300.554 440.561 297.534 441.424 295.007 443.088C292.419 444.752 290.447 447.093 289.03 450.051C287.613 453.009 286.873 456.46 286.873 460.281C286.873 464.101 287.551 467.491 288.968 470.448C290.386 473.406 292.358 475.748 294.946 477.412C297.534 479.076 300.615 479.938 304.189 479.938C307.024 479.938 309.489 479.384 311.584 478.336C313.741 477.289 315.405 475.871 316.699 474.084C317.993 472.297 318.794 470.264 319.164 468.045H313.31C312.94 469.462 312.324 470.633 311.461 471.619C310.598 472.605 309.551 473.345 308.318 473.899C307.086 474.454 305.73 474.7 304.189 474.7C301.848 474.7 299.876 474.084 298.15 472.913C296.425 471.681 295.131 470.017 294.206 467.86C293.282 465.703 292.789 463.115 292.789 460.157C292.789 457.2 293.282 454.796 294.206 452.639C295.131 450.483 296.486 448.819 298.212 447.648L298.089 447.586Z" fill="black"/>
<path d="M354.104 444.752C352.502 443.273 350.776 442.225 348.804 441.547C346.894 440.869 344.922 440.561 342.95 440.561C339.499 440.561 336.48 441.424 333.953 443.088C331.365 444.752 329.393 447.093 327.976 450.051C326.558 453.009 325.819 456.46 325.819 460.404C325.819 464.348 326.558 467.737 327.976 470.633C329.393 473.53 331.427 475.871 334.077 477.473C336.726 479.076 339.869 479.938 343.566 479.938C346.155 479.938 348.496 479.507 350.53 478.706C352.625 477.905 354.35 476.796 355.706 475.317C357.124 473.899 358.11 472.174 358.726 470.264L353.056 468.661C352.563 469.955 351.886 471.065 350.961 471.989C350.037 472.852 348.989 473.53 347.757 473.961C346.524 474.392 345.107 474.639 343.566 474.639C341.225 474.639 339.13 474.146 337.343 473.098C335.555 472.051 334.138 470.572 333.152 468.538C332.228 466.751 331.796 464.533 331.735 462.006H359.342V459.541C359.342 455.967 358.849 453.009 357.925 450.544C357 448.141 355.706 446.169 354.104 444.69V444.752ZM331.735 457.015C331.858 455.228 332.228 453.564 332.967 452.023C333.892 450.174 335.186 448.695 336.85 447.525C338.575 446.354 340.547 445.799 342.889 445.799C344.984 445.799 346.832 446.292 348.435 447.278C349.975 448.264 351.208 449.558 352.07 451.284C352.933 452.947 353.365 454.858 353.365 457.015H331.735Z" fill="black"/>
<path d="M374.132 428.36H368.277V479.137H374.132V428.36Z" fill="black"/>
<path d="M390.647 428.36H384.792V479.137H390.647V428.36Z" fill="black"/>
<path d="M427.928 444.752C426.326 443.273 424.601 442.225 422.629 441.547C420.719 440.869 418.747 440.561 416.775 440.561C413.324 440.561 410.304 441.424 407.778 443.088C405.19 444.752 403.218 447.093 401.8 450.051C400.383 453.009 399.643 456.46 399.643 460.404C399.643 464.348 400.383 467.737 401.8 470.633C403.218 473.53 405.251 475.871 407.901 477.473C410.551 479.076 413.694 479.938 417.391 479.938C419.979 479.938 422.321 479.507 424.354 478.706C426.45 477.905 428.175 476.796 429.531 475.317C430.948 473.899 431.934 472.174 432.55 470.264L426.881 468.661C426.388 469.955 425.71 471.065 424.786 471.989C423.861 472.852 422.814 473.53 421.581 473.961C420.349 474.392 418.932 474.639 417.391 474.639C415.049 474.639 412.954 474.146 411.167 473.098C409.38 472.051 407.963 470.572 406.977 468.538C406.052 466.751 405.621 464.533 405.559 462.006H433.166V459.541C433.166 455.967 432.673 453.009 431.749 450.544C430.825 448.141 429.531 446.169 427.928 444.69V444.752ZM405.559 457.015C405.683 455.228 406.052 453.564 406.792 452.023C407.716 450.174 409.01 448.695 410.674 447.525C412.399 446.354 414.371 445.799 416.713 445.799C418.808 445.799 420.657 446.292 422.259 447.278C423.8 448.264 425.032 449.558 425.895 451.284C426.758 452.947 427.189 454.858 427.189 457.015H405.559Z" fill="black"/>
<path d="M466.073 442.102C464.163 441.054 461.883 440.5 459.295 440.5C456.398 440.5 454.057 441.116 452.27 442.287C450.483 443.458 449.127 445.06 448.203 446.97H447.71V440.993H442.04V479.076H447.894V456.152C447.894 453.933 448.326 452.023 449.188 450.483C450.051 448.942 451.16 447.771 452.639 446.908C454.118 446.107 455.782 445.676 457.631 445.676C460.342 445.676 462.499 446.539 464.04 448.202C465.58 449.866 466.381 452.208 466.381 455.228V479.014H472.236V454.796C472.236 451.53 471.681 448.88 470.633 446.724C469.586 444.567 468.045 443.026 466.135 441.979L466.073 442.102Z" fill="black"/>
<path d="M492.386 447.586C494.112 446.415 496.084 445.799 498.364 445.799C500.952 445.799 502.985 446.477 504.526 447.833C506.067 449.188 507.053 450.729 507.484 452.454H513.338C513.03 450.051 512.167 448.018 510.812 446.231C509.456 444.443 507.669 443.088 505.512 442.04C503.355 441.054 500.952 440.561 498.302 440.561C494.851 440.561 491.893 441.424 489.305 443.088C486.717 444.752 484.745 447.093 483.328 450.051C481.91 453.009 481.171 456.46 481.171 460.281C481.171 464.101 481.849 467.491 483.266 470.448C484.683 473.406 486.655 475.748 489.243 477.412C491.832 479.076 494.913 479.938 498.487 479.938C501.322 479.938 503.787 479.384 505.882 478.336C508.039 477.289 509.702 475.871 510.996 474.084C512.291 472.297 513.092 470.264 513.461 468.045H507.607C507.237 469.462 506.621 470.633 505.758 471.619C504.896 472.605 503.848 473.345 502.616 473.899C501.383 474.454 500.028 474.7 498.487 474.7C496.145 474.7 494.173 474.084 492.448 472.913C490.722 471.681 489.428 470.017 488.504 467.86C487.58 465.703 487.087 463.115 487.087 460.157C487.087 457.2 487.58 454.796 488.504 452.639C489.428 450.483 490.784 448.819 492.51 447.648L492.386 447.586Z" fill="black"/>
<path d="M548.402 444.752C546.799 443.273 545.074 442.225 543.102 441.547C541.192 440.869 539.22 440.561 537.248 440.561C533.797 440.561 530.839 441.424 528.251 443.088C525.663 444.752 523.691 447.093 522.273 450.051C520.856 453.009 520.117 456.46 520.117 460.404C520.117 464.348 520.856 467.737 522.273 470.633C523.691 473.53 525.724 475.871 528.374 477.473C531.024 479.076 534.167 479.938 537.864 479.938C540.452 479.938 542.794 479.507 544.828 478.706C546.923 477.905 548.648 476.796 550.004 475.317C551.421 473.899 552.407 472.174 553.023 470.264L547.354 468.661C546.861 469.955 546.183 471.065 545.259 471.989C544.335 472.852 543.287 473.53 542.054 473.961C540.822 474.392 539.405 474.639 537.864 474.639C535.522 474.639 533.427 474.146 531.64 473.098C529.853 472.051 528.436 470.572 527.45 468.538C526.525 466.751 526.094 464.533 526.032 462.006H553.64V459.541C553.64 455.967 553.147 453.009 552.222 450.544C551.298 448.141 550.004 446.169 548.402 444.69V444.752ZM526.032 457.015C526.156 455.228 526.526 453.564 527.265 452.023C528.189 450.174 529.483 448.695 531.147 447.525C532.873 446.354 534.845 445.799 537.186 445.799C539.281 445.799 541.13 446.292 542.732 447.278C544.273 448.264 545.505 449.558 546.368 451.284C547.231 452.947 547.662 454.858 547.662 457.015H526.032Z" fill="black"/>
</svg>
