<?xml version="1.0" encoding="utf-8"?>
<svg width="1381" height="512" viewBox="0 0 1381 512" fill="none" xmlns="http://www.w3.org/2000/svg">
<path d="M396.692 37.9083V473.944H317.077L127.42 199.501H124.17V473.944H32V37.9083H112.944L301.125 312.203H304.965V37.9083H396.692Z" fill="black"/>
<path d="M552.082 37.9083H459.912V473.944H552.082V37.9083Z" fill="black"/>
<path d="M1000.08 190.639H906.878C905.105 178.527 901.708 167.892 896.39 158.439C891.073 148.985 884.426 141.009 876.154 134.214C867.883 127.567 858.429 122.398 847.794 118.853C837.012 115.308 825.49 113.535 812.935 113.535C790.336 113.535 770.69 119.148 753.999 130.226C737.308 141.304 724.31 157.552 715.004 178.822C705.846 200.092 701.12 225.794 701.12 256.074C701.12 286.354 705.699 313.237 715.004 334.359C724.31 355.482 737.308 371.434 753.999 382.217C770.69 393 790.188 398.317 812.197 398.317C824.604 398.317 835.978 396.692 846.613 393.443C857.248 390.193 866.553 385.467 874.825 379.115C883.097 372.764 889.891 365.083 895.356 356.073C900.822 347.062 904.662 336.575 906.73 325.054L999.934 325.497C997.571 345.438 991.515 364.787 981.914 383.251C972.313 401.714 959.462 418.258 943.362 432.881C927.261 447.356 908.059 458.878 885.903 467.297C863.747 475.716 838.636 480 810.572 480C771.724 480 737.013 471.137 706.437 453.56C675.862 435.983 651.785 410.429 634.06 377.195C616.335 343.813 607.472 303.488 607.472 256.074C607.472 208.659 616.483 168.04 634.355 134.657C652.228 101.275 676.452 75.8694 707.176 58.2921C737.899 40.7148 772.315 32 810.572 32C835.83 32 859.316 35.545 880.881 42.635C902.594 49.725 921.796 60.0646 938.487 73.6538C955.178 87.243 968.915 103.786 979.403 123.432C990.038 143.077 996.684 165.381 999.786 190.639" fill="black"/>
<path d="M1053.55 473.944V37.9083H1347.34V113.978H1145.72V217.817H1332.28V293.887H1145.72V398.022H1348.23V473.944H1053.55Z" fill="black"/>
</svg>
