<?xml version="1.0" encoding="utf-8"?>
<svg width="4411" height="512" viewBox="0 0 4411 512" fill="none" xmlns="http://www.w3.org/2000/svg">
<path d="M395.255 39.6504V473.968H315.954L127.044 200.607H123.807V473.968H32V39.6504H112.625L300.064 312.864H303.89V39.6504H395.255Z" fill="black"/>
<path d="M550.032 39.6504H458.225V473.968H550.032V39.6504Z" fill="black"/>
<path d="M996.266 191.779H903.429C901.664 179.715 898.28 169.122 892.983 159.706C887.687 150.29 881.066 142.345 872.827 135.577C864.588 128.956 855.172 123.807 844.579 120.276C833.838 116.745 822.363 114.979 809.857 114.979C787.346 114.979 767.779 120.57 751.153 131.605C734.528 142.639 721.581 158.823 712.312 180.009C703.19 201.195 698.482 226.795 698.482 256.956C698.482 287.117 703.043 313.894 712.312 334.933C721.581 355.972 734.528 371.862 751.153 382.602C767.779 393.342 787.199 398.639 809.121 398.639C821.48 398.639 832.809 397.021 843.402 393.784C853.995 390.547 863.264 385.839 871.503 379.513C879.742 373.186 886.51 365.536 891.953 356.561C897.397 347.586 901.222 337.14 903.282 325.664L996.119 326.106C993.765 345.968 987.733 365.241 978.169 383.632C968.606 402.023 955.806 418.501 939.769 433.067C923.733 447.485 904.606 458.961 882.537 467.347C860.468 475.733 835.457 480 807.503 480C768.809 480 734.234 471.172 703.779 453.664C673.324 436.156 649.342 410.703 631.687 377.6C614.032 344.349 605.204 304.184 605.204 256.956C605.204 209.729 614.179 169.269 631.981 136.018C649.783 102.768 673.912 77.462 704.514 59.954C735.117 42.4459 769.397 33.7654 807.503 33.7654C832.661 33.7654 856.055 37.2965 877.535 44.3586C899.163 51.4206 918.289 61.7195 934.914 75.2551C951.54 88.7907 965.222 105.269 975.668 124.837C986.261 144.405 992.882 166.621 995.972 191.779" fill="black"/>
<path d="M1049.53 473.968V39.6504H1342.16V115.421H1141.33V218.85H1327.15V294.621H1141.33V398.345H1343.04V473.968H1049.53Z" fill="black"/>
<path d="M1599.34 168.68H1597.72L1508.12 39.7977H1488.99V203.549H1508.86V74.9609H1510.33L1599.63 203.549H1618.76V39.7977H1599.34V168.68Z" fill="black"/>
<path d="M1726.31 127.779C1724.1 128.956 1720.72 129.839 1716.01 130.428C1711.3 130.869 1705.27 131.605 1697.76 132.635C1692.03 133.37 1686.44 134.4 1680.7 135.577C1675.11 136.901 1669.96 138.667 1665.25 141.168C1660.54 143.669 1656.86 147.053 1654.07 151.467C1651.27 155.88 1649.95 161.618 1649.95 168.68C1649.95 176.625 1651.86 183.54 1655.54 189.131C1659.22 194.722 1664.37 198.989 1670.69 201.931C1677.02 204.874 1684.08 206.345 1691.88 206.345C1699.09 206.345 1705.12 205.315 1709.98 203.108C1714.98 201.048 1718.95 198.4 1721.89 195.31C1724.84 192.221 1727.04 189.425 1728.22 186.777H1729.25V203.402H1748.08V122.63C1748.08 112.92 1746.46 105.122 1743.23 99.2368C1739.99 93.3518 1736.02 89.0851 1731.16 86.1426C1726.31 83.2 1721.31 81.2874 1716.16 80.4046C1711.01 79.5219 1706.45 78.9334 1702.47 78.9334C1696.29 78.9334 1689.97 79.8161 1683.64 81.4345C1677.31 83.0529 1671.43 85.9954 1666.13 90.2621C1660.84 94.3816 1656.42 100.267 1653.33 107.77L1671.28 114.097C1673.34 109.683 1677.02 105.416 1682.02 101.444C1687.17 97.4713 1694.23 95.5587 1703.21 95.5587C1712.18 95.5587 1718.36 97.7656 1722.63 102.179C1726.9 106.593 1729.1 112.625 1729.1 120.57V121.159C1729.1 124.248 1728.07 126.308 1725.87 127.485L1726.31 127.779ZM1729.54 159.117C1729.54 164.267 1728.22 169.122 1725.57 173.683C1722.92 178.391 1719.1 182.069 1713.95 185.012C1708.8 187.954 1702.47 189.425 1694.97 189.425C1687.47 189.425 1681.29 187.807 1676.43 184.423C1671.58 181.039 1669.08 176.184 1669.08 169.563C1669.08 164.708 1670.4 161.03 1672.9 158.235C1675.55 155.439 1678.93 153.379 1683.2 151.908C1687.47 150.437 1692.03 149.407 1696.88 148.818C1698.94 148.524 1701.59 148.23 1704.83 147.789C1708.06 147.347 1711.45 146.906 1714.98 146.317C1718.51 145.729 1721.6 145.14 1724.25 144.257C1726.9 143.522 1728.66 142.639 1729.54 141.609V159.117Z" fill="black"/>
<path d="M1791.19 173.536C1791.19 180.745 1792.81 186.63 1796.19 191.338C1799.58 196.046 1803.7 199.577 1808.85 201.784C1814 203.991 1819.15 205.168 1824.44 205.168C1827.97 205.168 1830.92 204.874 1833.12 204.432C1835.33 203.991 1837.24 203.402 1838.42 202.961L1834.59 186.041C1833.86 186.188 1832.68 186.336 1831.36 186.63C1830.03 186.924 1828.27 186.924 1826.21 186.924C1823.41 186.924 1820.76 186.483 1818.41 185.6C1815.91 184.717 1813.85 182.952 1812.38 180.303C1810.76 177.655 1810.02 173.683 1810.02 168.386V96.7356H1836.21V80.6988H1810.02V51.2735H1791.19V80.6988H1772.65V96.7356H1791.19V173.536Z" fill="black"/>
<path d="M1883.59 80.6988H1864.75V203.549H1883.59V80.6988Z" fill="black"/>
<path d="M1874.32 34.6482C1870.64 34.6482 1867.55 35.9723 1864.9 38.4735C1862.25 40.9746 1860.93 44.0643 1860.93 47.4482C1860.93 50.8321 1862.25 53.9217 1864.9 56.4229C1867.55 58.924 1870.64 60.2482 1874.32 60.2482C1878 60.2482 1881.09 59.0712 1883.73 56.4229C1886.38 53.7746 1887.71 50.8321 1887.71 47.4482C1887.71 44.0643 1886.38 40.9746 1883.73 38.4735C1881.09 35.9723 1878 34.6482 1874.32 34.6482Z" fill="black"/>
<path d="M1997.17 87.0252C1988.78 81.7287 1979.07 79.0804 1968.04 79.0804C1957 79.0804 1947.29 81.7287 1938.91 87.0252C1930.52 92.3218 1924.05 99.6781 1919.34 109.241C1914.63 118.805 1912.28 129.986 1912.28 142.786C1912.28 155.586 1914.63 166.621 1919.34 176.037C1924.05 185.6 1930.52 192.956 1938.91 198.253C1947.29 203.549 1957 206.198 1968.04 206.198C1979.07 206.198 1988.78 203.549 1997.17 198.253C2005.55 192.956 2012.03 185.6 2016.74 176.037C2021.44 166.474 2023.8 155.439 2023.8 142.786C2023.8 130.133 2021.44 118.805 2016.74 109.241C2012.03 99.6781 2005.55 92.3218 1997.17 87.0252ZM2000.85 165.591C1998.2 172.653 1994.23 178.244 1988.78 182.657C1983.34 186.924 1976.42 189.131 1968.04 189.131C1959.65 189.131 1952.74 186.924 1947.29 182.657C1941.85 178.391 1937.88 172.653 1935.23 165.591C1932.58 158.529 1931.26 150.878 1931.26 142.786C1931.26 134.694 1932.58 126.897 1935.23 119.834C1937.88 112.772 1941.85 107.034 1947.29 102.621C1952.74 98.2069 1959.65 96 1968.04 96C1976.42 96 1983.34 98.2069 1988.78 102.621C1994.23 107.034 1998.2 112.772 2000.85 119.834C2003.49 126.897 2004.82 134.547 2004.82 142.786C2004.82 151.025 2003.49 158.676 2000.85 165.591Z" fill="black"/>
<path d="M2130.02 84.23C2123.84 80.8461 2116.49 79.2277 2108.25 79.2277C2098.98 79.2277 2091.48 81.1403 2085.59 84.9656C2079.71 88.7909 2075.29 93.7932 2072.5 100.12H2070.88V80.8461H2052.64V203.55H2071.47V129.692C2071.47 122.483 2072.79 116.451 2075.59 111.448C2078.24 106.446 2082.06 102.621 2086.77 99.9725C2091.48 97.3242 2096.77 96.0001 2102.81 96.0001C2111.49 96.0001 2118.4 98.6484 2123.4 104.092C2128.41 109.536 2130.91 117.039 2130.91 126.75V203.55H2149.74V125.573C2149.74 115.127 2147.97 106.446 2144.59 99.6783C2141.06 92.7633 2136.35 87.761 2130.02 84.3771V84.23Z" fill="black"/>
<path d="M2256.99 186.924H2258.02V203.549H2276.86V122.63C2276.86 112.92 2275.24 105.122 2272 99.2368C2268.76 93.3518 2264.79 89.0851 2259.94 86.1426C2255.08 83.2 2250.08 81.2874 2244.93 80.4046C2239.78 79.5219 2235.22 78.9334 2231.25 78.9334C2225.07 78.9334 2218.74 79.8161 2212.42 81.4345C2206.09 83.0529 2200.2 85.9954 2194.91 90.2621C2189.61 94.3816 2185.2 100.267 2182.11 107.77L2200.06 114.097C2202.12 109.683 2205.79 105.416 2210.8 101.444C2215.95 97.4713 2223.01 95.5587 2231.98 95.5587C2240.96 95.5587 2247.14 97.7656 2251.4 102.179C2255.67 106.593 2257.88 112.625 2257.88 120.57V121.159C2257.88 124.248 2256.85 126.308 2254.64 127.485C2252.43 128.662 2249.05 129.545 2244.34 130.133C2239.63 130.575 2233.6 131.31 2226.1 132.34C2220.36 133.076 2214.77 134.106 2209.03 135.283C2203.44 136.607 2198.29 138.372 2193.58 140.874C2188.88 143.375 2185.2 146.759 2182.4 151.172C2179.61 155.586 2178.28 161.324 2178.28 168.386C2178.28 176.331 2180.19 183.246 2183.87 188.837C2187.55 194.428 2192.7 198.694 2199.03 201.637C2205.35 204.579 2212.42 206.051 2220.21 206.051C2227.42 206.051 2233.45 205.021 2238.31 202.814C2243.31 200.754 2247.28 198.106 2250.23 195.016C2253.17 191.926 2255.38 189.131 2256.55 186.483L2256.99 186.924ZM2242.28 185.012C2237.13 187.954 2230.81 189.425 2223.3 189.425C2215.8 189.425 2209.62 187.807 2204.76 184.423C2199.91 181.039 2197.41 176.184 2197.41 169.563C2197.41 164.708 2198.73 161.03 2201.23 158.235C2203.88 155.439 2207.27 153.379 2211.53 151.908C2215.8 150.437 2220.36 149.407 2225.22 148.818C2227.28 148.524 2229.92 148.23 2233.16 147.789C2236.4 147.347 2239.78 146.906 2243.31 146.317C2246.84 145.729 2249.93 145.14 2252.58 144.257C2255.23 143.522 2256.99 142.639 2257.88 141.609V158.823C2257.88 163.972 2256.55 168.828 2253.91 173.389C2251.26 178.097 2247.43 181.775 2242.28 184.717V185.012Z" fill="black"/>
<path d="M2330.11 39.7977H2311.28V203.549H2330.11V39.7977Z" fill="black"/>
<path d="M2450.46 39.7977H2430.6V203.549H2450.46V39.7977Z" fill="black"/>
<path d="M2506.37 129.692C2506.37 122.483 2507.7 116.451 2510.49 111.448C2513.14 106.446 2516.96 102.621 2521.67 99.9724C2526.38 97.3242 2531.68 96 2537.71 96C2546.39 96 2553.3 98.6483 2558.31 104.092C2563.31 109.536 2565.81 117.039 2565.81 126.749V203.549H2584.64V125.572C2584.64 115.126 2582.88 106.446 2579.49 99.6782C2575.96 92.7632 2571.25 87.7609 2564.93 84.377C2558.75 80.9931 2551.39 79.3747 2543.15 79.3747C2533.88 79.3747 2526.38 81.2874 2520.5 85.1127C2514.61 88.9379 2510.2 93.9402 2507.4 100.267H2505.78V80.9931H2487.54V203.549H2506.37V129.692Z" fill="black"/>
<path d="M2700.43 148.23C2694.99 142.786 2686.9 138.667 2675.86 136.018L2657.62 131.605C2650.41 129.839 2644.96 127.485 2641.58 124.837C2638.2 122.189 2636.43 118.363 2636.43 113.655C2636.43 108.359 2638.93 103.945 2643.94 100.561C2648.94 97.1771 2655.12 95.4115 2662.62 95.4115C2668.06 95.4115 2672.62 96.2943 2676.16 98.0598C2679.69 99.8253 2682.48 102.032 2684.54 104.68C2686.6 107.329 2688.22 110.124 2689.25 112.92L2706.17 108.064C2703.23 99.3839 2698.37 92.3219 2691.31 86.8782C2684.39 81.5816 2674.83 78.9334 2662.62 78.9334C2653.94 78.9334 2646.29 80.4046 2639.52 83.4943C2632.75 86.5839 2627.31 90.7035 2623.48 96C2619.66 101.297 2617.6 107.476 2617.6 114.391C2617.6 122.924 2620.25 129.986 2625.54 135.577C2630.84 141.168 2639.08 145.287 2650.26 147.936L2670.71 152.791C2676.89 154.262 2681.45 156.469 2684.39 159.264C2687.34 162.207 2688.81 165.738 2688.81 170.005C2688.81 175.301 2686.16 179.862 2681.01 183.54C2675.86 187.218 2668.8 189.131 2659.97 189.131C2652.17 189.131 2645.99 187.513 2641.29 184.129C2636.58 180.745 2633.34 175.89 2631.58 169.269L2613.63 173.683C2615.83 184.129 2620.98 192.074 2629.22 197.517C2637.46 202.961 2647.76 205.609 2660.27 205.609C2669.83 205.609 2678.22 203.991 2685.42 200.754C2692.63 197.517 2698.22 193.103 2702.2 187.66C2706.17 182.069 2708.23 175.89 2708.23 168.828C2708.23 160.294 2705.58 153.232 2700.14 147.789L2700.43 148.23Z" fill="black"/>
<path d="M2745.31 173.536C2745.31 180.745 2746.93 186.63 2750.31 191.338C2753.69 196.046 2757.81 199.577 2762.96 201.784C2768.11 203.991 2773.26 205.168 2778.56 205.168C2782.09 205.168 2785.03 204.874 2787.24 204.432C2789.45 203.991 2791.36 203.402 2792.54 202.961L2788.71 186.041C2787.97 186.188 2786.8 186.336 2785.47 186.63C2784.15 186.924 2782.38 186.924 2780.32 186.924C2777.53 186.924 2774.88 186.483 2772.53 185.6C2770.02 184.717 2767.97 182.952 2766.49 180.303C2764.88 177.655 2764.14 173.683 2764.14 168.386V96.7356H2790.33V80.6988H2764.14V51.2735H2745.31V80.6988H2726.77V96.7356H2745.31V173.536Z" fill="black"/>
<path d="M2828.43 34.6482C2824.76 34.6482 2821.67 35.9723 2819.02 38.4735C2816.37 40.9746 2815.05 44.0643 2815.05 47.4482C2815.05 50.8321 2816.37 53.9217 2819.02 56.4229C2821.67 58.924 2824.76 60.2482 2828.43 60.2482C2832.11 60.2482 2835.2 59.0712 2837.85 56.4229C2840.5 53.7746 2841.82 50.8321 2841.82 47.4482C2841.82 44.0643 2840.5 40.9746 2837.85 38.4735C2835.2 35.9723 2832.11 34.6482 2828.43 34.6482Z" fill="black"/>
<path d="M2837.7 80.6988H2818.87V203.549H2837.7V80.6988Z" fill="black"/>
<path d="M2880.66 173.536C2880.66 180.745 2882.28 186.63 2885.67 191.338C2889.05 196.046 2893.17 199.577 2898.32 201.784C2903.47 203.991 2908.62 205.168 2913.91 205.168C2917.45 205.168 2920.39 204.874 2922.59 204.432C2924.8 203.991 2926.71 203.402 2927.89 202.961L2924.07 186.041C2923.33 186.188 2922.15 186.336 2920.83 186.63C2919.5 186.924 2917.74 186.924 2915.68 186.924C2912.88 186.924 2910.24 186.483 2907.88 185.6C2905.38 184.717 2903.32 182.952 2901.85 180.303C2900.23 177.655 2899.5 173.683 2899.5 168.386V96.7356H2925.68V80.6988H2899.5V51.2735H2880.66V80.6988H2862.13V96.7356H2880.66V173.536Z" fill="black"/>
<path d="M3030.29 182.805H3031.62V203.549H3050.45V80.6988H3031.62V153.379C3031.62 161.03 3030 167.356 3026.61 172.359C3023.23 177.361 3019.11 181.039 3014.25 183.393C3009.4 185.747 3004.54 187.071 2999.84 187.071C2992.04 187.071 2985.56 184.423 2980.56 179.126C2975.56 173.83 2973.06 166.621 2973.06 157.646V80.6988H2954.23V158.676C2954.23 169.122 2955.99 177.802 2959.38 184.57C2962.76 191.485 2967.47 196.487 2973.5 199.871C2979.53 203.255 2986.3 205.021 2993.95 205.021C3003.22 205.021 3010.87 202.814 3017.05 198.547C3023.08 194.28 3027.64 188.837 3030.44 182.657L3030.29 182.805Z" fill="black"/>
<path d="M3093.26 173.536C3093.26 180.745 3094.88 186.63 3098.26 191.338C3101.65 196.046 3105.77 199.577 3110.92 201.784C3116.07 203.991 3121.21 205.168 3126.51 205.168C3130.04 205.168 3132.98 204.874 3135.19 204.432C3137.4 203.991 3139.31 203.402 3140.49 202.961L3136.66 186.041C3135.93 186.188 3134.75 186.336 3133.43 186.63C3132.1 186.924 3130.34 186.924 3128.28 186.924C3125.48 186.924 3122.83 186.483 3120.48 185.6C3117.98 184.717 3115.92 182.952 3114.45 180.303C3112.83 177.655 3112.09 173.683 3112.09 168.386V96.7356H3138.28V80.6988H3112.09V51.2735H3093.26V80.6988H3074.72V96.7356H3093.26V173.536Z" fill="black"/>
<path d="M3251.13 92.7633C3245.98 88.0553 3240.39 84.5242 3234.06 82.4645C3227.73 80.4047 3221.56 79.2277 3215.08 79.2277C3204.05 79.2277 3194.34 81.876 3186.1 87.3196C3177.86 92.7633 3171.39 100.267 3166.68 109.83C3161.97 119.393 3159.76 130.575 3159.76 143.081C3159.76 155.586 3162.12 166.621 3166.68 176.184C3171.24 185.747 3177.86 192.956 3186.39 198.253C3194.93 203.55 3205.08 206.051 3216.99 206.051C3225.23 206.051 3232.74 204.727 3239.5 202.225C3246.13 199.577 3251.72 196.046 3256.28 191.338C3260.84 186.63 3264.07 181.186 3265.99 175.007L3247.74 169.858C3246.13 174.124 3243.92 177.655 3240.98 180.598C3238.03 183.54 3234.5 185.6 3230.53 186.924C3226.56 188.396 3222 188.984 3216.99 188.984C3209.34 188.984 3202.72 187.366 3196.98 183.982C3191.25 180.598 3186.69 175.743 3183.45 169.416C3180.51 163.678 3179.18 156.469 3178.89 148.377H3267.9V140.432C3267.9 128.956 3266.43 119.246 3263.34 111.448C3260.25 103.651 3256.28 97.3242 3251.13 92.4691V92.7633ZM3179.04 132.34C3179.33 126.602 3180.65 121.306 3183.16 116.156C3186.1 110.271 3190.22 105.416 3195.81 101.738C3201.25 98.0599 3207.73 96.1472 3215.23 96.1472C3222 96.1472 3228.03 97.7656 3233.03 100.855C3238.03 103.945 3242.01 108.359 3244.65 113.802C3247.45 119.246 3248.77 125.425 3248.77 132.34H3179.04Z" fill="black"/>
<path d="M3414.73 96.7356V80.6988H3387.22V68.1931C3387.22 62.1609 3388.54 57.4529 3391.34 54.3632C3394.14 51.2736 3398.55 49.6552 3404.88 49.6552C3407.52 49.6552 3409.73 49.9494 3411.5 50.3908C3413.26 50.8322 3414.44 51.2736 3415.47 51.5678L3420.91 35.2368C3419.44 34.6483 3417.23 33.9126 3414.29 33.177C3411.35 32.4414 3407.52 32 3402.96 32C3397.08 32 3391.49 33.177 3386.19 35.531C3380.89 37.8851 3376.63 41.4161 3373.24 46.1241C3370.01 50.8322 3368.24 56.7172 3368.24 63.7793V80.6988H3348.38V96.7356H3368.24V203.549H3387.07V96.7356H3414.73Z" fill="black"/>
<path d="M3534.79 176.037C3539.49 166.474 3541.85 155.439 3541.85 142.786C3541.85 130.133 3539.49 118.805 3534.79 109.241C3530.08 99.6781 3523.6 92.3218 3515.22 87.0252C3506.83 81.7287 3497.12 79.0804 3486.09 79.0804C3475.05 79.0804 3465.34 81.7287 3456.96 87.0252C3448.57 92.3218 3442.1 99.6781 3437.39 109.241C3432.68 118.805 3430.33 129.986 3430.33 142.786C3430.33 155.586 3432.68 166.621 3437.39 176.037C3442.1 185.6 3448.57 192.956 3456.96 198.253C3465.34 203.549 3475.05 206.198 3486.09 206.198C3497.12 206.198 3506.83 203.549 3515.22 198.253C3523.6 192.956 3530.08 185.6 3534.79 176.037ZM3519.04 165.591C3516.39 172.653 3512.42 178.244 3506.98 182.657C3501.54 186.924 3494.62 189.131 3486.23 189.131C3477.85 189.131 3470.93 186.924 3465.49 182.657C3460.05 178.391 3456.07 172.653 3453.42 165.591C3450.78 158.529 3449.45 150.878 3449.45 142.786C3449.45 134.694 3450.78 126.897 3453.42 119.834C3456.07 112.772 3460.05 107.034 3465.49 102.621C3470.93 98.2069 3477.85 96 3486.23 96C3494.62 96 3501.54 98.2069 3506.98 102.621C3512.42 107.034 3516.39 112.772 3519.04 119.834C3521.69 126.897 3523.02 134.547 3523.02 142.786C3523.02 151.025 3521.69 158.676 3519.04 165.591Z" fill="black"/>
<path d="M3622.03 78.7861C3614.68 78.7861 3608.05 80.6987 3602.17 84.524C3596.28 88.3493 3592.31 93.2045 3589.96 99.3838H3588.63V80.8459H3570.39V203.549H3589.22V125.867C3589.22 120.276 3590.55 115.421 3593.2 111.007C3595.84 106.74 3599.52 103.209 3604.23 100.708C3608.94 98.2068 3614.23 97.0298 3620.12 97.0298C3622.62 97.0298 3624.97 97.1769 3627.33 97.6183C3629.68 98.0597 3631.01 98.2068 3631.74 98.3539V79.2275C3630.71 79.2275 3629.09 79.0804 3627.03 78.9332C3624.97 78.9332 3623.21 78.9332 3621.88 78.9332L3622.03 78.7861Z" fill="black"/>
<path d="M1596.1 382.896H1508.86V310.069H1488.99V473.821H1508.86V400.552H1596.1V473.821H1615.96V310.069H1596.1V382.896Z" fill="black"/>
<path d="M1738.67 362.887C1733.52 358.179 1727.93 354.648 1721.6 352.588C1715.27 350.529 1709.09 349.352 1702.62 349.352C1691.59 349.352 1681.88 352 1673.64 357.444C1665.4 362.887 1658.92 370.391 1654.22 379.954C1649.51 389.517 1647.3 400.699 1647.3 413.204C1647.3 425.71 1649.66 436.745 1654.22 446.308C1658.78 455.871 1665.4 463.08 1673.93 468.377C1682.46 473.673 1692.62 476.175 1704.53 476.175C1712.77 476.175 1720.28 474.85 1727.04 472.349C1733.66 469.701 1739.26 466.17 1743.82 461.462C1748.38 456.754 1751.61 451.31 1753.53 445.131L1735.28 439.981C1733.66 444.248 1731.46 447.779 1728.52 450.722C1725.57 453.664 1722.04 455.724 1718.07 457.048C1714.1 458.519 1709.54 459.108 1704.53 459.108C1696.88 459.108 1690.26 457.49 1684.52 454.106C1678.79 450.722 1674.23 445.867 1670.99 439.54C1668.05 433.802 1666.72 426.593 1666.43 418.501H1755.44V410.556C1755.44 399.08 1753.97 389.37 1750.88 381.572C1747.79 373.775 1743.82 367.448 1738.67 362.593V362.887ZM1666.58 402.464C1666.87 396.726 1668.19 391.43 1670.69 386.28C1673.64 380.395 1677.76 375.54 1683.35 371.862C1688.79 368.184 1695.26 366.271 1702.77 366.271C1709.54 366.271 1715.57 367.89 1720.57 370.979C1725.57 374.069 1729.55 378.483 1732.19 383.926C1734.99 389.37 1736.31 395.549 1736.31 402.464H1666.58Z" fill="black"/>
<path d="M1859.75 356.561C1854.9 353.618 1849.89 351.706 1844.74 350.823C1839.59 349.94 1835.03 349.352 1831.06 349.352C1824.88 349.352 1818.56 350.234 1812.23 351.853C1805.9 353.471 1800.02 356.414 1794.72 360.68C1789.42 364.8 1785.01 370.685 1781.92 378.188L1799.87 384.515C1801.93 380.101 1805.61 375.834 1810.61 371.862C1815.76 367.89 1822.82 365.977 1831.8 365.977C1840.77 365.977 1846.95 368.184 1851.22 372.598C1855.48 377.011 1857.69 383.044 1857.69 390.988V391.577C1857.69 394.667 1856.66 396.726 1854.45 397.903C1852.25 399.08 1848.86 399.963 1844.16 400.552C1839.45 400.993 1833.41 401.729 1825.91 402.759C1820.17 403.494 1814.58 404.524 1808.84 405.701C1803.25 407.025 1798.1 408.791 1793.4 411.292C1788.69 413.793 1785.01 417.177 1782.21 421.591C1779.42 426.004 1778.1 431.742 1778.1 438.804C1778.1 446.749 1780.01 453.664 1783.69 459.255C1787.36 464.846 1792.51 469.113 1798.84 472.055C1805.17 474.998 1812.23 476.469 1820.03 476.469C1827.24 476.469 1833.27 475.439 1838.12 473.232C1843.13 471.172 1847.1 468.524 1850.04 465.434C1852.98 462.345 1855.19 459.549 1856.37 456.901H1857.4V473.526H1876.23V392.607C1876.23 382.896 1874.61 375.099 1871.37 369.214C1868.14 363.329 1864.16 359.062 1859.31 356.119L1859.75 356.561ZM1857.69 429.388C1857.69 434.538 1856.37 439.393 1853.72 443.954C1851.07 448.662 1847.24 452.34 1842.1 455.283C1836.95 458.225 1830.62 459.696 1823.12 459.696C1815.61 459.696 1809.43 458.078 1804.58 454.694C1799.72 451.31 1797.22 446.455 1797.22 439.834C1797.22 434.979 1798.55 431.301 1801.05 428.506C1803.7 425.71 1807.08 423.65 1811.35 422.179C1815.61 420.708 1820.17 419.678 1825.03 419.09C1827.09 418.795 1829.74 418.501 1832.97 418.06C1836.21 417.618 1839.59 417.177 1843.13 416.588C1846.66 416 1849.75 415.411 1852.39 414.529C1855.04 413.793 1856.81 412.91 1857.69 411.88V429.388Z" fill="black"/>
<path d="M1929.93 310.069H1911.1V473.821H1929.93V310.069Z" fill="black"/>
<path d="M2013.2 456.754C2011.88 457.048 2010.11 457.048 2008.05 457.048C2005.26 457.048 2002.61 456.607 2000.26 455.724C1997.75 454.841 1995.7 453.076 1994.22 450.428C1992.61 447.779 1991.87 443.807 1991.87 438.51V366.86H2018.06V350.823H1991.87V321.398H1973.04V350.823H1954.5V366.86H1973.04V443.66C1973.04 450.869 1974.66 456.754 1978.04 461.462C1981.42 466.17 1985.54 469.701 1990.69 471.908C1995.84 474.115 2000.99 475.292 2006.29 475.292C2009.82 475.292 2012.76 474.998 2014.97 474.556C2017.18 474.115 2019.09 473.526 2020.27 473.085L2016.44 456.165C2015.7 456.313 2014.53 456.46 2013.2 456.754Z" fill="black"/>
<path d="M2127.67 354.354C2121.34 350.97 2113.99 349.352 2105.75 349.352C2096.04 349.352 2088.39 351.264 2082.65 354.943C2076.91 358.768 2072.5 363.77 2069.7 370.097H2068.08V309.922H2049.25V473.674H2068.08V399.816C2068.08 392.607 2069.56 386.575 2072.35 381.572C2075.15 376.57 2078.97 372.745 2083.83 370.097C2088.68 367.448 2094.27 366.124 2100.45 366.124C2109.28 366.124 2116.34 368.772 2121.34 374.216C2126.35 379.66 2128.85 387.163 2128.85 396.874V473.674H2147.68V395.697C2147.68 385.103 2145.91 376.423 2142.38 369.655C2138.85 362.887 2134 357.738 2127.67 354.354Z" fill="black"/>
<path d="M2320.99 356.561C2316.14 353.618 2311.14 351.706 2305.99 350.823C2300.84 349.94 2296.28 349.352 2292.3 349.352C2286.12 349.352 2279.8 350.234 2273.47 351.853C2267.15 353.471 2261.26 356.414 2255.96 360.68C2250.67 364.8 2246.25 370.685 2243.16 378.188L2261.11 384.515C2263.17 380.101 2266.85 375.834 2271.85 371.862C2277 367.89 2284.06 365.977 2293.04 365.977C2302.01 365.977 2308.19 368.184 2312.46 372.598C2316.73 377.011 2318.93 383.044 2318.93 390.988V391.577C2318.93 394.667 2317.9 396.726 2315.7 397.903C2313.49 399.08 2310.11 399.963 2305.4 400.552C2300.69 400.993 2294.66 401.729 2287.15 402.759C2281.42 403.494 2275.83 404.524 2270.09 405.701C2264.5 407.025 2259.35 408.791 2254.64 411.292C2249.93 413.793 2246.25 417.177 2243.46 421.591C2240.66 426.004 2239.34 431.742 2239.34 438.804C2239.34 446.749 2241.25 453.664 2244.93 459.255C2248.61 464.846 2253.76 469.113 2260.08 472.055C2266.41 474.998 2273.47 476.469 2281.27 476.469C2288.48 476.469 2294.51 475.439 2299.37 473.232C2304.37 471.172 2308.34 468.524 2311.28 465.434C2314.23 462.345 2316.43 459.549 2317.61 456.901H2318.64V473.526H2337.47V392.607C2337.47 382.896 2335.85 375.099 2332.62 369.214C2329.38 363.329 2325.41 359.062 2320.55 356.119L2320.99 356.561ZM2318.93 429.388C2318.93 434.538 2317.61 439.393 2314.96 443.954C2312.31 448.662 2308.49 452.34 2303.34 455.283C2298.19 458.225 2291.86 459.696 2284.36 459.696C2276.86 459.696 2270.68 458.078 2265.82 454.694C2260.97 451.31 2258.46 446.455 2258.46 439.834C2258.46 434.979 2259.79 431.301 2262.29 428.506C2264.94 425.71 2268.32 423.65 2272.59 422.179C2276.86 420.708 2281.42 419.678 2286.27 419.09C2288.33 418.795 2290.98 418.501 2294.22 418.06C2297.45 417.618 2300.84 417.177 2304.37 416.588C2307.9 416 2310.99 415.411 2313.64 414.529C2316.29 413.793 2318.05 412.91 2318.93 411.88V429.388Z" fill="black"/>
<path d="M2449.88 354.501C2443.7 351.117 2436.34 349.499 2428.1 349.499C2418.83 349.499 2411.33 351.411 2405.44 355.237C2399.56 359.062 2395.15 364.064 2392.35 370.391H2390.73V351.117H2372.49V473.968H2391.32V400.11C2391.32 392.901 2392.64 386.869 2395.44 381.867C2398.09 376.864 2401.91 373.039 2406.62 370.391C2411.33 367.743 2416.63 366.418 2422.66 366.418C2431.34 366.418 2438.25 369.067 2443.26 374.51C2448.26 379.954 2450.76 387.458 2450.76 397.168V473.968H2469.59V395.991C2469.59 385.545 2467.83 376.864 2464.44 370.097C2460.91 363.182 2456.2 358.179 2449.88 354.795V354.501Z" fill="black"/>
<path d="M2588.03 370.538H2586.41C2585.09 368.478 2583.03 365.683 2580.67 362.299C2578.17 358.915 2574.64 355.972 2569.93 353.324C2565.23 350.676 2558.9 349.352 2550.95 349.352C2540.66 349.352 2531.53 352 2523.59 357.149C2515.64 362.299 2509.61 369.655 2505.05 379.071C2500.49 388.487 2498.43 399.816 2498.43 412.616C2498.43 425.416 2500.64 436.892 2505.05 446.455C2509.46 456.018 2515.64 463.375 2523.44 468.524C2531.24 473.673 2540.36 476.322 2550.51 476.322C2558.46 476.322 2564.78 474.998 2569.49 472.349C2574.2 469.701 2577.88 466.759 2580.38 463.375C2582.88 459.991 2584.94 457.195 2586.26 454.988H2588.47V473.821H2606.71V310.069H2587.88V370.538H2588.03ZM2584.2 436.892C2581.56 443.954 2577.58 449.398 2572.29 453.37C2566.99 457.342 2560.66 459.255 2553.01 459.255C2545.36 459.255 2538.6 457.195 2533.3 452.929C2528 448.809 2524.03 443.071 2521.38 436.009C2518.73 428.947 2517.41 421.002 2517.41 412.175C2517.41 403.347 2518.73 395.696 2521.38 388.782C2524.03 381.867 2528 376.276 2533.3 372.303C2538.6 368.184 2545.22 366.124 2553.31 366.124C2561.4 366.124 2567.43 368.037 2572.73 371.862C2578.03 375.687 2581.85 381.131 2584.5 388.046C2587.15 394.961 2588.47 403.053 2588.47 412.175C2588.47 421.296 2587.15 429.683 2584.35 436.745L2584.2 436.892Z" fill="black"/>
<path d="M2748.84 333.904C2756.78 328.901 2765.9 326.4 2775.76 326.4C2781.21 326.4 2786.36 327.136 2791.36 328.607C2796.36 330.078 2800.92 332.285 2805.04 335.228C2809.16 338.17 2812.69 341.848 2815.63 346.115C2818.58 350.382 2820.64 355.384 2821.81 361.122H2841.67C2840.2 352.736 2837.41 345.232 2833.58 338.612C2829.61 331.991 2824.76 326.4 2818.87 321.839C2812.99 317.278 2806.36 313.747 2799.16 311.246C2791.95 308.892 2784.15 307.715 2775.91 307.715C2761.93 307.715 2749.57 311.099 2738.69 318.014C2727.8 324.782 2719.27 334.492 2713.09 347.145C2706.91 359.798 2703.67 374.658 2703.67 391.871C2703.67 409.085 2706.76 424.092 2713.09 436.598C2719.41 449.104 2727.95 458.814 2738.69 465.729C2749.57 472.497 2761.93 476.028 2775.91 476.028C2784.15 476.028 2791.95 474.851 2799.16 472.497C2806.36 470.143 2812.99 466.612 2818.87 462.051C2824.76 457.49 2829.61 451.899 2833.58 445.278C2837.56 438.658 2840.2 431.154 2841.67 422.768H2821.81C2820.64 428.359 2818.58 433.361 2815.63 437.775C2812.69 442.189 2809.16 445.72 2805.04 448.662C2800.92 451.605 2796.36 453.812 2791.36 455.283C2786.36 456.754 2781.06 457.49 2775.76 457.49C2765.9 457.49 2756.93 454.989 2748.84 449.986C2740.75 444.984 2734.42 437.628 2729.71 427.77C2725 417.913 2722.65 405.996 2722.65 391.871C2722.65 377.747 2725 365.683 2729.71 355.973C2734.42 346.262 2740.75 338.906 2748.84 333.756V333.904Z" fill="black"/>
<path d="M2946.58 356.561C2941.72 353.618 2936.72 351.706 2931.57 350.823C2926.42 349.94 2921.86 349.352 2917.89 349.352C2911.71 349.352 2905.38 350.234 2899.05 351.853C2892.73 353.471 2886.84 356.414 2881.55 360.68C2876.25 364.8 2871.84 370.685 2868.75 378.188L2886.69 384.515C2888.75 380.101 2892.43 375.834 2897.43 371.862C2902.58 367.89 2909.65 365.977 2918.62 365.977C2927.6 365.977 2933.78 368.184 2938.04 372.598C2942.31 377.011 2944.52 383.044 2944.52 390.988V391.577C2944.52 394.667 2943.49 396.726 2941.28 397.903C2939.07 399.08 2935.69 399.963 2930.98 400.552C2926.27 400.993 2920.24 401.729 2912.74 402.759C2907 403.494 2901.41 404.524 2895.67 405.701C2890.08 407.025 2884.93 408.791 2880.22 411.292C2875.51 413.793 2871.83 417.177 2869.04 421.591C2866.24 426.004 2864.92 431.742 2864.92 438.804C2864.92 446.749 2866.83 453.664 2870.51 459.255C2874.19 464.846 2879.34 469.113 2885.67 472.055C2891.99 474.998 2899.05 476.469 2906.85 476.469C2914.06 476.469 2920.09 475.439 2924.95 473.232C2929.95 471.172 2933.92 468.524 2936.86 465.434C2939.81 462.345 2942.01 459.549 2943.19 456.901H2944.22V473.526H2963.05V392.607C2963.05 382.896 2961.44 375.099 2958.2 369.214C2954.96 363.329 2950.99 359.062 2946.13 356.119L2946.58 356.561ZM2944.52 429.388C2944.52 434.538 2943.19 439.393 2940.54 443.954C2937.89 448.662 2934.07 452.34 2928.92 455.283C2923.77 458.225 2917.44 459.696 2909.94 459.696C2902.44 459.696 2896.26 458.078 2891.4 454.694C2886.55 451.31 2884.05 446.455 2884.05 439.834C2884.05 434.979 2885.37 431.301 2887.87 428.506C2890.52 425.71 2893.9 423.65 2898.17 422.179C2902.44 420.708 2907 419.678 2911.85 419.09C2913.91 418.795 2916.56 418.501 2919.8 418.06C2923.03 417.618 2926.42 417.177 2929.95 416.588C2933.48 416 2936.57 415.411 2939.22 414.529C2941.87 413.793 2943.63 412.91 2944.52 411.88V429.388Z" fill="black"/>
<path d="M3049.56 349.057C3042.21 349.057 3035.59 350.97 3029.7 354.795C3023.82 358.621 3019.84 363.476 3017.49 369.655H3016.17V351.117H2997.92V473.968H3016.76V396.285C3016.76 390.694 3018.08 385.839 3020.73 381.425C3023.38 377.159 3027.05 373.628 3031.76 371.126C3036.47 368.625 3041.77 367.448 3047.65 367.448C3050.15 367.448 3052.51 367.595 3054.86 368.037C3057.22 368.478 3058.54 368.625 3059.27 368.772V349.646C3058.24 349.646 3056.63 349.499 3054.57 349.352C3052.51 349.352 3050.74 349.352 3049.42 349.352L3049.56 349.057Z" fill="black"/>
<path d="M3163.59 362.887C3158.44 358.179 3152.85 354.648 3146.52 352.588C3140.2 350.529 3134.02 349.352 3127.54 349.352C3116.51 349.352 3106.8 352 3098.56 357.444C3090.32 362.887 3083.85 370.391 3079.14 379.954C3074.43 389.517 3072.22 400.699 3072.22 413.204C3072.22 425.71 3074.58 436.745 3079.14 446.308C3083.7 455.871 3090.32 463.08 3098.85 468.377C3107.39 473.673 3117.54 476.175 3129.45 476.175C3137.69 476.175 3145.2 474.85 3151.97 472.349C3158.59 469.701 3164.18 466.17 3168.74 461.462C3173.3 456.754 3176.54 451.31 3178.45 445.131L3160.2 439.981C3158.59 444.248 3156.38 447.779 3153.44 450.722C3150.49 453.664 3146.96 455.724 3142.99 457.048C3139.02 458.519 3134.46 459.108 3129.45 459.108C3121.8 459.108 3115.18 457.49 3109.45 454.106C3103.71 450.722 3099.15 445.867 3095.91 439.54C3092.97 433.802 3091.64 426.593 3091.35 418.501H3180.36V410.556C3180.36 399.08 3178.89 389.37 3175.8 381.572C3172.71 373.775 3168.74 367.448 3163.59 362.593V362.887ZM3091.5 402.464C3091.79 396.726 3093.11 391.43 3095.62 386.28C3098.56 380.395 3102.68 375.54 3108.27 371.862C3113.71 368.184 3120.19 366.271 3127.69 366.271C3134.46 366.271 3140.49 367.89 3145.49 370.979C3150.49 374.069 3154.47 378.483 3157.11 383.926C3159.91 389.37 3161.23 395.549 3161.23 402.464H3091.5Z" fill="black"/>
<path d="M3294.82 400.552H3368.68V382.896H3294.82V327.577H3373.83V310.069H3274.96V473.821H3375.15V456.165H3294.82V400.552Z" fill="black"/>
<path d="M3480.06 350.97L3450.63 401.14L3421.21 350.97H3399.43L3438.42 412.322L3399.43 473.821H3421.21L3450.63 426.152L3480.06 473.821H3501.83L3462.11 412.322L3501.83 350.97H3480.06Z" fill="black"/>
<path d="M3554.06 372.009C3559.51 368.184 3565.98 366.271 3573.34 366.271C3581.72 366.271 3588.34 368.478 3593.2 372.745C3598.2 377.159 3601.29 382.014 3602.76 387.605H3621.59C3620.56 379.954 3617.77 373.186 3613.35 367.448C3608.94 361.71 3603.2 357.149 3596.29 354.06C3589.37 350.823 3581.57 349.205 3572.89 349.205C3561.86 349.205 3552.15 351.853 3543.91 357.297C3535.67 362.74 3529.2 370.244 3524.49 379.807C3519.93 389.37 3517.57 400.405 3517.57 412.91C3517.57 425.416 3519.78 436.009 3524.34 445.572C3528.76 455.136 3535.23 462.639 3543.47 468.083C3551.71 473.526 3561.71 476.175 3573.19 476.175C3582.31 476.175 3590.25 474.409 3597.02 471.025C3603.94 467.641 3609.38 463.08 3613.5 457.342C3617.62 451.605 3620.27 444.984 3621.45 437.775H3602.61C3601.44 442.188 3599.52 446.014 3596.73 449.251C3593.93 452.487 3590.55 454.841 3586.58 456.607C3582.6 458.372 3578.19 459.108 3573.19 459.108C3565.68 459.108 3559.21 457.195 3553.77 453.223C3548.18 449.398 3544.06 443.807 3540.97 436.892C3538.03 429.83 3536.41 421.591 3536.41 412.028C3536.41 402.464 3537.88 394.667 3540.97 387.752C3544.06 380.837 3548.32 375.54 3553.91 371.715L3554.06 372.009Z" fill="black"/>
<path d="M3734.88 362.887C3729.73 358.179 3724.14 354.648 3717.81 352.588C3711.48 350.529 3705.31 349.352 3698.83 349.352C3687.8 349.352 3678.09 352 3669.85 357.444C3661.61 362.887 3655.14 370.391 3650.43 379.954C3645.72 389.517 3643.51 400.699 3643.51 413.204C3643.51 425.71 3645.87 436.745 3650.43 446.308C3654.99 455.871 3661.61 463.08 3670.14 468.377C3678.68 473.673 3688.83 476.175 3700.74 476.175C3708.98 476.175 3716.49 474.85 3723.25 472.349C3729.88 469.701 3735.47 466.17 3740.03 461.462C3744.59 456.754 3747.82 451.31 3749.74 445.131L3731.49 439.981C3729.88 444.248 3727.67 447.779 3724.73 450.722C3721.78 453.664 3718.25 455.724 3714.28 457.048C3710.31 458.519 3705.75 459.108 3700.74 459.108C3693.09 459.108 3686.47 457.49 3680.74 454.106C3675 450.722 3670.44 445.867 3667.2 439.54C3664.26 433.802 3662.93 426.593 3662.64 418.501H3751.65V410.556C3751.65 399.08 3750.18 389.37 3747.09 381.572C3744 373.775 3740.03 367.448 3734.88 362.593V362.887ZM3662.79 402.464C3663.08 396.726 3664.4 391.43 3666.91 386.28C3669.85 380.395 3673.97 375.54 3679.56 371.862C3685 368.184 3691.48 366.271 3698.98 366.271C3705.75 366.271 3711.78 367.89 3716.78 370.979C3721.78 374.069 3725.76 378.483 3728.4 383.926C3731.2 389.37 3732.52 395.549 3732.52 402.464H3662.79Z" fill="black"/>
<path d="M3799.17 310.069H3780.34V473.821H3799.17V310.069Z" fill="black"/>
<path d="M3852.58 310.069H3833.75V473.821H3852.58V310.069Z" fill="black"/>
<path d="M3972.78 362.887C3967.63 358.179 3962.04 354.648 3955.72 352.588C3949.39 350.529 3943.21 349.352 3936.74 349.352C3925.7 349.352 3915.99 352 3907.75 357.444C3899.51 362.887 3893.04 370.391 3888.33 379.954C3883.62 389.517 3881.42 400.699 3881.42 413.204C3881.42 425.71 3883.77 436.745 3888.33 446.308C3892.89 455.871 3899.51 463.08 3908.05 468.377C3916.58 473.673 3926.73 476.175 3938.65 476.175C3946.89 476.175 3954.39 474.85 3961.16 472.349C3967.78 469.701 3973.37 466.17 3977.93 461.462C3982.49 456.754 3985.73 451.31 3987.64 445.131L3969.4 439.981C3967.78 444.248 3965.57 447.779 3962.63 450.722C3959.69 453.664 3956.16 455.724 3952.19 457.048C3948.21 458.519 3943.65 459.108 3938.65 459.108C3931 459.108 3924.38 457.49 3918.64 454.106C3912.9 450.722 3908.34 445.867 3905.1 439.54C3902.16 433.802 3900.84 426.593 3900.54 418.501H3989.56V410.556C3989.56 399.08 3988.08 389.37 3984.99 381.572C3981.9 373.775 3977.93 367.448 3972.78 362.593V362.887ZM3900.69 402.464C3900.99 396.726 3902.31 391.43 3904.81 386.28C3907.75 380.395 3911.87 375.54 3917.46 371.862C3922.91 368.184 3929.38 366.271 3936.88 366.271C3943.65 366.271 3949.68 367.89 3954.69 370.979C3959.69 374.069 3963.66 378.483 3966.31 383.926C3969.1 389.37 3970.43 395.549 3970.43 402.464H3900.69Z" fill="black"/>
<path d="M4095.78 354.501C4089.6 351.117 4082.24 349.499 4074 349.499C4064.73 349.499 4057.23 351.411 4051.35 355.237C4045.46 359.062 4041.05 364.064 4038.25 370.391H4036.63V351.117H4018.39V473.968H4037.22V400.11C4037.22 392.901 4038.55 386.869 4041.34 381.867C4043.99 376.864 4047.81 373.039 4052.52 370.391C4057.23 367.743 4062.53 366.418 4068.56 366.418C4077.24 366.418 4084.16 369.067 4089.16 374.51C4094.16 379.954 4096.66 387.458 4096.66 397.168V473.968H4115.49V395.991C4115.49 385.545 4113.73 376.864 4110.34 370.097C4106.81 363.182 4102.1 358.179 4095.78 354.795V354.501Z" fill="black"/>
<path d="M4180.67 372.009C4186.12 368.184 4192.59 366.271 4199.94 366.271C4208.33 366.271 4214.95 368.478 4219.81 372.745C4224.81 377.159 4227.9 382.014 4229.37 387.605H4248.2C4247.17 379.954 4244.38 373.186 4239.96 367.448C4235.55 361.71 4229.81 357.149 4222.9 354.06C4215.98 350.823 4208.18 349.205 4199.5 349.205C4188.47 349.205 4178.76 351.853 4170.52 357.297C4162.28 362.74 4155.81 370.244 4151.1 379.807C4146.54 389.37 4144.18 400.405 4144.18 412.91C4144.18 425.416 4146.39 436.009 4150.95 445.572C4155.36 455.136 4161.84 462.639 4170.08 468.083C4178.32 473.526 4188.32 476.175 4199.8 476.175C4208.92 476.175 4216.86 474.409 4223.63 471.025C4230.55 467.641 4235.99 463.08 4240.11 457.342C4244.23 451.605 4246.88 444.984 4248.06 437.775H4229.22C4228.05 442.188 4226.13 446.014 4223.34 449.251C4220.54 452.487 4217.16 454.841 4213.19 456.607C4209.21 458.372 4204.8 459.108 4199.8 459.108C4192.29 459.108 4185.82 457.195 4180.38 453.223C4174.79 449.398 4170.67 443.807 4167.58 436.892C4164.63 429.83 4163.02 421.591 4163.02 412.028C4163.02 402.464 4164.49 394.667 4167.58 387.752C4170.67 380.837 4174.93 375.54 4180.52 371.715L4180.67 372.009Z" fill="black"/>
<path d="M4378.12 410.85C4378.12 399.375 4376.64 389.664 4373.55 381.867C4370.47 374.069 4366.49 367.742 4361.34 362.887C4356.19 358.179 4350.6 354.648 4344.28 352.588C4337.95 350.529 4331.77 349.352 4325.3 349.352C4314.26 349.352 4304.55 352 4296.31 357.444C4288.07 362.887 4281.6 370.391 4276.89 379.954C4272.18 389.517 4269.98 400.699 4269.98 413.204C4269.98 425.71 4272.33 436.745 4276.89 446.308C4281.45 455.871 4288.07 463.08 4296.61 468.377C4305.14 473.673 4315.29 476.175 4327.21 476.175C4335.45 476.175 4342.95 474.85 4349.72 472.349C4356.34 469.701 4361.93 466.17 4366.49 461.462C4371.05 456.754 4374.29 451.31 4376.2 445.131L4357.96 439.981C4356.34 444.248 4354.13 447.779 4351.19 450.722C4348.25 453.664 4344.72 455.724 4340.75 457.048C4336.77 458.519 4332.21 459.108 4327.21 459.108C4319.56 459.108 4312.94 457.49 4307.2 454.106C4301.46 450.722 4296.9 445.867 4293.67 439.54C4290.72 433.802 4289.4 426.593 4289.1 418.501H4378.12V410.556V410.85ZM4289.25 402.464C4289.55 396.726 4290.87 391.43 4293.37 386.28C4296.31 380.395 4300.43 375.54 4306.02 371.862C4311.47 368.184 4317.94 366.271 4325.44 366.271C4332.21 366.271 4338.24 367.89 4343.25 370.979C4348.25 374.069 4352.22 378.483 4354.87 383.926C4357.67 389.37 4358.99 395.549 4358.99 402.464H4289.25Z" fill="black"/>
</svg>
