<?xml version="1.0" encoding="utf-8"?>
<svg width="512" height="512" viewBox="0 0 512 512" fill="none" xmlns="http://www.w3.org/2000/svg">
<path d="M83.784 476.472L197.112 363.16C227.256 383.48 262.168 393.688 297.144 393.688C343.048 393.688 388.92 376.2 423.944 341.16C494.008 271.096 494.008 157.576 423.944 87.544C388.936 52.504 343.048 35 297.144 35C251.24 35 205.336 52.504 170.296 87.528C108.6 149.224 101.32 244.648 148.328 314.392L35 427.752L83.784 476.472V476.472ZM297.144 338.52C263.976 338.52 232.792 325.624 209.352 302.152C160.936 253.704 160.936 174.952 209.352 126.536C232.792 103.096 263.992 90.184 297.144 90.184C330.296 90.184 361.48 103.096 384.92 126.552C408.36 150.008 421.304 181.192 421.304 214.344C421.304 247.496 408.376 278.696 384.92 302.136C361.464 325.608 330.296 338.504 297.144 338.504V338.52Z" fill="black"/>
</svg>
