<?xml version="1.0" encoding="utf-8"?>
<svg width="512" height="512" viewBox="0 0 512 512" fill="none" xmlns="http://www.w3.org/2000/svg">
<path d="M154.648 417.208C154.648 450.248 127.848 477.016 94.824 477.016C61.784 477.016 35 450.248 35 417.208C35 384.168 61.784 357.384 94.824 357.384C127.832 357.384 154.648 384.168 154.648 417.208ZM35.016 185.656V274.264C146.328 275.416 236.616 365.72 237.768 477.016H326.376C325.224 316.6 195.432 186.808 35.016 185.656V185.656ZM35.016 123.624C129.112 124.024 217.496 160.824 284.056 227.416C350.776 294.12 387.592 382.744 387.864 477.016H476.472C475.912 233.32 278.632 35.864 35 35V123.624H35.016Z" fill="black"/>
</svg>
