<?xml version="1.0" encoding="utf-8"?>
<svg width="512" height="512" viewBox="0 0 512 512" fill="none" xmlns="http://www.w3.org/2000/svg">
<path d="M200.632 210.359V376.48C200.632 379.172 199.765 381.384 198.032 383.118C196.299 384.851 194.087 385.718 191.396 385.718H172.94C170.249 385.718 168.037 384.851 166.303 383.118C164.57 381.384 163.704 379.172 163.704 376.48V210.359C163.704 207.667 164.57 205.455 166.303 203.721C168.037 201.988 170.249 201.121 172.94 201.121H191.396C194.087 201.121 196.299 201.988 198.032 203.721C199.765 205.455 200.632 207.667 200.632 210.359ZM274.44 210.359V376.48C274.44 379.172 273.573 381.384 271.84 383.118C270.107 384.851 267.895 385.718 265.204 385.718H246.748C244.057 385.718 241.844 384.851 240.111 383.118C238.378 381.384 237.512 379.172 237.512 376.48V210.359C237.512 207.667 238.378 205.455 240.111 203.721C241.844 201.988 244.057 201.121 246.748 201.121H265.204C267.895 201.121 270.107 201.988 271.84 203.721C273.573 205.455 274.44 207.667 274.44 210.359ZM348.264 210.359V376.48C348.264 379.172 347.397 381.384 345.664 383.118C343.931 384.851 341.719 385.718 339.028 385.718H320.572C317.881 385.718 315.669 384.851 313.935 383.118C312.202 381.384 311.336 379.172 311.336 376.48V210.359C311.336 207.667 312.202 205.455 313.935 203.721C315.669 201.988 317.881 201.121 320.572 201.121H339.028C341.719 201.121 343.931 201.988 345.664 203.721C347.397 205.455 348.264 207.667 348.264 210.359ZM385.16 419.149V145.742H126.808V419.149C126.808 423.38 127.481 427.272 128.826 430.825C130.172 434.378 131.566 436.973 133.008 438.61C134.451 440.246 135.463 441.065 136.044 441.065H375.94C376.521 441.065 377.533 440.246 378.976 438.61C380.418 436.973 381.812 434.378 383.158 430.825C384.503 427.272 385.176 423.38 385.176 419.149H385.16ZM191.396 108.839H320.572L306.734 75.1009C305.388 73.3675 303.752 72.3123 301.825 71.9355H210.417C208.49 72.3231 206.854 73.3783 205.508 75.1009L191.396 108.839ZM458.984 118.06V136.52C458.984 139.212 458.117 141.424 456.384 143.158C454.651 144.891 452.439 145.758 449.748 145.758H422.072V419.165C422.072 435.121 417.556 448.919 408.525 460.558C399.493 472.197 388.631 478.011 375.94 478H136.044C123.352 478 112.491 472.374 103.459 461.123C94.4278 449.872 89.912 436.268 89.912 420.311V145.758H62.2361C59.5449 145.758 57.3328 144.891 55.5997 143.158C53.8666 141.424 53 139.212 53 136.52V118.06C53 115.369 53.8666 113.156 55.5997 111.423C57.3328 109.689 59.5449 108.823 62.2361 108.823H151.335L171.519 60.6627C174.404 53.5458 179.592 47.4895 187.085 42.4937C194.577 37.4979 202.171 35 209.868 35H302.132C309.818 35 317.412 37.4979 324.915 42.4937C332.418 47.4895 337.607 53.5458 340.481 60.6627L360.665 108.823H449.764C452.455 108.823 454.667 109.689 456.4 111.423C458.133 113.156 459 115.369 459 118.06H458.984Z" fill="black"/>
</svg>
