<?xml version="1.0" encoding="utf-8"?>
<svg width="512" height="512" viewBox="0 0 512 512" fill="none" xmlns="http://www.w3.org/2000/svg">
<path d="M481.304 116.424C468.547 135.091 453.117 150.995 435.016 164.136C435.208 166.803 435.304 170.803 435.304 176.136C435.304 200.893 431.683 225.608 424.44 250.28C417.197 274.952 406.195 298.621 391.432 321.288C376.669 343.955 359.096 364.003 338.712 381.432C318.328 398.861 293.757 412.765 265 423.144C236.243 433.523 205.48 438.712 172.712 438.712C121.096 438.712 73.8587 424.904 31 397.288C37.6667 398.045 45.096 398.424 53.288 398.424C96.1467 398.424 134.339 385.283 167.864 359C147.864 358.616 129.96 352.472 114.152 340.568C98.344 328.664 87.4853 313.475 81.576 295C87.8587 295.949 93.6667 296.424 99 296.424C107.192 296.424 115.288 295.379 123.288 293.288C101.955 288.904 84.2853 278.285 70.28 261.432C56.2747 244.579 49.272 225.005 49.272 202.712V201.576C62.2213 208.819 76.1253 212.723 90.984 213.288C78.408 204.904 68.408 193.949 60.984 180.424C53.56 166.899 49.848 152.232 49.848 136.424C49.848 119.667 54.04 104.141 62.424 89.848C85.4747 118.232 113.523 140.947 146.568 157.992C179.613 175.037 214.995 184.515 252.712 186.424C251.187 179.181 250.424 172.136 250.424 165.288C250.424 139.763 259.427 118.003 277.432 100.008C295.437 82.0133 317.197 73.0107 342.712 73C369.379 73 391.853 82.712 410.136 102.136C430.893 98.136 450.419 90.7067 468.712 79.848C461.661 101.757 448.136 118.712 428.136 130.712C445.853 128.803 463.565 124.04 481.272 116.424H481.304Z" fill="black"/>
</svg>
