<?xml version="1.0" encoding="utf-8"?>
<svg width="512" height="512" viewBox="0 0 512 512" fill="none" xmlns="http://www.w3.org/2000/svg">
<path d="M405.333 172.583C394.444 177.444 382.681 180.75 370.042 182.5C383.264 174.722 392.306 163.347 397.167 148.375C384.528 155.764 371.5 160.722 358.083 163.25C346.222 150.417 331.347 144 313.458 144C296.542 144 282.104 149.979 270.146 161.937C258.187 173.896 252.208 188.333 252.208 205.25C252.208 210.889 252.694 215.556 253.667 219.25C228.583 217.889 205.056 211.569 183.083 200.292C161.111 189.014 142.444 173.944 127.083 155.083C121.444 164.806 118.625 175.111 118.625 186C118.625 208.167 127.472 225.181 145.167 237.042C136.028 236.847 126.306 234.319 116 229.458V230.042C116 244.625 120.861 257.604 130.583 268.979C140.306 280.354 152.264 287.403 166.458 290.125C160.819 291.681 155.861 292.458 151.583 292.458C149.056 292.458 145.264 292.069 140.208 291.292C144.292 303.542 151.535 313.653 161.937 321.625C172.34 329.597 184.153 333.681 197.375 333.875C174.819 351.375 149.444 360.125 121.25 360.125C116.194 360.125 111.333 359.833 106.667 359.25C135.444 377.528 166.75 386.667 200.583 386.667C222.361 386.667 242.778 383.215 261.833 376.312C280.889 369.41 297.222 360.174 310.833 348.604C324.444 337.035 336.16 323.715 345.979 308.646C355.799 293.576 363.09 277.826 367.854 261.396C372.618 244.965 375 228.583 375 212.25C375 208.75 374.903 206.125 374.708 204.375C386.958 195.625 397.167 185.028 405.333 172.583ZM480 116V396C480 419.139 471.785 438.924 455.354 455.354C438.924 471.785 419.139 480 396 480H116C92.8611 480 73.0764 471.785 56.6458 455.354C40.2153 438.924 32 419.139 32 396V116C32 92.8611 40.2153 73.0764 56.6458 56.6458C73.0764 40.2153 92.8611 32 116 32H396C419.139 32 438.924 40.2153 455.354 56.6458C471.785 73.0764 480 92.8611 480 116Z" fill="black"/>
</svg>
