<?xml version="1.0" encoding="utf-8"?>
<svg width="512" height="512" viewBox="0 0 512 512" fill="none" xmlns="http://www.w3.org/2000/svg">
<path d="M300.042 374.708V328.917C300.042 319.194 297.222 314.333 291.583 314.333C288.278 314.333 285.069 315.889 281.958 319V384.333C285.069 387.444 288.278 389 291.583 389C297.222 389 300.042 384.236 300.042 374.708ZM353.708 339.125H372.958V329.208C372.958 319.292 369.75 314.333 363.333 314.333C356.917 314.333 353.708 319.292 353.708 329.208V339.125ZM187.167 261.542V281.958H163.833V405.333H142.25V281.958H119.5V261.542H187.167ZM245.792 298.292V405.333H226.25V393.667C218.667 402.417 211.278 406.792 204.083 406.792C197.667 406.792 193.583 404.069 191.833 398.625C190.667 395.514 190.083 390.264 190.083 382.875V298.292H209.333V377.042C209.333 381.708 209.431 384.236 209.625 384.625C209.819 387.542 211.278 389 214 389C217.889 389 221.972 385.986 226.25 379.958V298.292H245.792ZM319.292 330.667V373.25C319.292 383.361 318.611 390.458 317.25 394.542C314.917 402.708 309.764 406.792 301.792 406.792C294.986 406.792 288.375 402.806 281.958 394.833V405.333H262.417V261.542H281.958V308.5C288.181 300.722 294.792 296.833 301.792 296.833C309.764 296.833 314.917 300.917 317.25 309.083C318.611 313.167 319.292 320.361 319.292 330.667ZM392.5 368.292V370.917C392.5 376.556 392.306 380.736 391.917 383.458C391.333 387.736 389.875 391.625 387.542 395.125C382.292 402.903 374.514 406.792 364.208 406.792C354.097 406.792 346.222 403.097 340.583 395.708C336.5 390.458 334.458 382.097 334.458 370.625V333C334.458 321.528 336.403 313.167 340.292 307.917C345.931 300.528 353.708 296.833 363.625 296.833C373.542 296.833 381.125 300.528 386.375 307.917C390.458 313.361 392.5 321.722 392.5 333V355.167H353.708V374.125C353.708 384.042 357.014 389 363.625 389C368.292 389 371.208 386.472 372.375 381.417C372.375 381.222 372.424 380.542 372.521 379.375C372.618 378.208 372.667 376.604 372.667 374.562V368.292H392.5ZM260.958 127.958V173.458C260.958 183.375 257.847 188.333 251.625 188.333C245.403 188.333 242.292 183.375 242.292 173.458V127.958C242.292 117.847 245.403 112.792 251.625 112.792C257.847 112.792 260.958 117.847 260.958 127.958ZM416.417 335.917C416.417 301.5 414.569 276.222 410.875 260.083C408.931 251.528 404.75 244.382 398.333 238.646C391.917 232.91 384.528 229.556 376.167 228.583C349.722 225.667 309.667 224.208 256 224.208C202.528 224.208 162.569 225.667 136.125 228.583C127.569 229.556 120.132 232.91 113.812 238.646C107.493 244.382 103.361 251.528 101.417 260.083C97.5278 277 95.5833 302.278 95.5833 335.917C95.5833 370.139 97.5278 395.417 101.417 411.75C103.361 420.111 107.493 427.208 113.812 433.042C120.132 438.875 127.472 442.278 135.833 443.25C162.472 446.167 202.528 447.625 256 447.625C309.472 447.625 349.528 446.167 376.167 443.25C384.528 442.278 391.868 438.875 398.187 433.042C404.507 427.208 408.639 420.111 410.583 411.75C414.472 395.417 416.417 370.139 416.417 335.917ZM196.208 146.042L222.458 59.7083H200.583L185.708 116.583L170.25 59.7083H147.5L154.5 79.8333L161.208 99.9583C168.014 119.986 172.486 135.347 174.625 146.042V204.667H196.208V146.042ZM280.5 169.667V131.75C280.5 120.472 278.458 112.014 274.375 106.375C268.736 98.9861 261.153 95.2917 251.625 95.2917C241.708 95.2917 234.125 98.9861 228.875 106.375C224.792 112.014 222.75 120.472 222.75 131.75V169.667C222.75 180.944 224.792 189.403 228.875 195.042C234.125 202.431 241.708 206.125 251.625 206.125C261.153 206.125 268.736 202.431 274.375 195.042C278.458 189.792 280.5 181.333 280.5 169.667ZM333.292 204.667H352.833V96.75H333.292V179.292C329.014 185.319 324.931 188.333 321.042 188.333C318.125 188.333 316.569 186.778 316.375 183.667C316.181 183.278 316.083 180.75 316.083 176.083V96.75H296.542V182.208C296.542 189.403 297.125 194.75 298.292 198.25C300.431 203.5 304.611 206.125 310.833 206.125C317.833 206.125 325.319 201.75 333.292 193V204.667ZM480 116V396C480 419.139 471.785 438.924 455.354 455.354C438.924 471.785 419.139 480 396 480H116C92.8611 480 73.0764 471.785 56.6458 455.354C40.2153 438.924 32 419.139 32 396V116C32 92.8611 40.2153 73.0764 56.6458 56.6458C73.0764 40.2153 92.8611 32 116 32H396C419.139 32 438.924 40.2153 455.354 56.6458C471.785 73.0764 480 92.8611 480 116Z" fill="black"/>
</svg>

