<?xml version="1.0" encoding="utf-8"?>
<svg width="512" height="512" viewBox="0 0 512 512" fill="none" xmlns="http://www.w3.org/2000/svg">
<path d="M199.704 127.577C202.575 127.577 205.042 126.545 207.106 124.481C209.17 122.417 210.202 119.949 210.202 117.077C210.202 114.205 209.17 111.737 207.106 109.673C205.042 107.609 202.575 106.577 199.704 106.577C196.833 106.577 194.41 107.609 192.436 109.673C190.462 111.737 189.475 114.205 189.475 117.077C189.475 119.949 190.462 122.417 192.436 124.481C194.41 126.545 196.833 127.577 199.704 127.577ZM313.296 127.577C316.167 127.577 318.59 126.545 320.564 124.481C322.538 122.417 323.525 119.949 323.525 117.077C323.525 114.205 322.538 111.737 320.564 109.673C318.59 107.609 316.167 106.577 313.296 106.577C310.425 106.577 307.957 107.609 305.894 109.673C303.83 111.737 302.798 114.205 302.798 117.077C302.798 119.949 303.83 122.417 305.894 124.481C307.957 126.545 310.425 127.577 313.296 127.577ZM94.7251 177.115C102.262 177.115 108.722 179.808 114.106 185.192C119.489 190.577 122.181 197.038 122.181 204.577V320.346C122.181 328.064 119.534 334.615 114.24 340C108.947 345.385 102.442 348.077 94.7251 348.077C87.0088 348.077 80.4588 345.385 75.0753 340C69.6918 334.615 67 328.064 67 320.346V204.577C67 197.038 69.6918 190.577 75.0753 185.192C80.4588 179.808 87.0088 177.115 94.7251 177.115ZM380.052 182.231V361.538C380.052 369.795 377.181 376.795 371.438 382.538C365.696 388.282 358.787 391.154 350.712 391.154H330.523V452.269C330.523 459.987 327.832 466.538 322.448 471.923C317.065 477.308 310.515 480 302.798 480C295.082 480 288.532 477.308 283.148 471.923C277.765 466.538 275.073 459.987 275.073 452.269V391.154H237.927V452.269C237.927 459.987 235.235 466.538 229.852 471.923C224.468 477.308 217.918 480 210.202 480C202.665 480 196.205 477.308 190.821 471.923C185.437 466.538 182.746 459.987 182.746 452.269L182.477 391.154H162.558C154.303 391.154 147.304 388.282 141.562 382.538C135.819 376.795 132.948 369.795 132.948 361.538V182.231H380.052ZM317.603 73.1923C336.804 83.0641 352.147 96.8397 363.632 114.519C375.117 132.199 380.859 151.538 380.859 172.538H131.871C131.871 151.538 137.614 132.199 149.099 114.519C160.584 96.8397 176.016 83.0641 195.397 73.1923L176.286 37.9231C175.029 35.5897 175.478 33.7949 177.631 32.5385C179.964 31.4615 181.759 32 183.015 34.1538L202.396 69.6923C219.443 62.1538 237.478 58.3846 256.5 58.3846C275.522 58.3846 293.557 62.1538 310.604 69.6923L329.985 34.1538C331.241 32 333.036 31.4615 335.369 32.5385C337.522 33.7949 337.971 35.5897 336.714 37.9231L317.603 73.1923ZM446 204.577V320.346C446 328.064 443.308 334.615 437.925 340C432.541 345.385 425.991 348.077 418.275 348.077C410.738 348.077 404.278 345.385 398.894 340C393.511 334.615 390.819 328.064 390.819 320.346V204.577C390.819 196.859 393.511 190.353 398.894 185.058C404.278 179.763 410.738 177.115 418.275 177.115C425.991 177.115 432.541 179.763 437.925 185.058C443.308 190.353 446 196.859 446 204.577Z" fill="black"/>
</svg>
