<?xml version="1.0" encoding="utf-8"?>
<svg width="512" height="512" viewBox="0 0 512 512" fill="none" xmlns="http://www.w3.org/2000/svg">
<path d="M81.7094 446.21H153.017V374.69H81.7094V446.21ZM168.851 446.21H248.076V374.69H168.851V446.21ZM81.7094 358.796H153.017V279.335H81.7094V358.796ZM168.851 358.796H248.076V279.335H168.851V358.796ZM81.7094 263.44H153.017V191.921H81.7094V263.44ZM263.938 446.21H343.163V374.69H263.938V446.21ZM168.851 263.44H248.076V191.921H168.851V263.44ZM359.01 446.21H430.318V374.69H359.01V446.21ZM263.938 358.796H343.163V279.335H263.938V358.796ZM176.782 144.25V72.7302C176.782 70.5793 175.996 68.7159 174.425 67.1398C172.854 65.5638 170.996 64.7758 168.851 64.7758H153.003C150.859 64.7758 149.001 65.5638 147.43 67.1398C145.858 68.7159 145.073 70.5793 145.073 72.7302V144.25C145.073 146.401 145.858 148.264 147.43 149.84C149.001 151.416 150.859 152.204 153.003 152.204H168.851C170.996 152.204 172.854 151.416 174.425 149.84C175.996 148.264 176.782 146.401 176.782 144.25ZM359.01 358.796H430.318V279.335H359.01V358.796ZM263.938 263.44H343.163V191.921H263.938V263.44ZM359.01 263.44H430.318V191.921H359.01V263.44ZM366.927 144.25V72.7302C366.927 70.5793 366.142 68.7159 364.57 67.1398C362.999 65.5638 361.141 64.7758 358.997 64.7758H343.149C341.004 64.7758 339.146 65.5638 337.575 67.1398C336.004 68.7159 335.218 70.5793 335.218 72.7302V144.25C335.218 146.401 336.004 148.264 337.575 149.84C339.146 151.416 341.004 152.204 343.149 152.204H358.997C361.141 152.204 362.999 151.416 364.57 149.84C366.142 148.264 366.927 146.401 366.927 144.25ZM462 128.355V446.21C462 454.823 458.862 462.272 452.586 468.558C446.309 474.843 438.882 477.991 430.304 478H81.6955C73.1084 478 65.6814 474.853 59.4144 468.558C53.1474 462.263 50.0092 454.814 50 446.21V128.355C50 119.743 53.1381 112.293 59.4144 106.008C65.6906 99.7222 73.1177 96.5747 81.6955 96.5655H113.391V72.7302C113.391 61.7998 117.269 52.4456 125.024 44.6673C132.779 36.8891 142.106 33 153.003 33H168.851C179.749 33 189.076 36.8891 196.831 44.6673C204.586 52.4456 208.464 61.7998 208.464 72.7302V96.5655H303.536V72.7302C303.536 61.7998 307.414 52.4456 315.169 44.6673C322.924 36.8891 332.251 33 343.149 33H358.997C369.894 33 379.221 36.8891 386.976 44.6673C394.731 52.4456 398.609 61.7998 398.609 72.7302V96.5655H430.304C438.892 96.5655 446.319 99.7129 452.586 106.008C458.853 112.303 461.991 119.752 462 128.355Z" fill="black"/>
</svg>
