<?xml version="1.0" encoding="utf-8"?>
<svg width="512" height="512" viewBox="0 0 512 512" fill="none" xmlns="http://www.w3.org/2000/svg">
<path d="M312.864 468.288L126.576 282.288C119.525 275.237 116 266.619 116 256.432C116 246.245 119.525 237.627 126.576 230.576L312.864 44.576C319.915 37.5253 328.533 34 338.72 34C348.907 34 357.525 37.5253 364.576 44.576L386 66C393.051 73.0507 396.576 81.6693 396.576 91.856C396.576 102.043 393.051 110.661 386 117.712L247.136 256.576L386 395.152C393.051 402.395 396.576 411.061 396.576 421.152C396.576 431.243 393.051 439.813 386 446.864L364.576 468.288C357.525 475.339 348.907 478.864 338.72 478.864C328.533 478.864 319.915 475.339 312.864 468.288Z" fill="black"/>
</svg>
