<?xml version="1.0" encoding="utf-8"?>
<svg width="512" height="512" viewBox="0 0 512 512" fill="none" xmlns="http://www.w3.org/2000/svg">
<path d="M478.152 338.576C478.152 348.667 474.627 357.237 467.576 364.288L446.152 385.712C438.909 392.955 430.243 396.576 420.152 396.576C409.869 396.576 401.299 392.955 394.44 385.712L255.576 247.136L116.712 385.712C109.853 392.955 101.283 396.576 91 396.576C80.7173 396.576 72.1467 392.955 65.288 385.712L43.864 364.288C36.6213 357.429 33 348.859 33 338.576C33 328.485 36.6213 319.819 43.864 312.576L229.864 126.576C236.915 119.525 245.485 116 255.576 116C265.485 116 274.152 119.525 281.576 126.576L467.288 312.576C474.531 319.819 478.152 328.485 478.152 338.576Z" fill="black"/>
</svg>
