<?xml version="1.0" encoding="utf-8"?>
<svg width="512" height="512" viewBox="0 0 512 512" fill="none" xmlns="http://www.w3.org/2000/svg">
<path d="M393.571 37C416.238 37 435.619 45.0476 451.714 61.1429C467.809 77.2381 475.857 96.619 475.857 119.286V393.571C475.857 416.238 467.809 435.619 451.714 451.714C435.619 467.809 416.238 475.857 393.571 475.857H339.857V305.857H396.714L405.286 239.571H339.857V197.286C339.857 186.619 342.095 178.619 346.571 173.286C351.048 167.952 359.762 165.286 372.714 165.286L407.571 165V105.857C395.571 104.143 378.619 103.286 356.714 103.286C330.81 103.286 310.095 110.905 294.571 126.143C279.048 141.381 271.286 162.905 271.286 190.714V239.571H214.143V305.857H271.286V475.857H119.286C96.619 475.857 77.2381 467.809 61.1429 451.714C45.0476 435.619 37 416.238 37 393.571V119.286C37 96.619 45.0476 77.2381 61.1429 61.1429C77.2381 45.0476 96.619 37 119.286 37H393.571Z" fill="black"/>
</svg>
