<?xml version="1.0" encoding="utf-8"?>
<svg width="512" height="512" viewBox="0 0 512 512" fill="none" xmlns="http://www.w3.org/2000/svg">
<path d="M432 32H80C53.5 32 32 53.5 32 80V432C32 458.5 53.5 480 80 480H432C458.5 480 480 458.5 480 432V80C480 53.5 458.5 32 432 32ZM196 356C140.7 356 96 311.3 96 256C96 200.7 140.7 156 196 156C223 156 245.5 165.8 263 182.2L235.9 208.3C228.5 201.2 215.6 192.9 196.1 192.9C162 192.9 134.2 221.1 134.2 256.1C134.2 291 162 319.3 196.1 319.3C235.7 319.3 250.5 290.8 252.9 276.2H196V241.8H290.4C291.4 246.8 292 251.9 292 258.4C292 315.5 253.7 356 196 356V356ZM416 274.2H387V303.2H357.8V274.2H328.8V245H357.8V216H387V245H416V274.2Z" fill="black"/>
</svg>
