<?xml version="1.0" encoding="utf-8"?>
<svg width="512" height="512" viewBox="0 0 512 512" fill="none" xmlns="http://www.w3.org/2000/svg">
<path d="M475.864 383.864V420.44C475.864 425.389 474.056 429.677 470.44 433.304C466.824 436.931 462.536 438.739 457.576 438.728H55.288C50.3387 438.728 46.0507 436.92 42.424 433.304C38.7974 429.688 36.9894 425.4 37 420.44V383.864C37 378.915 38.808 374.627 42.424 371C46.04 367.373 50.328 365.565 55.288 365.576H457.576C462.525 365.576 466.813 367.384 470.44 371C474.067 374.616 475.875 378.904 475.864 383.864ZM475.864 237.576V274.152C475.864 279.101 474.056 283.389 470.44 287.016C466.824 290.643 462.536 292.451 457.576 292.44H55.288C50.3387 292.44 46.0507 290.632 42.424 287.016C38.7974 283.4 36.9894 279.112 37 274.152V237.576C37 232.627 38.808 228.339 42.424 224.712C46.04 221.085 50.328 219.277 55.288 219.288H457.576C462.525 219.288 466.813 221.096 470.44 224.712C474.067 228.328 475.875 232.616 475.864 237.576V237.576ZM475.864 91.288V127.864C475.864 132.813 474.056 137.101 470.44 140.728C466.824 144.355 462.536 146.163 457.576 146.152H55.288C50.3387 146.152 46.0507 144.344 42.424 140.728C38.7974 137.112 36.9894 132.824 37 127.864V91.288C37 86.3387 38.808 82.0507 42.424 78.4241C46.04 74.7974 50.328 72.9894 55.288 73H457.576C462.525 73 466.813 74.8081 470.44 78.4241C474.067 82.0401 475.875 86.328 475.864 91.288Z" fill="black"/>
</svg>
