<?xml version="1.0" encoding="utf-8"?>
<svg xmlns="http://www.w3.org/2000/svg" width="512" height="512" fill="none">
<path fill="#000" d="M329.1 256c0-20.2-7.1-37.4-21.4-51.7a70.5 70.5 0 0 0-51.7-21.4 70.5 70.5 0 0 0-51.7 21.4 70.5 70.5 0 0 0-21.4 51.7c0 20.2 7.1 37.4 21.4 51.7a70.5 70.5 0 0 0 51.7 21.4c20.2 0 37.4-7.1 51.7-21.4a70.5 70.5 0 0 0 21.4-51.7zm39.5 0c0 31.2-11 57.8-32.9 79.7a108.5 108.5 0 0 1-79.7 32.9c-31.2 0-57.8-11-79.7-32.9a108.5 108.5 0 0 1-32.9-79.7c0-31.2 11-57.8 32.9-79.7 21.9-22 48.5-32.9 79.7-32.9 31.2 0 57.8 11 79.7 32.9 22 21.9 32.9 48.5 32.9 79.7zm30.8-117.1c0 7.2-2.5 13.4-7.7 18.5a25.3 25.3 0 0 1-18.6 7.7c-7.2 0-13.4-2.5-18.5-7.7a25.3 25.3 0 0 1-7.7-18.5c0-7.3 2.5-13.5 7.7-18.6a25.3 25.3 0 0 1 18.5-7.7c7.3 0 13.5 2.5 18.6 7.7a25.3 25.3 0 0 1 7.7 18.6zM256 76l-21.9-.1H204c-6.9 0-16 .3-27.6.8-11.5.5-21.3 1.4-29.4 2.9-8 1.4-15 3.2-20.4 5.3a74.1 74.1 0 0 0-41.7 41.7c-2.1 5.5-3.9 12.3-5.3 20.4-1.5 8-2.4 18-2.9 29.4A1058.7 1058.7 0 0 0 76 256l-.1 21.9V308c0 6.9.3 16 .8 27.6.5 11.5 1.4 21.3 2.9 29.4 1.4 8.1 3.2 14.9 5.3 20.4a74.1 74.1 0 0 0 41.7 41.7c5.5 2.1 12.3 3.9 20.4 5.3 8 1.5 18 2.4 29.4 2.9a1058 1058 0 0 0 79.6.7l21.9.1H308c6.9 0 16-.3 27.6-.8 11.5-.5 21.3-1.4 29.4-2.9 8.1-1.4 14.9-3.2 20.4-5.3a74.1 74.1 0 0 0 41.7-41.7c2.1-5.5 3.9-12.3 5.3-20.4 1.5-8.1 2.4-17.9 2.9-29.4a1058 1058 0 0 0 .7-79.6l.1-21.9V204c0-6.9-.3-16-.8-27.6-.5-11.5-1.4-21.3-2.9-29.4-1.4-8-3.2-15-5.3-20.4a74.1 74.1 0 0 0-41.7-41.7c-5.5-2.1-12.3-3.9-20.4-5.3-8.1-1.5-17.9-2.4-29.4-2.9A1058.7 1058.7 0 0 0 256 76zm219.4 180c0 43.6-.4 73.8-1.4 90.6-1.9 39.6-13.7 70.3-35.4 92-21.7 21.7-52.4 33.5-92 35.4-16.8 1-47 1.4-90.6 1.4-43.6 0-73.8-.4-90.6-1.4-39.6-1.9-70.3-13.7-92-35.4-21.7-21.7-33.5-52.4-35.4-92-1-16.8-1.4-47-1.4-90.6 0-43.6.4-73.8 1.4-90.6 1.9-39.6 13.7-70.3 35.4-92 21.7-21.7 52.4-33.5 92-35.4 16.8-1 47-1.4 90.6-1.4 43.6 0 73.8.4 90.6 1.4 39.6 1.9 70.3 13.7 92 35.4 21.7 21.7 33.5 52.4 35.4 92 1 16.8 1.4 47 1.4 90.6z"/>
</svg>