<?xml version="1.0" encoding="utf-8"?>
<svg width="512" height="512" viewBox="0 0 512 512" fill="none" xmlns="http://www.w3.org/2000/svg">
<path d="M104.714 404.429H170.714V206.143H104.714V404.429ZM175 145C174.81 135.095 171.381 126.905 164.714 120.429C158.048 113.952 149.19 110.714 138.143 110.714C127.095 110.714 118.095 113.952 111.143 120.429C104.19 126.905 100.714 135.095 100.714 145C100.714 154.714 104.095 162.857 110.857 169.429C117.619 176 126.429 179.286 137.286 179.286H137.571C148.81 179.286 157.857 176 164.714 169.429C171.571 162.857 175 154.714 175 145ZM342.143 404.429H408.143V290.714C408.143 261.381 401.19 239.19 387.286 224.143C373.381 209.095 355 201.571 332.143 201.571C306.238 201.571 286.333 212.714 272.429 235H273V206.143H207C207.571 218.714 207.571 284.81 207 404.429H273V293.571C273 286.333 273.667 281 275 277.571C277.857 270.905 282.143 265.238 287.857 260.571C293.571 255.905 300.619 253.571 309 253.571C331.095 253.571 342.143 268.524 342.143 298.429V404.429ZM475.857 119.286V393.571C475.857 416.238 467.809 435.619 451.714 451.714C435.619 467.809 416.238 475.857 393.571 475.857H119.286C96.619 475.857 77.2381 467.809 61.1429 451.714C45.0476 435.619 37 416.238 37 393.571V119.286C37 96.619 45.0476 77.2381 61.1429 61.1429C77.2381 45.0476 96.619 37 119.286 37H393.571C416.238 37 435.619 45.0476 451.714 61.1429C467.809 77.2381 475.857 96.619 475.857 119.286Z" fill="black"/>
</svg>
