<?xml version="1.0" encoding="utf-8"?>
<svg focusable="false" width="3288" height="512" viewBox="0 0 3288 512" fill="none" xmlns="http://www.w3.org/2000/svg">
<path d="M186.249 44.422V223.253H162.752L52.2666 72.2273V223.253H32V44.422H55.4969L165.963 194.89V44.422H186.23H186.249ZM320.712 201.658C309.906 217.523 293.793 225.445 272.353 225.445C252.913 225.445 237.069 218.695 224.802 205.177C212.899 191.871 206.958 175.372 206.958 155.739C206.958 136.106 212.899 119.627 224.802 106.321C237.05 92.8025 253.336 86.053 273.699 86.053C294.062 86.053 309.714 94.0524 320.712 110.089V88.1875H340.979V223.253H320.712V201.639V201.658ZM275.064 207.062C289.659 207.062 301.196 202.024 309.637 191.929C317.751 182.391 321.789 170.315 321.789 155.72C321.789 141.125 317.732 129.069 309.637 119.512C301.176 109.436 289.659 104.378 275.064 104.378C260.662 104.378 248.933 109.436 239.954 119.512C231.474 129.049 227.263 141.125 227.263 155.72C227.263 170.315 231.493 182.372 239.954 191.929C248.933 202.024 260.662 207.062 275.064 207.062ZM387.973 223.272V106.032H360.419V88.2067H387.973V39.8455H408.239V88.2067H439.293V106.032H408.239V223.272H387.973ZM479.826 39.0186V65.4971H457.944V39.0186H479.826ZM458.752 88.2067H479.019V223.272H458.752V88.2067ZM570.045 86.0338C590.216 86.0338 606.598 92.7832 619.212 106.301C631.095 119.262 637.036 135.741 637.036 155.72C637.036 175.699 631.095 192.179 619.212 205.158C606.598 218.676 590.235 225.426 570.045 225.426C549.855 225.426 533.473 218.676 520.878 205.158C508.995 192.198 503.054 175.718 503.054 155.72C503.054 135.722 508.995 119.262 520.878 106.301C533.473 92.7832 549.855 86.0338 570.045 86.0338ZM570.045 207.062C584.639 207.062 596.176 202.024 604.637 191.929C612.732 182.391 616.789 170.315 616.789 155.72C616.789 141.125 612.732 129.069 604.637 119.512C596.176 109.436 584.639 104.378 570.045 104.378C555.451 104.378 543.933 109.436 535.453 119.512C527.358 129.049 523.301 141.125 523.301 155.72C523.301 170.315 527.358 182.372 535.453 191.929C543.933 202.024 555.47 207.062 570.045 207.062ZM681.338 88.2067V109.282C686.184 102.802 692.164 97.3021 699.163 92.8025C706.162 88.3029 714.219 86.053 723.217 86.053C732.216 86.053 739.965 87.3029 746.445 89.822C752.925 92.341 758.597 96.1291 763.462 101.167C774.615 112.147 780.21 126.646 780.21 144.683V223.291H759.943V145.221C759.943 132.78 756.425 122.877 749.406 115.493C742.388 108.109 733.293 104.417 722.141 104.417C710.796 104.417 701.143 108.186 693.221 115.781C685.299 123.531 681.338 133.434 681.338 145.49V223.291H661.072V88.2259H681.338V88.2067ZM911.443 201.658C900.637 217.523 884.523 225.445 863.065 225.445C843.644 225.445 827.781 218.695 815.532 205.177C803.649 191.871 797.708 175.372 797.708 155.739C797.708 136.106 803.649 119.627 815.532 106.321C827.761 92.8025 844.067 86.053 864.43 86.053C884.792 86.053 900.444 94.0524 911.424 110.089V88.1875H931.671V223.253H911.424V201.639L911.443 201.658ZM865.776 207.062C880.37 207.062 891.907 202.024 900.367 191.929C908.462 182.391 912.52 170.315 912.52 155.72C912.52 141.125 908.443 129.069 900.367 119.512C891.907 109.436 880.351 104.378 865.776 104.378C851.374 104.378 839.644 109.436 830.665 119.512C822.185 129.049 817.974 141.125 817.974 155.72C817.974 170.315 822.204 182.372 830.665 191.929C839.664 202.024 851.374 207.062 865.776 207.062ZM984.356 223.272H964.09V34.1729H984.356V223.272ZM1096.21 223.272H1075.94V44.4412H1096.21V223.272ZM1153.2 88.2067V109.282C1158.08 102.802 1164.03 97.3021 1171.04 92.8025C1178.06 88.3029 1186.08 86.053 1195.1 86.053C1204.1 86.053 1211.83 87.3029 1218.31 89.822C1224.79 92.341 1230.46 96.1291 1235.34 101.167C1246.51 112.147 1252.07 126.646 1252.07 144.683V223.291H1231.82V145.221C1231.82 132.78 1228.29 122.877 1221.29 115.493C1214.29 108.109 1205.15 104.417 1193.98 104.417C1182.64 104.417 1173 108.186 1165.08 115.781C1157.14 123.531 1153.18 133.434 1153.18 145.49V223.291H1132.91V88.2259H1153.18L1153.2 88.2067ZM1362.54 124.396C1360.75 110.359 1349.44 103.34 1328.66 103.34C1307.87 103.34 1297.45 109.82 1297.45 122.781C1297.45 128.184 1299.66 132.299 1304.05 135.068C1308.47 137.856 1313.99 140.164 1320.68 141.952C1327.33 143.74 1334.6 145.413 1342.42 146.952C1350.25 148.49 1357.5 150.644 1364.17 153.432C1370.84 156.22 1376.36 160.047 1380.79 164.912C1385.21 169.777 1387.4 176.449 1387.4 184.891C1387.4 198.043 1382.46 208.081 1372.56 215.023C1362.65 221.964 1349.25 225.426 1332.29 225.426C1314.26 225.426 1299.95 220.926 1289.34 211.908C1279.61 203.985 1274.4 193.64 1273.66 180.853H1294.74C1295.99 193.294 1303.03 201.658 1315.77 205.985C1320.47 207.427 1325.12 208.139 1329.72 208.139C1334.31 208.139 1338.58 207.869 1342.56 207.331C1346.52 206.793 1350.39 205.812 1354.17 204.351C1362.81 200.928 1367.13 195.063 1367.13 186.794C1367.13 181.218 1364.9 176.949 1360.54 173.949C1356.12 170.969 1350.6 168.546 1343.91 166.661C1337.21 164.777 1329.98 163.046 1322.16 161.527C1314.33 160.008 1307.08 157.893 1300.41 155.162C1293.74 152.432 1288.22 148.778 1283.8 144.087C1279.38 139.395 1277.18 132.914 1277.18 124.646C1277.18 112.397 1281.64 102.898 1290.55 96.1291C1299.45 89.3604 1312.66 85.9954 1330.12 85.9954C1346.69 85.9954 1359.73 89.9758 1369.31 97.8982C1377.21 104.571 1381.82 113.397 1383.07 124.357H1362.54V124.396ZM1425.22 223.272V106.032H1397.67V88.2067H1425.22V39.8455H1445.49V88.2067H1476.54V106.032H1445.49V223.272H1425.22ZM1517.06 39.0186V65.4971H1495.16V39.0186H1517.06ZM1496 88.2067H1516.27V223.272H1496V88.2067ZM1563.26 223.272V106.032H1535.69V88.2067H1563.26V39.8455H1583.51V88.2067H1614.56V106.032H1583.51V223.272H1563.26ZM1731.55 223.272V202.197C1726.68 208.658 1720.74 214.177 1713.7 218.676C1706.67 223.176 1698.67 225.426 1689.65 225.426C1680.63 225.426 1672.9 224.176 1666.42 221.657C1659.94 219.138 1654.27 215.369 1649.4 210.312C1638.25 199.332 1632.68 184.833 1632.68 166.796V88.1875H1652.92V166.258C1652.92 178.699 1656.46 188.602 1663.48 195.986C1670.5 203.37 1679.59 207.062 1690.74 207.062C1702.11 207.062 1711.74 203.293 1719.68 195.717C1727.59 187.967 1731.59 178.045 1731.59 165.988V88.1875H1751.85V223.253H1731.59L1731.55 223.272ZM1798.83 223.272V106.032H1771.25V88.2067H1798.83V39.8455H1819.07V88.2067H1850.13V106.032H1819.07V223.272H1798.83ZM1927.12 207.062C1945.33 207.062 1958.36 199.505 1966.29 184.372H1988.44C1983.75 196.62 1976.32 206.523 1966.15 214.1C1955.98 221.676 1942.87 225.445 1926.85 225.445C1906.51 225.445 1889.93 218.695 1877.16 205.177C1864.72 192.025 1858.49 175.565 1858.49 155.739C1858.49 135.741 1864.45 119.281 1876.36 106.321C1888.95 92.8025 1905.33 86.053 1925.52 86.053C1945.71 86.053 1962.09 92.8025 1974.71 106.321C1986.61 119.281 1992.53 135.76 1992.53 155.739V163.835H1879.34C1880.76 176.276 1885.74 186.525 1894.18 194.64C1902.83 202.947 1913.81 207.081 1927.14 207.081L1927.12 207.062ZM1925.5 104.417C1913.08 104.417 1902.62 108.282 1894.16 116.031C1886.26 123.434 1881.37 133.049 1879.57 144.933H1971.4C1969.61 133.03 1964.73 123.434 1956.81 116.031C1948.38 108.282 1937.9 104.417 1925.48 104.417H1925.5ZM2127.55 51.1714C2118.02 51.1714 2110.86 53.2866 2106.08 57.5363C2101.29 61.7859 2098.92 68.5738 2098.92 77.9191V88.1875H2130.26V106.032H2098.92V223.272H2078.66V106.032H2055.43V88.2067H2078.66V76.3231C2078.66 61.5552 2083.06 50.46 2091.9 43.076C2100.71 35.692 2112.96 32 2128.63 32H2130.26V51.1907H2127.53L2127.55 51.1714ZM2205.64 86.0338C2225.81 86.0338 2242.19 92.7832 2254.81 106.301C2266.71 119.262 2272.63 135.741 2272.63 155.72C2272.63 175.699 2266.71 192.179 2254.81 205.158C2242.21 218.676 2225.83 225.426 2205.64 225.426C2185.45 225.426 2169.07 218.676 2156.45 205.158C2144.57 192.198 2138.61 175.718 2138.61 155.72C2138.61 135.722 2144.57 119.262 2156.45 106.301C2169.07 92.7832 2185.45 86.0338 2205.64 86.0338ZM2205.64 207.062C2220.23 207.062 2231.75 202.024 2240.21 191.929C2248.31 182.391 2252.36 170.315 2252.36 155.72C2252.36 141.125 2248.29 129.069 2240.21 119.512C2231.73 109.436 2220.21 104.378 2205.64 104.378C2191.06 104.378 2179.53 109.436 2171.05 119.512C2162.95 129.049 2158.9 141.125 2158.9 155.72C2158.9 170.315 2162.95 182.372 2171.05 191.929C2179.53 202.024 2191.04 207.062 2205.64 207.062ZM2367.98 86.0338V106.301H2365.54C2350.95 106.301 2339.06 112.147 2329.87 123.857C2321.24 135.03 2316.91 148.355 2316.91 163.835V223.272H2296.65V88.1875H2316.91V121.415C2321.22 107.34 2330.58 97.0136 2345.01 90.3411C2350.93 87.4568 2358.14 86.0146 2366.6 86.0146H2367.94V86.0338H2367.98ZM176.539 298.996V477.827H156.272V398.142H52.2474V477.827H32V298.996H52.2474V378.413H156.272V298.996H176.539ZM271.084 461.617C289.274 461.617 302.33 454.06 310.252 438.927H332.403C327.711 451.175 320.289 461.059 310.118 468.636C299.946 476.212 286.832 480 270.815 480C250.471 480 233.897 473.231 221.11 459.732C208.688 446.58 202.478 430.12 202.478 410.314C202.478 390.296 208.4 373.855 220.302 360.856C232.897 347.358 249.279 340.589 269.45 340.589C289.62 340.589 306.022 347.358 318.636 360.856C330.538 373.836 336.46 390.315 336.46 410.314V418.409H223.263C224.686 430.831 229.647 441.099 238.127 449.214C246.76 457.521 257.74 461.636 271.084 461.636V461.617ZM269.45 358.953C257.028 358.953 246.587 362.818 238.127 370.567C230.205 377.97 225.34 387.604 223.513 399.488H315.367C313.579 387.604 308.695 377.989 300.773 370.567C292.312 362.798 281.871 358.953 269.431 358.953H269.45ZM463.944 456.233C453.137 472.097 437.024 480 415.584 480C396.145 480 380.281 473.231 368.033 459.732C356.131 446.407 350.208 429.927 350.208 410.314C350.208 390.7 356.131 374.182 368.033 360.856C380.281 347.358 396.568 340.589 416.93 340.589C437.293 340.589 452.945 348.627 463.944 364.664V342.762H484.21V477.846H463.944V456.214V456.233ZM418.296 461.617C432.89 461.617 444.408 456.56 452.887 446.484C460.982 436.946 465.04 424.889 465.04 410.294C465.04 395.68 460.982 383.643 452.887 374.067C444.408 363.991 432.89 358.933 418.296 358.933C403.894 358.933 392.184 363.991 383.185 374.067C374.705 383.643 370.494 395.661 370.494 410.294C370.494 424.889 374.724 436.946 383.185 446.484C392.184 456.56 403.874 461.617 418.296 461.617ZM536.876 477.827H516.61V288.728H536.876V477.827ZM583.909 477.827V360.587H556.355V342.743H583.909V294.42H604.175V342.762H635.248V360.606H604.175V477.846L583.909 477.827ZM674.916 288.728V363.856C679.762 357.376 685.722 351.857 692.741 347.358C699.759 342.858 707.777 340.589 716.795 340.589C725.794 340.589 733.543 341.858 740.023 344.377C746.503 346.896 752.175 350.703 757.04 355.741C768.212 366.721 773.788 381.239 773.788 399.238V477.846H753.521V399.795C753.521 387.354 750.022 377.451 742.984 370.067C735.966 362.702 726.871 358.991 715.699 358.991C704.355 358.991 694.721 362.779 686.799 370.336C678.877 378.105 674.916 387.989 674.916 400.045V477.846H654.649V288.747H674.916V288.728ZM965.051 456.233C954.226 472.097 938.132 480 916.692 480C897.252 480 881.389 473.231 869.16 459.732C857.258 446.407 851.316 429.927 851.316 410.314C851.316 390.7 857.238 374.182 869.16 360.856C881.389 347.358 897.675 340.589 918.038 340.589C938.401 340.589 954.053 348.627 965.032 364.664V342.762H985.299V477.846H965.032V456.214L965.051 456.233ZM919.384 461.617C933.978 461.617 945.496 456.56 953.957 446.484C962.071 436.946 966.128 424.889 966.128 410.294C966.128 395.68 962.071 383.643 953.957 374.067C945.477 363.991 933.959 358.933 919.384 358.933C904.982 358.933 893.272 363.991 884.293 374.067C875.794 383.643 871.602 395.661 871.602 410.294C871.602 424.889 875.813 436.946 884.293 446.484C893.291 456.56 905.001 461.617 919.384 461.617ZM1032.79 342.762V363.856C1037.64 357.376 1043.58 351.857 1050.62 347.358C1057.62 342.858 1065.67 340.589 1074.67 340.589C1083.67 340.589 1091.4 341.858 1097.9 344.377C1104.38 346.896 1110.05 350.703 1114.92 355.741C1126.09 366.721 1131.66 381.239 1131.66 399.238V477.846H1111.4V399.795C1111.4 387.354 1107.88 377.451 1100.86 370.067C1093.84 362.702 1084.75 358.991 1073.58 358.991C1062.23 358.991 1052.58 362.779 1044.66 370.336C1036.73 378.105 1032.77 387.989 1032.77 400.045V477.846H1012.51V342.762L1032.79 342.781V342.762ZM1262.88 456.233C1252.07 472.097 1235.96 480 1214.52 480C1195.08 480 1179.23 473.231 1166.97 459.732C1155.08 446.407 1149.12 429.927 1149.12 410.314C1149.12 390.7 1155.08 374.182 1166.97 360.856C1179.22 347.358 1195.5 340.589 1215.86 340.589C1236.23 340.589 1251.88 348.627 1262.88 364.664V288.747H1283.13V477.846H1262.88V456.214V456.233ZM1217.23 461.617C1231.84 461.617 1243.36 456.56 1251.8 446.484C1259.9 436.946 1263.95 424.889 1263.95 410.294C1263.95 395.68 1259.9 383.643 1251.8 374.067C1243.34 363.991 1231.82 358.933 1217.23 358.933C1202.83 358.933 1191.1 363.991 1182.12 374.067C1173.66 383.643 1169.43 395.661 1169.43 410.294C1169.43 424.889 1173.68 436.946 1182.12 446.484C1191.1 456.56 1202.83 461.617 1217.23 461.617ZM1459.58 460.271C1472.37 460.271 1483.58 457.021 1493.23 450.541C1502.85 444.061 1510 435.311 1514.69 424.332H1536.05C1530.13 441.273 1520.29 454.598 1506.6 464.309C1492 474.75 1474.81 479.981 1455.01 479.981C1428.89 479.981 1407.74 471.039 1391.53 453.233C1376.21 436.1 1368.58 414.486 1368.58 388.392C1368.58 362.299 1376.23 340.647 1391.53 323.552C1407.74 305.707 1428.89 296.804 1455.01 296.804C1474.83 296.804 1492.02 302.034 1506.6 312.476C1520.29 322.206 1530.11 335.512 1536.05 352.453H1514.69C1510 341.473 1502.85 332.724 1493.23 326.244C1483.58 319.764 1472.39 316.514 1459.58 316.514C1446.78 316.514 1436.16 318.36 1427.72 322.071C1419.24 325.744 1412.13 330.84 1406.36 337.339C1394.65 350.492 1388.8 367.51 1388.8 388.392C1388.8 409.275 1394.63 426.293 1406.36 439.446C1418.61 453.368 1436.36 460.29 1459.58 460.29V460.271ZM1664.63 456.233C1653.83 472.097 1637.73 480 1616.27 480C1596.83 480 1580.99 473.231 1568.72 459.732C1556.82 446.407 1550.9 429.927 1550.9 410.314C1550.9 390.7 1556.82 374.182 1568.72 360.856C1580.97 347.358 1597.28 340.589 1617.6 340.589C1637.96 340.589 1653.62 348.627 1664.61 364.664V342.762H1684.86V477.846H1664.61V456.214L1664.63 456.233ZM1618.99 461.617C1633.58 461.617 1645.1 456.56 1653.56 446.484C1661.65 436.946 1665.69 424.889 1665.69 410.294C1665.69 395.68 1661.63 383.643 1653.56 374.067C1645.08 363.991 1633.56 358.933 1618.99 358.933C1604.56 358.933 1592.85 363.991 1583.85 374.067C1575.39 383.643 1571.16 395.661 1571.16 410.294C1571.16 424.889 1575.41 436.946 1583.85 446.484C1592.83 456.56 1604.56 461.617 1618.99 461.617ZM1788.62 340.589V360.856H1786.19C1771.6 360.856 1759.72 366.721 1750.54 378.432C1741.91 389.604 1737.57 402.91 1737.57 418.409V477.827H1717.3V342.743H1737.57V375.99C1741.91 361.914 1751.26 351.588 1765.68 344.915C1771.62 342.031 1778.85 340.57 1787.29 340.57H1788.64V340.589H1788.62ZM1864.53 461.617C1882.72 461.617 1895.78 454.06 1903.7 438.927H1925.85C1921.16 451.175 1913.73 461.059 1903.56 468.636C1893.39 476.212 1880.28 480 1864.26 480C1843.92 480 1827.36 473.231 1814.56 459.732C1802.12 446.58 1795.9 430.12 1795.9 410.314C1795.9 390.296 1801.85 373.855 1813.77 360.856C1826.36 347.358 1842.74 340.589 1862.91 340.589C1883.09 340.589 1899.49 347.358 1912.1 360.856C1924 373.836 1929.94 390.315 1929.94 410.314V418.409H1816.75C1818.19 430.831 1823.13 441.099 1831.59 449.214C1840.24 457.521 1851.22 461.636 1864.57 461.636L1864.53 461.617ZM1862.9 358.953C1850.47 358.953 1840.03 362.818 1831.55 370.567C1823.65 377.97 1818.79 387.604 1816.96 399.488H1908.81C1907.02 387.604 1902.14 377.989 1894.2 370.567C1885.78 362.798 1875.34 358.953 1862.88 358.953H1862.9ZM2031.47 318.418V378.413H2130.88V398.142H2031.47V458.406H2142.78V477.827H2011.22V298.996H2142.78V318.418H2031.47ZM2227.6 408.141L2280 477.846H2254.06L2215.98 422.736L2177.62 477.846H2151.97L2204.08 408.141L2155.2 342.762H2181.14L2215.98 393.815L2250.56 342.762H2276.48L2227.6 408.141ZM2352.39 461.617C2361.02 461.617 2368.7 459.194 2375.35 454.348C2382 449.464 2386.87 443.176 2389.96 435.427H2411.84C2407.69 448.753 2400.11 459.463 2389.13 467.559C2377.62 475.866 2363.93 480 2348.06 480C2328.24 480 2312.14 473.231 2299.72 459.732C2287.67 446.58 2281.63 430.12 2281.63 410.314C2281.63 390.508 2287.67 374.028 2299.72 360.856C2312.16 347.358 2328.26 340.589 2348.06 340.589C2363.93 340.589 2377.62 344.742 2389.13 353.03C2400.11 361.126 2407.69 371.855 2411.84 385.162H2389.96C2386.88 377.432 2382.02 371.125 2375.35 366.279C2368.68 361.433 2361.04 358.972 2352.39 358.972C2343.76 358.972 2336.39 360.318 2330.37 363.029C2324.35 365.741 2319.24 369.452 2315.11 374.105C2306.26 383.835 2301.86 395.892 2301.86 410.333C2301.86 424.735 2306.26 436.811 2315.11 446.522C2324.12 456.54 2336.55 461.578 2352.39 461.578V461.617ZM2494.47 461.617C2512.68 461.617 2525.71 454.06 2533.63 438.927H2555.77C2551.09 451.175 2543.67 461.059 2533.5 468.636C2523.33 476.212 2510.23 480 2494.2 480C2473.85 480 2457.3 473.231 2444.51 459.732C2432.07 446.58 2425.86 430.12 2425.86 410.314C2425.86 390.296 2431.8 373.855 2443.69 360.856C2456.28 347.358 2472.68 340.589 2492.85 340.589C2513.02 340.589 2529.4 347.358 2542.04 360.856C2553.92 373.836 2559.86 390.315 2559.86 410.314V418.409H2446.67C2448.09 430.831 2453.05 441.099 2461.51 449.214C2470.14 457.521 2481.14 461.636 2494.47 461.636V461.617ZM2492.85 358.953C2480.43 358.953 2469.97 362.818 2461.51 370.567C2453.59 377.97 2448.72 387.604 2446.92 399.488H2538.75C2536.96 387.604 2532.08 377.989 2524.16 370.567C2515.71 362.798 2505.25 358.953 2492.83 358.953H2492.85ZM2602.24 477.827H2581.99V288.728H2602.24V477.827ZM2654.95 477.827H2634.68V288.728H2654.95V477.827ZM2747.61 461.617C2765.78 461.617 2778.85 454.06 2786.76 438.927H2808.89C2804.21 451.175 2796.79 461.059 2786.62 468.636C2776.45 476.212 2763.32 480 2747.32 480C2726.96 480 2710.4 473.231 2697.61 459.732C2685.17 446.58 2678.96 430.12 2678.96 410.314C2678.96 390.296 2684.9 373.855 2696.81 360.856C2709.4 347.358 2725.8 340.589 2745.99 340.589C2766.18 340.589 2782.54 347.358 2795.14 360.856C2807.04 373.836 2812.98 390.315 2812.98 410.314V418.409H2699.81C2701.25 430.831 2706.19 441.099 2714.65 449.214C2723.3 457.521 2734.28 461.636 2747.63 461.636L2747.61 461.617ZM2745.97 358.953C2733.51 358.953 2723.09 362.818 2714.61 370.567C2706.71 377.97 2701.84 387.604 2700.04 399.488H2791.87C2790.08 387.604 2785.2 377.989 2777.28 370.567C2768.82 362.798 2758.37 358.953 2745.95 358.953H2745.97ZM2855.38 342.762V363.856C2860.23 357.376 2866.17 351.857 2873.19 347.358C2880.21 342.858 2888.24 340.589 2897.26 340.589C2906.26 340.589 2914.01 341.858 2920.49 344.377C2926.97 346.896 2932.64 350.703 2937.51 355.741C2948.68 366.721 2954.25 381.239 2954.25 399.238V477.846H2933.99V399.795C2933.99 387.354 2930.47 377.451 2923.45 370.067C2916.43 362.702 2907.34 358.991 2896.16 358.991C2884.82 358.991 2875.19 362.779 2867.25 370.336C2859.32 378.105 2855.36 387.989 2855.36 400.045V477.846H2835.1V342.762L2855.38 342.781V342.762ZM3047.7 461.617C3056.34 461.617 3064.01 459.194 3070.66 454.348C3077.31 449.464 3082.18 443.176 3085.27 435.427H3107.16C3102.98 448.753 3095.45 459.463 3084.45 467.559C3072.93 475.866 3059.24 480 3043.4 480C3023.59 480 3007.46 473.231 2995.04 459.732C2982.98 446.58 2976.94 430.12 2976.94 410.314C2976.94 390.508 2982.98 374.028 2995.04 360.856C3007.48 347.358 3023.59 340.589 3043.4 340.589C3059.24 340.589 3072.93 344.742 3084.45 353.03C3095.45 361.126 3102.98 371.855 3107.16 385.162H3085.27C3082.2 377.432 3077.33 371.125 3070.66 366.279C3063.99 361.433 3056.36 358.972 3047.7 358.972C3039.07 358.972 3031.7 360.318 3025.69 363.029C3019.67 365.741 3014.55 369.452 3010.42 374.105C3001.57 383.835 2997.17 395.892 2997.17 410.333C2997.17 424.735 3001.57 436.811 3010.42 446.522C3019.42 456.54 3031.84 461.578 3047.7 461.578V461.617ZM3189.8 461.617C3207.99 461.617 3221.05 454.06 3228.95 438.927H3251.12C3246.43 451.175 3238.99 461.059 3228.81 468.636C3218.64 476.212 3205.55 480 3189.51 480C3169.19 480 3152.59 473.231 3139.83 459.732C3127.37 446.58 3121.17 430.12 3121.17 410.314C3121.17 390.296 3127.12 373.855 3139.02 360.856C3151.61 347.358 3167.99 340.589 3188.18 340.589C3208.37 340.589 3224.74 347.358 3237.37 360.856C3249.25 373.836 3255.19 390.315 3255.19 410.314V418.409H3142C3143.44 430.831 3148.4 441.099 3156.84 449.214C3165.49 457.521 3176.47 461.636 3189.82 461.636L3189.8 461.617ZM3188.18 358.953C3175.74 358.953 3165.3 362.818 3156.84 370.567C3148.94 377.97 3144.05 387.604 3142.25 399.488H3234.08C3232.29 387.604 3227.43 377.989 3219.49 370.567C3211.05 362.798 3200.57 358.953 3188.16 358.953H3188.18Z" fill="black"/>
</svg>
