<?xml version="1.0" encoding="utf-8"?>
<svg width="4616" height="512" fill="none" xmlns="http://www.w3.org/2000/svg">
<path d="M1626 44v175h-22L1497 71v148h-19V44h22l107 147V44h19zm130 154a52 52 0 0 1-47 23c-18 0-34-7-45-20a70 70 0 0 1-18-48c0-19 6-35 18-48 11-14 27-20 47-20 19 0 34 8 45 23V87h20v132h-20v-21zm-44 5c14 0 25-5 33-15 8-9 12-21 12-35s-4-26-12-35c-8-10-19-15-33-15s-25 5-34 15c-8 9-12 21-12 35s4 26 12 35c9 10 20 15 34 15zm109 16V104h-27V87h27V40h19v47h30v17h-30v115h-19zm88-180v26h-21V39h21zm-20 48h20v132h-20V87zm107-2c20 0 35 6 48 20 11 12 17 28 17 48 0 19-6 36-17 48a61 61 0 0 1-48 20c-19 0-35-7-47-20a69 69 0 0 1-17-48c0-20 5-36 17-48 12-14 28-20 47-20zm0 118c14 0 25-5 34-15 7-9 11-21 11-35s-4-26-11-35c-9-10-20-15-34-15s-25 5-33 15c-8 9-12 21-12 35s4 26 12 35c8 10 19 15 33 15zm107-116v21c5-7 11-12 18-17 6-4 14-6 23-6 8 0 16 1 22 4 6 2 12 6 17 11 10 10 16 24 16 42v77h-20v-76c0-13-3-22-10-29-7-8-16-11-26-11a38 38 0 0 0-40 40v76h-19V87h19zm222 111a52 52 0 0 1-46 23c-19 0-34-7-46-20a71 71 0 0 1-17-48c0-19 5-35 17-48 12-14 27-20 47-20 19 0 35 8 45 23V87h20v132h-20v-21zm-44 5c14 0 25-5 33-15 8-9 12-21 12-35s-4-26-12-35c-8-10-19-15-33-15s-25 5-34 15c-8 9-12 21-12 35s4 26 12 35c9 10 20 15 34 15zm114 16h-19V34h19v185zm108 0h-19V44h19v175zm55-132v21c5-7 10-12 17-17 7-4 15-6 23-6 9 0 17 1 23 4 6 2 12 6 16 11 11 10 16 24 16 42v77h-19v-76c0-13-4-22-10-29-7-8-16-11-27-11a38 38 0 0 0-39 40v76h-19V87h19zm202 35c-2-13-13-20-33-20s-30 6-30 19c0 5 2 9 6 12 5 2 10 5 16 6l21 5 21 7c7 2 12 6 16 11 5 5 7 11 7 19 0 13-5 23-15 30-9 7-22 10-38 10-18 0-32-4-42-13-9-8-14-18-15-31h20c2 13 8 21 21 25l13 2 13-1 11-3c8-3 12-9 12-17 0-5-2-9-6-12s-10-6-16-7l-21-5-21-7c-7-2-12-6-16-10-4-5-6-11-6-19 0-12 4-22 12-28 9-7 22-10 39-10 15 0 28 4 37 11 8 7 12 16 14 26h-20zm60 97V104h-26V87h26V40h20v47h30v17h-30v115h-20zm89-180v26h-21V39h21zm-21 48h20v132h-20V87zm65 132V104h-26V87h26V40h20v47h30v17h-30v115h-20zm162 0v-21c-4 7-10 12-17 16-7 5-14 7-23 7s-16-1-22-4c-7-2-12-6-17-11a57 57 0 0 1-16-42V87h20v76c0 12 3 22 10 29 6 7 15 11 26 11a39 39 0 0 0 39-40V87h20v132h-20zm65 0V104h-26V87h26V40h20v47h30v17h-30v115h-20zm124-16c17 0 30-7 37-22h22c-5 12-12 22-22 29-9 7-22 11-38 11-19 0-35-7-47-20a68 68 0 0 1-18-48c0-20 5-36 17-48 12-14 28-20 47-20 20 0 35 6 48 20 11 12 17 28 17 48v8h-109c1 12 6 22 14 30s19 12 32 12zm-2-100c-12 0-22 4-30 11s-12 17-14 28h88c-1-11-6-21-14-28s-18-11-30-11zm195-52c-9 0-16 2-21 6-4 4-7 11-7 20v10h30v17h-30v115h-19V104h-23V87h23V75c0-14 4-25 12-32 9-7 21-11 36-11h1v19h-2zm75 34c19 0 35 6 47 20 12 12 18 28 18 48 0 19-6 36-18 48a61 61 0 0 1-47 20c-19 0-35-7-47-20a69 69 0 0 1-18-48c0-20 6-36 18-48 12-14 28-20 47-20zm0 118c14 0 25-5 33-15 8-9 12-21 12-35s-4-26-12-35c-8-10-19-15-33-15s-25 5-33 15c-8 9-12 21-12 35s4 26 12 35c8 10 19 15 33 15zm156-118v20h-2c-14 0-25 5-34 17-9 11-13 24-13 39v58h-19V87h19v32c4-13 13-23 27-30 6-3 13-4 21-4h1zM1617 293v175h-19v-78h-101v78h-19V293h19v78h101v-78h19zm91 159c18 0 30-8 38-22h21c-4 12-11 21-21 29-10 7-23 11-38 11-20 0-36-7-48-20a68 68 0 0 1-18-48c0-20 6-36 17-49 12-13 28-19 48-19 19 0 35 6 47 19 11 13 17 29 17 49v8h-109c1 12 6 22 14 30 9 8 19 12 32 12zm-1-100c-12 0-22 3-31 11-7 7-12 17-14 28h89c-2-11-7-21-14-28-8-8-18-11-30-11zm187 95a52 52 0 0 1-47 23c-18 0-34-7-45-20a70 70 0 0 1-18-48c0-19 6-36 18-49 11-13 27-19 47-19 19 0 34 7 45 23v-21h20v132h-20v-21zm-44 5c14 0 25-5 33-15 8-9 12-21 12-35 0-15-4-26-12-36s-19-14-33-14-25 4-34 14c-8 10-12 21-12 36 0 14 4 26 12 35 9 10 20 15 34 15zm114 16h-19V283h19v185zm46 0V353h-27v-17h27v-48h19v48h30v17h-30v115h-19zm87-185v73l17-16c7-4 15-6 24-6 8 0 16 1 22 3a58 58 0 0 1 33 54v77h-20v-77c0-12-3-21-10-29-7-7-16-10-26-10a39 39 0 0 0-40 40v76h-19V283h19zm280 164a52 52 0 0 1-47 23c-19 0-34-7-46-20a70 70 0 0 1-17-48c0-19 6-36 17-49 12-13 28-19 47-19 20 0 35 7 46 23v-21h19v132h-19v-21zm-44 5c14 0 25-5 33-15 8-9 12-21 12-35 0-15-4-26-12-36s-19-14-33-14-25 4-34 14c-8 10-12 21-12 36 0 14 4 26 12 35 9 10 20 15 34 15zm109-116v20c5-6 10-11 17-16 7-4 15-6 23-6 9 0 17 1 23 3 6 3 11 6 16 11 11 11 16 25 16 43v77h-19v-77c0-12-4-21-10-29-7-7-16-10-27-10a39 39 0 0 0-39 40v76h-19V336h19zm222 111a52 52 0 0 1-47 23c-19 0-34-7-46-20a71 71 0 0 1-17-48c0-19 6-36 17-49 12-13 28-19 47-19 20 0 35 7 46 23v-74h19v185h-19v-21zm-44 5c14 0 25-5 33-15 8-9 12-21 12-35 0-15-4-26-12-36s-19-14-33-14-25 4-34 14c-8 10-12 21-12 36 0 14 4 26 12 35 9 10 20 15 34 15zm233-1a56 56 0 0 0 53-36h21c-6 17-15 30-28 39a82 82 0 0 1-50 16c-25 0-46-9-61-26a92 92 0 0 1-22-64c0-25 7-46 22-63 15-18 36-26 61-26a78 78 0 0 1 78 54h-21c-4-11-11-19-20-25-10-7-20-10-33-10-12 0-22 2-30 5-9 4-15 9-21 15a73 73 0 0 0-17 50c0 21 6 37 17 50 12 14 29 21 51 21zm198-4a52 52 0 0 1-47 23c-19 0-34-7-46-20a70 70 0 0 1-17-48c0-19 6-36 17-49 12-13 28-19 48-19 19 0 34 7 45 23v-21h19v132h-19v-21zm-44 5c14 0 25-5 33-15 8-9 12-21 12-35 0-15-4-26-12-36s-19-14-33-14-25 4-34 14c-8 10-12 21-12 36 0 14 4 26 12 35 9 10 20 15 34 15zm163-118v19h-2c-14 0-26 6-34 18-9 10-13 23-13 39v58h-19V336h19v32c4-14 13-24 27-30 6-3 13-4 21-4h1zm73 118c18 0 31-8 38-22h21c-4 12-11 21-21 29-10 7-22 11-38 11-19 0-35-7-48-20a68 68 0 0 1-18-48c0-20 6-36 18-49s27-19 47-19c19 0 35 6 47 19s17 29 17 49v8h-109c2 12 7 22 15 30s19 12 31 12zm-1-100c-12 0-22 3-30 11-8 7-13 17-14 28h88c-2-11-6-21-14-28-8-8-18-11-30-11zm162-40v59h96v19h-96v59h108v19h-127V293h127v19h-108zm189 88l51 68h-25l-37-54-37 54h-25l51-68-48-64h25l34 50 33-50h25l-47 64zm120 52c9 0 16-3 23-7 6-5 11-11 14-19h21c-4 13-12 24-22 32-11 8-24 12-40 12-19 0-34-7-46-20a69 69 0 0 1-18-48c0-20 6-36 18-49s27-19 46-19a60 60 0 0 1 61 44h-20c-3-8-8-15-14-19-7-5-14-7-23-7-8 0-15 1-21 4-6 2-10 6-14 10-9 10-13 22-13 36s4 26 13 35c8 10 20 15 35 15zm137 0c18 0 30-8 38-22h21c-4 12-11 21-21 29-10 7-22 11-38 11-20 0-35-7-48-20a68 68 0 0 1-18-48c0-20 6-36 17-49 13-13 28-19 48-19 19 0 35 6 47 19s17 29 17 49v8h-109c2 12 6 22 15 30 8 8 19 12 31 12zm-1-100c-12 0-22 3-30 11-8 7-13 17-14 28h88c-2-11-6-21-14-28-8-8-18-11-30-11zm105 116h-19V283h19v185zm51 0h-20V283h20v185zm89-16c18 0 30-8 38-22h21c-4 12-11 21-21 29-10 7-23 11-38 11-20 0-36-7-48-20a68 68 0 0 1-18-48c0-20 6-36 17-49 12-13 28-19 48-19 19 0 35 6 47 19 11 13 17 29 17 49v8h-109c2 12 6 22 14 30 9 8 19 12 32 12zm-1-100c-12 0-22 3-31 11-7 7-12 17-14 28h89c-2-11-7-21-14-28-8-8-18-11-30-11zm105-16v20c5-6 10-11 17-16 7-4 15-6 23-6 9 0 17 1 23 3 6 3 12 6 16 11 11 11 16 25 16 43v77h-19v-77c0-12-4-21-10-29-7-7-16-10-27-10s-20 3-28 11c-7 7-11 17-11 29v76h-19V336h19zm185 116a40 40 0 0 0 37-26h21c-4 13-12 24-22 32-11 8-25 12-40 12-19 0-34-7-46-20a69 69 0 0 1-18-48c0-20 6-36 18-49s27-19 46-19c15 0 29 4 40 12 10 8 18 18 22 31h-21c-3-7-8-14-15-18-6-5-13-7-22-7-8 0-15 1-21 4-6 2-11 6-15 10-8 10-12 22-12 36s4 26 12 35c9 10 21 15 36 15zm137 0c18 0 30-8 38-22h21c-4 12-11 21-21 29-10 7-23 11-38 11-20 0-36-7-48-20a68 68 0 0 1-18-48c0-20 6-36 17-49 12-13 28-19 48-19 19 0 35 6 47 19s17 29 17 49v8h-109c2 12 6 22 15 30 8 8 18 12 31 12zm-1-100c-12 0-22 3-30 11-8 7-13 17-15 28h89c-2-11-6-21-14-28-8-8-18-11-30-11zM412 454c0 16-7 19-18 19h-53c-11 0-20-4-27-13L130 213h-2v242c0 13-6 18-18 18H52c-14 0-20-3-20-18V62c0-16 7-19 20-19h52c13 0 19 3 26 13l184 248h1V61c0-14 7-18 19-18h60c16 0 17 8 17 19v392h1zm197 4c0 7-5 14-14 14h-71c-9 0-14-7-14-14V56c0-8 5-15 14-15h71c9 0 14 7 14 14v403zm415-380l-18 52c-2 6-5 9-9 9l-8-2c-33-16-58-21-87-21-65 0-106 49-106 140 0 98 47 140 107 140 29 0 55-5 84-17l9-3c6 0 9 3 11 10l16 46 2 10c0 6-3 11-12 14-42 16-77 24-125 24-131 0-197-87-197-221S772 32 896 32c45 0 82 9 118 25 9 4 12 8 12 12l-2 9zm336-37c13 0 17 6 16 15l-6 50c-1 13-9 15-24 15h-149v93h140c14 0 19 7 19 17v45c0 12-7 18-18 18h-141v98h161c11 0 18 5 18 17v46c0 11-6 17-17 17h-240c-14 0-21-4-21-19V59c0-11 6-18 16-18h246z" fill="#000"/>
</svg>
