<?xml version="1.0" encoding="utf-8"?>
<svg width="4616" height="512" viewBox="0 0 4616 512" fill="none" xmlns="http://www.w3.org/2000/svg">
<path d="M1626.43 44.1397V218.906H1603.79L1497.34 71.3131V218.906H1477.82V44.1397H1500.46L1606.89 191.188V44.1397H1626.41H1626.43ZM1755.98 197.803C1745.57 213.306 1730.05 221.048 1709.39 221.048C1690.66 221.048 1675.4 214.452 1663.58 201.242C1652.11 188.237 1646.39 172.114 1646.39 152.927C1646.39 133.74 1652.11 117.636 1663.58 104.631C1675.38 91.4206 1691.07 84.8246 1710.69 84.8246C1730.31 84.8246 1745.39 92.6421 1755.98 108.315V86.9105H1775.51V218.906H1755.98V197.784V197.803ZM1712 203.083C1726.07 203.083 1737.18 198.16 1745.31 188.294C1753.13 178.973 1757.02 167.172 1757.02 152.908C1757.02 138.645 1753.11 126.862 1745.31 117.523C1737.16 107.676 1726.07 102.733 1712 102.733C1698.13 102.733 1686.83 107.676 1678.18 117.523C1670.01 126.844 1665.95 138.645 1665.95 152.908C1665.95 167.172 1670.02 178.954 1678.18 188.294C1686.83 198.16 1698.13 203.083 1712 203.083ZM1820.79 218.925V104.35H1794.24V86.9293H1820.79V39.6672H1840.31V86.9293H1870.23V104.35H1840.31V218.925H1820.79ZM1909.29 38.8591V64.7358H1888.2V38.8591H1909.29ZM1888.98 86.9293H1908.51V218.925H1888.98V86.9293ZM1996.21 84.8058C2015.64 84.8058 2031.43 91.4018 2043.58 104.613C2055.03 117.279 2060.75 133.383 2060.75 152.908C2060.75 172.433 2055.03 188.538 2043.58 201.223C2031.43 214.434 2015.66 221.03 1996.21 221.03C1976.76 221.03 1960.97 214.434 1948.84 201.223C1937.39 188.557 1931.67 172.452 1931.67 152.908C1931.67 133.365 1937.39 117.279 1948.84 104.613C1960.97 91.4018 1976.76 84.8058 1996.21 84.8058ZM1996.21 203.083C2010.27 203.083 2021.39 198.16 2029.54 188.294C2037.34 178.973 2041.25 167.172 2041.25 152.908C2041.25 138.645 2037.34 126.862 2029.54 117.523C2021.39 107.676 2010.27 102.733 1996.21 102.733C1982.15 102.733 1971.05 107.676 1962.88 117.523C1955.08 126.844 1951.17 138.645 1951.17 152.908C1951.17 167.172 1955.08 178.954 1962.88 188.294C1971.05 198.16 1982.17 203.083 1996.21 203.083ZM2103.44 86.9293V107.525C2108.11 101.192 2113.87 95.818 2120.61 91.4206C2127.35 87.0233 2135.12 84.8246 2143.79 84.8246C2152.46 84.8246 2159.92 86.0461 2166.17 88.5078C2172.41 90.9696 2177.87 94.6716 2182.56 99.5952C2193.31 110.325 2198.7 124.495 2198.7 142.122V218.944H2179.17V142.648C2179.17 130.489 2175.78 120.811 2169.02 113.595C2162.26 106.379 2153.49 102.771 2142.75 102.771C2131.82 102.771 2122.52 106.454 2114.89 113.877C2107.25 121.45 2103.44 131.128 2103.44 142.911V218.944H2083.91V86.9481H2103.44V86.9293ZM2325.14 197.803C2314.72 213.306 2299.2 221.048 2278.52 221.048C2259.81 221.048 2244.53 214.452 2232.73 201.242C2221.28 188.237 2215.56 172.114 2215.56 152.927C2215.56 133.74 2221.28 117.636 2232.73 104.631C2244.51 91.4206 2260.22 84.8246 2279.84 84.8246C2299.46 84.8246 2314.54 92.6421 2325.12 108.315V86.9105H2344.63V218.906H2325.12V197.784L2325.14 197.803ZM2281.14 203.083C2295.2 203.083 2306.31 198.16 2314.47 188.294C2322.26 178.973 2326.17 167.172 2326.17 152.908C2326.17 138.645 2322.25 126.862 2314.47 117.523C2306.31 107.676 2295.18 102.733 2281.14 102.733C2267.26 102.733 2255.96 107.676 2247.31 117.523C2239.14 126.844 2235.08 138.645 2235.08 152.908C2235.08 167.172 2239.16 178.954 2247.31 188.294C2255.98 198.16 2267.26 203.083 2281.14 203.083ZM2395.39 218.925H2375.86V34.1235H2395.39V218.925ZM2503.15 218.925H2483.62V44.1585H2503.15V218.925ZM2558.06 86.9293V107.525C2562.77 101.192 2568.49 95.818 2575.25 91.4206C2582.02 87.0233 2589.74 84.8246 2598.43 84.8246C2607.1 84.8246 2614.55 86.0461 2620.79 88.5078C2627.03 90.9696 2632.5 94.6716 2637.2 99.5952C2647.97 110.325 2653.32 124.495 2653.32 142.122V218.944H2633.81V142.648C2633.81 130.489 2630.41 120.811 2623.66 113.595C2616.92 106.379 2608.12 102.771 2597.36 102.771C2586.42 102.771 2577.14 106.454 2569.51 113.877C2561.86 121.45 2558.04 131.128 2558.04 142.911V218.944H2538.52V86.9481H2558.04L2558.06 86.9293ZM2759.75 122.296C2758.03 108.578 2747.14 101.719 2727.11 101.719C2707.08 101.719 2697.04 108.052 2697.04 120.717C2697.04 125.998 2699.17 130.02 2703.4 132.726C2707.66 135.45 2712.98 137.706 2719.42 139.453C2725.83 141.201 2732.83 142.836 2740.37 144.339C2747.91 145.843 2754.9 147.947 2761.33 150.672C2767.76 153.397 2773.07 157.137 2777.33 161.891C2781.6 166.645 2783.71 173.166 2783.71 181.416C2783.71 194.27 2778.95 204.079 2769.4 210.863C2759.86 217.647 2746.95 221.03 2730.61 221.03C2713.23 221.03 2699.45 216.632 2689.22 207.819C2679.85 200.076 2674.83 189.966 2674.13 177.47H2694.43C2695.63 189.628 2702.42 197.803 2714.7 202.031C2719.22 203.44 2723.7 204.136 2728.13 204.136C2732.56 204.136 2736.67 203.872 2740.5 203.346C2744.32 202.82 2748.04 201.862 2751.69 200.434C2760.01 197.089 2764.18 191.357 2764.18 183.276C2764.18 177.827 2762.03 173.655 2757.83 170.723C2753.57 167.81 2748.25 165.443 2741.8 163.601C2735.35 161.759 2728.39 160.068 2720.85 158.584C2713.31 157.099 2706.32 155.032 2699.9 152.363C2693.47 149.695 2688.15 146.124 2683.89 141.539C2679.63 136.954 2677.52 130.621 2677.52 122.54C2677.52 110.57 2681.81 101.286 2690.39 94.6716C2698.97 88.0568 2711.7 84.7682 2728.52 84.7682C2744.49 84.7682 2757.05 88.6582 2766.27 96.4005C2773.89 102.921 2778.33 111.547 2779.54 122.258H2759.75V122.296ZM2820.15 218.925V104.35H2793.6V86.9293H2820.15V39.6672H2839.67V86.9293H2869.59V104.35H2839.67V218.925H2820.15ZM2908.63 38.8591V64.7358H2887.53V38.8591H2908.63ZM2888.34 86.9293H2907.87V218.925H2888.34V86.9293ZM2953.14 218.925V104.35H2926.58V86.9293H2953.14V39.6672H2972.65V86.9293H3002.57V104.35H2972.65V218.925H2953.14ZM3115.28 218.925V198.329C3110.6 204.643 3104.87 210.036 3098.09 214.434C3091.31 218.831 3083.6 221.03 3074.92 221.03C3066.23 221.03 3058.78 219.808 3052.54 217.346C3046.29 214.885 3040.83 211.201 3036.14 206.259C3025.4 195.529 3020.02 181.36 3020.02 163.733V86.9105H3039.53V163.206C3039.53 175.365 3042.94 185.043 3049.7 192.259C3056.46 199.475 3065.23 203.083 3075.97 203.083C3086.92 203.083 3096.2 199.4 3103.85 191.996C3111.47 184.423 3115.32 174.726 3115.32 162.943V86.9105H3134.85V218.906H3115.32L3115.28 218.925ZM3180.1 218.925V104.35H3153.54V86.9293H3180.1V39.6672H3199.61V86.9293H3229.53V104.35H3199.61V218.925H3180.1ZM3303.71 203.083C3321.25 203.083 3333.81 195.698 3341.45 180.909H3362.79C3358.27 192.879 3351.12 202.557 3341.32 209.961C3331.52 217.365 3318.88 221.048 3303.45 221.048C3283.85 221.048 3267.88 214.452 3255.58 201.242C3243.59 188.388 3237.59 172.302 3237.59 152.927C3237.59 133.383 3243.33 117.297 3254.8 104.631C3266.94 91.4206 3282.72 84.8246 3302.17 84.8246C3321.62 84.8246 3337.41 91.4206 3349.56 104.631C3361.03 117.297 3366.73 133.402 3366.73 152.927V160.839H3257.67C3259.04 172.997 3263.84 183.013 3271.97 190.944C3280.31 199.062 3290.89 203.102 3303.73 203.102L3303.71 203.083ZM3302.15 102.771C3290.19 102.771 3280.11 106.548 3271.96 114.121C3264.34 121.356 3259.64 130.752 3257.9 142.366H3346.37C3344.65 130.734 3339.95 121.356 3332.31 114.121C3324.2 106.548 3314.1 102.771 3302.13 102.771H3302.15ZM3496.82 50.7357C3487.63 50.7357 3480.74 52.8028 3476.13 56.9559C3471.52 61.109 3469.24 67.7426 3469.24 76.8755V86.9105H3499.44V104.35H3469.24V218.925H3449.71V104.35H3427.33V86.9293H3449.71V75.3158C3449.71 60.8834 3453.95 50.0404 3462.48 42.8242C3470.96 35.6081 3482.76 32 3497.86 32H3499.44V50.7545H3496.8L3496.82 50.7357ZM3572.06 84.8058C3591.49 84.8058 3607.27 91.4018 3619.43 104.613C3630.89 117.279 3636.6 133.383 3636.6 152.908C3636.6 172.433 3630.89 188.538 3619.43 201.223C3607.29 214.434 3591.51 221.03 3572.06 221.03C3552.6 221.03 3536.82 214.434 3524.67 201.223C3513.22 188.557 3507.48 172.452 3507.48 152.908C3507.48 133.365 3513.22 117.279 3524.67 104.613C3536.82 91.4018 3552.6 84.8058 3572.06 84.8058ZM3572.06 203.083C3586.12 203.083 3597.21 198.16 3605.37 188.294C3613.17 178.973 3617.07 167.172 3617.07 152.908C3617.07 138.645 3613.15 126.862 3605.37 117.523C3597.2 107.676 3586.1 102.733 3572.06 102.733C3558.01 102.733 3546.9 107.676 3538.73 117.523C3530.93 126.844 3527.02 138.645 3527.02 152.908C3527.02 167.172 3530.93 178.954 3538.73 188.294C3546.9 198.16 3558 203.083 3572.06 203.083ZM3728.47 84.8058V104.613H3726.12C3712.06 104.613 3700.61 110.325 3691.75 121.77C3683.43 132.688 3679.27 145.711 3679.27 160.839V218.925H3659.74V86.9105H3679.27V119.383C3683.42 105.627 3692.44 95.5361 3706.33 89.0152C3712.04 86.1964 3718.99 84.787 3727.14 84.787H3728.43V84.8058H3728.47ZM1617.08 292.928V467.695H1597.55V389.82H1497.33V467.695H1477.82V292.928H1497.33V370.54H1597.55V292.928H1617.08ZM1708.17 451.853C1725.69 451.853 1738.27 444.468 1745.91 429.678H1767.25C1762.73 441.649 1755.58 451.308 1745.78 458.712C1735.98 466.116 1723.34 469.818 1707.91 469.818C1688.31 469.818 1672.34 463.203 1660.02 450.011C1648.05 437.158 1642.07 421.071 1642.07 401.716C1642.07 382.153 1647.77 366.086 1659.24 353.382C1671.38 340.19 1687.16 333.576 1706.59 333.576C1726.03 333.576 1741.83 340.19 1753.98 353.382C1765.45 366.067 1771.16 382.172 1771.16 401.716V409.627H1662.1C1663.47 421.767 1668.25 431.802 1676.42 439.732C1684.73 447.85 1695.31 451.872 1708.17 451.872V451.853ZM1706.59 351.522C1694.63 351.522 1684.57 355.299 1676.42 362.872C1668.78 370.107 1664.1 379.522 1662.34 391.136H1750.83C1749.11 379.522 1744.41 370.126 1736.77 362.872C1728.62 355.28 1718.56 351.522 1706.58 351.522H1706.59ZM1893.98 446.591C1883.57 462.095 1868.05 469.818 1847.39 469.818C1828.66 469.818 1813.38 463.203 1801.58 450.011C1790.11 436.988 1784.4 420.884 1784.4 401.716C1784.4 382.548 1790.11 366.405 1801.58 353.382C1813.38 340.19 1829.07 333.576 1848.69 333.576C1868.31 333.576 1883.39 341.431 1893.98 357.103V335.699H1913.51V467.713H1893.98V446.572V446.591ZM1850 451.853C1864.06 451.853 1875.16 446.911 1883.33 437.064C1891.13 427.743 1895.04 415.96 1895.04 401.697C1895.04 387.415 1891.13 375.651 1883.33 366.293C1875.16 356.445 1864.06 351.503 1850 351.503C1836.13 351.503 1824.84 356.445 1816.17 366.293C1808 375.651 1803.95 387.396 1803.95 401.697C1803.95 415.96 1808.02 427.743 1816.17 437.064C1824.84 446.911 1836.11 451.853 1850 451.853ZM1964.25 467.695H1944.73V282.893H1964.25V467.695ZM2009.57 467.695V353.119H1983.02V335.68H2009.57V288.456H2029.09V335.699H2059.03V353.138H2029.09V467.713L2009.57 467.695ZM2097.25 282.893V356.314C2101.92 349.981 2107.66 344.588 2114.42 340.19C2121.18 335.793 2128.91 333.576 2137.6 333.576C2146.27 333.576 2153.73 334.816 2159.98 337.278C2166.22 339.739 2171.69 343.46 2176.37 348.384C2187.14 359.114 2192.51 373.302 2192.51 390.891V467.713H2172.98V391.436C2172.98 379.278 2169.61 369.6 2162.83 362.384C2156.07 355.186 2147.31 351.56 2136.54 351.56C2125.61 351.56 2116.33 355.262 2108.7 362.647C2101.07 370.239 2097.25 379.898 2097.25 391.681V467.713H2077.72V282.912H2097.25V282.893ZM2376.79 446.591C2366.36 462.095 2350.85 469.818 2330.19 469.818C2311.46 469.818 2296.18 463.203 2284.4 450.011C2272.93 436.988 2267.21 420.884 2267.21 401.716C2267.21 382.548 2272.91 366.405 2284.4 353.382C2296.18 340.19 2311.87 333.576 2331.49 333.576C2351.11 333.576 2366.19 341.431 2376.77 357.103V335.699H2396.29V467.713H2376.77V446.572L2376.79 446.591ZM2332.79 451.853C2346.85 451.853 2357.95 446.911 2366.1 437.064C2373.91 427.743 2377.82 415.96 2377.82 401.697C2377.82 387.415 2373.91 375.651 2366.1 366.293C2357.93 356.445 2346.83 351.503 2332.79 351.503C2318.91 351.503 2307.63 356.445 2298.98 366.293C2290.79 375.651 2286.75 387.396 2286.75 401.697C2286.75 415.96 2290.81 427.743 2298.98 437.064C2307.65 446.911 2318.93 451.853 2332.79 451.853ZM2442.05 335.699V356.314C2446.72 349.981 2452.45 344.588 2459.23 340.19C2465.97 335.793 2473.73 333.576 2482.4 333.576C2491.07 333.576 2498.52 334.816 2504.78 337.278C2511.02 339.739 2516.49 343.46 2521.18 348.384C2531.94 359.114 2537.31 373.302 2537.31 390.891V467.713H2517.79V391.436C2517.79 379.278 2514.4 369.6 2507.63 362.384C2500.87 355.186 2492.11 351.56 2481.35 351.56C2470.42 351.56 2461.12 355.262 2453.48 362.647C2445.85 370.239 2442.03 379.898 2442.03 391.681V467.713H2422.51V335.699L2442.05 335.718V335.699ZM2663.73 446.591C2653.32 462.095 2637.8 469.818 2617.14 469.818C2598.41 469.818 2583.15 463.203 2571.33 450.011C2559.88 436.988 2554.13 420.884 2554.13 401.716C2554.13 382.548 2559.88 366.405 2571.33 353.382C2583.13 340.19 2598.82 333.576 2618.44 333.576C2638.06 333.576 2653.14 341.431 2663.73 357.103V282.912H2683.24V467.713H2663.73V446.572V446.591ZM2619.75 451.853C2633.83 451.853 2644.93 446.911 2653.06 437.064C2660.86 427.743 2664.77 415.96 2664.77 401.697C2664.77 387.415 2660.86 375.651 2653.06 366.293C2644.91 356.445 2633.81 351.503 2619.75 351.503C2605.88 351.503 2594.58 356.445 2585.92 366.293C2577.77 375.651 2573.7 387.396 2573.7 401.697C2573.7 415.96 2577.79 427.743 2585.92 437.064C2594.58 446.911 2605.88 451.853 2619.75 451.853ZM2853.25 450.537C2865.57 450.537 2876.37 447.362 2885.67 441.029C2894.94 434.696 2901.83 426.145 2906.35 415.415H2926.93C2921.22 431.971 2911.74 444.994 2898.55 454.484C2884.49 464.688 2867.93 469.799 2848.84 469.799C2823.69 469.799 2803.31 461.061 2787.69 443.66C2772.92 426.916 2765.57 405.794 2765.57 380.293C2765.57 354.792 2772.94 333.632 2787.69 316.926C2803.31 299.487 2823.69 290.786 2848.84 290.786C2867.94 290.786 2884.51 295.897 2898.55 306.101C2911.74 315.61 2921.21 328.614 2926.93 345.17H2906.35C2901.83 334.44 2894.94 325.89 2885.67 319.557C2876.37 313.224 2865.59 310.048 2853.25 310.048C2840.91 310.048 2830.69 311.852 2822.56 315.479C2814.39 319.068 2807.53 324.048 2801.97 330.4C2790.69 343.253 2785.06 359.884 2785.06 380.293C2785.06 400.701 2790.67 417.332 2801.97 430.186C2813.77 443.791 2830.87 450.556 2853.25 450.556V450.537ZM3050.81 446.591C3040.4 462.095 3024.9 469.818 3004.22 469.818C2985.49 469.818 2970.23 463.203 2958.41 450.011C2946.94 436.988 2941.23 420.884 2941.23 401.716C2941.23 382.548 2946.94 366.405 2958.41 353.382C2970.21 340.19 2985.92 333.576 3005.5 333.576C3025.12 333.576 3040.2 341.431 3050.79 357.103V335.699H3070.3V467.713H3050.79V446.572L3050.81 446.591ZM3006.83 451.853C3020.89 451.853 3031.99 446.911 3040.14 437.064C3047.94 427.743 3051.83 415.96 3051.83 401.697C3051.83 387.415 3047.92 375.651 3040.14 366.293C3031.97 356.445 3020.88 351.503 3006.83 351.503C2992.94 351.503 2981.66 356.445 2972.99 366.293C2964.83 375.651 2960.76 387.396 2960.76 401.697C2960.76 415.96 2964.85 427.743 2972.99 437.064C2981.64 446.911 2992.94 451.853 3006.83 451.853ZM3170.27 333.576V353.382H3167.93C3153.87 353.382 3142.42 359.114 3133.59 370.558C3125.27 381.477 3121.08 394.481 3121.08 409.627V467.695H3101.56V335.68H3121.08V368.172C3125.27 354.416 3134.27 344.325 3148.17 337.804C3153.89 334.985 3160.86 333.557 3168.99 333.557H3170.29V333.576H3170.27ZM3243.41 451.853C3260.93 451.853 3273.51 444.468 3281.15 429.678H3302.49C3297.97 441.649 3290.82 451.308 3281.02 458.712C3271.22 466.116 3258.58 469.818 3243.15 469.818C3223.55 469.818 3207.6 463.203 3195.26 450.011C3183.27 437.158 3177.29 421.071 3177.29 401.716C3177.29 382.153 3183.01 366.086 3194.5 353.382C3206.63 340.19 3222.42 333.576 3241.85 333.576C3261.29 333.576 3277.09 340.19 3289.24 353.382C3300.71 366.067 3306.43 382.172 3306.43 401.716V409.627H3197.37C3198.76 421.767 3203.52 431.802 3211.67 439.732C3220.01 447.85 3230.59 451.872 3243.44 451.872L3243.41 451.853ZM3241.83 351.522C3229.87 351.522 3219.81 355.299 3211.64 362.872C3204.02 370.107 3199.33 379.522 3197.57 391.136H3286.07C3284.35 379.522 3279.64 370.126 3271.99 362.872C3263.88 355.28 3253.82 351.522 3241.81 351.522H3241.83ZM3404.25 311.908V370.54H3500.03V389.82H3404.25V448.715H3511.5V467.695H3384.74V292.928H3511.5V311.908H3404.25ZM3593.21 399.592L3643.7 467.713H3618.7L3582.02 413.855L3545.06 467.713H3520.35L3570.56 399.592L3523.46 335.699H3548.45L3582.02 385.592L3615.33 335.699H3640.31L3593.21 399.592ZM3713.45 451.853C3721.76 451.853 3729.16 449.485 3735.57 444.75C3741.98 439.976 3746.66 433.831 3749.65 426.258H3770.73C3766.73 439.281 3759.43 449.748 3748.85 457.66C3737.75 465.778 3724.56 469.818 3709.28 469.818C3690.18 469.818 3674.67 463.203 3662.7 450.011C3651.09 437.158 3645.27 421.071 3645.27 401.716C3645.27 382.36 3651.09 366.255 3662.7 353.382C3674.69 340.19 3690.2 333.576 3709.28 333.576C3724.56 333.576 3737.75 337.635 3748.85 345.734C3759.43 353.645 3766.73 364.131 3770.73 377.136H3749.65C3746.68 369.581 3741.99 363.417 3735.57 358.682C3729.14 353.946 3721.78 351.541 3713.45 351.541C3705.13 351.541 3698.03 352.856 3692.23 355.506C3686.44 358.156 3681.51 361.782 3677.52 366.33C3669 375.839 3664.76 387.622 3664.76 401.734C3664.76 415.81 3669 427.611 3677.52 437.101C3686.21 446.892 3698.18 451.815 3713.45 451.815V451.853ZM3850.33 451.853C3867.88 451.853 3880.44 444.468 3888.07 429.678H3909.39C3904.89 441.649 3897.74 451.308 3887.94 458.712C3878.14 466.116 3865.52 469.818 3850.07 469.818C3830.47 469.818 3814.52 463.203 3802.2 450.011C3790.22 437.158 3784.23 421.071 3784.23 401.716C3784.23 382.153 3789.96 366.086 3801.41 353.382C3813.54 340.19 3829.34 333.576 3848.78 333.576C3868.21 333.576 3884 340.19 3896.17 353.382C3907.62 366.067 3913.34 382.172 3913.34 401.716V409.627H3804.28C3805.65 421.767 3810.43 431.802 3818.58 439.732C3826.9 447.85 3837.5 451.872 3850.33 451.872V451.853ZM3848.78 351.522C3836.81 351.522 3826.73 355.299 3818.58 362.872C3810.95 370.107 3806.26 379.522 3804.52 391.136H3893C3891.28 379.522 3886.57 370.126 3878.94 362.872C3870.8 355.28 3860.73 351.522 3848.76 351.522H3848.78ZM3954.17 467.695H3934.66V282.893H3954.17V467.695ZM4004.95 467.695H3985.42V282.893H4004.95V467.695ZM4094.23 451.853C4111.73 451.853 4124.33 444.468 4131.95 429.678H4153.27C4148.77 441.649 4141.62 451.308 4131.82 458.712C4122.02 466.116 4109.36 469.818 4093.95 469.818C4074.33 469.818 4058.38 463.203 4046.06 450.011C4034.07 437.158 4028.09 421.071 4028.09 401.716C4028.09 382.153 4033.81 366.086 4045.28 353.382C4057.42 340.19 4073.22 333.576 4092.67 333.576C4112.12 333.576 4127.89 340.19 4140.02 353.382C4151.49 366.067 4157.21 382.172 4157.21 401.716V409.627H4048.17C4049.56 421.767 4054.32 431.802 4062.47 439.732C4070.81 447.85 4081.39 451.872 4094.25 451.872L4094.23 451.853ZM4092.65 351.522C4080.65 351.522 4070.61 355.299 4062.44 362.872C4054.82 370.107 4050.14 379.522 4048.39 391.136H4136.87C4135.15 379.522 4130.44 370.126 4122.81 362.872C4114.66 355.28 4104.6 351.522 4092.63 351.522H4092.65ZM4198.06 335.699V356.314C4202.73 349.981 4208.46 344.588 4215.22 340.19C4221.98 335.793 4229.73 333.576 4238.41 333.576C4247.08 333.576 4254.55 334.816 4260.79 337.278C4267.04 339.739 4272.5 343.46 4277.19 348.384C4287.95 359.114 4293.32 373.302 4293.32 390.891V467.713H4273.8V391.436C4273.8 379.278 4270.41 369.6 4263.65 362.384C4256.88 355.186 4248.12 351.56 4237.36 351.56C4226.43 351.56 4217.15 355.262 4209.49 362.647C4201.86 370.239 4198.05 379.898 4198.05 391.681V467.713H4178.52V335.699L4198.06 335.718V335.699ZM4383.36 451.853C4391.68 451.853 4399.07 449.485 4405.48 444.75C4411.89 439.976 4416.58 433.831 4419.56 426.258H4440.64C4436.62 439.281 4429.36 449.748 4418.76 457.66C4407.67 465.778 4394.48 469.818 4379.21 469.818C4360.13 469.818 4344.59 463.203 4332.62 450.011C4321 437.158 4315.18 421.071 4315.18 401.716C4315.18 382.36 4321 366.255 4332.62 353.382C4344.6 340.19 4360.13 333.576 4379.21 333.576C4394.48 333.576 4407.67 337.635 4418.76 345.734C4429.36 353.645 4436.62 364.131 4440.64 377.136H4419.56C4416.6 369.581 4411.91 363.417 4405.48 358.682C4399.05 353.946 4391.7 351.541 4383.36 351.541C4375.04 351.541 4367.95 352.856 4362.15 355.506C4356.35 358.156 4351.42 361.782 4347.44 366.33C4338.92 375.839 4334.67 387.622 4334.67 401.734C4334.67 415.81 4338.92 427.611 4347.44 437.101C4356.11 446.892 4368.08 451.815 4383.36 451.815V451.853ZM4520.27 451.853C4537.79 451.853 4550.37 444.468 4557.98 429.678H4579.35C4574.83 441.649 4567.66 451.308 4557.86 458.712C4548.06 466.116 4535.44 469.818 4519.99 469.818C4500.41 469.818 4484.42 463.203 4472.12 450.011C4460.11 437.158 4454.15 421.071 4454.15 401.716C4454.15 382.153 4459.87 366.086 4471.34 353.382C4483.47 340.19 4499.26 333.576 4518.71 333.576C4538.16 333.576 4553.93 340.19 4566.1 353.382C4577.55 366.067 4583.27 382.172 4583.27 401.716V409.627H4474.21C4475.6 421.767 4480.38 431.802 4488.51 439.732C4496.85 447.85 4507.43 451.872 4520.28 451.872L4520.27 451.853ZM4518.71 351.522C4506.72 351.522 4496.66 355.299 4488.51 362.872C4480.9 370.107 4476.19 379.522 4474.45 391.136H4562.93C4561.21 379.522 4556.52 370.126 4548.87 362.872C4540.74 355.28 4530.64 351.522 4518.69 351.522H4518.71Z" fill="black"/>
<path d="M411.53 454.07C411.53 470.216 404.75 473.31 393.617 473.31H341.071C329.938 473.31 320.693 468.959 313.855 459.658L129.676 213.315H128.424V454.689C128.424 468.34 122.241 473.29 109.894 473.29H52.398C38.183 473.29 32 470.197 32 455.288V61.9131C32 45.7867 39.4157 42.6736 52.398 42.6736H104.308C116.655 42.6736 122.838 46.4055 129.637 55.7062L313.816 303.905H315.049V60.6562C315.049 47.0242 321.848 42.6736 334.214 42.6736H394.176C410.24 42.6736 411.473 51.3555 411.473 61.9131V454.051H411.511L411.53 454.07ZM608.538 457.647C608.538 465.092 603.607 471.937 594.958 471.937H523.864C514.618 471.937 510.285 465.092 510.285 458.286V55.5515C510.285 48.107 515.235 41.3007 523.864 41.3007H594.958C604.223 41.3007 608.538 48.107 608.538 54.9521V457.647V457.647ZM1023.93 77.9041L1006 130.034C1003.55 136.241 1001.07 139.335 996.755 139.335C994.29 139.335 991.824 138.098 988.723 136.841C955.959 121.353 930.611 115.745 901.584 115.745C837.289 115.745 795.895 165.381 795.895 255.971C795.895 354.025 842.836 396.178 903.452 396.178C932.499 396.178 957.847 390.648 986.874 378.852C990.572 377.576 993.693 376.358 996.139 376.358C1001.71 376.358 1004.79 378.852 1007.25 386.278L1022.72 432.22C1023.95 435.933 1024.57 439.027 1024.57 442.14C1024.57 448.347 1022.1 452.697 1013.44 455.791C970.791 471.937 935.542 480 887.966 480C756.929 480 690.804 392.504 690.804 259.103C690.804 125.065 771.761 32 895.998 32C940.511 32 978.226 40.7013 1014.05 56.8277C1022.72 60.5402 1025.82 64.8909 1025.82 69.2222C1025.84 71.7165 1025.2 74.8103 1023.95 77.9234L1023.93 77.9041ZM1360.49 41.2814C1372.86 41.2814 1376.54 47.4883 1375.94 55.5321L1370.37 105.806C1369.14 118.839 1361.11 121.333 1346.28 121.333H1196.67V213.76H1336.99C1350.61 213.76 1355.54 220.586 1355.54 230.505V275.791C1355.54 288.224 1349.36 293.793 1337.63 293.793H1196.69V391.866H1358.03C1369.14 391.866 1375.96 396.796 1375.96 408.592V454.534C1375.96 466.31 1370.39 471.898 1358.66 471.898H1118.8C1104.58 471.898 1098.42 468.166 1098.42 452.659V58.6453C1098.42 48.0877 1103.98 41.2814 1114.48 41.2814L1360.49 41.262V41.2814Z" fill="black"/>
</svg>
