<?xml version="1.0" encoding="utf-8"?>
<svg width="512" height="512" viewBox="0 0 512 512" fill="none" xmlns="http://www.w3.org/2000/svg">
<path d="M479 343.547V423.128C479 429.758 476.677 435.394 472.031 440.036C467.385 444.679 461.745 447 455.111 447H375.472C368.838 447 363.198 444.679 358.552 440.036C353.906 435.394 351.583 429.758 351.583 423.128V343.547C351.583 336.918 353.906 331.282 358.552 326.64C363.198 321.997 368.838 319.676 375.472 319.676H399.361V271.919H271.931V319.676H295.819C302.454 319.676 308.094 321.997 312.74 326.64C317.385 331.282 319.708 336.918 319.708 343.547V423.128C319.708 429.758 317.385 435.394 312.74 440.036C308.094 444.679 302.454 447 295.819 447H216.181C209.546 447 203.906 444.679 199.26 440.036C194.615 435.394 192.292 429.758 192.292 423.128V343.547C192.292 336.918 194.615 331.282 199.26 326.64C203.906 321.997 209.546 319.676 216.181 319.676H240.069V271.919H112.639V319.676H136.528C143.162 319.676 148.802 321.997 153.448 326.64C158.094 331.282 160.417 336.918 160.417 343.547V423.128C160.417 429.758 158.094 435.394 153.448 440.036C148.802 444.679 143.162 447 136.528 447H56.8889C50.2546 447 44.6146 444.679 39.9688 440.036C35.3229 435.394 33 429.758 33 423.128V343.547C33 336.918 35.3229 331.282 39.9688 326.64C44.6146 321.997 50.2546 319.676 56.8889 319.676H80.7777V271.919C80.7777 263.293 83.9323 255.833 90.2413 249.538C96.5504 243.243 104.016 240.09 112.639 240.081H240.069V192.324H216.181C209.546 192.324 203.906 190.003 199.26 185.36C194.615 180.718 192.292 175.082 192.292 168.453V88.8715C192.292 82.2421 194.615 76.6061 199.26 71.9637C203.906 67.3212 209.546 65 216.181 65H295.819C302.454 65 308.094 67.3212 312.74 71.9637C317.385 76.6061 319.708 82.2421 319.708 88.8715V168.453C319.708 175.082 317.385 180.718 312.74 185.36C308.094 190.003 302.454 192.324 295.819 192.324H271.931V240.081H399.361C407.993 240.081 415.459 243.233 421.759 249.538C428.058 255.842 431.213 263.303 431.222 271.919V319.676H455.111C461.745 319.676 467.385 321.997 472.031 326.64C476.677 331.282 479 336.918 479 343.547V343.547Z" fill="black"/>
</svg>
