<?xml version="1.0" encoding="utf-8"?>
<svg width="512" height="512" viewBox="0 0 512 512" fill="none" xmlns="http://www.w3.org/2000/svg">
<path d="M480 226.019V286.981C480 295.443 477.037 302.638 471.111 308.564C465.185 314.49 457.99 317.453 449.528 317.453H317.453V449.528C317.453 457.99 314.49 465.185 308.564 471.111C302.638 477.037 295.443 480 286.981 480H226.019C217.557 480 210.362 477.037 204.436 471.111C198.51 465.185 195.547 457.99 195.547 449.528V317.453H63.472C55.0095 317.453 47.8153 314.49 41.8892 308.564C35.9631 302.638 33 295.443 33 286.981V226.019C33 217.557 35.9631 210.362 41.8892 204.436C47.8153 198.51 55.0095 195.547 63.472 195.547H195.547V63.472C195.547 55.0095 198.51 47.8153 204.436 41.8892C210.362 35.9631 217.557 33 226.019 33H286.981C295.443 33 302.638 35.9631 308.564 41.8892C314.49 47.8153 317.453 55.0095 317.453 63.472V195.547H449.528C457.99 195.547 465.185 198.51 471.111 204.436C477.037 210.362 480 217.557 480 226.019V226.019Z" fill="black"/>
</svg>
