<!-- Generated by IcoMoon.io -->
<svg version="1.1" xmlns="http://www.w3.org/2000/svg" width="1024" height="1024" viewBox="0 0 1024 1024">
<title></title>
<g id="icomoon-ignore">
</g>
<path fill="#000" d="M254.176 685.152h-123.68c-33.152 0-59.968-26.848-59.968-60.064v-211.808c0-33.088 26.816-59.904 59.968-59.904h123.68v331.776zM611.456 866.848l-289.856-166.912v-361.632l289.856-166.848v695.392zM691.712 645.568c32.352-32.448 52.576-77.184 52.576-126.496 0.096-49.376-19.84-94.176-52.224-126.688l53.408-53.184c45.824 46.112 74.368 109.664 74.176 179.936 0 70.272-28.672 133.856-74.752 179.808l-53.184-53.376zM839.36 793.792l-54.56-54.816c56.416-56.192 91.232-133.952 91.424-219.808s-34.528-163.552-90.688-219.968l54.752-54.528c70.176 70.4 113.44 167.328 113.216 274.56-0.128 107.2-43.744 204.384-114.112 274.56z"></path>
</svg>
