<?xml version="1.0" encoding="utf-8"?>
<svg width="512" height="512" viewBox="0 0 512 512" fill="none" xmlns="http://www.w3.org/2000/svg">
<path d="M126.824 338.848H64.984C48.408 338.848 35 325.424 35 308.816V202.912C35 186.368 48.408 172.96 64.984 172.96H126.824V338.848ZM305.464 429.696L160.536 346.24V165.424L305.464 82V429.696ZM345.592 319.056C361.768 302.832 371.88 280.464 371.88 255.808C371.928 231.12 361.96 208.72 345.768 192.464L372.472 165.872C395.384 188.928 409.656 220.704 409.56 255.84C409.56 290.976 395.224 322.768 372.184 345.744L345.592 319.056V319.056ZM419.416 393.168L392.136 365.76C420.344 337.664 437.752 298.784 437.848 255.856C437.944 212.928 420.584 174.08 392.504 145.872L419.88 118.608C454.968 153.808 476.6 202.272 476.488 255.888C476.424 309.488 454.616 358.08 419.432 393.168H419.416Z" fill="black"/>
</svg>
