<?xml version="1.0" encoding="utf-8"?>
<svg width="512" height="512" viewBox="0 0 512 512" fill="none" xmlns="http://www.w3.org/2000/svg">
<path d="M293.333 396V340C293.333 337.278 292.458 335.042 290.708 333.292C288.958 331.542 286.722 330.667 284 330.667H228C225.278 330.667 223.042 331.542 221.292 333.292C219.542 335.042 218.667 337.278 218.667 340V396C218.667 398.722 219.542 400.958 221.292 402.708C223.042 404.458 225.278 405.333 228 405.333H284C286.722 405.333 288.958 404.458 290.708 402.708C292.458 400.958 293.333 398.722 293.333 396ZM368 200C368 182.889 362.604 167.042 351.812 152.458C341.021 137.875 327.556 126.597 311.417 118.625C295.278 110.653 278.75 106.667 261.833 106.667C214.583 106.667 178.514 127.375 153.625 168.792C150.708 173.458 151.486 177.542 155.958 181.042L194.458 210.208C195.819 211.375 197.667 211.958 200 211.958C203.111 211.958 205.542 210.792 207.292 208.458C217.597 195.236 225.958 186.292 232.375 181.625C238.986 176.958 247.347 174.625 257.458 174.625C266.792 174.625 275.104 177.153 282.396 182.208C289.687 187.264 293.333 193 293.333 199.417C293.333 206.806 291.389 212.736 287.5 217.208C283.611 221.681 277 226.056 267.667 230.333C255.417 235.778 244.187 244.187 233.979 255.562C223.771 266.937 218.667 279.139 218.667 292.167V302.667C218.667 305.389 219.542 307.625 221.292 309.375C223.042 311.125 225.278 312 228 312H284C286.722 312 288.958 311.125 290.708 309.375C292.458 307.625 293.333 305.389 293.333 302.667C293.333 298.972 295.424 294.16 299.604 288.229C303.785 282.299 309.083 277.486 315.5 273.792C321.722 270.292 326.486 267.521 329.792 265.479C333.097 263.437 337.569 260.035 343.208 255.271C348.847 250.507 353.174 245.84 356.187 241.271C359.201 236.701 361.924 230.819 364.354 223.625C366.785 216.431 368 208.556 368 200ZM480 256C480 296.639 469.986 334.118 449.958 368.437C429.931 402.757 402.757 429.931 368.437 449.958C334.118 469.986 296.639 480 256 480C215.361 480 177.882 469.986 143.562 449.958C109.243 429.931 82.0694 402.757 62.0417 368.437C42.0139 334.118 32 296.639 32 256C32 215.361 42.0139 177.882 62.0417 143.562C82.0694 109.243 109.243 82.0694 143.562 62.0417C177.882 42.0139 215.361 32 256 32C296.639 32 334.118 42.0139 368.437 62.0417C402.757 82.0694 429.931 109.243 449.958 143.562C469.986 177.882 480 215.361 480 256Z" fill="black"/>
</svg>
