<?xml version="1.0" encoding="utf-8"?>
<svg width="512" height="512" viewBox="0 0 512 512" fill="none" xmlns="http://www.w3.org/2000/svg">
<path d="M459.196 235.576C449.74 235.576 440.268 235.576 430.78 235.576V133.176L255.74 248.936L80.716 133.176V235.576C71.244 235.576 61.772 235.576 52.316 235.576C29.228 235.576 29.228 271.336 52.316 271.336C61.788 271.336 71.244 271.336 80.716 271.336V364.696L255.74 459.992L430.78 364.696V271.336C440.268 271.336 449.756 271.336 459.196 271.336C482.22 271.336 482.22 235.576 459.196 235.576V235.576ZM321.676 118.824C321.676 155.176 292.172 184.648 255.74 184.648C219.308 184.648 189.804 155.176 189.804 118.824C189.804 82.472 219.308 53 255.74 53C292.172 53 321.676 82.472 321.676 118.824Z" fill="black"/>
</svg>
