<!-- Generated by IcoMoon.io -->
<svg version="1.1" xmlns="http://www.w3.org/2000/svg" width="512" height="512" viewBox="0 0 512 512">
<title>readnews</title>
<path d="M459.456 241.184c-9.456 0-18.928 0-28.416 0v-102.4l-175.040 115.76-175.024-115.76v102.4c-9.472 0-18.944 0-28.4 0-23.088 0-23.088 35.76 0 35.76 9.472 0 18.928 0 28.4 0v93.36l175.024 95.296 175.040-95.296v-93.36c9.488 0 18.976 0 28.416 0 23.024 0 23.024-35.76 0-35.76zM321.936 124.432c0 36.352-29.504 65.824-65.936 65.824s-65.936-29.472-65.936-65.824c0-36.352 29.504-65.824 65.936-65.824s65.936 29.472 65.936 65.824z"></path>
</svg>
