<?xml version="1.0" encoding="utf-8"?>
<svg width="512" height="512" viewBox="0 0 512 512" fill="none" xmlns="http://www.w3.org/2000/svg">
<path d="M480 392.508C480 402.56 476.48 411.106 469.441 418.145L418.145 469.441C411.106 476.48 402.56 480 392.508 480C382.455 480 373.91 476.48 366.87 469.441L256 358.571L145.13 469.441C138.09 476.48 129.545 480 119.492 480C109.44 480 100.894 476.48 93.855 469.441L42.5591 418.145C35.5197 411.106 32 402.56 32 392.508C32 382.455 35.5197 373.91 42.5591 366.87L153.429 256L42.5591 145.13C35.5197 138.09 32 129.545 32 119.492C32 109.44 35.5197 100.894 42.5591 93.855L93.855 42.5591C100.894 35.5197 109.44 32 119.492 32C129.545 32 138.09 35.5197 145.13 42.5591L256 153.429L366.87 42.5591C373.91 35.5197 382.455 32 392.508 32C402.56 32 411.106 35.5197 418.145 42.5591L469.441 93.855C476.48 100.894 480 109.44 480 119.492C480 129.545 476.48 138.09 469.441 145.13L358.571 256L469.441 366.87C476.48 373.91 480 382.455 480 392.508Z" fill="black"/>
</svg>
