<?xml version="1.0" encoding="utf-8"?>
<svg width="512" height="512" viewBox="0 0 512 512" fill="none" xmlns="http://www.w3.org/2000/svg">
<path d="M195.176 256.584C195.176 261.496 194.696 266.344 193.816 270.984L337.112 342.008C351.752 325.832 372.92 315.592 396.424 315.592C440.648 315.592 476.488 351.624 476.488 396.008C476.488 440.424 440.68 476.408 396.424 476.408C352.216 476.408 316.36 440.408 316.36 396.008C316.36 395.752 316.376 395.448 316.376 395.128L164.408 319.816C150.824 330.536 133.688 336.968 115.08 336.968C70.824 336.984 35 300.984 35 256.584C35 212.2 70.808 176.2 115.08 176.2C137.816 176.2 158.344 185.768 172.952 201.096L316.92 125.16C316.536 121.944 316.328 118.696 316.328 115.384C316.328 70.968 352.152 35 396.392 35C440.632 35 476.472 70.968 476.472 115.368C476.472 159.768 440.616 195.752 396.392 195.752C376.008 195.752 357.432 188.088 343.272 175.48L195 253.624C195.096 254.632 195.16 255.624 195.16 256.6L195.176 256.584Z" fill="black"/>
</svg>
