<!-- Generated by IcoMoon.io -->
<svg version="1.1" xmlns="http://www.w3.org/2000/svg" width="1024" height="1024" viewBox="0 0 1024 1024">
<title></title>
<g id="icomoon-ignore">
</g>
<path fill="#000" d="M390.848 520.928c0 9.824-0.96 19.52-2.72 28.8l286.592 142.048c29.28-32.352 71.616-52.832 118.624-52.832 88.448 0 160.128 72.064 160.128 160.832 0 88.832-71.616 160.8-160.128 160.8-88.416 0-160.128-72-160.128-160.8 0-0.512 0.032-1.12 0.032-1.76l-303.936-150.624c-27.168 21.44-61.44 34.304-98.656 34.304-88.512 0.032-160.16-71.968-160.16-160.768 0-88.768 71.616-160.768 160.16-160.768 45.472 0 86.528 19.136 115.744 49.792l287.936-151.872c-0.768-6.432-1.184-12.928-1.184-19.552 0-88.832 71.648-160.768 160.128-160.768s160.16 71.936 160.16 160.736-71.712 160.768-160.16 160.768c-40.768 0-77.92-15.328-106.24-40.544l-296.544 156.288c0.192 2.016 0.32 4 0.32 5.952z"></path>
</svg>
