<?xml version="1.0" encoding="utf-8"?>
<svg width="512" height="512" viewBox="0 0 512 512" fill="none" xmlns="http://www.w3.org/2000/svg">
<path d="M443.583 227.915C462.259 344.16 365.508 448 239.904 448C126.171 448 34 362.244 34 256.5C34 150.756 126.171 65 239.872 65C289.917 65 335.752 81.5996 371.427 109.169L338.284 139.948C311.157 120.187 276.999 108.362 239.872 108.362C151.911 108.362 80.6095 174.68 80.6095 256.516C80.6095 338.32 151.927 404.67 239.904 404.67C323.124 404.67 391.442 345.305 398.603 269.647L443.583 227.931V227.915ZM423.665 101.474L251.5 261.614L176.909 192.199L121.574 243.643L251.5 364.502L479 152.902L423.665 101.474Z" fill="black"/>
</svg>
