<!-- Generated by IcoMoon.io -->
<svg version="1.1" xmlns="http://www.w3.org/2000/svg" width="400" height="512" viewBox="0 0 400 512">
<title>trash</title>
<path d="M146.288 214.864v164.576q0 4-2.576 6.576t-6.576 2.576h-18.288q-4 0-6.576-2.576t-2.576-6.576v-164.576q0-4 2.576-6.576t6.576-2.576h18.288q4 0 6.576 2.576t2.576 6.576zM219.424 214.864v164.576q0 4-2.576 6.576t-6.576 2.576h-18.288q-4 0-6.576-2.576t-2.576-6.576v-164.576q0-4 2.576-6.576t6.576-2.576h18.288q4 0 6.576 2.576t2.576 6.576zM292.576 214.864v164.576q0 4-2.576 6.576t-6.576 2.576h-18.288q-4 0-6.576-2.576t-2.576-6.576v-164.576q0-4 2.576-6.576t6.576-2.576h18.288q4 0 6.576 2.576t2.576 6.576zM329.136 421.712v-270.864h-256v270.864q0 6.288 2 11.568t4.144 7.712 3.008 2.432h237.712q0.864 0 3.008-2.432t4.144-7.712 2-11.568zM137.136 114.288h128l-13.712-33.424q-2-2.576-4.864-3.136h-90.576q-2.864 0.576-4.864 3.136zM402.288 123.424v18.288q0 4-2.576 6.576t-6.576 2.576h-27.424v270.864q0 23.712-13.424 41.008t-32.288 17.28h-237.712q-18.864 0-32.288-16.72t-13.424-40.432v-272h-27.424q-4 0-6.576-2.576t-2.576-6.576v-18.288q0-4 2.576-6.576t6.576-2.576h88.288l20-47.712q4.288-10.576 15.424-18t22.576-7.424h91.424q11.424 0 22.576 7.424t15.424 18l20 47.712h88.288q4 0 6.576 2.576t2.576 6.576z"></path>
</svg>
