<?xml version="1.0" encoding="utf-8"?>
<svg width="512" height="512" viewBox="0 0 512 512" fill="none" xmlns="http://www.w3.org/2000/svg">
<path d="M460.984 404.625C460.984 427.909 453.896 446.292 439.721 459.775C425.545 473.258 406.717 480 383.236 480H128.747C105.256 480 86.4277 473.258 72.2631 459.775C58.0986 446.292 51.0109 427.909 51 404.625C51 394.347 51.3424 384.308 52.0273 374.508C52.7121 364.708 54.071 354.137 56.1038 342.794C58.1366 331.451 60.7076 320.923 63.8166 311.21C66.9256 301.497 71.1 292.039 76.3396 282.836C81.5793 273.634 87.5963 265.779 94.3905 259.271C101.185 252.762 109.484 247.575 119.29 243.707C129.095 239.839 139.917 237.899 151.755 237.889C153.505 237.889 157.582 239.975 163.985 244.147C170.388 248.319 177.617 252.974 185.672 258.113C193.727 263.252 204.212 267.908 217.126 272.08C230.041 276.252 242.999 278.338 256 278.338C269.001 278.338 281.959 276.252 294.874 272.08C307.788 267.908 318.273 263.252 326.328 258.113C334.383 252.974 341.612 248.319 348.015 244.147C354.418 239.975 358.495 237.889 360.245 237.889C372.083 237.889 382.905 239.828 392.71 243.707C402.516 247.585 410.815 252.773 417.61 259.271C424.404 265.768 430.421 273.623 435.66 282.836C440.9 292.05 445.074 301.507 448.183 311.21C451.292 320.912 453.863 331.44 455.896 342.794C457.929 354.147 459.288 364.719 459.973 374.508C460.658 384.297 461 394.336 461 404.625H460.984ZM367.811 144.75C367.811 175.595 356.891 201.931 335.052 223.759C313.213 245.586 286.862 256.5 256 256.5C225.138 256.5 198.787 245.586 176.948 223.759C155.109 201.931 144.189 175.595 144.189 144.75C144.189 113.905 155.109 87.5685 176.948 65.7411C198.787 43.9137 225.138 33 256 33C286.862 33 313.213 43.9137 335.052 65.7411C356.891 87.5685 367.811 113.905 367.811 144.75V144.75Z" fill="black"/>
</svg>
