<?xml version="1.0" encoding="utf-8"?>
<svg width="512" height="512" viewBox="0 0 512 512" fill="none" xmlns="http://www.w3.org/2000/svg">
<path fill-rule="evenodd" clip-rule="evenodd" d="M429.067 456.4H82.342C62.0136 456.4 45.6395 448.249 37.4313 434.031C29.2372 419.826 30.3506 401.582 40.5289 383.981L213.891 83.6945C224.07 66.0926 239.302 56 255.718 56C272.135 56 287.367 66.1072 297.532 83.7087L470.88 383.995C481.058 401.597 482.186 419.84 473.977 434.045C465.769 448.249 449.409 456.4 429.067 456.4ZM255.718 92.4453C253.334 92.4453 249.251 95.372 245.469 101.938L72.1063 402.21C68.3233 408.763 67.8236 413.773 69.0086 415.829C70.1936 417.885 74.7758 419.955 82.3562 419.955H429.095C436.661 419.955 441.243 417.871 442.443 415.815C443.642 413.759 443.128 408.763 439.345 402.196L265.983 101.91C262.2 95.3578 258.103 92.4312 255.733 92.4312L255.718 92.4453ZM234.077 295.343C235.033 305.293 236.647 312.617 239.016 317.728C241.986 324.166 247.496 327.563 254.962 327.563C262.271 327.563 267.81 324.123 271.008 317.599C273.606 312.289 275.248 305.065 275.99 295.586L282.414 221.953C283.128 215.057 283.485 208.134 283.485 201.382C283.485 189.304 281.9 180.182 278.631 173.459C276.004 168.063 270.065 161.638 256.761 161.638C248.21 161.638 241.172 164.536 235.833 170.232C230.579 175.843 227.924 183.552 227.924 193.159C227.924 199.354 228.381 209.576 229.28 223.566L234.077 295.343L234.077 295.343ZM235.961 351.347C241.286 346.022 247.867 343.309 255.562 343.309C263.213 343.309 269.837 345.993 275.262 351.289C280.729 356.628 283.485 363.195 283.485 370.79C283.485 379.312 280.629 386.15 275.019 391.147C269.566 396.001 263.128 398.442 255.862 398.442C248.51 398.442 242 396.029 236.518 391.261C230.822 386.321 227.924 379.426 227.924 370.804C227.924 363.224 230.636 356.671 235.961 351.347Z" fill="black"/>
</svg>
