<!-- Generated by IcoMoon.io -->
<svg version="1.1" xmlns="http://www.w3.org/2000/svg" width="1130" height="1024" viewBox="0 0 1130 1024">
<title></title>
<g id="icomoon-ignore">
</g>
<path fill="#000" d="M994.339 1011.571h-857.653c-50.282 0-90.783-20.162-111.086-55.331-20.268-35.134-17.514-80.26 7.662-123.798l428.809-742.753c25.176-43.538 62.852-68.502 103.459-68.502s78.283 25 103.424 68.537l428.774 742.753c25.176 43.538 27.966 88.664 7.662 123.798s-60.769 55.296-111.086 55.296h0.035zM565.53 111.334c-5.897 0-15.996 7.239-25.353 23.481l-428.809 742.718c-9.357 16.207-10.593 28.601-7.662 33.686s14.265 10.205 33.015 10.205h857.653c18.714 0 30.049-5.155 33.015-10.24s1.695-17.443-7.662-33.686l-428.809-742.753c-9.357-16.207-19.491-23.446-25.353-23.446l-0.035 0.035z"></path>
<path fill="#000" d="M512 613.199c2.366 24.611 6.356 42.726 12.217 55.367 7.345 15.925 20.974 24.329 39.442 24.329 18.079 0 31.779-8.51 39.689-24.647 6.426-13.135 10.487-31.002 12.323-54.449l15.89-182.131c1.766-17.055 2.648-34.18 2.648-50.882 0-29.873-3.919-52.436-12.006-69.067-6.497-13.347-21.186-29.237-54.095-29.237-21.151 0-38.559 7.168-51.765 21.257-12.994 13.877-19.562 32.945-19.562 56.708 0 15.325 1.13 40.607 3.354 75.211l11.864 177.54z"></path>
<path fill="#000" d="M565.142 731.842c-19.032 0-35.31 6.709-48.481 19.88s-19.88 29.378-19.88 48.128c0 21.327 7.168 38.382 21.257 50.6 13.559 11.794 29.661 17.761 47.846 17.761 17.973 0 33.898-6.038 47.386-18.044 13.877-12.359 20.939-29.272 20.939-50.353 0-18.785-6.815-35.028-20.339-48.234-13.418-13.1-29.802-19.738-48.728-19.738v0z"></path>
</svg>
