<?xml version="1.0" encoding="utf-8"?>
<svg width="512" height="512" viewBox="0 0 512 512" fill="none" xmlns="http://www.w3.org/2000/svg">
<path d="M209.753 314.5L330.746 252L209.753 188.75V314.5ZM256 99C283.998 99 311.039 99.375 337.12 100.125C363.202 100.875 382.326 101.667 394.492 102.5L412.741 103.5C412.908 103.5 414.325 103.625 416.991 103.875C419.658 104.125 421.574 104.375 422.741 104.625C423.907 104.875 425.866 105.25 428.615 105.75C431.365 106.25 433.74 106.917 435.74 107.75C437.74 108.583 440.073 109.667 442.74 111C445.406 112.333 447.989 113.958 450.489 115.875C452.989 117.792 455.406 120 457.739 122.5C458.739 123.5 460.03 125.042 461.614 127.125C463.197 129.208 465.613 134.083 468.863 141.75C472.113 149.417 474.321 157.833 475.488 167C476.821 177.667 477.863 189.042 478.613 201.125C479.363 213.208 479.821 222.667 479.988 229.5V273.5C480.154 297.667 478.654 321.833 475.488 346C474.321 355.167 472.238 363.458 469.238 370.875C466.238 378.292 463.572 383.417 461.239 386.25L457.739 390.5C455.406 393 452.989 395.208 450.489 397.125C447.989 399.042 445.406 400.625 442.74 401.875C440.073 403.125 437.74 404.167 435.74 405C433.74 405.833 431.365 406.5 428.615 407C425.866 407.5 423.866 407.875 422.616 408.125C421.366 408.375 419.449 408.625 416.866 408.875C414.283 409.125 412.908 409.25 412.741 409.25C370.91 412.417 318.663 414 256 414C221.502 413.667 191.545 413.125 166.13 412.375C140.715 411.625 124.007 411 116.008 410.5L103.758 409.5L94.759 408.5C88.7593 407.667 84.2179 406.833 81.1348 406C78.0516 405.167 73.8018 403.417 68.3855 400.75C62.9691 398.083 58.261 394.667 54.2613 390.5C53.2613 389.5 51.9697 387.958 50.3865 385.875C48.8032 383.792 46.3867 378.917 43.1369 371.25C39.8871 363.583 37.6788 355.167 36.5122 346C35.179 335.333 34.1374 323.958 33.3874 311.875C32.6375 299.792 32.1792 290.333 32.0125 283.5V239.5C31.8458 215.333 33.3458 191.167 36.5122 167C37.6788 157.833 39.7621 149.542 42.7619 142.125C45.7617 134.708 48.4283 129.583 50.7615 126.75L54.2613 122.5C56.5945 120 59.011 117.792 61.5109 115.875C64.0107 113.958 66.5939 112.333 69.2604 111C71.9269 109.667 74.2601 108.583 76.26 107.75C78.2599 106.917 80.6348 106.25 83.3846 105.75C86.1345 105.25 88.0927 104.875 89.2593 104.625C90.4259 104.375 92.3425 104.125 95.009 103.875C97.6755 103.625 99.0921 103.5 99.2587 103.5C141.09 100.5 193.337 99 256 99Z" fill="black"/>
</svg>
