<svg id="Layer_2" data-name="Layer 2" xmlns="http://www.w3.org/2000/svg" viewBox="0 0 247.52 29.71"><defs><style>.cls-1{fill:#fff}.cls-2{fill:#228096}</style></defs><g id="Layer_1-2" data-name="Layer 1"><path class="cls-1" d="M0 29.71V0h247.52v29.71H0Zm17.26-11.57c-.33.15-.41-.08-.52-.24-1.32-1.92-2.65-3.84-3.97-5.76C10.54 8.9 8.3 5.65 6.08 2.4c-.2-.3-.42-.4-.78-.4-1.24.02-2.47 0-3.71 0q-.49 0-.49.5v24.89c0 .17.09.25.26.25H6.1c.27 0 .31-.06.33-.31V12.06c0-.2-.05-.41.09-.59.31-.04.37.23.48.39 3.57 5.14 7.13 10.28 10.68 15.43.18.26.37.36.68.35 1.24-.01 2.47 0 3.71 0h.25c.17 0 .25-.1.24-.27V2.44c0-.13-.02-.26-.03-.38-.48-.11-4.96-.08-5.29.04v16.03Zm60.68-1.12c.01-.24.02-.4.03-.56v-3.25q0-.58-.6-.58H66.96c-.02-.23-.04-.41-.04-.58V7.03c0-.63 0-.63.64-.63h10.72c.17 0 .35-.02.55-.02V2.04c-.2-.01-.37-.03-.55-.03H62.15c-.63 0-.57 0-.57.59v24.44c0 .59-.09.62.64.62h16.34c.34-.01.37-.04.37-.39v-3.62c0-.1-.03-.21-.05-.35H67.6q-.67 0-.67-.69v-4.94q0-.66.66-.66h10.37ZM58.3 10.89c-.06-.36-.1-.67-.17-.98-.41-2.06-1.33-3.85-2.87-5.31-2.04-1.93-4.54-2.76-7.3-2.92-.99-.06-1.98-.02-2.96.15-2.27.37-4.28 1.28-5.96 2.87-2.44 2.31-3.54 5.23-3.79 8.51-.08.98-.09 1.97-.02 2.96.1 1.46.33 2.89.84 4.26 1.24 3.34 3.46 5.72 6.86 6.92 1.72.6 3.49.78 5.32.64 1.5-.12 2.93-.44 4.28-1.1 3.05-1.51 4.94-3.93 5.67-7.25.04-.18.05-.37.07-.58-.15-.02-.25-.04-.36-.04-1.53-.02-3.05-.03-4.58-.04-.42 0-.42 0-.54.44-.55 1.91-1.78 3.14-3.7 3.67-.92.26-1.86.3-2.82.17-1.57-.21-2.87-.9-3.87-2.13-1.01-1.26-1.49-2.73-1.69-4.31a15.3 15.3 0 0 1-.09-2.95c.09-1.34.34-2.64.92-3.85.77-1.6 1.95-2.78 3.68-3.32 1.03-.32 2.07-.36 3.14-.21 2.3.33 3.94 1.83 4.46 4.09.08.36.08.37.46.37h4.62c.11 0 .21-.01.39-.03Zm-31.86 3.92v12.58c0 .17.09.25.25.26h4.37c.74 0 .71.03.71-.73V2.5c0-.49-.01-.5-.52-.5h-4.29q-.53 0-.53.55V14.8Zm63.75-7.62c-.09.55-.07 14.92.02 15.22.09 0 .18.02.28.02 1.61 0 3.22.01 4.83 0 .55 0 1.1-.04 1.64-.13 2.67-.45 4.52-1.93 5.34-4.53.62-1.96.61-3.95 0-5.91-.65-2.12-2.05-3.56-4.18-4.26-.9-.3-1.82-.39-2.76-.39h-5.17Zm149.23 15.19v-7.53c0-.36-.02-.71-.08-1.06-.22-1.41-.99-2.38-2.38-2.81-.52-.16-1.06-.17-1.59-.12-1.27.13-2.27.69-2.88 1.85-.04.07-.1.14-.16.22-.17-.3-.29-.58-.47-.82s-.39-.47-.63-.64c-.24-.18-.51-.33-.79-.43-.28-.1-.58-.15-.88-.18a3.765 3.765 0 0 0-1.74.21c-.28.11-.55.26-.78.44-.23.18-.44.41-.62.65-.17.23-.29.49-.44.74-.03 0-.06-.02-.09-.03v-1.9c-.88 0-1.7-.01-2.52 0-.09.63-.06 11.09.02 11.39h2.62v-6.67c0-.29.02-.58.07-.86.17-.93.88-1.62 1.8-1.73.97-.12 1.96.39 2.13 1.58.03.18.02.36.02.53V22.35h2.65v-7.29c.09-1.25.92-2.02 2.12-1.99 1.11.03 1.83.72 1.9 1.82.01.19 0 .38 0 .58v6.46c0 .14.01.29.02.44h2.69Zm-104.83 1.66c.14.49.37.86.65 1.2.67.81 1.55 1.25 2.55 1.49 1.11.26 2.24.25 3.36.07.3-.05.59-.13.88-.22 1.95-.62 2.98-1.96 2.99-3.99.02-3.76 0-7.51 0-11.27 0-.1-.02-.21-.04-.33-.89 0-1.75-.02-2.65 0v1.84s-.06.02-.1.03c-.07-.1-.14-.21-.21-.31-.32-.51-.7-.95-1.23-1.25-.98-.57-2.03-.57-3.08-.3-1.53.4-2.49 1.44-3.06 2.87-.31.77-.43 1.59-.46 2.41-.04.99.04 1.98.38 2.92.95 2.61 3.3 3.4 5.48 2.92.86-.19 1.5-.72 1.98-1.45.07-.1.09-.26.28-.27 0 .88.04 1.74-.01 2.6-.05.85-.56 1.4-1.36 1.69-.69.25-1.4.26-2.11.13s-1.27-.5-1.67-1.11c-.05-.08-.11-.15-.17-.24-.8.19-1.58.39-2.39.58Zm42.23-12.71c0-.86-.25-1.61-.73-2.29-.55-.77-1.3-1.29-2.18-1.64-1.18-.46-2.41-.52-3.65-.38-.9.1-1.75.38-2.51.87-1.38.89-2.09 2.13-2.01 3.8.05 1.03.45 1.88 1.26 2.53.74.6 1.59.98 2.5 1.23.74.21 1.49.38 2.23.58.61.17 1.22.34 1.75.69.91.6 1.06 1.74.35 2.56-.27.32-.62.55-1.01.69-1.09.39-2.19.39-3.26-.03-.81-.32-1.32-.92-1.48-1.79-.01-.08-.03-.15-.04-.22-.52-.08-2.39-.06-2.68.02-.05 1.27.59 2.61 1.65 3.43.53.41 1.12.7 1.76.89 1.37.4 2.76.43 4.16.2.91-.15 1.74-.48 2.49-1.02 2.06-1.48 2.36-5.01-.12-6.61-.66-.43-1.37-.75-2.13-.96-.74-.21-1.49-.38-2.23-.57-.57-.15-1.13-.34-1.63-.67-1.06-.69-.91-2-.23-2.63.29-.27.62-.45.99-.56.83-.24 1.66-.25 2.48 0 .83.26 1.41.78 1.6 1.67.01.06.03.13.05.19h2.63Zm-61.49 6.11c.06-1.36 0-2.63-.56-3.84-.64-1.35-1.68-2.2-3.12-2.59-.58-.15-1.16-.2-1.76-.18-2.27.07-4.05 1.34-4.79 3.49-.56 1.63-.56 3.29.02 4.92.58 1.64 1.73 2.71 3.42 3.16 1.25.33 2.5.3 3.74-.06.65-.19 1.25-.5 1.75-.96.61-.55 1.01-1.21 1.21-2.05-.85-.09-1.68-.19-2.49-.28-.73 1.3-2.01 1.77-3.45 1.32-1.21-.38-2-1.61-1.87-2.94h7.9Zm105.67 0c.04-1.02.02-1.97-.24-2.89-.49-1.75-1.55-2.96-3.33-3.49-.63-.19-1.27-.24-1.92-.22-2.23.07-3.98 1.31-4.73 3.4-.61 1.7-.6 3.42.02 5.11.61 1.63 1.8 2.66 3.49 3.08 1.1.27 2.21.26 3.31 0 .9-.21 1.7-.62 2.34-1.31.47-.5.79-1.08.95-1.79-.85-.1-1.68-.19-2.48-.28-.75 1.31-2.07 1.78-3.5 1.31-1.18-.39-1.98-1.65-1.84-2.93H221Zm-41.7 8.93s.06.07.08.08c.05.02.1.04.16.05.64.18 1.29.23 1.96.18 1.53-.11 2.59-.89 3.25-2.25.1-.2.18-.4.25-.61 1.49-4.16 2.99-8.33 4.48-12.5.03-.1.05-.2.08-.31h-2.83c-.44 1.44-.88 2.87-1.32 4.3-.44 1.43-.86 2.87-1.33 4.29h-.11c-.88-2.86-1.75-5.72-2.63-8.58h-2.84c.05.17.09.32.14.46.48 1.34.96 2.68 1.43 4.03.81 2.26 1.61 4.52 2.42 6.77.09.26.12.5 0 .75-.09.18-.15.38-.24.57-.35.71-.86.97-1.65.86-.23-.03-.45-.07-.69-.1-.21.7-.41 1.36-.6 2.01ZM150.35 11h-2.56v11.37h2.68v-4.95c0-.66-.02-1.32.01-1.97.06-1.54 1.25-2.52 2.78-2.3.93.13 1.56.69 1.75 1.61.07.3.09.62.09.94v6.25c0 .15 0 .29.02.46.92 0 1.79.02 2.69-.01v-7.28c0-.34-.02-.69-.08-1.02-.27-1.55-1.08-2.64-2.64-3.1-.52-.15-1.06-.16-1.6-.13-1.31.09-2.3.67-2.92 1.85-.04.08-.1.14-.15.21-.03 0-.05-.01-.08-.02v-1.89Zm-23.65 3c-.33-1.5-1.21-2.45-2.6-2.89-1.19-.37-2.41-.36-3.63-.1-.72.16-1.37.46-1.95.93-1.51 1.23-1.51 4.03.55 5.02.42.2.86.36 1.31.48.74.19 1.51.32 2.25.5.34.08.69.19 1 .37.69.41.75 1.25.12 1.76-.23.18-.52.32-.8.41-.49.16-1.01.15-1.51.07-.77-.13-1.35-.52-1.61-1.3-.02-.06-.05-.12-.09-.21-.86.08-1.71.16-2.54.24-.03.07-.04.08-.04.09 0 .04 0 .08.01.12.31 1.44 1.23 2.32 2.58 2.79.98.34 1.99.4 3.01.31.84-.07 1.65-.28 2.39-.71.58-.34 1.06-.78 1.39-1.37.66-1.19.55-2.93-.78-3.82-.45-.3-.94-.53-1.46-.65-.73-.18-1.48-.32-2.21-.5-.46-.12-.94-.23-1.36-.45-.78-.4-.81-1.34-.09-1.85.32-.23.69-.34 1.08-.38 1.01-.11 2.03.16 2.48 1.31 0 .02.04.04.08.09.77-.08 1.56-.17 2.41-.26Zm73.78 0c-.02-.12-.02-.19-.04-.25-.36-1.34-1.22-2.22-2.53-2.63-1.19-.37-2.41-.37-3.63-.11-.88.19-1.65.58-2.28 1.24-1.08 1.14-1.16 3.63.74 4.64.44.24.93.41 1.42.54.76.2 1.53.32 2.29.51.35.09.72.21 1.02.41.62.38.68 1.17.14 1.65-.24.21-.55.37-.85.47-.5.17-1.03.16-1.55.07-.79-.13-1.36-.55-1.61-1.35-.01-.05-.05-.09-.09-.15-.85.08-1.69.16-2.57.25.03.18.05.31.08.44.36 1.32 1.27 2.12 2.52 2.55 1.02.35 2.07.41 3.14.3a5.64 5.64 0 0 0 2.12-.62c.57-.3 1.05-.7 1.41-1.23 1.04-1.56.54-3.5-1.14-4.32-.4-.2-.84-.34-1.28-.45-.74-.19-1.5-.32-2.25-.5-.36-.09-.72-.2-1.04-.38-.73-.41-.77-1.3-.1-1.8 1.19-.89 2.97-.45 3.59.89.01.02.03.04.09.1.77-.08 1.57-.17 2.38-.26Zm5.98-5.71h-2.71v2.73h-1.59v2.08h1.6v6.17c0 .21 0 .41.01.62.1 1.01.57 1.8 1.49 2.27 1.17.59 2.38.51 3.66.17-.16-.72-.31-1.4-.45-2.06-.45 0-.83.03-1.21 0-.45-.05-.69-.37-.77-.8-.04-.21-.04-.44-.04-.66v-5.27c0-.13.01-.27.02-.46h2.22v-2.06h-2.24V8.3Zm-77.27 2.74c-.09.84-.05 11.08.04 11.38h2.59V11.03h-2.63Zm1.3-1.65c.69 0 1.3-.4 1.51-1 .26-.75-.16-1.56-.95-1.83-.83-.28-1.76.14-2.03.91-.33.94.41 1.91 1.47 1.92Z"/><path class="cls-2" d="M17.26 18.14V2.11c.33-.12 4.81-.14 5.29-.04 0 .12.03.25.03.38v24.93c0 .17-.07.26-.24.27h-3.96c-.31 0-.5-.1-.68-.35-3.55-5.15-7.12-10.29-10.68-15.43-.11-.16-.17-.43-.48-.39-.13.18-.09.39-.09.59v15.27c-.02.26-.06.31-.33.31-.44.01-.88 0-1.32 0H1.38c-.16 0-.26-.08-.26-.25V2.51q0-.5.49-.5c1.24 0 2.47.01 3.71 0 .36 0 .57.1.78.4 2.22 3.25 4.46 6.49 6.69 9.74 1.32 1.92 2.64 3.84 3.97 5.76.11.16.19.39.52.24ZM77.94 17.02H67.57q-.66 0-.66.66v4.94q0 .69.67.69H78.86c.02.14.05.24.05.35v3.62c0 .35-.03.37-.37.39H62.2c-.73 0-.64-.03-.64-.62V2.61c0-.6-.06-.59.57-.59h16.13c.17 0 .35.02.55.03v4.33c-.2 0-.38.02-.55.02H67.54c-.64 0-.64 0-.64.63v5.02c0 .18.02.35.04.58h10.41q.6 0 .6.58v3.25c0 .16-.01.32-.03.56ZM58.3 10.89c-.17.01-.28.03-.39.03h-4.62c-.38 0-.38 0-.46-.37-.51-2.26-2.15-3.75-4.46-4.09-1.06-.15-2.11-.11-3.14.21-1.73.55-2.91 1.72-3.68 3.32-.58 1.22-.83 2.52-.92 3.85-.07.99-.03 1.97.09 2.95.2 1.58.67 3.05 1.69 4.31.99 1.23 2.3 1.92 3.87 2.13.95.13 1.89.08 2.82-.17 1.92-.53 3.15-1.76 3.7-3.67.12-.43.12-.44.54-.44 1.53.01 3.05.03 4.58.04.11 0 .21.02.36.04-.03.21-.03.4-.07.58-.73 3.32-2.62 5.74-5.67 7.25-1.34.66-2.78.99-4.28 1.1-1.82.14-3.6-.03-5.32-.64-3.4-1.2-5.62-3.58-6.86-6.92-.51-1.37-.74-2.8-.84-4.26-.07-.99-.05-1.97.02-2.96.26-3.28 1.35-6.2 3.79-8.51 1.67-1.58 3.69-2.49 5.96-2.87.98-.16 1.97-.2 2.96-.15 2.76.16 5.25 1 7.3 2.92 1.54 1.45 2.45 3.25 2.87 5.31.06.31.1.61.17.98ZM26.44 14.81V2.56q0-.55.53-.55h4.29c.5 0 .51 0 .52.5v24.42c0 .76.03.73-.71.73H26.7c-.17 0-.25-.09-.25-.26V14.82Z"/><path d="M90.19 7.19h5.17c.94 0 1.87.09 2.76.39 2.12.71 3.52 2.14 4.18 4.26.61 1.96.61 3.96 0 5.91-.82 2.6-2.67 4.08-5.34 4.53-.54.09-1.09.13-1.64.13-1.61.02-3.22 0-4.83 0-.09 0-.19-.01-.28-.02-.09-.3-.11-14.67-.02-15.22Zm2.74 12.79c.06.02.1.04.13.04 1.02-.01 2.04.04 3.05-.06 1.74-.17 2.99-1.06 3.53-2.77.5-1.6.49-3.22 0-4.82-.37-1.19-1.14-2.06-2.34-2.47-.42-.15-.88-.26-1.32-.28-.93-.05-1.87-.04-2.8-.05-.08 0-.16.03-.24.04v10.36ZM239.42 22.39h-2.69c0-.15-.02-.29-.02-.44v-7.04c-.07-1.1-.79-1.79-1.9-1.82-1.2-.03-2.03.74-2.12 1.99-.01.15 0 .3 0 .45v6.84h-2.65V15.23c0-.18 0-.36-.02-.53-.17-1.19-1.17-1.7-2.13-1.58-.92.11-1.63.79-1.8 1.73-.05.28-.07.57-.07.86v6.67h-2.62c-.08-.3-.11-10.76-.02-11.39.82-.02 1.65 0 2.52 0v1.9l.09.03c.14-.25.27-.51.44-.74.18-.24.39-.47.62-.65.23-.18.51-.33.78-.44.28-.11.58-.18.88-.21.28-.04.58-.04.86 0 .3.03.6.08.88.18.28.1.55.25.79.43s.45.41.63.64c.18.24.3.52.47.82.06-.08.12-.14.16-.22.61-1.16 1.6-1.73 2.88-1.85.54-.05 1.07-.04 1.59.12 1.39.43 2.16 1.4 2.38 2.81.06.35.08.71.08 1.06v7.53ZM134.6 24.04c.81-.2 1.59-.39 2.39-.58.06.09.12.16.17.24.4.61.96.98 1.67 1.11.71.13 1.42.12 2.11-.13.8-.29 1.31-.84 1.36-1.69.06-.86.01-1.72.01-2.6-.19.01-.21.17-.28.27-.48.73-1.12 1.26-1.98 1.45-2.18.48-4.54-.31-5.48-2.92-.34-.94-.42-1.93-.38-2.92.03-.83.15-1.64.46-2.41.58-1.43 1.53-2.47 3.06-2.87 1.05-.27 2.1-.27 3.08.3.53.3.91.74 1.23 1.25.07.11.14.21.21.31.03-.01.06-.02.1-.03v-1.84c.91-.02 1.76-.01 2.65 0 .02.12.04.23.04.33 0 3.76.01 7.51 0 11.27-.01 2.04-1.04 3.38-2.99 3.99-.29.09-.58.17-.88.22-1.12.18-2.25.19-3.36-.07-1-.23-1.89-.68-2.55-1.49-.28-.34-.51-.71-.65-1.2Zm7.75-7.3c0-.98-.13-1.64-.41-2.23-.56-1.18-1.6-1.68-2.97-1.38-.83.19-1.34.77-1.66 1.53-.39.92-.44 1.89-.29 2.87.07.43.21.85.38 1.25.25.56.68.97 1.26 1.18 1.12.4 2.77.24 3.41-1.54.21-.58.28-1.17.27-1.67ZM176.83 11.34h-2.63c-.02-.06-.04-.12-.05-.19-.19-.88-.77-1.41-1.6-1.67-.82-.26-1.65-.25-2.48 0-.37.11-.71.3-.99.56-.68.63-.83 1.93.23 2.63.5.33 1.06.52 1.63.67.74.19 1.49.37 2.23.57.76.21 1.47.53 2.13.96 2.47 1.6 2.18 5.13.12 6.61-.75.54-1.58.87-2.49 1.02-1.4.23-2.79.2-4.16-.2-.64-.19-1.23-.47-1.76-.89-1.05-.82-1.7-2.17-1.65-3.43.29-.08 2.17-.1 2.68-.02.01.07.03.14.04.22.16.87.67 1.47 1.48 1.79 1.08.42 2.17.42 3.26.03.39-.14.73-.37 1.01-.69.71-.83.56-1.97-.35-2.56-.54-.35-1.14-.53-1.75-.69-.74-.2-1.49-.38-2.23-.58-.91-.25-1.76-.63-2.5-1.23-.81-.65-1.21-1.5-1.26-2.53-.08-1.67.63-2.91 2.01-3.8.76-.49 1.61-.77 2.51-.87 1.24-.14 2.47-.09 3.65.38.88.34 1.62.86 2.18 1.64.48.68.74 1.42.73 2.29ZM115.34 17.45h-7.9c-.13 1.33.67 2.57 1.87 2.94 1.44.45 2.71-.03 3.45-1.32.81.09 1.64.18 2.49.28-.2.84-.6 1.5-1.21 2.05-.51.46-1.1.77-1.75.96-1.24.36-2.49.4-3.74.06-1.69-.45-2.84-1.52-3.42-3.16-.58-1.63-.58-3.28-.02-4.92.74-2.15 2.52-3.43 4.79-3.49.59-.02 1.18.03 1.76.18 1.44.38 2.48 1.24 3.12 2.59.57 1.2.63 2.48.56 3.84Zm-2.56-1.85c-.06-1.06-.43-1.9-1.37-2.37-.97-.49-1.94-.42-2.84.21-.74.51-1.22 1.49-1.1 2.16h5.31ZM221.01 17.44h-7.93c-.15 1.28.66 2.54 1.84 2.93 1.43.47 2.74 0 3.5-1.31.8.09 1.63.18 2.48.28-.16.71-.48 1.29-.95 1.79-.64.68-1.44 1.09-2.34 1.31-1.1.26-2.21.28-3.31 0-1.69-.42-2.88-1.45-3.49-3.08-.63-1.69-.63-3.42-.02-5.11.75-2.09 2.51-3.33 4.73-3.4.65-.02 1.29.03 1.92.22 1.78.53 2.85 1.74 3.33 3.49.26.92.28 1.86.24 2.89Zm-7.93-1.85c.72.08 5.03.05 5.31-.04.08-1.41-1.02-2.57-2.47-2.62-1.53-.05-2.82 1.15-2.84 2.66ZM179.31 26.38c.19-.65.39-1.31.6-2.01.24.04.46.07.69.1.79.11 1.29-.16 1.65-.86.09-.18.15-.38.24-.57.13-.25.1-.49 0-.75-.81-2.26-1.61-4.51-2.42-6.77-.48-1.34-.96-2.68-1.43-4.03-.05-.14-.09-.28-.14-.46h2.84c.88 2.86 1.75 5.72 2.63 8.58h.11c.47-1.42.89-2.86 1.33-4.29.44-1.43.88-2.85 1.32-4.3h2.83c-.03.11-.04.22-.08.31-1.49 4.17-2.98 8.33-4.48 12.5-.07.21-.16.41-.25.61-.66 1.35-1.72 2.14-3.25 2.25-.67.05-1.32 0-1.96-.18a.983.983 0 0 1-.16-.05c-.02-.01-.04-.04-.08-.08ZM150.36 11.01v1.89s.05.01.08.02c.05-.07.11-.14.15-.21.62-1.17 1.61-1.76 2.92-1.85.54-.04 1.07-.02 1.6.13 1.56.45 2.37 1.55 2.64 3.1.06.34.08.68.08 1.02v7.28c-.9.04-1.77.02-2.69.01 0-.17-.02-.31-.02-.46v-6.25c0-.31-.02-.63-.09-.94-.2-.92-.83-1.48-1.75-1.61-1.53-.21-2.72.76-2.78 2.3-.03.66-.01 1.32-.01 1.97v4.95h-2.68V10.99h2.56ZM126.72 14c-.84.09-1.63.18-2.41.26-.04-.05-.07-.06-.08-.09-.45-1.15-1.48-1.42-2.48-1.31-.39.04-.75.15-1.08.38-.72.51-.7 1.45.09 1.85.42.21.9.33 1.36.45.73.19 1.48.32 2.21.5.52.13 1.01.35 1.46.65 1.33.89 1.44 2.63.78 3.82-.33.59-.81 1.03-1.39 1.37-.74.43-1.55.64-2.39.71-1.02.09-2.04.03-3.01-.31-1.35-.47-2.27-1.35-2.58-2.79 0-.04 0-.08-.01-.12 0-.01 0-.03.04-.09.83-.08 1.68-.16 2.54-.24.04.09.07.14.09.21.26.78.83 1.17 1.61 1.3.5.08 1.02.09 1.51-.07.28-.09.57-.23.8-.41.63-.5.57-1.35-.12-1.76-.3-.18-.65-.29-1-.37-.75-.18-1.51-.31-2.25-.5a7.61 7.61 0 0 1-1.31-.48c-2.06-.99-2.06-3.79-.55-5.02.58-.47 1.23-.78 1.95-.93 1.22-.26 2.43-.27 3.63.1 1.4.44 2.27 1.38 2.6 2.89ZM200.5 14c-.81.09-1.61.18-2.38.26-.05-.06-.08-.07-.09-.1-.62-1.34-2.4-1.78-3.59-.89-.67.5-.63 1.4.1 1.8.32.18.68.29 1.04.38.75.18 1.51.31 2.25.5.44.11.87.25 1.28.45 1.68.82 2.18 2.76 1.14 4.32-.36.54-.84.93-1.41 1.23-.66.35-1.38.54-2.12.62-1.06.11-2.12.05-3.14-.3-1.25-.44-2.16-1.23-2.52-2.55-.03-.13-.05-.26-.08-.44.88-.08 1.72-.17 2.57-.25.04.06.08.1.09.15.24.8.81 1.22 1.61 1.35.52.09 1.05.1 1.55-.07.3-.1.61-.26.85-.47.54-.48.48-1.26-.14-1.65a3.76 3.76 0 0 0-1.02-.41c-.76-.19-1.54-.31-2.29-.51-.49-.13-.97-.31-1.42-.54-1.9-1.02-1.82-3.5-.74-4.64.63-.66 1.4-1.05 2.28-1.24 1.22-.26 2.43-.27 3.63.11 1.32.41 2.17 1.29 2.53 2.63.02.06.02.13.04.25ZM206.48 8.29v2.72h2.24v2.06h-2.22c0 .19-.02.32-.02.46v5.27c0 .22 0 .44.04.66.07.43.31.75.77.8.38.04.76 0 1.21 0 .14.66.29 1.34.45 2.06-1.27.34-2.49.42-3.66-.17-.92-.46-1.39-1.25-1.49-2.27-.02-.2-.01-.41-.01-.62v-6.17h-1.6v-2.08h1.59V8.28h2.71ZM129.21 11.03h2.63v11.38h-2.59c-.09-.3-.13-10.54-.04-11.38ZM130.51 9.38c-1.06 0-1.8-.97-1.47-1.92.27-.78 1.21-1.2 2.03-.91.79.27 1.21 1.08.95 1.83-.21.6-.82 1-1.51 1Z"/><path class="cls-1" d="M92.93 19.99V9.63c.08-.02.16-.04.24-.04.93 0 1.87 0 2.8.05.45.02.9.13 1.32.28 1.2.42 1.97 1.28 2.34 2.47.49 1.6.5 3.22 0 4.82-.54 1.7-1.79 2.6-3.53 2.77-1.01.1-2.03.05-3.05.06-.04 0-.08-.02-.13-.04ZM142.34 16.75c.01.5-.06 1.09-.27 1.67-.64 1.78-2.29 1.94-3.41 1.54-.58-.21-1.01-.62-1.26-1.18-.18-.4-.32-.82-.38-1.25-.15-.97-.1-1.94.29-2.87.32-.76.82-1.34 1.66-1.53 1.37-.31 2.42.2 2.97 1.38.28.6.41 1.25.41 2.23ZM112.78 15.6h-5.31c-.12-.68.36-1.65 1.1-2.16.9-.62 1.87-.7 2.84-.21.94.47 1.31 1.31 1.37 2.37ZM213.08 15.59c.02-1.51 1.31-2.71 2.84-2.66 1.45.05 2.55 1.21 2.47 2.62-.28.09-4.59.12-5.31.04Z"/></g></svg>